<?xml version="1.0" encoding="utf-8"?>
<!-- Generator: Adobe Illustrator 21.0.0, SVG Export Plug-In . SVG Version: 6.00 Build 0)  -->
<svg version="1.1" id="Layer_1" xmlns="http://www.w3.org/2000/svg" xmlns:xlink="http://www.w3.org/1999/xlink" x="0px" y="0px"
	 viewBox="0 0 1189.1 1183.9" style="enable-background:new 0 0 1189.1 1183.9;" xml:space="preserve">
<style type="text/css">
	.st0{fill:#1A1A18;}
</style>
<g>
	<path class="st0" d="M387.2,173.4c9.8,0,17.8-8,17.8-17.8s-8-17.8-17.8-17.8s-17.8,8-17.8,17.8S377.4,173.4,387.2,173.4z
		 M387.2,144.9c5.9,0,10.7,4.8,10.7,10.7s-4.8,10.7-10.7,10.7s-10.7-4.8-10.7-10.7S381.3,144.9,387.2,144.9z"/>
	<path class="st0" d="M593.2,155.6c0-22.6-18.4-41-41-41s-41,18.4-41,41s18.4,41,41,41S593.2,178.2,593.2,155.6z M518.2,155.6
		c0-18.7,15.2-34,34-34s34,15.2,34,34s-15.2,34-34,34S518.2,174.3,518.2,155.6z"/>
	<circle class="st0" cx="552.2" cy="155.6" r="30.6"/>
	<path class="st0" d="M775.3,915.9c-28.3,0-51.4,23.1-51.4,51.4s23.1,51.4,51.4,51.4s51.4-23.1,51.4-51.4S803.6,915.9,775.3,915.9z
		 M775.3,1011.6c-24.4,0-44.3-19.9-44.3-44.3s19.9-44.3,44.3-44.3s44.3,19.9,44.3,44.3S799.7,1011.6,775.3,1011.6z"/>
	<path class="st0" d="M944,915.9c-28.3,0-51.4,23.1-51.4,51.4s23.1,51.4,51.4,51.4s51.4-23.1,51.4-51.4S972.4,915.9,944,915.9z
		 M944,1011.6c-24.4,0-44.3-19.9-44.3-44.3s19.9-44.3,44.3-44.3s44.3,19.9,44.3,44.3S968.5,1011.6,944,1011.6z"/>
	<path class="st0" d="M176.5,425.8c4-1,7.5-2.6,10.2-4.6c2.7-2.1,5.1-5,6.9-8.7c1.8-3.8,2.8-7.9,2.8-12.2c0-5.4-1.5-10.2-4.6-14.2
		c-2.6-3.4-6.2-6-10.7-7.7c3.3-2,5.9-4.5,7.7-7.4c2.2-3.5,3.3-7.4,3.3-11.4c0-4.3-1.2-8.5-3.7-12.4c-2.4-4-5.9-6.9-10.2-8.8
		c-4.3-1.9-10-2.8-16.9-2.8h-34.7v91.9h35.3C167.5,427.3,172.5,426.8,176.5,425.8z M179.6,392.1c1.6,2.3,2.4,5,2.4,8.1
		c0,2.7-0.6,5.1-1.6,7.1c-1.1,2.1-2.5,3.6-4.2,4.6c-1.7,1.1-3.9,1.8-6.5,2.3c-1.5,0.3-4.2,0.4-7.9,0.4h-21.3v-28.8h19.7
		c5.6,0,9.9,0.5,12.8,1.5C175.8,388.2,178,389.8,179.6,392.1z M176.1,368.1c-1.4,1.9-3.5,3.3-6.3,4.1c-2.2,0.7-5.9,1-11,1h-18.3
		v-25.1h16.9c6.3,0,10.8,0.4,13.3,1.2c2.4,0.8,4.3,2.2,5.5,4.2c1.3,2.1,2,4.5,2,7.3C178.2,363.8,177.5,366.2,176.1,368.1z"/>
	<path class="st0" d="M213.2,420.6c1.7,2.3,4.3,4.3,7.8,5.9c3.4,1.5,7.2,2.3,11.1,2.3c7.9,0,14.5-3,19.5-9v7.6h12v-67.2h-13.2V396
		c0,5.4-0.6,9.5-1.7,12.3c-1.1,2.7-3,4.8-5.7,6.4c-2.7,1.6-5.6,2.4-8.7,2.4c-3,0-5.6-0.8-7.7-2.3c-2.1-1.5-3.4-3.5-4-6.2
		c-0.3-1.3-0.6-4.4-0.6-11.4v-37.1h-13.2v41.3c0,4.7,0.2,8.2,0.7,10.5C210.3,415.3,211.5,418.2,213.2,420.6z"/>
	<rect x="278.9" y="335.5" class="st0" width="13.2" height="14.7"/>
	<rect x="278.9" y="360.2" class="st0" width="13.2" height="67.2"/>
	<rect x="306.5" y="335.5" class="st0" width="13.2" height="91.9"/>
	<path class="st0" d="M336.5,407.2c0,6.9,0.5,11.3,1.4,13.5c1,2.3,2.7,4.1,5.1,5.5c2.4,1.4,5.6,2,9.8,2c2.5,0,5.3-0.3,8.5-1l1-0.2
		l-1.8-11.8l-1,0.2c-1.9,0.3-3.5,0.4-4.7,0.4c-1.4,0-2.5-0.2-3.2-0.6c-0.7-0.4-1.2-1-1.5-1.7c-0.2-0.4-0.5-1.7-0.5-5.6v-37h11v-10.7
		h-11v-23.5l-13.2,7.9v15.6h-8.1v10.7h8.1V407.2z"/>
	<rect x="365" y="387.2" class="st0" width="36.2" height="13.2"/>
	<rect x="411.2" y="335.5" class="st0" width="13.2" height="14.7"/>
	<rect x="411.2" y="360.2" class="st0" width="13.2" height="67.2"/>
	<path class="st0" d="M489.7,366.9c-1.7-2.4-4.4-4.4-7.8-5.9c-3.4-1.5-7.2-2.2-11.2-2.2c-8.2,0-14.8,2.9-19.6,8.5v-7.1h-12v67.2
		h13.2v-36.6c0-8,1.6-13.4,4.7-16.1c3.2-2.8,7-4.2,11.4-4.2c2.7,0,5.1,0.6,7.1,1.8c2,1.2,3.4,2.8,4.1,4.8c0.8,2.1,1.2,5.3,1.2,9.7
		v40.6h13.2v-41c0-5.1-0.2-8.8-0.6-10.9C492.6,372.1,491.4,369.3,489.7,366.9z"/>
	<path class="st0" d="M606.8,343.4c-3.8-3.2-8.3-5.4-13.6-6.7c-3.8-0.9-9.1-1.3-16.2-1.3h-32v91.9h33.4c5.5,0,10.5-0.5,14.7-1.6
		c4.3-1.1,8-2.6,11-4.7c3-2,5.9-4.8,8.5-8.4c2.6-3.5,4.7-8,6.3-13.4c1.6-5.3,2.4-11.5,2.4-18.4c0-8.1-1.2-15.4-3.6-21.7
		C615.3,352.8,611.6,347.5,606.8,343.4z M606.9,380.7c0,6.6-0.8,12.3-2.3,17c-1.5,4.6-3.6,8.3-6.3,11c-1.9,1.9-4.4,3.4-7.6,4.4
		c-3.2,1.1-7.8,1.6-13.6,1.6H559v-66.6h17.8c6.9,0,12,0.6,15,1.8c4.2,1.6,7.8,4.9,10.7,9.7C605.4,364.5,606.9,371.6,606.9,380.7z"/>
	<rect x="634.1" y="360.2" class="st0" width="13.2" height="67.2"/>
	<rect x="634.1" y="335.5" class="st0" width="13.2" height="14.7"/>
	<path class="st0" d="M734.7,372c1.7,1.1,2.8,2.4,3.5,4.1c0.7,1.8,1,5,1,9.1v42h13.2v-45.7c0-7.7-1.9-13.5-5.5-17.2
		c-3.7-3.8-8.9-5.7-15.7-5.7c-8,0-14.7,3.4-19.9,10.3c-1.4-2.9-3.5-5.3-6.2-7.1c-3.2-2.1-7.4-3.2-12.4-3.2c-4.5,0-8.6,1-12.1,3
		c-2.5,1.4-4.7,3.2-6.5,5.4v-7h-12v67.2h13.2v-34.8c0-5.8,0.6-10.2,1.7-13.2c1.1-3,2.8-5.1,5.3-6.6c2.5-1.5,5.2-2.3,8-2.3
		c3.7,0,6.4,1.1,8,3.2c1.7,2.2,2.5,5.7,2.5,10.4v43.3h13.2v-38.8c0-6.4,1.4-11,4.2-13.9c2.9-2.9,6.3-4.2,10.7-4.2
		C731,370.4,733,371,734.7,372z"/>
	<path class="st0" d="M835.5,358.8c-8,0-14.7,3.4-19.9,10.3c-1.4-2.9-3.5-5.3-6.2-7.1c-3.2-2.1-7.4-3.2-12.4-3.2
		c-4.5,0-8.6,1-12.1,3c-2.5,1.4-4.7,3.2-6.5,5.4v-7h-12v67.2h13.2v-34.8c0-5.8,0.6-10.2,1.7-13.2c1.1-3,2.8-5.1,5.3-6.6
		c2.5-1.5,5.2-2.3,8-2.3c3.7,0,6.4,1.1,8,3.2c1.7,2.2,2.5,5.7,2.5,10.4v43.3h13.2v-38.8c0-6.4,1.4-11,4.2-13.9
		c2.9-2.9,6.3-4.2,10.7-4.2c2.3,0,4.4,0.5,6.1,1.6c1.7,1.1,2.8,2.4,3.5,4.1c0.7,1.8,1,5,1,9.1v42h13.2v-45.7
		c0-7.7-1.9-13.5-5.5-17.2C847.6,360.7,842.3,358.8,835.5,358.8z"/>
	<path class="st0" d="M918.4,423c5-3.8,8.5-9.2,10.3-16l0.3-1.2l-13.5-1.8l-0.3,0.8c-1.6,4.5-3.8,7.7-6.4,9.7c-2.6,2-5.9,3-9.7,3
		c-5.1,0-9.4-1.8-12.8-5.4c-3.2-3.4-5.1-8.3-5.7-14.6H929l0-1c0-1.3,0.1-2.3,0.1-3c0-10.9-2.9-19.6-8.5-25.7
		c-5.7-6.1-13.1-9.2-22-9.2c-9.2,0-16.9,3.2-22.7,9.4c-5.8,6.2-8.7,15-8.7,26.1c0,10.8,2.9,19.3,8.6,25.3c5.7,6,13.6,9.1,23.3,9.1
		C906.9,428.7,913.3,426.8,918.4,423z M915.2,386.5h-33.9c0.5-4.9,2.3-8.8,5.3-11.8c3.3-3.2,7.2-4.8,12-4.8c5.2,0,9.5,2,12.8,6
		C913.4,378.3,914.7,381.9,915.2,386.5z"/>
	<path class="st0" d="M953.6,392.3c0-4.6,0.6-8.8,1.8-12.5c0.7-2.3,2-4.2,3.7-5.5c1.7-1.3,3.6-2,5.8-2c2.5,0,5,0.7,7.5,2.1l1.1,0.6
		l4.7-12.2l-0.8-0.5c-4-2.4-8-3.6-11.9-3.6c-2.8,0-5.4,0.8-7.7,2.4c-1.7,1.2-3.5,3.2-5.4,6.1v-7.1h-12v67.2h13.2V392.3z"/>
	<polygon class="st0" points="791.7,893.1 765.9,893.1 765.9,847 758.8,847 758.8,900.2 791.7,900.2 	"/>
	<path class="st0" d="M902.8,866.3l2.7,4.4c11.3-7.1,20.1-3.3,28.5,2.4l-22.3,19.7l3.4,3.9l23.2-20.5l1.2,0.9
		c13.1,9.7,26,19.3,45.7,0.8l-3.6-3.8c-16.5,15.5-27.7,7.2-39-1.1l-0.3-0.2l21.6-19c1,1.1,2,2.3,3,3.4c1.7-4.6,3.3-9.2,5-13.9
		l-14.4,3.2l3,3.4l-22.4,19.8C928,862.4,917.4,857.2,902.8,866.3z"/>
	<path class="st0" d="M944,925.2c-23.2,0-42.1,18.9-42.1,42.1s18.9,42.1,42.1,42.1c23.2,0,42.1-18.9,42.1-42.1
		S967.2,925.2,944,925.2z M944,1006.5c-21.6,0-39.2-17.6-39.2-39.2S922.4,928,944,928s39.2,17.6,39.2,39.2S965.7,1006.5,944,1006.5z
		"/>
	<path class="st0" d="M775.3,924.7c-23.5,0-42.6,19.1-42.6,42.6s19.1,42.6,42.6,42.6s42.6-19.1,42.6-42.6S798.7,924.7,775.3,924.7z
		 M775.3,1005.6c-21.1,0-38.3-17.2-38.3-38.3c0-21.1,17.2-38.3,38.3-38.3s38.3,17.2,38.3,38.3
		C813.6,988.4,796.4,1005.6,775.3,1005.6z"/>
	<path class="st0" d="M1171.6,183v-54.8h-82.8V63.6c0-22.9-18.7-41.6-41.6-41.6h-990c-22.9,0-41.6,18.7-41.6,41.6v973.5
		c0,22.9,18.7,41.6,41.6,41.6h609.2v63.3c0,6,2.4,11.4,6.4,15.4c3.9,3.9,9.4,6.4,15.4,6.4h339.1c6,0,11.4-2.4,15.4-6.4
		c3.9-3.9,6.4-9.4,6.4-15.4v-63.4c22-1,39.7-19.3,39.7-41.5V257.4h82.8v-54.8h-82.8V183H1171.6z M1037.7,1152.4
		c-2.7,2.7-6.3,4.3-10.4,4.3H688.2c-4,0-7.7-1.7-10.4-4.3c-2.7-2.7-4.3-6.3-4.3-10.4v-63.3H1042v63.3
		C1042,1146.1,1040.3,1149.8,1037.7,1152.4z M1074.6,1037.1c0,15.1-12.3,27.4-27.4,27.4h-990c-15.1,0-27.4-12.3-27.4-27.4V63.6
		c0-15.1,12.3-27.4,27.4-27.4h990c15.1,0,27.4,12.3,27.4,27.4V1037.1z M1164.5,135.3v40.6h-75.7v-40.6H1164.5z M1164.5,209.7v40.6
		h-75.7v-40.6H1164.5z"/>
	<path class="st0" d="M415.6,652.4L277.9,514.7c-3.1-3.1-8.2-3.1-11.3,0L115.4,665.9c-3.1,3.1-3.1,8.2,0,11.3
		c3.1,3.1,8.2,3.1,11.3,0l145.6-145.6L402,661.3v115.8H181.8V660.3c0-4.4-3.6-8-8-8c-4.4,0-8,3.6-8,8v124.8c0,4.4,3.6,8,8,8h236.1
		c4.4,0,8-3.6,8-8l0-127C417.9,656,417.1,653.9,415.6,652.4z"/>
	<rect x="166.2" y="547.8" class="st0" width="15.9" height="32.3"/>
	<circle class="st0" cx="174.1" cy="522.3" r="8.7"/>
	<path class="st0" d="M220.4,626.1c-2.4-2.4-5.7-3.9-9.4-3.9c-3.7,0-7,1.5-9.4,3.9c-2.4,2.4-3.9,5.7-3.9,9.4c0,3.7,1.5,7,3.9,9.4
		c2.4,2.4,5.7,3.9,9.4,3.9c3.7,0,7-1.5,9.4-3.9c0.5-0.5,0.9-1,1.3-1.5l63.8,34.3l-65.7,65.7c-2-1.2-4.3-1.9-6.8-1.9
		c-3.7,0-7,1.5-9.4,3.9c-2.4,2.4-3.9,5.7-3.9,9.4c0,3.7,1.5,7,3.9,9.4c2.4,2.4,5.7,3.9,9.4,3.9c3.7,0,7-1.5,9.4-3.9
		c2.1-2.1,3.5-4.9,3.8-8.1l140.4-26.7c0.6,1.2,1.5,2.4,2.4,3.3c2.4,2.4,5.7,3.9,9.4,3.9c3.7,0,7-1.5,9.4-3.9
		c2.4-2.4,3.9-5.7,3.9-9.4c0-3.7-1.5-7-3.9-9.4c-2.4-2.4-5.7-3.9-9.4-3.9c-1.9,0-3.7,0.4-5.3,1.1l-43.9-56.4c2-2.3,3.2-5.4,3.2-8.7
		c0-3.7-1.5-7-3.9-9.4c-2.4-2.4-5.7-3.9-9.4-3.9c-3.7,0-7,1.5-9.4,3.9c-2.4,2.4-3.9,5.7-3.9,9.4c0,3.1,1.1,6,2.9,8.3l-19.3,19.3
		l-65.5-35.2c0.2-1,0.4-2.1,0.4-3.1C224.3,631.8,222.8,628.5,220.4,626.1z M216.6,641.2c-1.5,1.5-3.5,2.4-5.7,2.4
		c-2.2,0-4.2-0.9-5.7-2.4c-1.5-1.5-2.3-3.5-2.3-5.7c0-2.2,0.9-4.2,2.3-5.7c1.5-1.5,3.5-2.3,5.7-2.3c2.2,0,4.2,0.9,5.7,2.3
		c1.5,1.5,2.3,3.5,2.3,5.7C219,637.7,218.1,639.8,216.6,641.2z M218.6,760.7c-1.5,1.5-3.5,2.3-5.7,2.3c-2.2,0-4.2-0.9-5.7-2.3
		c-1.5-1.5-2.3-3.5-2.3-5.7c0-2.2,0.9-4.2,2.3-5.7c1.5-1.5,3.5-2.4,5.7-2.4c2.2,0,4.2,0.9,5.7,2.4c1.5,1.5,2.4,3.5,2.4,5.7
		C221,757.2,220.1,759.2,218.6,760.7z M372.8,717.9c1.5-1.5,3.5-2.3,5.7-2.3c2.2,0,4.2,0.9,5.7,2.3c1.5,1.5,2.3,3.5,2.3,5.7
		c0,2.2-0.9,4.2-2.3,5.7c-1.5,1.5-3.5,2.3-5.7,2.3c-2.2,0-4.2-0.9-5.7-2.3c-1.5-1.5-2.3-3.5-2.3-5.7
		C370.5,721.3,371.4,719.3,372.8,717.9z M313.5,640.5c1.5-1.5,3.5-2.3,5.7-2.3c2.2,0,4.2,0.9,5.7,2.3c1.5,1.5,2.3,3.5,2.3,5.7
		c0,2.2-0.9,4.2-2.3,5.7c-1.5,1.5-3.5,2.3-5.7,2.3c-2.2,0-4.2-0.9-5.7-2.3c-1.5-1.5-2.3-3.5-2.3-5.7C311.2,644,312,642,313.5,640.5z
		 M312.8,657.9c1.9,1,4,1.6,6.3,1.6c2.1,0,4.1-0.5,5.9-1.4l43.7,56.2c-0.4,0.5-0.8,1-1.2,1.5l-73.3-39.4L312.8,657.9z M290.4,680.4
		l75.1,40.3c-0.2,0.9-0.3,1.8-0.3,2.8c0,0.3,0,0.7,0,1L225.7,751c-0.4-1.4-1.1-2.8-2-4L290.4,680.4z"/>
</g>
</svg>
