<?xml version="1.0" encoding="utf-8"?>
<!-- Generator: Adobe Illustrator 21.0.0, SVG Export Plug-In . SVG Version: 6.00 Build 0)  -->
<svg version="1.1" id="Layer_1" xmlns="http://www.w3.org/2000/svg" xmlns:xlink="http://www.w3.org/1999/xlink" x="0px" y="0px"
	 viewBox="0 0 1178 1165.8" style="enable-background:new 0 0 1178 1165.8;" xml:space="preserve">
<style type="text/css">
	.fillpulse {
		animation: fillpulse 1s infinite;
	}
	
	@keyframes fillpulse {
		0%, 100% {
			fill: #FFFFFF;
		}
		50% {
			fill: #0078CC;
		}
	}
</style>
<g>
	<path class="fillpulse" d="M517,145.5c0-16.9,13.7-30.6,30.6-30.6c16.9,0,30.6,13.7,30.6,30.6c0,16.9-13.7,30.6-30.6,30.6
		C530.7,176.1,517,162.4,517,145.5"/>
</g>
<g>
	<path d="M382.6,163.3c9.8,0,17.8-8,17.8-17.8s-8-17.8-17.8-17.8s-17.8,8-17.8,17.8S372.8,163.3,382.6,163.3z M382.6,134.9
		c5.9,0,10.7,4.8,10.7,10.7s-4.8,10.7-10.7,10.7s-10.7-4.8-10.7-10.7S376.7,134.9,382.6,134.9z"/>
	<path d="M547.6,186.6c22.6,0,41-18.4,41-41s-18.4-41-41-41s-41,18.4-41,41S525,186.6,547.6,186.6z M547.6,111.6
		c18.7,0,34,15.2,34,34s-15.2,34-34,34s-34-15.2-34-34S528.9,111.6,547.6,111.6z"/>
	<path d="M770.7,905.8c-28.3,0-51.4,23.1-51.4,51.4s23.1,51.4,51.4,51.4s51.4-23.1,51.4-51.4S799,905.8,770.7,905.8z M770.7,1001.5
		c-24.4,0-44.3-19.9-44.3-44.3s19.9-44.3,44.3-44.3s44.3,19.9,44.3,44.3S795.1,1001.5,770.7,1001.5z"/>
	<path d="M939.5,905.8c-28.3,0-51.4,23.1-51.4,51.4s23.1,51.4,51.4,51.4s51.4-23.1,51.4-51.4S967.8,905.8,939.5,905.8z
		 M939.5,1001.5c-24.4,0-44.3-19.9-44.3-44.3s19.9-44.3,44.3-44.3s44.3,19.9,44.3,44.3S963.9,1001.5,939.5,1001.5z"/>
	<path d="M999.8,217.8H95.4c-17.8,0-32.3,14.5-32.3,32.3v530.1c0,17.8,14.5,32.3,32.3,32.3h904.4c17.8,0,32.3-14.5,32.3-32.3V250.1
		C1032.1,232.3,1017.6,217.8,999.8,217.8z M1027.9,780.2c0,15.5-12.6,28.1-28.1,28.1H95.4c-15.5,0-28.1-12.6-28.1-28.1V250.1
		c0-15.5,12.6-28.1,28.1-28.1h904.4c15.5,0,28.1,12.6,28.1,28.1V780.2z"/>
	<polygon points="764.9,664 739.2,664 739.2,618 732.1,618 732.1,671.1 764.9,671.1 	"/>
	<polygon points="943.3,664 917.5,664 917.5,618 910.4,618 910.4,671.1 943.3,671.1 	"/>
	<polygon points="946.1,692.7 932.8,692.7 932.8,743.3 919.6,743.3 939.5,783 959.3,743.3 946.1,743.3 	"/>
	<polygon points="742.2,732.4 755.4,732.4 755.4,783 768.7,783 768.7,732.4 781.9,732.4 762.1,692.7 	"/>
	<rect x="770.8" y="651.9" width="3.3" height="19.4"/>
	<rect x="770.8" y="644.5" width="3.3" height="3.7"/>
	<path d="M793.6,653.8c-0.5-0.7-1.2-1.2-2.2-1.6s-2-0.6-3.2-0.6c-2.7,0-4.7,1.1-6.1,3.2v-2.7h-2.9v19.4h3.3v-10.6
		c0-2.5,0.5-4.2,1.5-5c1-0.9,2.2-1.3,3.6-1.3c0.9,0,1.6,0.2,2.3,0.6c0.6,0.4,1.1,0.9,1.4,1.6c0.3,0.7,0.4,1.7,0.4,3v11.8h3.3v-11.9
		c0-1.5-0.1-2.6-0.2-3.2C794.4,655.2,794,654.4,793.6,653.8z"/>
	<path d="M956.2,651.5c-2.4,0-4.4,0.7-6.1,2.1c-2,1.7-3,4.4-3,7.9c0,3.3,0.8,5.8,2.5,7.5c1.7,1.7,3.9,2.6,6.6,2.6
		c1.7,0,3.2-0.4,4.7-1.2c1.4-0.8,2.5-1.9,3.3-3.3c0.7-1.4,1.1-3.4,1.1-5.9c0-3.1-0.8-5.5-2.5-7.2C961,652.4,958.9,651.5,956.2,651.5
		z M960.3,667.1c-1.1,1.2-2.4,1.9-4.1,1.9c-1.6,0-3-0.6-4.1-1.8c-1.1-1.2-1.6-3.1-1.6-5.6c0-2.5,0.5-4.3,1.6-5.5
		c1.1-1.2,2.4-1.8,4.1-1.8c1.6,0,3,0.6,4.1,1.8c1.1,1.2,1.6,3,1.6,5.4C961.9,664,961.4,665.9,960.3,667.1z"/>
	<path d="M981.4,662.2c0,1.6-0.2,2.9-0.5,3.8c-0.4,0.9-1,1.6-1.8,2.1c-0.9,0.5-1.8,0.8-2.8,0.8c-1,0-1.8-0.2-2.5-0.7
		c-0.7-0.5-1.1-1.2-1.3-2c-0.1-0.6-0.2-1.7-0.2-3.5v-10.7H969v12c0,1.4,0.1,2.4,0.2,3.1c0.2,1,0.5,1.8,1,2.4
		c0.5,0.7,1.2,1.2,2.2,1.6c1,0.4,2.1,0.7,3.2,0.7c2.6,0,4.6-1.1,6.1-3.3v2.9h2.9v-19.4h-3.3V662.2z"/>
	<path d="M995.5,668.4c-0.5,0-0.9-0.1-1.1-0.2c-0.3-0.2-0.4-0.4-0.6-0.6c-0.1-0.3-0.2-0.9-0.2-1.8v-11.3h3.3v-2.5h-3.3v-6.8l-3.3,2
		v4.8H988v2.5h2.4v11.1c0,2,0.1,3.3,0.4,3.9c0.3,0.6,0.7,1.1,1.4,1.5c0.7,0.4,1.6,0.6,2.8,0.6c0.7,0,1.5-0.1,2.5-0.3l-0.4-2.9
		C996.4,668.4,995.9,668.4,995.5,668.4z"/>
	<path d="M171.9,415.8c4-1,7.5-2.6,10.2-4.6c2.7-2.1,5.1-5,6.9-8.7c1.8-3.8,2.8-7.9,2.8-12.2c0-5.4-1.5-10.2-4.6-14.2
		c-2.6-3.4-6.2-6-10.7-7.7c3.3-2,5.9-4.5,7.7-7.4c2.2-3.5,3.3-7.4,3.3-11.4c0-4.3-1.2-8.5-3.7-12.4c-2.4-4-5.9-6.9-10.2-8.8
		c-4.3-1.9-10-2.8-16.9-2.8h-34.7v91.9h35.3C163,417.3,167.9,416.8,171.9,415.8z M175,382.1c1.6,2.3,2.4,5,2.4,8.1
		c0,2.7-0.6,5.1-1.6,7.1c-1.1,2.1-2.5,3.6-4.2,4.6c-1.7,1.1-3.9,1.8-6.5,2.3c-1.5,0.3-4.2,0.4-7.9,0.4h-21.3v-28.8h19.7
		c5.6,0,9.9,0.5,12.8,1.5C171.3,378.2,173.4,379.8,175,382.1z M171.6,358c-1.4,1.9-3.5,3.3-6.3,4.1c-2.2,0.7-5.9,1-11,1h-18.3v-25.1
		h16.9c6.3,0,10.8,0.4,13.3,1.2c2.4,0.8,4.3,2.2,5.5,4.2c1.3,2.1,2,4.5,2,7.3C173.6,353.7,172.9,356.1,171.6,358z"/>
	<path d="M208.6,410.5c1.7,2.3,4.3,4.3,7.8,5.9c3.4,1.5,7.2,2.3,11.1,2.3c7.9,0,14.5-3,19.5-9v7.6h12v-67.2H246v35.9
		c0,5.4-0.6,9.5-1.7,12.3c-1.1,2.7-3,4.8-5.7,6.4c-2.7,1.6-5.6,2.4-8.7,2.4c-3,0-5.6-0.8-7.7-2.3c-2.1-1.5-3.4-3.5-4-6.2
		c-0.3-1.3-0.6-4.4-0.6-11.4v-37.1h-13.2v41.3c0,4.7,0.2,8.2,0.7,10.5C205.7,405.3,206.9,408.1,208.6,410.5z"/>
	<rect x="274.3" y="350.1" width="13.2" height="67.2"/>
	<rect x="274.3" y="325.4" width="13.2" height="14.7"/>
	<rect x="301.9" y="325.4" width="13.2" height="91.9"/>
	<path d="M331.9,397.2c0,6.9,0.5,11.3,1.4,13.5c1,2.3,2.7,4.1,5.1,5.5c2.4,1.4,5.6,2,9.8,2c2.5,0,5.3-0.3,8.5-1l1-0.2l-1.8-11.8
		l-1,0.2c-1.9,0.3-3.5,0.4-4.7,0.4c-1.4,0-2.5-0.2-3.2-0.6c-0.7-0.4-1.2-1-1.5-1.7c-0.2-0.4-0.5-1.7-0.5-5.6v-37h11v-10.7h-11v-23.5
		l-13.2,7.9v15.6h-8.1v10.7h8.1V397.2z"/>
	<rect x="360.5" y="377.2" width="36.2" height="13.2"/>
	<rect x="406.6" y="350.1" width="13.2" height="67.2"/>
	<rect x="406.6" y="325.4" width="13.2" height="14.7"/>
	<path d="M485.1,356.8c-1.7-2.4-4.4-4.4-7.8-5.9c-3.4-1.5-7.2-2.2-11.2-2.2c-8.2,0-14.8,2.9-19.6,8.5v-7.1h-12v67.2h13.2v-36.6
		c0-8,1.6-13.4,4.7-16.1c3.2-2.8,7-4.2,11.4-4.2c2.7,0,5.1,0.6,7.1,1.8c2,1.2,3.4,2.8,4.1,4.8c0.8,2.1,1.2,5.3,1.2,9.7v40.6h13.2
		v-41c0-5.1-0.2-8.8-0.6-10.9C488.1,362.1,486.9,359.2,485.1,356.8z"/>
	<path d="M602.2,333.4c-3.8-3.2-8.3-5.4-13.6-6.7c-3.8-0.9-9.1-1.3-16.2-1.3h-32v91.9h33.4c5.5,0,10.5-0.5,14.7-1.6
		c4.3-1.1,8-2.6,11-4.7c3-2,5.9-4.8,8.5-8.4c2.6-3.5,4.7-8,6.3-13.4c1.6-5.3,2.4-11.5,2.4-18.4c0-8.1-1.2-15.4-3.6-21.7
		C610.8,342.8,607.1,337.5,602.2,333.4z M602.3,370.7c0,6.6-0.8,12.3-2.3,17c-1.5,4.6-3.6,8.3-6.3,11c-1.9,1.9-4.4,3.4-7.6,4.4
		c-3.2,1.1-7.8,1.6-13.6,1.6h-18.1v-66.6h17.8c6.9,0,12,0.6,15,1.8c4.2,1.6,7.8,4.9,10.7,9.7C600.8,354.4,602.3,361.5,602.3,370.7z"
		/>
	<rect x="629.6" y="325.4" width="13.2" height="14.7"/>
	<rect x="629.6" y="350.1" width="13.2" height="67.2"/>
	<path d="M734.6,375.3v42h13.2v-45.7c0-7.7-1.9-13.5-5.5-17.2c-3.7-3.8-8.9-5.7-15.7-5.7c-8,0-14.7,3.4-19.9,10.3
		c-1.4-2.9-3.5-5.3-6.2-7.1c-3.2-2.1-7.4-3.2-12.4-3.2c-4.5,0-8.6,1-12.1,3c-2.5,1.4-4.7,3.2-6.5,5.4v-7h-12v67.2h13.2v-34.8
		c0-5.8,0.6-10.2,1.7-13.2c1.1-3,2.8-5.1,5.3-6.6c2.5-1.5,5.2-2.3,8-2.3c3.7,0,6.4,1.1,8,3.2c1.7,2.2,2.5,5.7,2.5,10.4v43.3h13.2
		v-38.8c0-6.4,1.4-11,4.2-13.9c2.9-2.9,6.3-4.2,10.7-4.2c2.3,0,4.4,0.5,6.1,1.6c1.7,1.1,2.8,2.4,3.5,4.1
		C734.3,368,734.6,371.1,734.6,375.3z"/>
	<path d="M831,348.7c-8,0-14.7,3.4-19.9,10.3c-1.4-2.9-3.5-5.3-6.2-7.1c-3.2-2.1-7.4-3.2-12.4-3.2c-4.5,0-8.6,1-12.1,3
		c-2.5,1.4-4.7,3.2-6.5,5.4v-7h-12v67.2H775v-34.8c0-5.8,0.6-10.2,1.7-13.2c1.1-3,2.8-5.1,5.3-6.6c2.5-1.5,5.2-2.3,8-2.3
		c3.7,0,6.4,1.1,8,3.2c1.7,2.2,2.5,5.7,2.5,10.4v43.3h13.2v-38.8c0-6.4,1.4-11,4.2-13.9c2.9-2.9,6.3-4.2,10.7-4.2
		c2.3,0,4.4,0.5,6.1,1.6c1.7,1.1,2.8,2.4,3.5,4.1c0.7,1.8,1,5,1,9.1v42h13.2v-45.7c0-7.7-1.9-13.5-5.5-17.2
		C843,350.6,837.7,348.7,831,348.7z"/>
	<path d="M924.1,396.9l0.3-1.2L911,394l-0.3,0.8c-1.6,4.5-3.8,7.7-6.4,9.7c-2.6,2-5.9,3-9.7,3c-5.1,0-9.4-1.8-12.8-5.4
		c-3.2-3.4-5.1-8.3-5.7-14.6h48.3l0-1c0-1.3,0.1-2.3,0.1-3c0-10.9-2.9-19.6-8.5-25.7c-5.7-6.1-13.1-9.2-22-9.2
		c-9.2,0-16.9,3.2-22.7,9.4c-5.8,6.2-8.7,15-8.7,26.1c0,10.8,2.9,19.3,8.6,25.3c5.7,6,13.6,9.1,23.3,9.1c7.7,0,14.2-1.9,19.2-5.7
		C918.8,409.2,922.3,403.8,924.1,396.9z M910.7,376.4h-33.9c0.5-4.9,2.3-8.8,5.3-11.8c3.3-3.2,7.2-4.8,12-4.8c5.2,0,9.5,2,12.8,6
		C908.8,368.2,910.1,371.8,910.7,376.4z"/>
	<path d="M972.8,352.4c-4-2.4-8-3.6-11.9-3.6c-2.8,0-5.4,0.8-7.7,2.4c-1.7,1.2-3.5,3.2-5.4,6.1v-7.1h-12v67.2H949v-35.1
		c0-4.6,0.6-8.8,1.8-12.5c0.7-2.3,2-4.2,3.7-5.5c1.7-1.3,3.6-2,5.8-2c2.5,0,5,0.7,7.5,2.1l1.1,0.6l4.7-12.2L972.8,352.4z"/>
	<polygon points="754.3,837 754.3,890.2 787.1,890.2 787.1,883.1 761.4,883.1 761.4,837 	"/>
	<path d="M898.3,856.2l2.7,4.4c11.3-7.1,20.1-3.3,28.5,2.4l-22.3,19.7l3.4,3.9l23.2-20.5l1.2,0.9c13.1,9.7,26,19.3,45.7,0.8
		l-3.6-3.8c-16.5,15.5-27.7,7.2-39-1.1l-0.3-0.2l21.6-19c1,1.1,2,2.3,3,3.4c1.7-4.6,3.3-9.2,5-13.9l-14.4,3.2l3,3.4l-22.4,19.8
		C923.5,852.4,912.8,847.1,898.3,856.2z"/>
	<path d="M939.5,915.1c-23.2,0-42.1,18.9-42.1,42.1s18.9,42.1,42.1,42.1c23.2,0,42.1-18.9,42.1-42.1S962.7,915.1,939.5,915.1z
		 M939.5,996.4c-21.6,0-39.2-17.6-39.2-39.2s17.6-39.2,39.2-39.2s39.2,17.6,39.2,39.2S961.1,996.4,939.5,996.4z"/>
	<path d="M770.7,914.6c-23.5,0-42.6,19.1-42.6,42.6s19.1,42.6,42.6,42.6s42.6-19.1,42.6-42.6S794.2,914.6,770.7,914.6z M770.7,995.5
		c-21.1,0-38.3-17.2-38.3-38.3c0-21.1,17.2-38.3,38.3-38.3s38.3,17.2,38.3,38.3C809,978.3,791.8,995.5,770.7,995.5z"/>
	<path d="M1167,172.9v-54.8h-82.8V53.6c0-22.9-18.7-41.6-41.6-41.6h-990C29.7,12,11,30.7,11,53.6v973.5c0,22.9,18.7,41.6,41.6,41.6
		h609.2v63.3c0,6,2.4,11.4,6.4,15.4c3.9,3.9,9.4,6.4,15.4,6.4h339.1c6,0,11.4-2.4,15.4-6.4c3.9-3.9,6.4-9.4,6.4-15.4v-63.4
		c22-1,39.7-19.3,39.7-41.5V247.3h82.8v-54.8h-82.8v-19.6H1167z M1033.1,1142.4c-2.7,2.7-6.3,4.3-10.4,4.3H683.6
		c-4,0-7.7-1.7-10.4-4.3c-2.7-2.7-4.3-6.3-4.3-10.4v-63.3h368.5v63.3C1037.4,1136,1035.8,1139.7,1033.1,1142.4z M1070,1027.1
		c0,15.1-12.3,27.4-27.4,27.4h-990c-15.1,0-27.4-12.3-27.4-27.4V53.6c0-15.1,12.3-27.4,27.4-27.4h990c15.1,0,27.4,12.3,27.4,27.4
		V1027.1z M1159.9,125.2v40.6h-75.7v-40.6H1159.9z M1159.9,199.6v40.6h-75.7v-40.6H1159.9z"/>
	<path d="M411,642.3L273.3,504.6c-3.1-3.1-8.2-3.1-11.3,0L110.8,655.8c-3.1,3.1-3.1,8.2,0,11.3c3.1,3.1,8.2,3.1,11.3,0l145.6-145.6
		l129.7,129.7V767H177.3V650.2c0-4.4-3.6-8-8-8c-4.4,0-8,3.6-8,8V775c0,4.4,3.6,8,8,8h236.1c4.4,0,8-3.6,8-8l0-127
		C413.4,645.9,412.6,643.9,411,642.3z"/>
	<rect x="161.6" y="537.8" width="15.9" height="32.3"/>
	<circle cx="169.6" cy="512.2" r="8.7"/>
	<path d="M215.8,616c-2.4-2.4-5.7-3.9-9.4-3.9c-3.7,0-7,1.5-9.4,3.9c-2.4,2.4-3.9,5.7-3.9,9.4c0,3.7,1.5,7,3.9,9.4
		c2.4,2.4,5.7,3.9,9.4,3.9c3.7,0,7-1.5,9.4-3.9c0.5-0.5,0.9-1,1.3-1.5l63.8,34.3l-65.7,65.7c-2-1.2-4.3-1.9-6.8-1.9
		c-3.7,0-7,1.5-9.4,3.9c-2.4,2.4-3.9,5.7-3.9,9.4c0,3.7,1.5,7,3.9,9.4c2.4,2.4,5.7,3.9,9.4,3.9c3.7,0,7-1.5,9.4-3.9
		c2.1-2.1,3.5-4.9,3.8-8.1l140.4-26.7c0.6,1.2,1.5,2.4,2.4,3.3c2.4,2.4,5.7,3.9,9.4,3.9c3.7,0,7-1.5,9.4-3.9
		c2.4-2.4,3.9-5.7,3.9-9.4c0-3.7-1.5-7-3.9-9.4c-2.4-2.4-5.7-3.9-9.4-3.9c-1.9,0-3.7,0.4-5.3,1.1l-43.9-56.4c2-2.3,3.2-5.4,3.2-8.7
		c0-3.7-1.5-7-3.9-9.4c-2.4-2.4-5.7-3.9-9.4-3.9c-3.7,0-7,1.5-9.4,3.9c-2.4,2.4-3.9,5.7-3.9,9.4c0,3.1,1.1,6,2.9,8.3l-19.3,19.3
		l-65.5-35.2c0.2-1,0.4-2.1,0.4-3.1C219.7,621.8,218.2,618.5,215.8,616z M212,631.1c-1.5,1.5-3.5,2.4-5.7,2.4
		c-2.2,0-4.2-0.9-5.7-2.4c-1.5-1.5-2.3-3.5-2.3-5.7c0-2.2,0.9-4.2,2.3-5.7c1.5-1.5,3.5-2.3,5.7-2.3c2.2,0,4.2,0.9,5.7,2.3
		c1.5,1.5,2.3,3.5,2.3,5.7C214.4,627.7,213.5,629.7,212,631.1z M214,750.6c-1.5,1.5-3.5,2.3-5.7,2.3c-2.2,0-4.2-0.9-5.7-2.3
		c-1.5-1.5-2.3-3.5-2.3-5.7c0-2.2,0.9-4.2,2.3-5.7c1.5-1.5,3.5-2.4,5.7-2.4c2.2,0,4.2,0.9,5.7,2.4c1.5,1.5,2.4,3.5,2.4,5.7
		C216.4,747.1,215.5,749.1,214,750.6z M368.3,707.8c1.5-1.5,3.5-2.3,5.7-2.3c2.2,0,4.2,0.9,5.7,2.3c1.5,1.5,2.3,3.5,2.3,5.7
		c0,2.2-0.9,4.2-2.3,5.7c-1.5,1.5-3.5,2.3-5.7,2.3c-2.2,0-4.2-0.9-5.7-2.3c-1.5-1.5-2.3-3.5-2.3-5.7
		C365.9,711.3,366.8,709.3,368.3,707.8z M308.9,630.5c1.5-1.5,3.5-2.3,5.7-2.3c2.2,0,4.2,0.9,5.7,2.3c1.5,1.5,2.3,3.5,2.3,5.7
		c0,2.2-0.9,4.2-2.3,5.7c-1.5,1.5-3.5,2.3-5.7,2.3c-2.2,0-4.2-0.9-5.7-2.3c-1.5-1.5-2.3-3.5-2.3-5.7
		C306.6,633.9,307.5,631.9,308.9,630.5z M308.3,647.9c1.9,1,4,1.6,6.3,1.6c2.1,0,4.1-0.5,5.9-1.4l43.7,56.2c-0.4,0.5-0.8,1-1.2,1.5
		l-73.3-39.4L308.3,647.9z M285.8,670.3l75.1,40.3c-0.2,0.9-0.3,1.8-0.3,2.8c0,0.3,0,0.7,0,1L221.1,741c-0.4-1.4-1.1-2.8-2-4
		L285.8,670.3z"/>
	<path d="M419.5,247.3c-0.8-1.3-1.7-2.2-2.9-2.7c-1.1-0.5-2.9-0.8-5.2-0.8h-13.3l-6.7,31.8h4.2l2.7-12.9h8c2.1,0,4.1-0.2,6.2-0.7
		c1-0.2,1.8-0.5,2.7-1c0.8-0.5,1.7-1.1,2.5-2c0.8-0.9,1.5-2,2-3.4c0.5-1.4,0.8-2.7,0.8-4C420.6,250,420.2,248.6,419.5,247.3z
		 M415.3,255.5c-0.8,1.2-1.8,2.1-3.1,2.7c-1.3,0.6-3.3,0.9-6,0.9h-7l2.5-11.8h8.2c2.1,0,3.5,0.2,4.3,0.5c0.7,0.3,1.3,0.8,1.7,1.5
		c0.4,0.7,0.6,1.5,0.6,2.5C416.5,253,416.1,254.3,415.3,255.5z"/>
	<polygon points="420.4,275.6 424.3,275.6 431,243.8 427.1,243.8 	"/>
	<path d="M446.3,271.4l-0.9,4.2h3.6l5.1-23h-3.9l-2.2,10c-0.4,2-0.8,3.4-1.1,4.2c-0.5,1.2-1.1,2.3-1.9,3.2c-0.8,0.9-1.7,1.6-2.8,2.2
		c-1.1,0.5-2.2,0.8-3.3,0.8c-1,0-1.8-0.2-2.4-0.7c-0.5-0.4-0.8-1.1-0.8-1.8c0-0.7,0.1-1.7,0.4-2.9l3.4-14.9h-3.9l-3,13.3
		c-0.5,2.4-0.8,4-0.8,5c0,1.5,0.5,2.7,1.6,3.7c1.1,1,2.5,1.5,4.3,1.5C440.7,276.1,443.5,274.5,446.3,271.4z"/>
	<path d="M458.9,284.1c1.3,0.5,2.9,0.7,4.8,0.7c1.9,0,3.6-0.4,5.1-1.1c1.5-0.7,2.6-1.8,3.4-3.2c0.8-1.4,1.5-3.3,2-5.7l4.7-22.2h-3.6
		l-0.8,3.7c-1.6-2.8-4-4.2-7-4.2c-1.8,0-3.6,0.6-5.3,1.7c-1.7,1.1-3.2,2.7-4.4,4.9c-1.2,2.2-1.8,4.5-1.8,7.1c0,3.1,0.8,5.6,2.4,7.3
		c1.6,1.7,3.5,2.6,5.8,2.6c2.3,0,4.5-1,6.5-3.1l-0.4,1.9c-0.6,2.8-1.2,4.6-1.9,5.4c-1,1.2-2.7,1.8-5.1,1.8c-1.1,0-2-0.2-2.7-0.5
		c-0.5-0.2-0.9-0.6-1.2-1c-0.2-0.5-0.4-1.1-0.3-2l-4-0.4c-0.1,0.4-0.1,0.8-0.1,1.2c0,1.2,0.3,2.2,1,3.2
		C456.6,282.9,457.6,283.6,458.9,284.1z M468.8,271c-1.3,0.9-2.6,1.4-3.8,1.4c-1,0-1.9-0.3-2.7-0.9c-0.8-0.6-1.4-1.4-1.9-2.5
		c-0.3-0.8-0.5-2-0.5-3.6c0-0.8,0.2-1.9,0.6-3.3c0.4-1.5,1-2.7,1.8-3.8c0.8-1.1,1.6-1.8,2.5-2.3c0.9-0.5,1.8-0.8,2.8-0.8
		c1.5,0,2.8,0.6,3.9,1.7c1.1,1.1,1.6,2.6,1.6,4.5c0,1.7-0.4,3.5-1.2,5.4C471.1,268.7,470.1,270.1,468.8,271z"/>
	<polygon points="498.9,243.8 498,248.2 501.9,248.2 502.8,243.8 	"/>
	<polygon points="492.2,275.6 496.1,275.6 501,252.5 497.1,252.5 	"/>
	<path d="M518.3,252c-1.4,0-2.8,0.4-4.2,1.1c-1.4,0.7-2.8,1.9-4.4,3.4l0.8-4H507l-4.8,23h3.9l2.2-10.7c0.7-3.5,1.9-6,3.5-7.4
		c1.6-1.4,3.4-2.2,5.5-2.2c1,0,1.8,0.2,2.3,0.7c0.5,0.5,0.8,1.1,0.8,1.9c0,0.7-0.2,1.7-0.5,3.1l-3.2,14.6h3.9l3.1-13.9
		c0.4-1.8,0.6-3.2,0.6-4c0-1.7-0.5-3.1-1.6-4.1C521.6,252.6,520.2,252,518.3,252z"/>
	<path d="M537.5,244.2l-4.5,2.7l-1.2,5.6h-3.1l-0.6,3h3.1l-2.8,13.4c-0.4,1.8-0.6,3-0.6,3.5c0,1,0.3,1.8,1,2.4
		c0.9,0.8,2.2,1.2,3.7,1.2c0.9,0,1.8-0.1,2.7-0.4l0.7-3.2c-0.7,0.2-1.5,0.3-2.3,0.3c-0.6,0-1-0.1-1.3-0.4c-0.3-0.2-0.4-0.6-0.4-1.1
		c0-0.3,0.2-1.3,0.5-2.9l2.7-12.7h3.8l0.7-3h-3.9L537.5,244.2z"/>
	<path d="M544.4,274.9c1.5,0.8,3.1,1.1,4.9,1.1c2.2,0,4.3-0.6,6.2-1.8c2-1.2,3.5-3,4.6-5.2c1.1-2.3,1.6-4.7,1.6-7.4
		c0-2.9-0.9-5.3-2.5-7c-1.7-1.7-3.9-2.6-6.7-2.6c-3.5,0-6.4,1.2-8.6,3.6c-2.6,2.9-4,6.7-4,11.1c0,1.8,0.4,3.4,1.2,4.8
		C541.8,273.1,542.9,274.2,544.4,274.9z M544.4,262.4c0.4-1.5,1-2.8,1.8-3.9c0.8-1.1,1.7-2,2.8-2.6c1-0.6,2.1-0.9,3.4-0.9
		c1.6,0,2.9,0.6,4,1.7c1.1,1.1,1.6,2.8,1.6,4.8c0,1.3-0.2,2.7-0.7,4.1c-0.3,1-0.7,2-1.2,2.9c-0.5,0.9-1.1,1.7-1.8,2.4
		c-0.7,0.7-1.5,1.2-2.3,1.5c-0.8,0.3-1.7,0.5-2.5,0.5c-1.6,0-2.9-0.6-4-1.7c-1-1.1-1.6-2.8-1.6-4.9
		C543.8,265.3,544,263.9,544.4,262.4z"/>
	<path d="M581.2,283.7c1.1-0.8,2.4-2.5,3.8-5.1l14.7-26.1h-4.1L585.3,271c-0.2-2.3-0.5-4.6-0.9-6.9l-1.7-11.6h-3.9l3.8,23.1
		l-1.3,2.2c-0.8,1.3-1.5,2.2-2.1,2.7c-0.5,0.4-1.1,0.5-1.9,0.5c-0.8,0-1.6-0.1-2.4-0.3l-0.2,3.7c0.9,0.3,1.8,0.5,2.7,0.5
		C578.8,284.9,580.1,284.5,581.2,283.7z"/>
	<path d="M611.7,252c-3.5,0-6.4,1.2-8.6,3.6c-2.6,2.9-4,6.7-4,11.1c0,1.8,0.4,3.4,1.2,4.8c0.8,1.4,1.9,2.5,3.4,3.2
		c1.5,0.8,3.1,1.1,4.9,1.1c2.2,0,4.3-0.6,6.2-1.8c2-1.2,3.5-3,4.6-5.2c1.1-2.3,1.6-4.7,1.6-7.4c0-2.9-0.9-5.3-2.5-7
		C616.7,252.9,614.4,252,611.7,252z M616.4,265.7c-0.3,1-0.7,2-1.2,2.9c-0.5,0.9-1.1,1.7-1.8,2.4c-0.7,0.7-1.5,1.2-2.3,1.5
		c-0.8,0.3-1.7,0.5-2.5,0.5c-1.6,0-2.9-0.6-4-1.7c-1-1.1-1.6-2.8-1.6-4.9c0-1.2,0.2-2.5,0.6-4c0.4-1.5,1-2.8,1.8-3.9
		c0.8-1.1,1.7-2,2.8-2.6c1-0.6,2.1-0.9,3.4-0.9c1.6,0,2.9,0.6,4,1.7c1.1,1.1,1.6,2.8,1.6,4.8C617.1,262.9,616.9,264.3,616.4,265.7z"
		/>
	<path d="M640.6,262.6c-0.4,2-0.8,3.4-1.1,4.2c-0.5,1.2-1.1,2.3-1.9,3.2c-0.8,0.9-1.7,1.6-2.8,2.2c-1.1,0.5-2.2,0.8-3.3,0.8
		c-1,0-1.8-0.2-2.4-0.7c-0.5-0.4-0.8-1.1-0.8-1.8c0-0.7,0.1-1.7,0.4-2.9l3.4-14.9h-3.9l-3,13.3c-0.5,2.4-0.8,4-0.8,5
		c0,1.5,0.5,2.7,1.6,3.7c1.1,1,2.5,1.5,4.3,1.5c2.9,0,5.7-1.6,8.5-4.7l-0.9,4.2h3.6l5.1-23h-3.9L640.6,262.6z"/>
	<path d="M663.4,256.5l1.6-3.6c-1.1-0.6-2.1-0.8-2.9-0.8c-1.2,0-2.3,0.4-3.5,1.3c-1.1,0.9-2.3,2.2-3.5,3.9l1-4.7h-3.5l-4.8,23h3.7
		l1.9-9.2c0.8-4,2-6.7,3.4-8.3c1.5-1.5,2.9-2.3,4.2-2.3C662,255.8,662.7,256,663.4,256.5z"/>
	<path d="M685.3,275.6l11-20.7c0.6-1.1,1.3-2.7,2.2-4.7c0.1,2.4,0.2,4.5,0.3,6.1l1,19.3h4.6l16.2-31.8h-4.3l-9,17.9
		c-0.5,1-1.3,2.7-2.4,5c-0.7,1.5-1.1,2.6-1.4,3.3c-0.1-3-0.2-5.6-0.3-7.7l-1-18.6h-4.4l-9.7,18.3c-0.8,1.5-2,4-3.8,7.7
		c0-1.2,0-1.9,0-2.2c0-0.4,0-1-0.1-1.9c-0.1-3.3-0.2-5.4-0.2-6.1l-0.7-15.7H679l2,31.8H685.3z"/>
	<path d="M722.7,259.5c0.5-1.3,1.2-2.4,2.3-3.1c1.1-0.7,2.4-1.1,4.1-1.1c1.8,0,3.1,0.4,4,1.1c0.7,0.5,1,1.2,1,2.1
		c0,0.7-0.2,1.6-0.5,2.7c-1.1,0.4-2.8,0.7-5.3,0.8c-2.5,0.1-4.2,0.2-5,0.4c-1.4,0.3-2.6,0.7-3.6,1.3c-1,0.6-1.7,1.4-2.3,2.4
		c-0.6,1-0.9,2.1-0.9,3.4c0,1.9,0.7,3.5,2,4.8c1.3,1.3,3,1.9,5.1,1.9c1.4,0,2.8-0.3,4-0.8c1.3-0.5,2.6-1.4,3.9-2.6
		c0.1,1.2,0.2,2.1,0.5,2.9h4c-0.3-1.4-0.5-2.4-0.5-3.1c0-1.1,0.2-2.6,0.6-4.4l1.3-5.7c0.4-1.6,0.5-3,0.5-4.3c0-1.6-0.6-2.9-1.9-3.9
		c-1.7-1.4-3.9-2-6.8-2c-2.7,0-4.9,0.6-6.6,1.8s-3,3-3.8,5.2L722.7,259.5z M731.4,269.1c-0.7,1.2-1.7,2.2-2.8,2.9
		c-1.2,0.7-2.4,1-3.8,1c-1.4,0-2.5-0.4-3.2-1.1c-0.8-0.7-1.1-1.6-1.1-2.7c0-0.8,0.2-1.6,0.7-2.2c0.5-0.7,1.2-1.2,2.1-1.5
		s2.5-0.6,4.8-0.8c1.5-0.1,2.5-0.3,3.2-0.4c0.6-0.1,1.2-0.3,1.8-0.5C732.6,266.2,732.1,267.9,731.4,269.1z"/>
	<polygon points="751,243.8 747.1,243.8 740.5,275.6 744.4,275.6 	"/>
	<polygon points="754.2,275.6 760.9,243.8 757,243.8 750.3,275.6 	"/>
	<path d="M774.4,265.3c0,4.1,1.2,6.9,3.4,8.4c2.3,1.6,5.2,2.3,8.8,2.3c2.4,0,4.5-0.4,6.3-1.2c1.8-0.8,3.3-1.9,4.3-3.4
		c1-1.5,1.6-3,1.6-4.8c0-1.4-0.3-2.6-0.9-3.7c-0.6-1.1-1.5-2-2.7-2.8c-0.9-0.6-2.4-1.4-4.7-2.4c-2.8-1.2-4.6-2.1-5.3-2.5
		c-1.1-0.6-1.8-1.2-2.2-1.8c-0.4-0.6-0.6-1.3-0.6-2.1c0-1.3,0.5-2.4,1.5-3.2c1.3-1,3.1-1.6,5.4-1.6c1.3,0,2.5,0.2,3.6,0.6
		c1.1,0.4,1.9,0.9,2.5,1.5c0.6,0.6,1.1,1.4,1.3,2.2c0.2,0.5,0.2,1.2,0.2,2.1l4.1-0.3c0-0.3,0-0.5,0-0.7c0-1.3-0.4-2.7-1.2-4.1
		c-0.8-1.4-2.1-2.6-3.9-3.5c-1.8-0.9-4-1.3-6.5-1.3c-2.2,0-4.1,0.3-5.8,1c-1.7,0.7-3,1.7-3.9,3c-0.9,1.3-1.3,2.8-1.3,4.4
		c0,1.4,0.3,2.7,1,3.8c0.7,1.1,1.7,2.1,3.2,3.1c0.9,0.6,2.6,1.4,5.1,2.5c3.2,1.4,5.2,2.5,5.9,3.3c0.7,0.8,1.1,1.7,1.1,2.7
		c0,1.4-0.7,2.7-2,3.8c-1.3,1.1-3.3,1.7-5.8,1.7c-1.8,0-3.3-0.3-4.6-0.8c-1.3-0.6-2.2-1.3-2.8-2.4c-0.6-1-0.8-2.1-0.8-3.4l0-1.1
		L774.4,265.3z"/>
	<path d="M810.9,275.6l6.1-13.4c0.8-1.8,1.5-3.5,2.1-5c0,2.4,0.1,4.1,0.2,4.9l0.8,13.5h4.1l11.3-23h-4l-4.9,10.5
		c-1.6,3.4-2.8,6.1-3.5,8c0-2.9-0.1-5.2-0.2-7l-0.7-11.5h-4.3l-5.5,12c-0.7,1.5-1.1,2.6-1.4,3.4c-0.3,0.8-0.7,1.9-1.1,3.4
		c-0.1-1.3-0.1-2.2-0.2-2.6l-0.4-5.8l-1-10.4h-3.8l2.4,23H810.9z"/>
	<polygon points="838.3,275.6 843.1,252.5 839.2,252.5 834.4,275.6 	"/>
	<polygon points="845,243.8 841.1,243.8 840.1,248.2 844,248.2 	"/>
	<path d="M855,244.2l-4.5,2.7l-1.2,5.6h-3.1l-0.6,3h3.1l-2.8,13.4c-0.4,1.8-0.6,3-0.6,3.5c0,1,0.3,1.8,1,2.4
		c0.9,0.8,2.2,1.2,3.7,1.2c0.9,0,1.8-0.1,2.7-0.4l0.7-3.2c-0.7,0.2-1.5,0.3-2.3,0.3c-0.6,0-1-0.1-1.3-0.4c-0.3-0.2-0.4-0.6-0.4-1.1
		c0-0.3,0.2-1.3,0.5-2.9l2.7-12.7h3.8l0.7-3h-3.9L855,244.2z"/>
	<path d="M872.3,274c1.8-1.4,3.2-3.5,4.2-6.4l-4-0.4c-0.7,2-1.6,3.4-2.7,4.4c-1.2,1-2.4,1.5-3.7,1.5c-1.3,0-2.3-0.5-3.2-1.5
		c-0.9-1-1.3-2.4-1.3-4.4c0-1.9,0.3-3.8,1-5.9c0.7-2,1.6-3.5,2.7-4.5c1.2-1,2.5-1.5,4.1-1.5c1.4,0,2.5,0.4,3.3,1.2
		c0.8,0.8,1.3,2,1.3,3.4l3.9-0.3c0-2.3-0.7-4.1-2.2-5.5c-1.5-1.4-3.4-2.1-5.9-2.1c-2.4,0-4.5,0.6-6.4,1.9c-1.9,1.3-3.3,3.1-4.3,5.5
		c-1,2.4-1.5,4.9-1.5,7.4c0,2.9,0.8,5.2,2.3,6.8c1.6,1.6,3.6,2.4,6.1,2.4C868.4,276.1,870.5,275.4,872.3,274z"/>
	<path d="M884.9,265.7c0.6-2.9,1.3-5,2-6.2c0.7-1.3,1.7-2.3,3-3c1.3-0.7,2.6-1.1,4-1.1c1,0,1.7,0.2,2.2,0.7c0.5,0.5,0.8,1.1,0.8,1.8
		c0,0.5-0.2,1.8-0.7,3.8l-3.1,13.9h3.9l3-13.6c0.5-2.2,0.7-3.7,0.7-4.5c0-1.7-0.5-3-1.6-4c-1-1-2.5-1.5-4.4-1.5
		c-1.3,0-2.6,0.3-3.8,0.9c-1.2,0.6-2.6,1.6-4,3l2.6-12.2h-3.9l-6.7,31.8h3.9L884.9,265.7z"/>
	<polygon points="918.6,279.4 943.5,254.5 950,261 959.8,231.7 930.5,241.5 937,248 912,272.9 	"/>
</g>
</svg>
