<?xml version="1.0" encoding="utf-8"?>
<!-- Generator: Adobe Illustrator 21.0.0, SVG Export Plug-In . SVG Version: 6.00 Build 0)  -->
<svg version="1.1" id="Layer_1" xmlns="http://www.w3.org/2000/svg" xmlns:xlink="http://www.w3.org/1999/xlink" x="0px" y="0px"
	 viewBox="0 0 1188 1172.2" style="enable-background:new 0 0 1188 1172.2;" xml:space="preserve">
<style type="text/css">
	.st0{fill:#1A1A18;}
</style>
<g>
	<path class="st0" d="M404.4,149.8c0-9.8-8-17.8-17.8-17.8s-17.8,8-17.8,17.8s8,17.8,17.8,17.8S404.4,159.5,404.4,149.8z
		 M386.6,160.4c-5.9,0-10.7-4.8-10.7-10.7s4.8-10.7,10.7-10.7s10.7,4.8,10.7,10.7S392.5,160.4,386.6,160.4z"/>
	<path class="st0" d="M551.6,190.8c22.6,0,41-18.4,41-41s-18.4-41-41-41s-41,18.4-41,41S529,190.8,551.6,190.8z M551.6,115.8
		c18.7,0,34,15.2,34,34s-15.2,34-34,34s-34-15.2-34-34S532.9,115.8,551.6,115.8z"/>
	<circle class="st0" cx="551.6" cy="149.8" r="30.6"/>
	<path class="st0" d="M774.7,910c-28.3,0-51.4,23.1-51.4,51.4s23.1,51.4,51.4,51.4s51.4-23.1,51.4-51.4S803,910,774.7,910z
		 M774.7,1005.7c-24.4,0-44.3-19.9-44.3-44.3s19.9-44.3,44.3-44.3S819,937,819,961.4S799.1,1005.7,774.7,1005.7z"/>
	<path class="st0" d="M943.5,910c-28.3,0-51.4,23.1-51.4,51.4s23.1,51.4,51.4,51.4s51.4-23.1,51.4-51.4S971.8,910,943.5,910z
		 M943.5,1005.7c-24.4,0-44.3-19.9-44.3-44.3s19.9-44.3,44.3-44.3s44.3,19.9,44.3,44.3S967.9,1005.7,943.5,1005.7z"/>
	<polygon class="st0" points="182.8,368.1 138.5,368.1 138.5,331.1 124.5,331.1 124.5,423 138.5,423 138.5,380.8 182.8,380.8 
		182.8,423 196.8,423 196.8,331.1 182.8,331.1 	"/>
	<path class="st0" d="M240.9,354.4c-9.2,0-16.9,3.2-22.7,9.4c-5.8,6.2-8.7,15-8.7,26.1c0,10.8,2.9,19.3,8.6,25.3
		c5.7,6,13.6,9.1,23.3,9.1c7.7,0,14.2-1.9,19.2-5.7c5-3.8,8.5-9.2,10.3-16l0.3-1.2l-13.5-1.8l-0.3,0.8c-1.6,4.5-3.8,7.7-6.4,9.7
		c-2.6,2-5.9,3-9.7,3c-5.1,0-9.4-1.8-12.8-5.4c-3.2-3.4-5.1-8.3-5.7-14.6h48.3l0-1c0-1.3,0.1-2.3,0.1-3c0-10.9-2.9-19.6-8.5-25.7
		C257.2,357.5,249.8,354.4,240.9,354.4z M223.6,382.1c0.5-4.9,2.3-8.8,5.3-11.8c3.3-3.2,7.2-4.8,12-4.8c5.2,0,9.5,2,12.8,6
		c2,2.4,3.3,5.9,3.8,10.6H223.6z"/>
	<path class="st0" d="M338.4,413.9c-0.4-2.7-0.7-9.1-0.7-19.2v-14.6c0-4.9-0.2-8.4-0.6-10.4c-0.7-3.2-1.9-5.9-3.7-8
		c-1.7-2.1-4.4-3.8-8.1-5.3c-3.6-1.3-8.3-2-14-2c-5.7,0-10.8,0.8-15.2,2.4c-4.4,1.6-7.9,3.9-10.2,6.9c-2.3,2.9-4,6.9-5.1,11.6
		l-0.2,1.1l12.9,1.8l0.2-0.9c1.1-4.4,2.8-7.4,5.1-9.1c2.3-1.7,5.9-2.5,10.9-2.5c5.3,0,9.3,1.2,11.9,3.5c1.8,1.6,2.8,4.5,2.8,8.7
		c0,0.3,0,1,0,2.1c-4.2,1.4-10.5,2.5-18.8,3.5c-4.5,0.6-7.8,1.1-10,1.7c-3,0.8-5.8,2.1-8.3,3.8c-2.5,1.7-4.5,3.9-6,6.7
		c-1.5,2.8-2.3,5.9-2.3,9.2c0,5.7,2.1,10.5,6.1,14.1c4,3.6,9.8,5.5,17.2,5.5c4.5,0,8.7-0.7,12.6-2.2c3.4-1.3,7-3.4,10.6-6.3
		c0.4,2.4,1.1,4.6,2,6.6l0.3,0.6h14l-0.8-1.6C339.7,419,338.9,416.5,338.4,413.9z M324.5,390.9l0,2.5c0,4.7-0.6,8.2-1.7,10.5
		c-1.4,3-3.7,5.4-6.9,7.1c-3.1,1.8-6.8,2.6-10.8,2.6c-4,0-7-0.9-9.1-2.7c-2-1.7-3-3.9-3-6.5c0-1.7,0.4-3.2,1.4-4.6
		c0.9-1.4,2.2-2.4,3.9-3.2c1.8-0.8,4.9-1.5,9.4-2.1C314.8,393.5,320.4,392.3,324.5,390.9z"/>
	<path class="st0" d="M377.4,411.1c-1.9,0.3-3.5,0.4-4.7,0.4c-1.4,0-2.5-0.2-3.2-0.6c-0.7-0.4-1.2-1-1.5-1.7
		c-0.2-0.4-0.5-1.7-0.5-5.7v-37h11v-10.7h-11v-23.5l-13.2,7.9v15.6h-8.1v10.7h8.1v36.4c0,6.9,0.5,11.3,1.4,13.5
		c1,2.3,2.7,4.1,5.1,5.5c2.4,1.4,5.6,2,9.8,2c2.5,0,5.3-0.3,8.5-1l1-0.2l-1.8-11.8L377.4,411.1z"/>
	<rect x="387.4" y="331.1" class="st0" width="13.2" height="14.7"/>
	<rect x="387.4" y="355.8" class="st0" width="13.2" height="67.2"/>
	<path class="st0" d="M428.4,386.5c0-8,1.6-13.4,4.7-16.1c3.2-2.8,7-4.2,11.4-4.2c2.7,0,5.1,0.6,7.1,1.8c2,1.2,3.4,2.8,4.1,4.8
		c0.8,2.1,1.2,5.3,1.2,9.7V423h13.2v-41c0-5.1-0.2-8.8-0.6-10.9c-0.7-3.3-1.9-6.1-3.6-8.5c-1.7-2.4-4.4-4.4-7.8-5.9
		c-3.4-1.5-7.2-2.2-11.2-2.2c-8.2,0-14.8,2.9-19.6,8.5v-7.1h-12V423h13.2V386.5z"/>
	<path class="st0" d="M509.9,423c6.6,0,12.3-2.3,16.9-6.9c0,5.5-0.3,9.3-0.8,11.1c-0.9,3.4-2.7,6.1-5.2,8c-2.6,1.9-6.4,2.8-11.2,2.8
		c-4.5,0-8-1-10.6-2.8c-1.8-1.4-2.9-3.5-3.3-6.5l-0.1-0.8l-12.6-1.8l0,1.2c-0.2,7.3,2.3,12.9,7.4,16.6c4.9,3.6,11.4,5.4,19.4,5.4
		c6.7,0,12.4-1.3,17-3.8c4.7-2.6,8.1-6.1,10.2-10.5c2.2-4.4,3.2-11.6,3.2-22v-57.2h-12.3v6.2c-4.9-5.1-10.9-7.6-17.9-7.6
		c-6,0-11.2,1.5-15.6,4.5c-4.4,3-7.8,7.2-10.1,12.6c-2.3,5.4-3.4,11.3-3.4,17.6c0,9.2,2.5,17.2,7.6,23.8
		C493.4,419.6,500.6,423,509.9,423z M494.1,388.3c0-7.5,1.6-13.2,4.9-17c3.3-3.8,7.1-5.6,11.7-5.6c4.7,0,8.6,1.9,12,5.7
		c3.3,3.8,5,9.6,5,17.3c0,8-1.6,13.9-4.9,17.6c-3.3,3.7-7.2,5.5-12,5.5c-4.8,0-8.7-1.8-11.9-5.5
		C495.7,402.5,494.1,396.5,494.1,388.3z"/>
	<path class="st0" d="M592.4,400.9c3.2,7.6,8,13.6,14.2,17.6c6.2,4,14.3,6.1,24.1,6.1c9.5,0,17.7-2.7,24.4-7.9
		c6.6-5.2,11.3-12.9,13.8-22.9l0.3-1l-14-3.5l-0.2,1.1c-1.6,7.3-4.6,12.8-9,16.5c-4.4,3.6-9.8,5.5-16.2,5.5
		c-5.2,0-10.2-1.4-14.6-4.1c-4.5-2.7-7.8-6.8-9.9-12.2c-2.2-5.5-3.2-12.1-3.2-19.6c0-5.8,0.9-11.5,2.8-16.9
		c1.8-5.3,4.9-9.6,9.3-12.8c4.4-3.2,10-4.8,16.6-4.8c5.7,0,10.5,1.4,14.3,4.3c3.8,2.8,6.7,7.4,8.7,13.7l0.3,0.9l13.7-3.2l-0.3-1.1
		c-2.5-8.5-6.9-15.1-13.2-19.8c-6.3-4.7-14.1-7.1-23.3-7.1c-8.1,0-15.5,1.9-22.2,5.5c-6.7,3.7-12,9.2-15.7,16.3
		c-3.6,7.1-5.5,15.5-5.5,24.9C587.5,385,589.2,393.3,592.4,400.9z"/>
	<path class="st0" d="M735.1,408.7c2.6-4.9,3.9-11.7,3.9-20.2c0-10.5-3-18.9-8.8-25c-5.9-6-13.5-9.1-22.7-9.1
		c-8.3,0-15.4,2.5-21.1,7.5c-6.9,6-10.4,15.2-10.4,27.5c0,11.2,2.9,19.9,8.7,25.9c5.8,6,13.5,9.1,22.9,9.1c5.8,0,11.3-1.4,16.2-4.1
		C728.7,417.5,732.5,413.6,735.1,408.7z M725.6,389.1c0,8.2-1.7,14.4-5.2,18.3c-3.5,3.9-7.7,5.9-12.9,5.9c-5.3,0-9.5-1.9-13-5.8
		c-3.4-3.9-5.2-9.9-5.2-18c0-8,1.7-14,5.2-17.9c3.5-3.9,7.7-5.8,13-5.8c5.1,0,9.4,2,12.8,5.8C723.8,375.5,725.6,381.4,725.6,389.1z"
		/>
	<path class="st0" d="M763,386.5c0-8,1.6-13.4,4.7-16.1c3.2-2.8,7-4.2,11.4-4.2c2.7,0,5.1,0.6,7.1,1.8c2,1.2,3.4,2.8,4.1,4.8
		c0.8,2.1,1.2,5.3,1.2,9.7V423h13.2v-41c0-5.1-0.2-8.8-0.6-10.9c-0.7-3.3-1.9-6.1-3.6-8.5c-1.7-2.4-4.4-4.4-7.8-5.9
		c-3.4-1.5-7.2-2.2-11.2-2.2c-8.2,0-14.8,2.9-19.6,8.5v-7.1h-12V423H763V386.5z"/>
	<path class="st0" d="M844.4,411.1c-1.9,0.3-3.5,0.4-4.7,0.4c-1.4,0-2.5-0.2-3.2-0.6c-0.7-0.4-1.2-1-1.5-1.7
		c-0.2-0.4-0.5-1.7-0.5-5.6v-37h11v-10.7h-11v-23.5l-13.2,7.9v15.6h-8.1v10.7h8.1v36.4c0,6.9,0.5,11.3,1.4,13.5
		c1,2.3,2.7,4.1,5.1,5.5c2.4,1.4,5.6,2,9.8,2c2.5,0,5.3-0.3,8.5-1l1-0.2l-1.8-11.8L844.4,411.1z"/>
	<path class="st0" d="M879.3,354.4c-2.8,0-5.4,0.8-7.7,2.4c-1.7,1.2-3.5,3.2-5.4,6.1v-7.1h-12V423h13.2V388c0-4.6,0.6-8.8,1.8-12.5
		c0.7-2.3,2-4.2,3.7-5.5c1.7-1.3,3.6-2,5.8-2c2.5,0,5,0.7,7.5,2.1l1.1,0.6l4.7-12.2l-0.8-0.5C887.2,355.7,883.2,354.4,879.3,354.4z"
		/>
	<path class="st0" d="M923.5,424.4c5.8,0,11.3-1.4,16.2-4.1c5-2.7,8.8-6.6,11.4-11.6c2.6-4.9,3.9-11.7,3.9-20.2
		c0-10.5-3-18.9-8.8-25c-5.9-6-13.5-9.1-22.7-9.1c-8.3,0-15.4,2.5-21.1,7.5c-6.9,6-10.4,15.2-10.4,27.5c0,11.2,2.9,19.9,8.7,25.9
		C906.5,421.3,914.2,424.4,923.5,424.4z M905.4,389.4c0-8,1.7-14,5.2-17.9c3.5-3.9,7.7-5.8,13-5.8c5.1,0,9.4,2,12.8,5.8
		c3.5,3.9,5.2,9.8,5.2,17.5c0,8.2-1.7,14.4-5.2,18.3c-3.5,3.9-7.7,5.9-12.9,5.9c-5.3,0-9.5-1.9-13-5.8
		C907.1,403.5,905.4,397.5,905.4,389.4z"/>
	<rect x="965.6" y="331.1" class="st0" width="13.2" height="91.9"/>
	<path class="st0" d="M943.5,919.3c-23.2,0-42.1,18.9-42.1,42.1s18.9,42.1,42.1,42.1c23.2,0,42.1-18.9,42.1-42.1
		S966.7,919.3,943.5,919.3z M943.5,1000.7c-21.6,0-39.2-17.6-39.2-39.2s17.6-39.2,39.2-39.2s39.2,17.6,39.2,39.2
		S965.1,1000.7,943.5,1000.7z"/>
	<path class="st0" d="M774.7,918.8c-23.5,0-42.6,19.1-42.6,42.6s19.1,42.6,42.6,42.6s42.6-19.1,42.6-42.6S798.2,918.8,774.7,918.8z
		 M774.7,999.8c-21.1,0-38.3-17.2-38.3-38.3c0-21.1,17.2-38.3,38.3-38.3s38.3,17.2,38.3,38.3C813,982.6,795.8,999.8,774.7,999.8z"/>
	<path class="st0" d="M1171,177.2v-54.8h-82.8V57.8c0-22.9-18.7-41.6-41.6-41.6h-990C33.7,16.2,15,34.9,15,57.8v973.5
		c0,22.9,18.7,41.6,41.6,41.6h609.2v63.3c0,6,2.4,11.4,6.4,15.4c3.9,3.9,9.4,6.4,15.4,6.4h339.1c6,0,11.4-2.4,15.4-6.4
		s6.4-9.4,6.4-15.4v-63.4c22-1,39.7-19.3,39.7-41.5V251.6h82.8v-54.8h-82.8v-19.6H1171z M1037.1,1146.6c-2.7,2.7-6.3,4.3-10.4,4.3
		H687.6c-4,0-7.7-1.7-10.4-4.3c-2.7-2.7-4.3-6.3-4.3-10.4v-63.3h368.5v63.3C1041.4,1140.3,1039.8,1143.9,1037.1,1146.6z
		 M1074,1031.3c0,15.1-12.3,27.4-27.4,27.4h-990c-15.1,0-27.4-12.3-27.4-27.4V57.8c0-15.1,12.3-27.4,27.4-27.4h990
		c15.1,0,27.4,12.3,27.4,27.4V1031.3z M1163.9,129.4v40.6h-75.7v-40.6H1163.9z M1163.9,203.8v40.6h-75.7v-40.6H1163.9z"/>
	<path class="st0" d="M701.7,646.5L564,508.8c-3.1-3.1-8.2-3.1-11.3,0L401.5,660c-3.1,3.1-3.1,8.2,0,11.3c3.1,3.1,8.2,3.1,11.3,0
		l145.6-145.6l129.7,129.7v115.8H468V654.4c0-4.4-3.6-8-8-8c-4.4,0-8,3.6-8,8v124.8c0,4.4,3.6,8,8,8h236.1c4.4,0,8-3.6,8-8l0-127
		C704,650.1,703.3,648.1,701.7,646.5z"/>
	<rect x="452.3" y="542" class="st0" width="15.9" height="32.3"/>
	<circle class="st0" cx="460.3" cy="516.4" r="8.7"/>
	<path class="st0" d="M506.5,620.3c-2.4-2.4-5.7-3.9-9.4-3.9c-3.7,0-7,1.5-9.4,3.9c-2.4,2.4-3.9,5.7-3.9,9.4c0,3.7,1.5,7,3.9,9.4
		c2.4,2.4,5.7,3.9,9.4,3.9c3.7,0,7-1.5,9.4-3.9c0.5-0.5,0.9-1,1.3-1.5l63.8,34.3l-65.7,65.7c-2-1.2-4.3-1.9-6.8-1.9
		c-3.7,0-7,1.5-9.4,3.9c-2.4,2.4-3.9,5.7-3.9,9.4c0,3.7,1.5,7,3.9,9.4c2.4,2.4,5.7,3.9,9.4,3.9c3.7,0,7-1.5,9.4-3.9
		c2.1-2.1,3.5-4.9,3.8-8.1l140.4-26.7c0.6,1.2,1.5,2.4,2.4,3.3c2.4,2.4,5.7,3.9,9.4,3.9c3.7,0,7-1.5,9.4-3.9
		c2.4-2.4,3.9-5.7,3.9-9.4c0-3.7-1.5-7-3.9-9.4c-2.4-2.4-5.7-3.9-9.4-3.9c-1.9,0-3.7,0.4-5.3,1.1l-43.9-56.4c2-2.3,3.2-5.4,3.2-8.7
		c0-3.7-1.5-7-3.9-9.4c-2.4-2.4-5.7-3.9-9.4-3.9c-3.7,0-7,1.5-9.4,3.9c-2.4,2.4-3.9,5.7-3.9,9.4c0,3.1,1.1,6,2.9,8.3L575.5,668
		L510,632.8c0.2-1,0.4-2.1,0.4-3.1C510.4,626,508.9,622.7,506.5,620.3z M502.7,635.4c-1.5,1.5-3.5,2.4-5.7,2.4
		c-2.2,0-4.2-0.9-5.7-2.4c-1.5-1.5-2.3-3.5-2.3-5.7c0-2.2,0.9-4.2,2.3-5.7c1.5-1.5,3.5-2.3,5.7-2.3c2.2,0,4.2,0.9,5.7,2.3
		s2.3,3.5,2.3,5.7C505.1,631.9,504.2,633.9,502.7,635.4z M504.7,754.8c-1.5,1.5-3.5,2.3-5.7,2.3c-2.2,0-4.2-0.9-5.7-2.3
		c-1.5-1.5-2.3-3.5-2.3-5.7c0-2.2,0.9-4.2,2.3-5.7c1.5-1.5,3.5-2.4,5.7-2.4c2.2,0,4.2,0.9,5.7,2.4c1.5,1.5,2.4,3.5,2.4,5.7
		C507.1,751.4,506.2,753.4,504.7,754.8z M658.9,712c1.5-1.5,3.5-2.3,5.7-2.3c2.2,0,4.2,0.9,5.7,2.3c1.5,1.5,2.4,3.5,2.4,5.7
		c0,2.2-0.9,4.2-2.4,5.7c-1.5,1.5-3.5,2.3-5.7,2.3c-2.2,0-4.2-0.9-5.7-2.3c-1.5-1.5-2.3-3.5-2.3-5.7
		C656.6,715.5,657.5,713.5,658.9,712z M599.6,634.7c1.5-1.5,3.5-2.3,5.7-2.3c2.2,0,4.2,0.9,5.7,2.3c1.5,1.5,2.3,3.5,2.3,5.7
		c0,2.2-0.9,4.2-2.3,5.7c-1.5,1.5-3.5,2.3-5.7,2.3c-2.2,0-4.2-0.9-5.7-2.3c-1.5-1.5-2.3-3.5-2.3-5.7
		C597.3,638.2,598.2,636.1,599.6,634.7z M599,652.1c1.9,1,4,1.6,6.3,1.6c2.1,0,4.1-0.5,5.9-1.4l43.7,56.2c-0.4,0.5-0.8,1-1.2,1.5
		l-73.3-39.4L599,652.1z M576.5,674.6l75.1,40.3c-0.2,0.9-0.3,1.8-0.3,2.8c0,0.3,0,0.7,0,1l-139.5,26.5c-0.4-1.4-1.1-2.8-2-4
		L576.5,674.6z"/>
</g>
</svg>
