<?xml version="1.0" encoding="utf-8"?>
<!-- Generator: Adobe Illustrator 21.0.0, SVG Export Plug-In . SVG Version: 6.00 Build 0)  -->
<svg version="1.1" id="Layer_1" xmlns="http://www.w3.org/2000/svg" xmlns:xlink="http://www.w3.org/1999/xlink" x="0px" y="0px"
	 viewBox="0 0 1186 1165.8" style="enable-background:new 0 0 1186 1165.8;" xml:space="preserve">
<style type="text/css">
	.fillpulse {
		animation: fillpulse 1s infinite;
	}
	
	@keyframes fillpulse {
		0%, 100% {
			fill: #FFFFFF;
		}
		50% {
			fill: #0078CC;
		}
	}
</style>
<g>
	<path class="fillpulse" d="M521,145.5c0-16.9,13.7-30.6,30.6-30.6c16.9,0,30.6,13.7,30.6,30.6c0,16.9-13.7,30.6-30.6,30.6
		C534.7,176.1,521,162.4,521,145.5"/>
</g>
<g>
	<path d="M404.4,145.5c0-9.8-8-17.8-17.8-17.8s-17.8,8-17.8,17.8s8,17.8,17.8,17.8S404.4,155.3,404.4,145.5z M386.6,156.2
		c-5.9,0-10.7-4.8-10.7-10.7s4.8-10.7,10.7-10.7s10.7,4.8,10.7,10.7S392.5,156.2,386.6,156.2z"/>
	<path d="M551.6,186.6c22.6,0,41-18.4,41-41s-18.4-41-41-41s-41,18.4-41,41S529,186.6,551.6,186.6z M551.6,111.6
		c18.7,0,34,15.2,34,34s-15.2,34-34,34s-34-15.2-34-34S532.9,111.6,551.6,111.6z"/>
	<path d="M774.7,905.8c-28.3,0-51.4,23.1-51.4,51.4s23.1,51.4,51.4,51.4s51.4-23.1,51.4-51.4S803,905.8,774.7,905.8z M774.7,1001.5
		c-24.4,0-44.3-19.9-44.3-44.3s19.9-44.3,44.3-44.3s44.3,19.9,44.3,44.3S799.1,1001.5,774.7,1001.5z"/>
	<path d="M943.5,905.8c-28.3,0-51.4,23.1-51.4,51.4s23.1,51.4,51.4,51.4s51.4-23.1,51.4-51.4S971.8,905.8,943.5,905.8z
		 M943.5,1001.5c-24.4,0-44.3-19.9-44.3-44.3s19.9-44.3,44.3-44.3s44.3,19.9,44.3,44.3S967.9,1001.5,943.5,1001.5z"/>
	<polygon points="963.3,743.3 950.1,743.3 950.1,692.7 936.8,692.7 936.8,743.3 923.6,743.3 943.5,783 	"/>
	<polygon points="796.9,743.8 783.8,743.8 783.8,693.2 770.5,693.2 770.5,743.8 757.3,743.8 777.1,783.4 	"/>
	<polygon points="759.4,658.8 765.3,630.6 775.7,630.6 776.4,627 751.2,627 750.4,630.6 761.1,630.6 755.2,658.8 	"/>
	<path d="M780.2,627l-6.7,31.8h3.9l2.1-9.9c0.6-2.9,1.3-5,2-6.2c0.7-1.3,1.7-2.3,3-3c1.3-0.7,2.6-1.1,4-1.1c1,0,1.7,0.2,2.2,0.7
		c0.5,0.5,0.8,1.1,0.8,1.8c0,0.5-0.2,1.8-0.7,3.8l-3.1,13.9h3.9l3-13.6c0.5-2.2,0.7-3.7,0.7-4.5c0-1.7-0.5-3-1.6-4
		c-1-1-2.5-1.5-4.4-1.5c-1.3,0-2.6,0.3-3.8,0.9c-1.2,0.6-2.6,1.6-4,3l2.6-12.2H780.2z"/>
	<path d="M800.8,642.2c-1.2,2.4-1.7,4.8-1.7,7.3c0,1.9,0.4,3.6,1.1,5.1c0.7,1.5,1.8,2.6,3.3,3.4c1.4,0.8,3,1.2,4.7,1.2
		c2.7,0,5.1-0.9,7.1-2.6c2-1.7,3.2-3.5,3.8-5.4l-3.8-0.4c-0.7,1.7-1.7,2.9-3,3.8c-1.3,0.9-2.6,1.3-4,1.3c-1.4,0-2.7-0.6-3.6-1.7
		c-1-1.1-1.5-2.8-1.5-4.9c0-0.4,0-0.8,0.1-1.2h17c0.2-1.2,0.3-2.3,0.3-3.5c0-2.9-0.8-5.3-2.5-7c-1.6-1.7-3.8-2.6-6.6-2.6
		c-2.2,0-4.2,0.6-6,1.7C803.4,638.1,801.9,639.9,800.8,642.2z M806.8,640c1.4-1.1,2.9-1.7,4.6-1.7c1.6,0,2.8,0.5,3.8,1.6
		c1,1,1.5,2.5,1.5,4.5c0,0.2,0,0.5,0,0.9h-13C804.4,642.9,805.4,641.2,806.8,640z"/>
	<path d="M840.1,636.1c-1.1-0.6-2.1-0.8-2.9-0.8c-1.2,0-2.3,0.4-3.5,1.3c-1.1,0.9-2.3,2.2-3.5,3.9l1-4.7h-3.5l-4.8,23h3.7l1.9-9.2
		c0.8-4,2-6.7,3.4-8.3c1.5-1.5,2.9-2.3,4.2-2.3c0.8,0,1.6,0.3,2.2,0.8L840.1,636.1z"/>
	<path d="M866.5,635.3c-1.4,0-2.8,0.4-4.1,1.1c-1.3,0.7-2.5,1.8-3.7,3.2c-0.3-1.4-0.9-2.4-1.9-3.2c-1-0.8-2.2-1.1-3.6-1.1
		c-1.3,0-2.6,0.3-3.7,0.9c-1.1,0.6-2.5,1.7-3.9,3.4l0.8-3.8h-3.9l-4.8,23h3.9l2.3-10.9c0.5-2.3,1.1-4.1,1.9-5.4c0.8-1.3,1.8-2.2,3-3
		c1.2-0.7,2.4-1.1,3.5-1.1c0.7,0,1.4,0.2,1.8,0.7c0.5,0.5,0.7,1.1,0.7,1.8c0,0.5-0.1,1.2-0.3,2.3l-3.3,15.5h3.9l2.3-11.2
		c0.5-2.4,1.1-4.1,1.8-5.3c0.7-1.1,1.6-2.1,2.8-2.8s2.4-1.1,3.6-1.1c0.9,0,1.5,0.2,2,0.7c0.5,0.4,0.7,1,0.7,1.8
		c0,0.5-0.1,1.4-0.4,2.7l-3.2,15.2h3.9l3.2-14.8c0.3-1.6,0.5-2.8,0.5-3.5c0-1.6-0.5-2.9-1.4-3.8
		C869.9,635.7,868.5,635.3,866.5,635.3z"/>
	<path d="M895.5,652.2c1.1-2.3,1.6-4.7,1.6-7.4c0-2.9-0.9-5.3-2.5-7c-1.7-1.7-3.9-2.6-6.7-2.6c-3.5,0-6.4,1.2-8.6,3.6
		c-2.6,2.9-4,6.7-4,11.1c0,1.8,0.4,3.4,1.2,4.8c0.8,1.4,1.9,2.5,3.4,3.2c1.5,0.8,3.1,1.1,4.9,1.1c2.2,0,4.3-0.6,6.2-1.8
		C893,656.3,894.5,654.5,895.5,652.2z M892.7,649c-0.3,1-0.7,2-1.2,2.9c-0.5,0.9-1.1,1.7-1.8,2.4c-0.7,0.7-1.5,1.2-2.3,1.5
		c-0.8,0.3-1.7,0.5-2.5,0.5c-1.6,0-2.9-0.6-4-1.7c-1-1.1-1.6-2.8-1.6-4.9c0-1.2,0.2-2.5,0.6-4c0.4-1.5,1-2.8,1.8-3.9
		c0.8-1.1,1.7-2,2.8-2.6c1-0.6,2.1-0.9,3.4-0.9c1.6,0,2.9,0.6,4,1.7c1.1,1.1,1.6,2.8,1.6,4.8C893.3,646.2,893.1,647.5,892.7,649z"/>
	<path d="M907.8,639.2c0.7-0.6,1.8-0.9,3.2-0.9c1.7,0,3,0.4,3.9,1.2c0.9,0.8,1.4,1.9,1.5,3.3l3.8-0.3c-0.1-2.2-0.8-3.9-2.3-5.3
		c-1.5-1.3-3.7-2-6.6-2c-2.6,0-4.6,0.7-6.1,1.9c-1.4,1.3-2.2,2.9-2.2,4.7c0,1,0.2,2,0.7,2.8c0.5,0.8,1.2,1.5,2.2,2.1
		c0.6,0.4,1.9,1,4,1.9c2,0.9,3.3,1.6,3.9,2.2c0.5,0.6,0.8,1.3,0.8,1.9c0,0.9-0.4,1.8-1.3,2.4c-0.9,0.7-2.2,1-3.9,1
		c-1.2,0-2.3-0.3-3.2-0.8c-0.9-0.5-1.6-1.2-1.9-1.9c-0.3-0.8-0.5-1.8-0.5-2.9l-4,0.2c-0.1,3,0.8,5.1,2.7,6.4c1.9,1.3,4.1,2,6.8,2
		c1.9,0,3.6-0.3,5.1-1c1.4-0.7,2.5-1.5,3.2-2.6c0.7-1.1,1.1-2.2,1.1-3.4c0-1.7-0.6-3.2-1.9-4.4c-0.8-0.8-2.7-1.8-5.6-3.1
		c-1.8-0.8-2.9-1.4-3.3-1.7c-0.6-0.5-1-1.2-1-1.9C906.7,640.5,907,639.8,907.8,639.2z"/>
	<path d="M922.6,655.7c0,1,0.3,1.8,1,2.4c0.9,0.8,2.2,1.2,3.7,1.2c0.9,0,1.8-0.1,2.7-0.4l0.7-3.2c-0.7,0.2-1.5,0.3-2.3,0.3
		c-0.6,0-1-0.1-1.3-0.4c-0.3-0.2-0.4-0.6-0.4-1.1c0-0.3,0.2-1.3,0.5-2.9l2.7-12.7h3.8l0.7-3h-3.9l1.8-8.3l-4.5,2.7l-1.2,5.6h-3.1
		l-0.6,3h3.1l-2.8,13.4C922.8,654,922.6,655.2,922.6,655.7z"/>
	<path d="M953.9,637.3c-1.7-1.4-3.9-2-6.8-2c-2.7,0-4.9,0.6-6.6,1.8s-3,3-3.8,5.2l4,0.4c0.5-1.3,1.2-2.4,2.3-3.1
		c1.1-0.7,2.4-1.1,4.1-1.1c1.8,0,3.1,0.4,4,1.1c0.7,0.5,1,1.2,1,2.1c0,0.7-0.2,1.6-0.5,2.7c-1.1,0.4-2.8,0.7-5.3,0.8
		c-2.5,0.1-4.2,0.2-5,0.4c-1.4,0.3-2.6,0.7-3.6,1.3c-1,0.6-1.7,1.4-2.3,2.4c-0.6,1-0.9,2.1-0.9,3.4c0,1.9,0.7,3.5,2,4.8
		c1.3,1.3,3,1.9,5.1,1.9c1.4,0,2.8-0.3,4-0.8c1.3-0.5,2.6-1.4,3.9-2.6c0.1,1.2,0.2,2.1,0.5,2.9h4c-0.3-1.4-0.5-2.4-0.5-3.1
		c0-1.1,0.2-2.6,0.6-4.4l1.3-5.7c0.4-1.6,0.5-3,0.5-4.3C955.8,639.6,955.1,638.3,953.9,637.3z M949.2,652.4
		c-0.7,1.2-1.7,2.2-2.8,2.9c-1.2,0.7-2.4,1-3.8,1c-1.4,0-2.5-0.4-3.2-1.1c-0.8-0.7-1.1-1.6-1.1-2.7c0-0.8,0.2-1.6,0.7-2.2
		c0.5-0.7,1.2-1.2,2.1-1.5c0.9-0.3,2.5-0.6,4.8-0.8c1.5-0.1,2.5-0.3,3.2-0.4c0.6-0.1,1.2-0.3,1.8-0.5
		C950.5,649.4,949.9,651.1,949.2,652.4z"/>
	<path d="M959.6,655.7c0,1,0.3,1.8,1,2.4c0.9,0.8,2.2,1.2,3.7,1.2c0.9,0,1.8-0.1,2.7-0.4l0.7-3.2c-0.7,0.2-1.5,0.3-2.3,0.3
		c-0.6,0-1-0.1-1.3-0.4c-0.3-0.2-0.4-0.6-0.4-1.1c0-0.3,0.2-1.3,0.5-2.9l2.7-12.7h3.8l0.7-3h-3.9l1.8-8.3l-4.5,2.7l-1.2,5.6h-3.1
		l-0.6,3h3.1l-2.8,13.4C959.8,654,959.6,655.2,959.6,655.7z"/>
	<polygon points="138.5,376.5 182.8,376.5 182.8,418.8 196.8,418.8 196.8,326.9 182.8,326.9 182.8,363.9 138.5,363.9 138.5,326.9 
		124.5,326.9 124.5,418.8 138.5,418.8 	"/>
	<path d="M241.5,420.2c7.7,0,14.2-1.9,19.2-5.7c5-3.8,8.5-9.2,10.3-16l0.3-1.2l-13.5-1.8l-0.3,0.8c-1.6,4.5-3.8,7.7-6.4,9.7
		c-2.6,2-5.9,3-9.7,3c-5.1,0-9.4-1.8-12.8-5.4c-3.2-3.4-5.1-8.3-5.7-14.6h48.3l0-1c0-1.3,0.1-2.3,0.1-3c0-10.9-2.9-19.6-8.5-25.7
		c-5.7-6.1-13.1-9.2-22-9.2c-9.2,0-16.9,3.2-22.7,9.4c-5.8,6.2-8.7,15-8.7,26.1c0,10.8,2.9,19.3,8.6,25.3
		C223.9,417.1,231.7,420.2,241.5,420.2z M223.6,377.9c0.5-4.9,2.3-8.8,5.3-11.8c3.3-3.2,7.2-4.8,12-4.8c5.2,0,9.5,2,12.8,6
		c2,2.4,3.3,5.9,3.8,10.6H223.6z"/>
	<path d="M338.4,409.7c-0.4-2.7-0.7-9.1-0.7-19.2v-14.6c0-4.9-0.2-8.4-0.6-10.4c-0.7-3.2-1.9-5.9-3.7-8c-1.7-2.1-4.4-3.8-8.1-5.3
		c-3.6-1.3-8.3-2-14-2c-5.7,0-10.8,0.8-15.2,2.4c-4.4,1.6-7.9,3.9-10.2,6.9c-2.3,2.9-4,6.9-5.1,11.6l-0.2,1.1l12.9,1.8l0.2-0.9
		c1.1-4.4,2.8-7.4,5.1-9.1c2.3-1.7,5.9-2.5,10.9-2.5c5.3,0,9.3,1.2,11.9,3.5c1.8,1.6,2.8,4.5,2.8,8.7c0,0.3,0,1,0,2.1
		c-4.2,1.4-10.5,2.5-18.8,3.5c-4.5,0.6-7.8,1.1-10,1.7c-3,0.8-5.8,2.1-8.3,3.8c-2.5,1.7-4.5,3.9-6,6.7c-1.5,2.8-2.3,5.9-2.3,9.2
		c0,5.7,2.1,10.5,6.1,14.1c4,3.6,9.8,5.5,17.2,5.5c4.5,0,8.7-0.7,12.6-2.2c3.4-1.3,7-3.4,10.6-6.3c0.4,2.4,1.1,4.6,2,6.6l0.3,0.6h14
		l-0.8-1.6C339.7,414.8,338.9,412.2,338.4,409.7z M324.5,386.7l0,2.5c0,4.7-0.6,8.2-1.7,10.5c-1.4,3-3.7,5.4-6.9,7.1
		c-3.1,1.8-6.8,2.6-10.8,2.6c-4,0-7-0.9-9.1-2.7c-2-1.7-3-3.9-3-6.5c0-1.7,0.4-3.2,1.4-4.6c0.9-1.4,2.2-2.4,3.9-3.2
		c1.8-0.8,4.9-1.5,9.4-2.1C314.8,389.3,320.4,388.1,324.5,386.7z"/>
	<path d="M377.4,406.8c-1.9,0.3-3.5,0.4-4.7,0.4c-1.4,0-2.5-0.2-3.2-0.6c-0.7-0.4-1.2-1-1.5-1.7c-0.2-0.4-0.5-1.7-0.5-5.7v-37h11
		v-10.7h-11v-23.5l-13.2,7.9v15.6h-8.1v10.7h8.1v36.4c0,6.9,0.5,11.3,1.4,13.5c1,2.3,2.7,4.1,5.1,5.5c2.4,1.4,5.6,2,9.8,2
		c2.5,0,5.3-0.3,8.5-1l1-0.2l-1.8-11.8L377.4,406.8z"/>
	<rect x="387.4" y="326.9" width="13.2" height="14.7"/>
	<rect x="387.4" y="351.6" width="13.2" height="67.2"/>
	<path d="M428.4,382.2c0-8,1.6-13.4,4.7-16.1c3.2-2.8,7-4.2,11.4-4.2c2.7,0,5.1,0.6,7.1,1.8c2,1.2,3.4,2.8,4.1,4.8
		c0.8,2.1,1.2,5.3,1.2,9.7v40.6h13.2v-41c0-5.1-0.2-8.8-0.6-10.9c-0.7-3.3-1.9-6.1-3.6-8.5c-1.7-2.4-4.4-4.4-7.8-5.9
		c-3.4-1.5-7.2-2.2-11.2-2.2c-8.2,0-14.8,2.9-19.6,8.5v-7.1h-12v67.2h13.2V382.2z"/>
	<path d="M509.9,418.8c6.6,0,12.3-2.3,16.9-6.9c0,5.5-0.3,9.3-0.8,11.1c-0.9,3.4-2.7,6.1-5.2,8c-2.6,1.9-6.4,2.8-11.2,2.8
		c-4.5,0-8-1-10.6-2.8c-1.8-1.4-2.9-3.5-3.3-6.5l-0.1-0.8l-12.6-1.8l0,1.2c-0.2,7.3,2.3,12.9,7.4,16.6c4.9,3.6,11.4,5.4,19.4,5.4
		c6.7,0,12.4-1.3,17-3.8c4.7-2.6,8.1-6.1,10.2-10.5c2.2-4.4,3.2-11.6,3.2-22v-57.2h-12.3v6.2c-4.9-5.1-10.9-7.6-17.9-7.6
		c-6,0-11.2,1.5-15.6,4.5c-4.4,3-7.8,7.2-10.1,12.6c-2.3,5.4-3.4,11.3-3.4,17.6c0,9.2,2.5,17.2,7.6,23.8
		C493.4,415.4,500.6,418.8,509.9,418.8z M494.1,384.1c0-7.5,1.6-13.2,4.9-17c3.3-3.8,7.1-5.6,11.7-5.6c4.7,0,8.6,1.9,12,5.7
		c3.3,3.8,5,9.6,5,17.3c0,8-1.6,13.9-4.9,17.6c-3.3,3.7-7.2,5.5-12,5.5c-4.8,0-8.7-1.8-11.9-5.5
		C495.7,398.3,494.1,392.3,494.1,384.1z"/>
	<path d="M592.4,396.6c3.2,7.6,8,13.6,14.2,17.6c6.2,4,14.3,6.1,24.1,6.1c9.5,0,17.7-2.7,24.4-7.9c6.6-5.2,11.3-12.9,13.8-22.9
		l0.3-1l-14-3.5l-0.2,1.1c-1.6,7.3-4.6,12.8-9,16.5c-4.4,3.6-9.8,5.5-16.2,5.5c-5.2,0-10.2-1.4-14.6-4.1c-4.5-2.7-7.8-6.8-9.9-12.2
		c-2.2-5.5-3.2-12.1-3.2-19.6c0-5.8,0.9-11.5,2.8-16.9c1.8-5.3,4.9-9.6,9.3-12.8c4.4-3.2,10-4.8,16.6-4.8c5.7,0,10.5,1.4,14.3,4.3
		c3.8,2.8,6.7,7.4,8.7,13.7l0.3,0.9l13.7-3.2l-0.3-1.1c-2.5-8.5-6.9-15.1-13.2-19.8c-6.3-4.7-14.1-7.1-23.3-7.1
		c-8.1,0-15.5,1.9-22.2,5.5c-6.7,3.7-12,9.2-15.7,16.3c-3.6,7.1-5.5,15.5-5.5,24.9C587.5,380.8,589.2,389,592.4,396.6z"/>
	<path d="M735.1,404.5c2.6-4.9,3.9-11.7,3.9-20.2c0-10.5-3-18.9-8.8-25c-5.9-6-13.5-9.1-22.7-9.1c-8.3,0-15.4,2.5-21.1,7.5
		c-6.9,6-10.4,15.2-10.4,27.5c0,11.2,2.9,19.9,8.7,25.9c5.8,6,13.5,9.1,22.9,9.1c5.8,0,11.3-1.4,16.2-4.1
		C728.7,413.3,732.5,409.4,735.1,404.5z M725.6,384.9c0,8.2-1.7,14.4-5.2,18.3c-3.5,3.9-7.7,5.9-12.9,5.9c-5.3,0-9.5-1.9-13-5.8
		c-3.4-3.9-5.2-9.9-5.2-18c0-8,1.7-14,5.2-17.9c3.5-3.9,7.7-5.8,13-5.8c5.1,0,9.4,2,12.8,5.8C723.8,371.3,725.6,377.1,725.6,384.9z"
		/>
	<path d="M761.8,358.7v-7.1h-12v67.2H763v-36.6c0-8,1.6-13.4,4.7-16.1c3.2-2.8,7-4.2,11.4-4.2c2.7,0,5.1,0.6,7.1,1.8
		c2,1.2,3.4,2.8,4.1,4.8c0.8,2.1,1.2,5.3,1.2,9.7v40.6h13.2v-41c0-5.1-0.2-8.8-0.6-10.9c-0.7-3.3-1.9-6.1-3.6-8.5
		c-1.7-2.4-4.4-4.4-7.8-5.9c-3.4-1.5-7.2-2.2-11.2-2.2C773.2,350.2,766.7,353.1,761.8,358.7z"/>
	<path d="M822.8,412.1c1,2.3,2.7,4.1,5.1,5.5c2.4,1.4,5.6,2,9.8,2c2.5,0,5.3-0.3,8.5-1l1-0.2l-1.8-11.8l-1,0.2
		c-1.9,0.3-3.5,0.4-4.7,0.4c-1.4,0-2.5-0.2-3.2-0.6c-0.7-0.4-1.2-1-1.5-1.7c-0.2-0.4-0.5-1.7-0.5-5.6v-37h11v-10.7h-11v-23.5
		l-13.2,7.9v15.6h-8.1v10.7h8.1v36.4C821.4,405.5,821.9,409.9,822.8,412.1z"/>
	<path d="M886.2,365.9l1.1,0.6l4.7-12.2l-0.8-0.5c-4-2.4-8-3.6-11.9-3.6c-2.8,0-5.4,0.8-7.7,2.4c-1.7,1.2-3.5,3.2-5.4,6.1v-7.1h-12
		v67.2h13.2v-35.1c0-4.6,0.6-8.8,1.8-12.5c0.7-2.3,2-4.2,3.7-5.5c1.7-1.3,3.6-2,5.8-2C881.2,363.8,883.7,364.5,886.2,365.9z"/>
	<path d="M900.7,411.1c5.8,6,13.5,9.1,22.9,9.1c5.8,0,11.3-1.4,16.2-4.1c5-2.7,8.8-6.6,11.4-11.6c2.6-4.9,3.9-11.7,3.9-20.2
		c0-10.5-3-18.9-8.8-25c-5.9-6-13.5-9.1-22.7-9.1c-8.3,0-15.4,2.5-21.1,7.5c-6.9,6-10.4,15.2-10.4,27.5
		C892,396.4,894.9,405.1,900.7,411.1z M905.4,385.2c0-8,1.7-14,5.2-17.9c3.5-3.9,7.7-5.8,13-5.8c5.1,0,9.4,2,12.8,5.8
		c3.5,3.9,5.2,9.8,5.2,17.5c0,8.2-1.7,14.4-5.2,18.3c-3.5,3.9-7.7,5.9-12.9,5.9c-5.3,0-9.5-1.9-13-5.8
		C907.1,399.3,905.4,393.2,905.4,385.2z"/>
	<rect x="965.6" y="326.9" width="13.2" height="91.9"/>
	<path d="M943.5,915.1c-23.2,0-42.1,18.9-42.1,42.1s18.9,42.1,42.1,42.1c23.2,0,42.1-18.9,42.1-42.1S966.7,915.1,943.5,915.1z
		 M943.5,996.4c-21.6,0-39.2-17.6-39.2-39.2s17.6-39.2,39.2-39.2s39.2,17.6,39.2,39.2S965.1,996.4,943.5,996.4z"/>
	<path d="M774.7,914.6c-23.5,0-42.6,19.1-42.6,42.6s19.1,42.6,42.6,42.6s42.6-19.1,42.6-42.6S798.2,914.6,774.7,914.6z M774.7,995.5
		c-21.1,0-38.3-17.2-38.3-38.3c0-21.1,17.2-38.3,38.3-38.3s38.3,17.2,38.3,38.3C813,978.3,795.8,995.5,774.7,995.5z"/>
	<path d="M1171,172.9v-54.8h-82.8V53.6c0-22.9-18.7-41.6-41.6-41.6h-990C33.7,12,15,30.7,15,53.6v973.5c0,22.9,18.7,41.6,41.6,41.6
		h609.2v63.3c0,6,2.4,11.4,6.4,15.4c3.9,3.9,9.4,6.4,15.4,6.4h339.1c6,0,11.4-2.4,15.4-6.4s6.4-9.4,6.4-15.4v-63.4
		c22-1,39.7-19.3,39.7-41.5V247.3h82.8v-54.8h-82.8v-19.6H1171z M1037.1,1142.4c-2.7,2.7-6.3,4.3-10.4,4.3H687.6
		c-4,0-7.7-1.7-10.4-4.3c-2.7-2.7-4.3-6.3-4.3-10.4v-63.3h368.5v63.3C1041.4,1136,1039.8,1139.7,1037.1,1142.4z M1074,1027.1
		c0,15.1-12.3,27.4-27.4,27.4h-990c-15.1,0-27.4-12.3-27.4-27.4V53.6c0-15.1,12.3-27.4,27.4-27.4h990c15.1,0,27.4,12.3,27.4,27.4
		V1027.1z M1163.9,125.2v40.6h-75.7v-40.6H1163.9z M1163.9,199.6v40.6h-75.7v-40.6H1163.9z"/>
	<polygon points="109.3,658.8 113.5,658.8 120.2,627 116,627 	"/>
	<path d="M130.2,640.7c1.6-1.4,3.4-2.2,5.5-2.2c1,0,1.8,0.2,2.3,0.7c0.5,0.5,0.8,1.1,0.8,1.9c0,0.7-0.2,1.7-0.5,3.1l-3.2,14.6h3.9
		l3.1-13.9c0.4-1.8,0.6-3.2,0.6-4c0-1.7-0.5-3.1-1.6-4.1c-1.1-1-2.6-1.5-4.4-1.5c-1.4,0-2.8,0.4-4.2,1.1c-1.4,0.7-2.8,1.9-4.4,3.4
		l0.8-4h-3.6l-4.8,23h3.9l2.2-10.7C127.4,644.6,128.6,642.1,130.2,640.7z"/>
	<path d="M153.7,639.2c0.7-0.6,1.8-0.9,3.2-0.9c1.7,0,3,0.4,3.9,1.2c0.9,0.8,1.4,1.9,1.5,3.3l3.8-0.3c-0.1-2.2-0.8-3.9-2.3-5.3
		c-1.5-1.3-3.7-2-6.6-2c-2.6,0-4.6,0.7-6.1,1.9c-1.4,1.3-2.2,2.9-2.2,4.7c0,1,0.2,2,0.7,2.8c0.5,0.8,1.2,1.5,2.2,2.1
		c0.6,0.4,1.9,1,4,1.9c2,0.9,3.3,1.6,3.9,2.2c0.5,0.6,0.8,1.3,0.8,1.9c0,0.9-0.4,1.8-1.3,2.4c-0.9,0.7-2.2,1-3.9,1
		c-1.2,0-2.3-0.3-3.2-0.8c-0.9-0.5-1.6-1.2-1.9-1.9c-0.3-0.8-0.5-1.8-0.5-2.9l-4,0.2c-0.1,3,0.8,5.1,2.7,6.4c1.9,1.3,4.1,2,6.8,2
		c1.9,0,3.6-0.3,5.1-1c1.4-0.7,2.5-1.5,3.2-2.6c0.7-1.1,1.1-2.2,1.1-3.4c0-1.7-0.6-3.2-1.9-4.4c-0.8-0.8-2.7-1.8-5.6-3.1
		c-1.8-0.8-2.9-1.4-3.3-1.7c-0.6-0.5-1-1.2-1-1.9C152.6,640.5,152.9,639.8,153.7,639.2z"/>
	<path d="M189.3,648.2c0.2-1.2,0.3-2.3,0.3-3.5c0-2.9-0.8-5.3-2.5-7c-1.6-1.7-3.8-2.6-6.6-2.6c-2.2,0-4.2,0.6-6,1.7
		c-1.8,1.1-3.4,2.9-4.5,5.3c-1.2,2.4-1.7,4.8-1.7,7.3c0,1.9,0.4,3.6,1.1,5.1c0.7,1.5,1.8,2.6,3.3,3.4c1.4,0.8,3,1.2,4.7,1.2
		c2.7,0,5.1-0.9,7.1-2.6c2-1.7,3.2-3.5,3.8-5.4l-3.8-0.4c-0.7,1.7-1.7,2.9-3,3.8c-1.3,0.9-2.6,1.3-4,1.3c-1.4,0-2.7-0.6-3.6-1.7
		c-1-1.1-1.5-2.8-1.5-4.9c0-0.4,0-0.8,0.1-1.2H189.3z M176.1,640c1.4-1.1,2.9-1.7,4.6-1.7c1.6,0,2.8,0.5,3.8,1.6
		c1,1,1.5,2.5,1.5,4.5c0,0.2,0,0.5,0,0.9h-13C173.6,642.9,174.7,641.2,176.1,640z"/>
	<path d="M217.6,627.4l-4.5,2.7l-1.2,5.6h-3.1l0,0.1c-0.9-0.4-1.7-0.6-2.3-0.6c-1.2,0-2.3,0.4-3.5,1.3c-1.1,0.9-2.3,2.2-3.5,3.9
		l1-4.7H197l-4.8,23h3.7l1.9-9.2c0.8-4,2-6.7,3.4-8.3c1.5-1.5,2.9-2.3,4.2-2.3c0.8,0,1.6,0.3,2.2,0.8l0.5-1.1l0,0.2h3.1l-2.8,13.4
		c-0.4,1.8-0.6,3-0.6,3.5c0,1,0.3,1.8,1,2.4c0.9,0.8,2.2,1.2,3.7,1.2c0.9,0,1.8-0.1,2.7-0.4l0.7-3.2c-0.7,0.2-1.5,0.3-2.3,0.3
		c-0.6,0-1-0.1-1.3-0.4c-0.3-0.2-0.4-0.6-0.4-1.1c0-0.3,0.2-1.3,0.5-2.9l2.7-12.7h3.8l0.7-3h-3.9L217.6,627.4z"/>
	<path d="M257.1,627.8c-1.1-0.5-2.9-0.8-5.2-0.8h-13.3l-6.7,31.8h4.2l2.7-12.9h8c2.1,0,4.1-0.2,6.2-0.7c1-0.2,1.8-0.5,2.7-1
		c0.8-0.5,1.7-1.1,2.5-2c0.8-0.9,1.5-2,2-3.4c0.5-1.4,0.8-2.7,0.8-4c0-1.6-0.4-3-1.1-4.3C259.2,629.2,258.3,628.3,257.1,627.8z
		 M255.8,638.7c-0.8,1.2-1.8,2.1-3.1,2.7c-1.3,0.6-3.3,0.9-6,0.9h-7l2.5-11.8h8.2c2.1,0,3.5,0.2,4.3,0.5c0.7,0.3,1.3,0.8,1.7,1.5
		c0.4,0.7,0.6,1.5,0.6,2.5C257,636.3,256.6,637.5,255.8,638.7z"/>
	<path d="M274.5,635.3c-3.5,0-6.4,1.2-8.6,3.6c-2.6,2.9-4,6.7-4,11.1c0,1.8,0.4,3.4,1.2,4.8c0.8,1.4,1.9,2.5,3.4,3.2
		c1.5,0.8,3.1,1.1,4.9,1.1c2.2,0,4.3-0.6,6.2-1.8c2-1.2,3.5-3,4.6-5.2c1.1-2.3,1.6-4.7,1.6-7.4c0-2.9-0.9-5.3-2.5-7
		C279.5,636.1,277.2,635.3,274.5,635.3z M279.2,649c-0.3,1-0.7,2-1.2,2.9c-0.5,0.9-1.1,1.7-1.8,2.4c-0.7,0.7-1.5,1.2-2.3,1.5
		c-0.8,0.3-1.7,0.5-2.5,0.5c-1.6,0-2.9-0.6-4-1.7c-1-1.1-1.6-2.8-1.6-4.9c0-1.2,0.2-2.5,0.6-4c0.4-1.5,1-2.8,1.8-3.9
		c0.8-1.1,1.7-2,2.8-2.6c1-0.6,2.1-0.9,3.4-0.9c1.6,0,2.9,0.6,4,1.7c1.1,1.1,1.6,2.8,1.6,4.8C279.9,646.2,279.7,647.5,279.2,649z"/>
	<path d="M315,635.7l-4.9,10.5c-1.6,3.4-2.8,6.1-3.5,8c0-2.9-0.1-5.2-0.2-7l-0.7-11.5h-4.3l-5.5,12c-0.7,1.5-1.1,2.6-1.4,3.4
		c-0.3,0.8-0.7,1.9-1.1,3.4c-0.1-1.3-0.1-2.2-0.2-2.6l-0.4-5.8l-1-10.4h-3.8l2.4,23h4.1l6.1-13.4c0.8-1.8,1.5-3.5,2.1-5
		c0,2.4,0.1,4.1,0.2,4.9l0.8,13.5h4.1l11.3-23H315z"/>
	<path d="M331.1,635.3c-2.2,0-4.2,0.6-6,1.7c-1.8,1.1-3.4,2.9-4.5,5.3c-1.2,2.4-1.7,4.8-1.7,7.3c0,1.9,0.4,3.6,1.1,5.1
		c0.7,1.5,1.8,2.6,3.3,3.4c1.4,0.8,3,1.2,4.7,1.2c2.7,0,5.1-0.9,7.1-2.6c2-1.7,3.2-3.5,3.8-5.4l-3.8-0.4c-0.7,1.7-1.7,2.9-3,3.8
		c-1.3,0.9-2.6,1.3-4,1.3c-1.4,0-2.7-0.6-3.6-1.7c-1-1.1-1.5-2.8-1.5-4.9c0-0.4,0-0.8,0.1-1.2h17c0.2-1.2,0.3-2.3,0.3-3.5
		c0-2.9-0.8-5.3-2.5-7C336,636.1,333.8,635.3,331.1,635.3z M336.4,645.2h-13c0.7-2.3,1.7-4,3.1-5.2c1.4-1.1,2.9-1.7,4.6-1.7
		c1.6,0,2.8,0.5,3.8,1.6c1,1,1.5,2.5,1.5,4.5C336.5,644.5,336.5,644.8,336.4,645.2z"/>
	<path d="M353.5,636.5c-1.1,0.9-2.3,2.2-3.5,3.9l1-4.7h-3.5l-4.8,23h3.7l1.9-9.2c0.8-4,2-6.7,3.4-8.3c1.5-1.5,2.9-2.3,4.2-2.3
		c0.8,0,1.6,0.3,2.2,0.8l1.6-3.6c-1.1-0.6-2.1-0.8-2.9-0.8C355.8,635.3,354.6,635.7,353.5,636.5z"/>
	<path d="M701.7,642.3L564,504.6c-3.1-3.1-8.2-3.1-11.3,0L401.5,655.8c-3.1,3.1-3.1,8.2,0,11.3c3.1,3.1,8.2,3.1,11.3,0l145.6-145.6
		l129.7,129.7V767H468V650.2c0-4.4-3.6-8-8-8c-4.4,0-8,3.6-8,8V775c0,4.4,3.6,8,8,8h236.1c4.4,0,8-3.6,8-8l0-127
		C704,645.9,703.3,643.9,701.7,642.3z"/>
	<rect x="452.3" y="537.8" width="15.9" height="32.3"/>
	<circle cx="460.3" cy="512.2" r="8.7"/>
	<path d="M506.5,616c-2.4-2.4-5.7-3.9-9.4-3.9c-3.7,0-7,1.5-9.4,3.9c-2.4,2.4-3.9,5.7-3.9,9.4c0,3.7,1.5,7,3.9,9.4
		c2.4,2.4,5.7,3.9,9.4,3.9c3.7,0,7-1.5,9.4-3.9c0.5-0.5,0.9-1,1.3-1.5l63.8,34.3l-65.7,65.7c-2-1.2-4.3-1.9-6.8-1.9
		c-3.7,0-7,1.5-9.4,3.9c-2.4,2.4-3.9,5.7-3.9,9.4c0,3.7,1.5,7,3.9,9.4c2.4,2.4,5.7,3.9,9.4,3.9c3.7,0,7-1.5,9.4-3.9
		c2.1-2.1,3.5-4.9,3.8-8.1l140.4-26.7c0.6,1.2,1.5,2.4,2.4,3.3c2.4,2.4,5.7,3.9,9.4,3.9c3.7,0,7-1.5,9.4-3.9
		c2.4-2.4,3.9-5.7,3.9-9.4c0-3.7-1.5-7-3.9-9.4c-2.4-2.4-5.7-3.9-9.4-3.9c-1.9,0-3.7,0.4-5.3,1.1l-43.9-56.4c2-2.3,3.2-5.4,3.2-8.7
		c0-3.7-1.5-7-3.9-9.4c-2.4-2.4-5.7-3.9-9.4-3.9c-3.7,0-7,1.5-9.4,3.9c-2.4,2.4-3.9,5.7-3.9,9.4c0,3.1,1.1,6,2.9,8.3l-19.3,19.3
		L510,628.6c0.2-1,0.4-2.1,0.4-3.1C510.4,621.8,508.9,618.5,506.5,616z M502.7,631.1c-1.5,1.5-3.5,2.4-5.7,2.4
		c-2.2,0-4.2-0.9-5.7-2.4c-1.5-1.5-2.3-3.5-2.3-5.7c0-2.2,0.9-4.2,2.3-5.7c1.5-1.5,3.5-2.3,5.7-2.3c2.2,0,4.2,0.9,5.7,2.3
		s2.3,3.5,2.3,5.7C505.1,627.7,504.2,629.7,502.7,631.1z M504.7,750.6c-1.5,1.5-3.5,2.3-5.7,2.3c-2.2,0-4.2-0.9-5.7-2.3
		c-1.5-1.5-2.3-3.5-2.3-5.7c0-2.2,0.9-4.2,2.3-5.7c1.5-1.5,3.5-2.4,5.7-2.4c2.2,0,4.2,0.9,5.7,2.4c1.5,1.5,2.4,3.5,2.4,5.7
		C507.1,747.1,506.2,749.1,504.7,750.6z M658.9,707.8c1.5-1.5,3.5-2.3,5.7-2.3c2.2,0,4.2,0.9,5.7,2.3c1.5,1.5,2.4,3.5,2.4,5.7
		c0,2.2-0.9,4.2-2.4,5.7c-1.5,1.5-3.5,2.3-5.7,2.3c-2.2,0-4.2-0.9-5.7-2.3c-1.5-1.5-2.3-3.5-2.3-5.7
		C656.6,711.3,657.5,709.3,658.9,707.8z M599.6,630.5c1.5-1.5,3.5-2.3,5.7-2.3c2.2,0,4.2,0.9,5.7,2.3c1.5,1.5,2.3,3.5,2.3,5.7
		c0,2.2-0.9,4.2-2.3,5.7c-1.5,1.5-3.5,2.3-5.7,2.3c-2.2,0-4.2-0.9-5.7-2.3c-1.5-1.5-2.3-3.5-2.3-5.7
		C597.3,633.9,598.2,631.9,599.6,630.5z M599,647.9c1.9,1,4,1.6,6.3,1.6c2.1,0,4.1-0.5,5.9-1.4l43.7,56.2c-0.4,0.5-0.8,1-1.2,1.5
		l-73.3-39.4L599,647.9z M576.5,670.3l75.1,40.3c-0.2,0.9-0.3,1.8-0.3,2.8c0,0.3,0,0.7,0,1L511.8,741c-0.4-1.4-1.1-2.8-2-4
		L576.5,670.3z"/>
	<path d="M506.2,262.7h8c2.1,0,4.1-0.2,6.2-0.7c1-0.2,1.8-0.5,2.7-1c0.8-0.5,1.7-1.1,2.5-2c0.8-0.9,1.5-2,2-3.4
		c0.5-1.4,0.8-2.7,0.8-4c0-1.6-0.4-3-1.1-4.3c-0.8-1.3-1.7-2.2-2.9-2.7c-1.1-0.5-2.9-0.8-5.2-0.8h-13.3l-6.7,31.8h4.2L506.2,262.7z
		 M509.4,247.2h8.2c2.1,0,3.5,0.2,4.3,0.5c0.7,0.3,1.3,0.8,1.7,1.5c0.4,0.7,0.6,1.5,0.6,2.5c0,1.3-0.4,2.6-1.2,3.8
		c-0.8,1.2-1.8,2.1-3.1,2.7c-1.3,0.6-3.3,0.9-6,0.9h-7L509.4,247.2z"/>
	<polygon points="532.1,275.6 538.7,243.8 534.8,243.8 528.2,275.6 	"/>
	<path d="M556.8,275.6l5.1-23H558l-2.2,10c-0.4,2-0.8,3.4-1.1,4.2c-0.5,1.2-1.1,2.3-1.9,3.2c-0.8,0.9-1.7,1.6-2.8,2.2
		c-1.1,0.5-2.2,0.8-3.3,0.8c-1,0-1.8-0.2-2.4-0.7c-0.5-0.4-0.8-1.1-0.8-1.8c0-0.7,0.1-1.7,0.4-2.9l3.4-14.9h-3.9l-3,13.3
		c-0.5,2.4-0.8,4-0.8,5c0,1.5,0.5,2.7,1.6,3.7c1.1,1,2.5,1.5,4.3,1.5c2.9,0,5.7-1.6,8.5-4.7l-0.9,4.2H556.8z"/>
	<path d="M576.1,279.7c-1,1.2-2.7,1.8-5.1,1.8c-1.1,0-2-0.2-2.7-0.5c-0.5-0.2-0.9-0.6-1.2-1c-0.2-0.5-0.4-1.1-0.3-2l-4-0.4
		c-0.1,0.4-0.1,0.8-0.1,1.2c0,1.2,0.3,2.2,1,3.2c0.7,0.9,1.7,1.6,3,2.1c1.3,0.5,2.9,0.7,4.8,0.7c1.9,0,3.6-0.4,5.1-1.1
		c1.5-0.7,2.6-1.8,3.4-3.2c0.8-1.4,1.5-3.3,2-5.7l4.7-22.2H583l-0.8,3.7c-1.6-2.8-4-4.2-7-4.2c-1.8,0-3.6,0.6-5.3,1.7
		c-1.7,1.1-3.2,2.7-4.4,4.9c-1.2,2.2-1.8,4.5-1.8,7.1c0,3.1,0.8,5.6,2.4,7.3c1.6,1.7,3.5,2.6,5.8,2.6c2.3,0,4.5-1,6.5-3.1l-0.4,1.9
		C577.4,277.1,576.8,278.9,576.1,279.7z M576.5,271c-1.3,0.9-2.6,1.4-3.8,1.4c-1,0-1.9-0.3-2.7-0.9c-0.8-0.6-1.4-1.4-1.9-2.5
		c-0.3-0.8-0.5-2-0.5-3.6c0-0.8,0.2-1.9,0.6-3.3c0.4-1.5,1-2.7,1.8-3.8c0.8-1.1,1.6-1.8,2.5-2.3c0.9-0.5,1.8-0.8,2.8-0.8
		c1.5,0,2.8,0.6,3.9,1.7c1.1,1.1,1.6,2.6,1.6,4.5c0,1.7-0.4,3.5-1.2,5.4C578.8,268.7,577.8,270.1,576.5,271z"/>
	<polygon points="608.7,252.5 604.8,252.5 599.9,275.6 603.8,275.6 	"/>
	<polygon points="610.5,243.8 606.6,243.8 605.7,248.2 609.6,248.2 	"/>
	<path d="M613.7,275.6l2.2-10.7c0.7-3.5,1.9-6,3.5-7.4c1.6-1.4,3.4-2.2,5.5-2.2c1,0,1.8,0.2,2.3,0.7c0.5,0.5,0.8,1.1,0.8,1.9
		c0,0.7-0.2,1.7-0.5,3.1l-3.2,14.6h3.9l3.1-13.9c0.4-1.8,0.6-3.2,0.6-4c0-1.7-0.5-3.1-1.6-4.1c-1.1-1-2.6-1.5-4.4-1.5
		c-1.4,0-2.8,0.4-4.2,1.1c-1.4,0.7-2.8,1.9-4.4,3.4l0.8-4h-3.6l-4.8,23H613.7z"/>
	<path d="M635.6,272.5c0,1,0.3,1.8,1,2.4c0.9,0.8,2.2,1.2,3.7,1.2c0.9,0,1.8-0.1,2.7-0.4l0.7-3.2c-0.7,0.2-1.5,0.3-2.3,0.3
		c-0.6,0-1-0.1-1.3-0.4c-0.3-0.2-0.4-0.6-0.4-1.1c0-0.3,0.2-1.3,0.5-2.9l2.7-12.7h3.8l0.7-3h-3.9l1.8-8.3l-4.5,2.7l-1.2,5.6h-3.1
		l-0.6,3h3.1l-2.8,13.4C635.8,270.8,635.6,271.9,635.6,272.5z"/>
	<path d="M652.1,274.9c1.5,0.8,3.1,1.1,4.9,1.1c2.2,0,4.3-0.6,6.2-1.8c2-1.2,3.5-3,4.6-5.2c1.1-2.3,1.6-4.7,1.6-7.4
		c0-2.9-0.9-5.3-2.5-7c-1.7-1.7-3.9-2.6-6.7-2.6c-3.5,0-6.4,1.2-8.6,3.6c-2.6,2.9-4,6.7-4,11.1c0,1.8,0.4,3.4,1.2,4.8
		C649.5,273.1,650.6,274.2,652.1,274.9z M652.1,262.4c0.4-1.5,1-2.8,1.8-3.9c0.8-1.1,1.7-2,2.8-2.6c1-0.6,2.1-0.9,3.4-0.9
		c1.6,0,2.9,0.6,4,1.7c1.1,1.1,1.6,2.8,1.6,4.8c0,1.3-0.2,2.7-0.7,4.1c-0.3,1-0.7,2-1.2,2.9c-0.5,0.9-1.1,1.7-1.8,2.4
		c-0.7,0.7-1.5,1.2-2.3,1.5c-0.8,0.3-1.7,0.5-2.5,0.5c-1.6,0-2.9-0.6-4-1.7c-1-1.1-1.6-2.8-1.6-4.9
		C651.5,265.3,651.7,263.9,652.1,262.4z"/>
	<path d="M688.9,283.7c1.1-0.8,2.4-2.5,3.8-5.1l14.7-26.1h-4.1L693,271c-0.2-2.3-0.5-4.6-0.9-6.9l-1.7-11.6h-3.9l3.8,23.1l-1.3,2.2
		c-0.8,1.3-1.5,2.2-2.1,2.7c-0.5,0.4-1.1,0.5-1.9,0.5c-0.8,0-1.6-0.1-2.4-0.3l-0.2,3.7c0.9,0.3,1.8,0.5,2.7,0.5
		C686.5,284.9,687.8,284.5,688.9,283.7z"/>
	<path d="M708,271.7c0.8,1.4,1.9,2.5,3.4,3.2c1.5,0.8,3.1,1.1,4.9,1.1c2.2,0,4.3-0.6,6.2-1.8c2-1.2,3.5-3,4.6-5.2
		c1.1-2.3,1.6-4.7,1.6-7.4c0-2.9-0.9-5.3-2.5-7c-1.7-1.7-3.9-2.6-6.7-2.6c-3.5,0-6.4,1.2-8.6,3.6c-2.6,2.9-4,6.7-4,11.1
		C706.8,268.7,707.2,270.3,708,271.7z M711.3,262.4c0.4-1.5,1-2.8,1.8-3.9c0.8-1.1,1.7-2,2.8-2.6c1-0.6,2.1-0.9,3.4-0.9
		c1.6,0,2.9,0.6,4,1.7c1.1,1.1,1.6,2.8,1.6,4.8c0,1.3-0.2,2.7-0.7,4.1c-0.3,1-0.7,2-1.2,2.9c-0.5,0.9-1.1,1.7-1.8,2.4
		c-0.7,0.7-1.5,1.2-2.3,1.5c-0.8,0.3-1.7,0.5-2.5,0.5c-1.6,0-2.9-0.6-4-1.7c-1-1.1-1.6-2.8-1.6-4.9
		C710.7,265.3,710.9,263.9,711.3,262.4z"/>
	<path d="M738,276.1c2.9,0,5.7-1.6,8.5-4.7l-0.9,4.2h3.6l5.1-23h-3.9l-2.2,10c-0.4,2-0.8,3.4-1.1,4.2c-0.5,1.2-1.1,2.3-1.9,3.2
		c-0.8,0.9-1.7,1.6-2.8,2.2c-1.1,0.5-2.2,0.8-3.3,0.8c-1,0-1.8-0.2-2.4-0.7c-0.5-0.4-0.8-1.1-0.8-1.8c0-0.7,0.1-1.7,0.4-2.9
		l3.4-14.9h-3.9l-3,13.3c-0.5,2.4-0.8,4-0.8,5c0,1.5,0.5,2.7,1.6,3.7C734.8,275.6,736.3,276.1,738,276.1z"/>
	<path d="M761.2,266.3c0.8-4,2-6.7,3.4-8.3c1.5-1.5,2.9-2.3,4.2-2.3c0.8,0,1.6,0.3,2.2,0.8l1.6-3.6c-1.1-0.6-2.1-0.8-2.9-0.8
		c-1.2,0-2.3,0.4-3.5,1.3c-1.1,0.9-2.3,2.2-3.5,3.9l1-4.7h-3.5l-4.8,23h3.7L761.2,266.3z"/>
	<path d="M804.5,274.3c1.7-0.9,3.1-2.1,4.1-3.7c1-1.6,1.5-3.3,1.5-5c0-1.5-0.4-2.8-1.3-4c-0.9-1.1-2.2-2-3.9-2.6
		c2-0.7,3.5-1.7,4.4-3c1-1.3,1.5-2.9,1.5-4.6c0-1.3-0.3-2.5-0.8-3.5c-0.5-1.1-1.3-1.9-2.3-2.5c-1-0.6-2.2-1-3.7-1.3
		c-0.9-0.1-2.3-0.2-4.1-0.2h-10.1l-6.7,31.8h15.7C800.9,275.6,802.8,275.1,804.5,274.3z M793.2,247.4h7.1c2,0,3.4,0.1,4.2,0.4
		c0.7,0.3,1.3,0.8,1.8,1.4c0.4,0.7,0.7,1.4,0.7,2.3c0,1.9-0.7,3.3-2.1,4.3c-1.4,1-3.7,1.5-6.9,1.5h-6.8L793.2,247.4z M788,272
		l2.3-11h8.4c2.7,0,4.6,0.4,5.5,1.2c1,0.8,1.4,1.9,1.4,3.4c0,1-0.2,2-0.7,2.9c-0.5,0.9-1.2,1.6-2,2.2c-0.9,0.6-2,0.9-3.4,1.2
		c-0.7,0.1-2,0.2-4,0.2H788z"/>
	<path d="M817.5,274.9c1.5,0.8,3.1,1.1,4.9,1.1c2.2,0,4.3-0.6,6.2-1.8c2-1.2,3.5-3,4.6-5.2c1.1-2.3,1.6-4.7,1.6-7.4
		c0-2.9-0.9-5.3-2.5-7c-1.7-1.7-3.9-2.6-6.7-2.6c-3.5,0-6.4,1.2-8.6,3.6c-2.6,2.9-4,6.7-4,11.1c0,1.8,0.4,3.4,1.2,4.8
		C814.9,273.1,816,274.2,817.5,274.9z M817.4,262.4c0.4-1.5,1-2.8,1.8-3.9c0.8-1.1,1.7-2,2.8-2.6c1-0.6,2.1-0.9,3.4-0.9
		c1.6,0,2.9,0.6,4,1.7c1.1,1.1,1.6,2.8,1.6,4.8c0,1.3-0.2,2.7-0.7,4.1c-0.3,1-0.7,2-1.2,2.9c-0.5,0.9-1.1,1.7-1.8,2.4
		c-0.7,0.7-1.5,1.2-2.3,1.5c-0.8,0.3-1.7,0.5-2.5,0.5c-1.6,0-2.9-0.6-4-1.7c-1-1.1-1.6-2.8-1.6-4.9
		C816.8,265.3,817,263.9,817.4,262.4z"/>
	<polygon points="845.6,252.5 841.7,252.5 836.9,275.6 840.8,275.6 	"/>
	<polygon points="847.4,243.8 843.5,243.8 842.6,248.2 846.5,248.2 	"/>
	<polygon points="850.4,275.6 857.1,243.8 853.2,243.8 846.5,275.6 	"/>
	<path d="M861.9,274.9c1.4,0.8,3,1.2,4.7,1.2c2.7,0,5.1-0.9,7.1-2.6c2-1.7,3.2-3.5,3.8-5.4l-3.8-0.4c-0.7,1.7-1.7,2.9-3,3.8
		c-1.3,0.9-2.6,1.3-4,1.3c-1.4,0-2.7-0.6-3.6-1.7c-1-1.1-1.5-2.8-1.5-4.9c0-0.4,0-0.8,0.1-1.2h17c0.2-1.2,0.3-2.3,0.3-3.5
		c0-2.9-0.8-5.3-2.5-7c-1.6-1.7-3.8-2.6-6.6-2.6c-2.2,0-4.2,0.6-6,1.7c-1.8,1.1-3.4,2.9-4.5,5.3c-1.2,2.4-1.7,4.8-1.7,7.3
		c0,1.9,0.4,3.6,1.1,5.1C859.4,273,860.4,274.1,861.9,274.9z M865.3,256.8c1.4-1.1,2.9-1.7,4.6-1.7c1.6,0,2.8,0.5,3.8,1.6
		c1,1,1.5,2.5,1.5,4.5c0,0.2,0,0.5,0,0.9h-13C862.8,259.7,863.9,257.9,865.3,256.8z"/>
	<path d="M887,266.3c0.8-4,2-6.7,3.4-8.3c1.5-1.5,2.9-2.3,4.2-2.3c0.8,0,1.6,0.3,2.2,0.8l1.6-3.6c-1.1-0.6-2.1-0.8-2.9-0.8
		c-1.2,0-2.3,0.4-3.5,1.3c-1.1,0.9-2.3,2.2-3.5,3.9l1-4.7h-3.5l-4.8,23h3.7L887,266.3z"/>
	<polygon points="193.2,679.8 151.2,734.5 137,723.6 125.6,783 179.9,756.5 165.6,745.6 207.6,690.9 	"/>
	<polygon points="909.4,279.4 934.3,254.5 940.7,261 950.5,231.7 921.2,241.5 927.7,248 902.8,272.9 	"/>
</g>
</svg>
