<?xml version="1.0" standalone="no"?>
<!DOCTYPE svg PUBLIC "-//W3C//DTD SVG 20010904//EN"
 "http://www.w3.org/TR/2001/REC-SVG-20010904/DTD/svg10.dtd">
<svg version="1.0" xmlns="http://www.w3.org/2000/svg"
 width="300.000000pt" height="300.000000pt" viewBox="0 0 300.000000 300.000000"
 preserveAspectRatio="xMidYMid meet">
<metadata>
Created by potrace 1.10, written by Peter Selinger 2001-2011
</metadata>
<g transform="translate(0.000000,300.000000) scale(0.100000,-0.100000)"
fill="#facd75" stroke="none">
<path d="M601 2844 c-15 -6 -32 -23 -39 -38 -9 -21 -12 -227 -12 -877 l0 -851
29 -29 29 -29 676 0 676 0 0 -395 0 -395 155 0 155 0 0 395 0 395 61 0 c54 0
64 3 90 29 l29 29 0 852 c0 921 1 902 -53 915 -46 12 -1769 10 -1796 -1z
m1804 -29 l25 -24 0 -852 0 -853 -22 -23 -21 -23 -886 0 -885 0 -23 22 -23 21
0 854 0 854 25 24 24 25 881 0 881 0 24 -25z m-155 -2185 l0 -390 -135 0 -135
0 0 390 0 390 135 0 135 0 0 -390z"/>
<path d="M1452 2734 c-28 -19 -30 -74 -4 -97 26 -24 67 -21 92 5 27 29 25 54
-5 83 -28 29 -51 31 -83 9z m72 -20 c34 -34 9 -78 -40 -72 -34 4 -48 37 -28
67 18 25 46 27 68 5z"/>
<path d="M1190 2706 c-27 -33 18 -72 48 -42 13 13 14 20 6 34 -15 23 -38 26
-54 8z"/>
<path d="M1130 2620 c-8 -5 -11 -10 -5 -10 5 0 -12 -22 -38 -48 -26 -27 -44
-51 -40 -55 4 -4 28 14 55 40 26 26 48 43 48 38 0 -14 20 18 20 33 0 14 -19
16 -40 2z"/>
<path d="M1574 2594 c3 -9 6 -20 6 -25 0 -4 6 -6 13 -3 8 3 30 -13 51 -36 21
-23 40 -39 44 -36 3 4 -13 25 -35 49 -22 23 -39 48 -36 55 3 8 -5 12 -22 12
-21 0 -26 -4 -21 -16z"/>
<path d="M1807 2514 c-4 -4 -7 -20 -7 -36 0 -23 4 -28 26 -28 21 0 25 4 22 23
-2 12 -7 21 -13 19 -5 -2 -12 4 -15 13 -3 9 -9 13 -13 9z m33 -44 c0 -5 -4
-10 -10 -10 -5 0 -10 5 -10 10 0 6 5 10 10 10 6 0 10 -4 10 -10z"/>
<path d="M1910 2480 c0 -16 4 -30 10 -30 5 0 7 7 4 15 -4 8 -1 15 5 15 6 0 11
-7 11 -15 0 -28 15 -15 17 15 2 30 -11 41 -20 18 -4 -10 -6 -10 -6 0 -2 26
-21 10 -21 -18z"/>
<path d="M1861 2478 c-1 -22 4 -28 19 -28 15 0 20 6 19 28 -2 23 -2 24 -6 5
-2 -13 -8 -23 -13 -23 -5 0 -11 10 -13 23 -4 19 -4 18 -6 -5z"/>
<path d="M1977 2494 c-16 -16 -7 -44 14 -44 15 0 20 5 17 22 -3 22 -19 33 -31
22z m23 -24 c0 -5 -4 -10 -10 -10 -5 0 -10 5 -10 10 0 6 5 10 10 10 6 0 10 -4
10 -10z"/>
<path d="M2020 2473 c0 -12 5 -23 11 -23 6 0 9 7 5 15 -3 8 -1 15 4 15 6 0 10
-7 10 -15 0 -8 5 -15 10 -15 12 0 13 20 2 36 -13 21 -42 12 -42 -13z"/>
<path d="M767 2474 c-3 -5 -3 -21 0 -36 4 -22 10 -26 32 -25 20 2 26 8 26 27
0 19 -5 24 -19 22 -10 -2 -22 2 -26 8 -4 7 -10 8 -13 4z m52 -41 c0 -10 -3
-13 -5 -6 -3 7 -12 9 -20 6 -8 -3 -14 0 -14 6 0 6 9 11 20 11 13 0 20 -6 19
-17z"/>
<path d="M847 2472 c-4 -6 -5 -22 -2 -35 6 -22 11 -24 58 -22 69 4 67 3 67 15
0 6 -7 10 -16 10 -8 0 -12 -4 -9 -10 4 -6 -1 -7 -12 -3 -15 6 -13 9 11 18 22
9 25 13 12 18 -8 3 -18 2 -22 -4 -4 -6 -11 -6 -20 2 -11 9 -14 7 -15 -12 -1
-17 -3 -19 -6 -6 -2 9 -11 17 -18 17 -7 0 -15 5 -17 12 -3 9 -6 9 -11 0z"/>
<path d="M1003 2445 c0 -22 2 -30 4 -17 2 12 2 30 0 40 -3 9 -5 -1 -4 -23z"/>
<path d="M1100 2470 c0 -5 -7 -10 -16 -10 -22 0 -14 -44 9 -48 14 -3 17 4 17
32 0 20 -2 36 -5 36 -3 0 -5 -4 -5 -10z m0 -30 c0 -5 -4 -10 -10 -10 -5 0 -10
5 -10 10 0 6 5 10 10 10 6 0 10 -4 10 -10z"/>
<path d="M725 2460 c-4 -6 -1 -18 6 -26 10 -12 9 -13 -7 -8 -15 6 -17 4 -7 -6
6 -7 19 -10 27 -7 18 7 22 27 5 27 -5 0 -8 4 -4 9 3 5 1 12 -4 15 -5 4 -13 2
-16 -4z"/>
<path d="M1023 2444 c-7 -18 11 -39 26 -30 17 11 13 46 -4 46 -9 0 -18 -7 -22
-16z"/>
<path d="M1040 2195 c0 -76 2 -85 18 -85 15 0 18 6 14 30 -4 27 -2 30 25 30
38 0 73 26 73 54 0 36 -30 56 -83 56 l-47 0 0 -85z m88 43 c16 -16 -3 -38 -34
-38 -19 0 -24 5 -24 25 0 19 5 25 23 25 13 0 28 -5 35 -12z"/>
<path d="M1223 2254 c-13 -14 -23 -32 -23 -41 0 -14 2 -14 20 2 20 18 20 17
20 -43 0 -52 3 -62 18 -62 15 0 17 11 17 85 0 94 -10 105 -52 59z"/>
<path d="M1476 2251 c6 -27 5 -28 -32 -27 -33 1 -39 -3 -47 -25 -6 -14 -7 -38
-3 -53 7 -28 44 -49 62 -35 5 4 20 6 32 2 21 -5 22 -3 22 81 0 79 -2 86 -20
86 -16 0 -19 -5 -14 -29z m-6 -56 c10 -12 10 -21 2 -40 -7 -14 -16 -25 -21
-25 -18 0 -33 30 -27 55 7 28 27 33 46 10z"/>
<path d="M1980 2195 c0 -69 3 -85 15 -85 12 0 15 16 15 85 0 69 -3 85 -15 85
-12 0 -15 -16 -15 -85z"/>
<path d="M1742 2231 c-7 -4 -23 -6 -35 -4 -21 4 -22 1 -22 -56 0 -51 3 -61 18
-61 14 0 17 9 17 45 0 33 5 47 16 52 22 8 35 -15 32 -59 -3 -31 0 -38 15 -38
15 0 18 7 15 51 -3 55 -29 87 -56 70z"/>
<path d="M1849 2222 c-14 -12 -22 -30 -22 -50 0 -45 20 -65 60 -59 30 5 32 4
23 -14 -11 -20 -35 -25 -45 -9 -3 6 -16 10 -27 10 -20 0 -21 -1 -3 -20 21 -24
77 -27 95 -6 6 8 14 47 17 86 l5 70 -29 -2 c-16 -1 -34 1 -40 5 -6 4 -21 -1
-34 -11z m59 -46 c4 -30 -12 -48 -35 -39 -14 5 -18 54 -6 67 15 15 38 -1 41
-28z"/>
<path d="M1552 2217 c-36 -44 -12 -109 41 -109 58 0 89 69 49 105 -22 20 -75
22 -90 4z m72 -29 c14 -23 -3 -53 -30 -53 -20 0 -31 33 -20 61 7 19 35 14 50
-8z"/>
<path d="M2050 2214 c-18 -21 -17 -72 2 -91 20 -19 62 -20 83 -3 13 10 13 15
3 21 -7 4 -18 3 -25 -3 -14 -12 -43 -4 -43 12 0 5 18 10 40 10 44 0 50 11 24
48 -18 26 -65 30 -84 6z m68 -21 c2 -8 -6 -13 -22 -13 -25 0 -33 10 -19 24 10
10 36 3 41 -11z"/>
<path d="M1420 1875 c-57 -57 -101 -108 -97 -112 4 -4 53 38 107 93 l100 99
90 -85 90 -85 0 -82 0 -83 -150 0 -150 0 0 90 c0 55 -4 90 -10 90 -7 0 -10
-35 -8 -97 l3 -98 165 0 165 0 3 89 3 90 -98 98 c-54 54 -100 98 -103 98 -3 0
-52 -47 -110 -105z"/>
<path d="M1390 1960 c0 -5 5 -10 10 -10 6 0 10 5 10 10 0 6 -4 10 -10 10 -5 0
-10 -4 -10 -10z"/>
<path d="M1390 1905 c0 -19 5 -35 10 -35 6 0 10 16 10 35 0 19 -4 35 -10 35
-5 0 -10 -16 -10 -35z"/>
<path d="M1436 1833 c-13 -13 -5 -33 13 -33 15 0 58 -18 90 -38 3 -1 -12 -20
-33 -41 -21 -22 -36 -43 -32 -49 3 -5 -5 -7 -19 -4 -15 2 -25 0 -25 -7 0 -17
28 -25 43 -13 7 6 49 16 94 23 46 8 79 17 75 21 -5 5 -39 1 -76 -7 -38 -9 -72
-15 -77 -13 -6 2 8 20 29 41 l38 37 52 -22 c28 -13 52 -29 52 -35 0 -7 6 -13
14 -13 19 0 33 23 17 28 -20 7 -52 45 -67 80 -14 32 -44 45 -44 18 0 -29 -24
-34 -67 -15 -24 10 -43 22 -43 28 0 11 -26 22 -34 14z m186 -70 c31 -37 28
-43 -11 -22 -23 11 -38 25 -35 30 8 14 30 10 46 -8z"/>
<path d="M785 1347 c-11 -36 -12 -57 -4 -57 5 0 9 4 9 9 0 5 9 11 20 14 11 3
20 12 20 20 0 18 -40 30 -45 14z m35 -11 c0 -3 -4 -8 -10 -11 -5 -3 -10 -1
-10 4 0 6 5 11 10 11 6 0 10 -2 10 -4z"/>
<path d="M847 1353 c-11 -19 -17 -63 -8 -63 5 0 11 15 14 33 5 33 3 45 -6 30z"/>
<path d="M1028 1354 c-5 -4 -8 -18 -8 -31 0 -12 -5 -23 -10 -23 -6 0 -8 11 -4
26 5 19 4 25 -5 20 -6 -4 -11 -18 -11 -32 0 -17 5 -24 20 -24 11 0 20 7 20 15
0 8 5 15 11 15 6 0 9 -7 5 -15 -3 -8 -1 -15 4 -15 6 0 10 12 10 26 0 14 -4 23
-9 19 -5 -3 -11 2 -13 11 -2 9 -6 12 -10 8z"/>
<path d="M1076 1332 c-5 -18 -5 -36 -2 -39 7 -7 19 43 13 59 -2 7 -7 -2 -11
-20z"/>
<path d="M1270 1347 c0 -6 -3 -22 -6 -34 -5 -19 -2 -23 15 -23 11 0 21 5 21
11 0 5 -4 7 -10 4 -5 -3 -10 1 -10 11 0 13 3 14 15 4 8 -7 15 -8 15 -3 0 5 -9
16 -20 26 -13 11 -20 13 -20 4z"/>
<path d="M1317 1328 c-4 -31 -2 -47 7 -37 8 10 15 69 7 69 -5 0 -11 -15 -14
-32z"/>
<path d="M1415 1329 c-9 -41 0 -48 13 -10 6 17 7 33 2 36 -5 3 -11 -9 -15 -26z"/>
<path d="M1823 1353 c-18 -6 -16 -23 5 -40 16 -13 15 -13 -7 -7 -16 4 -21 3
-17 -5 10 -15 46 -14 46 2 0 7 -6 19 -12 26 -11 10 -10 11 5 6 9 -4 17 -3 17
3 0 12 -21 21 -37 15z"/>
<path d="M2082 1337 c-14 -33 -16 -59 -3 -38 7 11 9 11 14 0 4 -12 7 -11 16 1
10 13 11 13 11 0 1 -27 20 12 20 40 l0 25 -19 -24 -19 -25 -4 25 -4 24 -12
-28z"/>
<path d="M1497 1343 c-9 -9 -9 -53 1 -53 4 0 8 14 9 30 2 31 1 34 -10 23z"/>
<path d="M2013 1338 c-13 -6 -23 -18 -24 -27 0 -10 -3 -8 -9 7 -10 23 -25 29
-35 12 -3 -5 -1 -10 4 -10 6 0 11 -5 11 -11 0 -5 -4 -7 -10 -4 -5 3 -10 1 -10
-4 0 -6 14 -11 30 -11 20 0 30 5 30 15 0 8 7 15 15 15 9 0 12 -6 9 -15 -4 -8
-2 -15 4 -15 5 0 12 10 16 23 11 41 8 44 -31 25z"/>
<path d="M2201 1318 c0 -28 2 -30 9 -13 12 28 12 45 0 45 -5 0 -10 -15 -9 -32z"/>
<path d="M867 1333 c-4 -3 -7 -15 -7 -25 0 -27 38 -23 43 5 3 16 5 13 6 -10 1
-40 27 -45 41 -7 15 37 13 40 -25 41 -28 0 -35 -3 -35 -18 0 -11 -5 -19 -11
-19 -6 0 -8 9 -4 20 6 20 4 25 -8 13z m73 -23 c0 -5 -4 -10 -10 -10 -5 0 -10
5 -10 10 0 6 5 10 10 10 6 0 10 -4 10 -10z"/>
<path d="M1105 1330 c-3 -5 -4 -14 -1 -19 4 -5 0 -12 -6 -14 -7 -3 -2 -6 11
-6 17 -1 22 3 17 14 -3 8 -1 15 5 15 6 0 7 5 4 10 -3 6 -10 10 -15 10 -5 0
-12 -4 -15 -10z"/>
<path d="M1170 1325 c-6 -8 -9 -19 -5 -25 8 -13 35 -13 35 1 0 5 -4 7 -10 4
-5 -3 -10 -1 -10 4 0 6 7 11 16 11 8 0 12 5 9 10 -9 14 -21 12 -35 -5z"/>
<path d="M1225 1330 c-3 -5 -1 -10 4 -10 6 0 11 -4 11 -10 0 -5 -7 -7 -15 -4
-8 4 -15 1 -15 -5 0 -6 9 -11 20 -11 15 0 20 7 20 25 0 25 -14 33 -25 15z"/>
<path d="M1353 1333 c-22 -8 -15 -43 7 -43 13 0 20 7 20 19 0 22 -9 30 -27 24z
m17 -17 c0 -3 -4 -8 -10 -11 -5 -3 -10 -1 -10 4 0 6 5 11 10 11 6 0 10 -2 10
-4z"/>
<path d="M1454 1332 c-15 -10 -25 -42 -14 -42 6 0 10 7 10 15 0 8 4 15 10 15
5 0 7 -7 4 -15 -4 -8 -1 -15 5 -15 13 0 15 36 3 44 -4 2 -13 2 -18 -2z"/>
<path d="M1527 1333 c-15 -14 -7 -43 12 -43 23 0 34 23 18 39 -13 13 -21 14
-30 4z m23 -23 c0 -5 -4 -10 -10 -10 -5 0 -10 5 -10 10 0 6 5 10 10 10 6 0 10
-4 10 -10z"/>
<path d="M1594 1305 c1 -42 10 -44 30 -7 10 18 15 21 16 10 0 -14 10 -16 60
-16 33 1 60 6 60 11 0 5 8 16 18 23 16 12 15 13 -5 14 -17 0 -23 -6 -24 -22
-1 -22 -1 -22 -8 2 l-7 25 -8 -25 -8 -25 -8 25 c-6 19 -8 21 -9 6 -1 -18 -2
-18 -19 -3 -14 13 -21 14 -30 5 -9 -9 -12 -9 -12 3 -1 10 -5 9 -15 -5 -13 -17
-15 -18 -15 -3 0 9 -4 17 -8 17 -5 0 -8 -16 -8 -35z m76 5 c0 -5 -4 -10 -10
-10 -5 0 -10 5 -10 10 0 6 5 10 10 10 6 0 10 -4 10 -10z"/>
<path d="M1865 1322 c-10 -26 -4 -37 9 -19 14 18 14 18 19 0 4 -16 5 -16 6 0
0 9 6 17 12 17 6 0 9 -7 5 -15 -3 -8 -1 -15 4 -15 6 0 10 11 10 24 0 20 -5 23
-30 22 -16 0 -32 -7 -35 -14z"/>
<path d="M2157 1334 c-15 -15 -7 -45 11 -42 9 2 17 12 17 22 0 20 -16 31 -28
20z"/>
<path d="M2230 1325 c-14 -16 -5 -35 16 -35 15 0 20 35 5 44 -5 3 -14 -1 -21
-9z"/>
<path d="M2274 1325 c-11 -27 1 -33 19 -9 16 21 16 24 2 24 -9 0 -18 -7 -21
-15z"/>
</g>
</svg>
