<?xml version="1.0" standalone="no"?>
<!DOCTYPE svg PUBLIC "-//W3C//DTD SVG 20010904//EN"
 "http://www.w3.org/TR/2001/REC-SVG-20010904/DTD/svg10.dtd">
<svg version="1.0" xmlns="http://www.w3.org/2000/svg"
 width="200.000000pt" height="200.000000pt" viewBox="0 0 200.000000 200.000000"
 preserveAspectRatio="xMidYMid meet">
<metadata>
Created by potrace 1.10, written by Peter Selinger 2001-2011
</metadata>
<g transform="translate(0.000000,200.000000) scale(0.100000,-0.100000)"
fill="#f9cd76" stroke="none">
<path d="M708 1890 c-245 -23 -355 -83 -393 -213 -46 -158 -46 -666 0 -824 30
-104 127 -176 282 -208 117 -25 320 -38 488 -32 390 14 545 77 599 243 48 147
47 667 -1 822 -35 112 -124 172 -303 202 -82 15 -556 21 -672 10z m672 -46
c52 -8 120 -26 150 -40 137 -63 152 -119 151 -544 -2 -357 -14 -433 -83 -497
-34 -32 -127 -72 -206 -88 -112 -24 -344 -37 -502 -30 -275 13 -413 48 -491
126 -42 41 -49 55 -65 125 -16 68 -19 120 -18 374 0 323 11 402 59 466 55 72
170 109 381 124 173 11 507 3 624 -16z"/>
<path d="M685 1799 c-152 -17 -210 -53 -240 -149 -26 -79 -33 -563 -12 -698
32 -194 83 -218 482 -227 238 -5 430 6 509 29 68 20 108 61 132 134 17 51 19
92 19 377 0 283 -2 327 -18 380 -33 105 -83 135 -252 155 -104 11 -517 11
-620 -1z m689 -39 c160 -34 176 -76 176 -495 0 -353 -15 -427 -93 -464 -65
-31 -178 -41 -457 -41 -374 0 -478 19 -514 95 -29 60 -38 196 -33 475 6 399
16 415 251 440 105 11 606 4 670 -10z"/>
<path d="M755 1668 c-51 -27 -60 -84 -20 -123 l24 -25 236 0 237 0 29 29 c16
16 29 39 29 51 0 12 -13 35 -29 51 l-29 29 -229 0 c-146 0 -235 -5 -248 -12z
m497 -25 c22 -19 23 -62 4 -89 -13 -18 -30 -19 -250 -22 l-236 -3 -25 25 c-29
29 -31 52 -9 84 15 22 18 22 256 22 211 0 244 -2 260 -17z"/>
<path d="M744 1625 c-15 -23 -15 -27 0 -50 11 -17 26 -25 46 -25 29 0 30 1 30
50 0 49 -1 50 -30 50 -20 0 -35 -8 -46 -25z m46 -25 c0 -21 -15 -27 -25 -10
-7 12 2 30 16 30 5 0 9 -9 9 -20z"/>
<path d="M840 1600 l0 -50 45 0 45 0 0 50 0 50 -45 0 -45 0 0 -50z m60 1 c0
-10 -7 -21 -15 -25 -11 -4 -15 1 -15 19 0 16 6 25 15 25 8 0 15 -9 15 -19z"/>
<path d="M950 1600 l0 -50 45 0 45 0 0 50 0 50 -45 0 -45 0 0 -50z m60 0 c0
-11 -7 -20 -15 -20 -8 0 -15 9 -15 20 0 11 7 20 15 20 8 0 15 -9 15 -20z"/>
<path d="M1060 1600 l0 -50 44 0 44 0 4 50 3 50 -47 0 -48 0 0 -50z m63 0 c-3
-11 -12 -20 -19 -20 -8 0 -14 9 -14 20 0 13 7 20 19 20 14 0 18 -5 14 -20z"/>
<path d="M1170 1600 c0 -50 0 -50 33 -50 38 0 57 15 57 46 0 31 -26 54 -61 54
-28 0 -29 -1 -29 -50z m58 -3 c2 -10 -3 -17 -12 -17 -10 0 -16 9 -16 21 0 24
23 21 28 -4z"/>
<path d="M900 1430 l0 -40 100 0 100 0 0 40 0 40 -100 0 -100 0 0 -40z"/>
<path d="M1134 1349 c-3 -5 0 -9 5 -9 6 0 11 -3 11 -7 0 -9 -288 -5 -310 4
-25 10 -60 12 -60 3 0 -4 7 -11 17 -14 14 -6 14 -8 -3 -21 -18 -13 -17 -14 13
-15 17 0 35 5 38 10 4 6 67 10 157 10 133 0 149 -2 138 -15 -18 -21 5 -19 50
4 l34 19 -42 20 c-23 11 -44 16 -48 11z"/>
<path d="M960 1228 c0 -10 34 -68 40 -68 7 0 40 55 40 67 0 4 -18 8 -40 8 -22
0 -40 -3 -40 -7z"/>
<path d="M577 1223 c-9 -8 -9 -61 -1 -102 6 -28 13 -33 68 -50 196 -60 533
-58 728 5 47 15 47 15 53 69 12 95 10 96 -136 66 -52 -11 -120 -22 -152 -26
-48 -5 -61 -11 -79 -36 -31 -41 -85 -41 -116 0 -18 25 -31 31 -79 36 -32 4
-100 15 -152 26 -102 21 -124 23 -134 12z m91 -37 c29 -8 94 -20 145 -27 89
-11 117 -21 117 -41 0 -11 -119 -2 -280 21 -40 5 -45 9 -48 34 -4 31 -4 31 66
13z m730 -13 c-3 -27 -6 -28 -88 -40 -127 -18 -240 -25 -240 -14 0 19 28 29
116 40 50 7 113 18 140 26 72 19 76 19 72 -12z m-738 -68 c0 -11 -8 -11 -32
-4 -18 5 -34 9 -35 9 -2 0 -3 4 -3 8 0 4 16 6 35 4 20 -2 35 -10 35 -17z m748
10 c-3 -3 -19 -10 -37 -15 -24 -7 -31 -5 -31 5 0 8 13 15 33 17 34 3 44 1 35
-7z m-698 -15 c0 -5 -9 -10 -20 -10 -11 0 -20 5 -20 10 0 6 9 10 20 10 11 0
20 -4 20 -10z m620 0 c0 -5 -9 -10 -20 -10 -11 0 -20 5 -20 10 0 6 9 10 20 10
11 0 20 -4 20 -10z m-530 -16 c0 -7 -8 -10 -20 -7 -11 3 -20 9 -20 14 0 4 9 7
20 6 11 -1 20 -7 20 -13z m460 5 c0 -4 -13 -9 -30 -11 -18 -3 -30 0 -30 7 0 6
14 11 30 11 17 0 30 -3 30 -7z m-430 -9 c0 -5 -4 -10 -10 -10 -5 0 -10 5 -10
10 0 6 5 10 10 10 6 0 10 -4 10 -10z m30 0 c0 -5 -4 -10 -10 -10 -5 0 -10 5
-10 10 0 6 5 10 10 10 6 0 10 -4 10 -10z m30 -6 c0 -8 -4 -12 -10 -9 -5 3 -10
10 -10 16 0 5 5 9 10 9 6 0 10 -7 10 -16z m70 -4 c0 -5 -13 -8 -30 -8 -16 1
-30 6 -30 13 0 7 11 10 30 7 17 -2 30 -8 30 -12z m140 7 c0 -9 -12 -14 -30
-15 -38 -1 -40 15 -2 21 15 2 28 5 30 6 1 0 2 -5 2 -12z m30 4 c0 -6 -4 -13
-10 -16 -5 -3 -10 1 -10 9 0 9 5 16 10 16 6 0 10 -4 10 -9z m30 -1 c0 -5 -4
-10 -10 -10 -5 0 -10 5 -10 10 0 6 5 10 10 10 6 0 10 -4 10 -10z m30 0 c0 -5
-4 -10 -10 -10 -5 0 -10 5 -10 10 0 6 5 10 10 10 6 0 10 -4 10 -10z m-160 -10
c0 -5 -13 -10 -30 -10 -16 0 -30 5 -30 10 0 6 14 10 30 10 17 0 30 -4 30 -10z"/>
<path d="M687 934 c-4 -4 -7 -18 -7 -31 0 -23 2 -24 82 -21 81 3 82 4 82 28 0
24 -2 25 -75 28 -41 1 -78 0 -82 -4z"/>
<path d="M870 930 c0 -5 16 -10 35 -10 19 0 35 5 35 10 0 6 -16 10 -35 10 -19
0 -35 -4 -35 -10z"/>
<path d="M970 910 c0 -6 47 -10 120 -10 73 0 120 4 120 10 0 6 -47 10 -120 10
-73 0 -120 -4 -120 -10z"/>
<path d="M870 890 c0 -5 13 -10 29 -10 17 0 33 5 36 10 4 6 -8 10 -29 10 -20
0 -36 -4 -36 -10z"/>
<path d="M900 835 c0 -25 0 -25 100 -25 100 0 100 0 100 25 0 25 0 25 -100 25
-100 0 -100 0 -100 -25z"/>
<path d="M1558 645 c-59 -31 -168 -61 -278 -76 -128 -17 -463 -14 -593 6 -101
15 -240 55 -262 76 -24 24 -32 8 -23 -48 6 -43 36 -113 111 -263 90 -180 106
-206 137 -222 31 -16 67 -18 350 -18 285 0 319 2 350 18 30 16 47 42 117 178
95 184 119 243 131 319 5 30 9 55 8 55 -1 -1 -22 -12 -48 -25z m-998 -80 c70
-18 177 -33 294 -40 50 -3 92 -8 95 -10 2 -3 -1 -11 -7 -17 -30 -30 10 -98 58
-98 39 0 74 48 65 89 l-6 29 93 7 c134 9 273 34 347 60 l63 23 -5 -41 c-3 -23
-46 -122 -95 -223 -80 -161 -94 -183 -125 -197 -30 -15 -76 -17 -337 -17 -261
0 -307 2 -337 17 -32 15 -45 36 -129 207 -51 105 -96 206 -99 224 l-7 33 38
-16 c20 -8 63 -22 94 -30z m476 -69 c3 -8 4 -22 2 -31 -2 -13 -9 -10 -32 14
l-30 31 27 0 c15 0 30 -6 33 -14z m-26 -64 c-29 -5 -50 15 -50 46 l0 26 36
-35 c33 -31 34 -34 14 -37z"/>
</g>
</svg>
