<?xml version="1.0" encoding="utf-8"?>
<!-- Generator: Adobe Illustrator 21.0.0, SVG Export Plug-In . SVG Version: 6.00 Build 0)  -->
<svg version="1.1" id="Layer_1" xmlns="http://www.w3.org/2000/svg" xmlns:xlink="http://www.w3.org/1999/xlink" x="0px" y="0px"
	 viewBox="0 0 1098.8 1166.4" style="enable-background:new 0 0 1098.8 1166.4;" xml:space="preserve">
<g>
	<path d="M1043.4,13h-990c-22.9,0-41.6,18.7-41.6,41.6v973.5c0,22.9,18.7,41.6,41.6,41.6h609.2v14.1c0,6,2.4,11.4,6.4,15.4
		c3.9,3.9,9.4,6.4,15.4,6.4h66.2v49.8h219.3v-49.8h53.7c6,0,11.4-2.4,15.4-6.4c3.9-3.9,6.4-9.4,6.4-15.4v-14.2
		c22-1,39.7-19.3,39.7-41.5V54.6C1085,31.7,1066.3,13,1043.4,13z M962.7,1148.3H757.7v-42.1h205.1V1148.3z M1033.9,1094.2
		c-2.7,2.7-6.3,4.3-10.4,4.3H684.4c-4,0-7.7-1.7-10.4-4.3c-2.7-2.7-4.3-6.3-4.3-10.4v-14.1h368.5v14.1
		C1038.2,1087.8,1036.6,1091.5,1033.9,1094.2z M1070.8,1028.1c0,15.1-12.3,27.4-27.4,27.4h-990c-15.1,0-27.4-12.3-27.4-27.4V54.6
		c0-15.1,12.3-27.4,27.4-27.4h990c15.1,0,27.4,12.3,27.4,27.4V1028.1z"/>
	<path d="M383.4,128.8c-9.8,0-17.8,8-17.8,17.8s8,17.8,17.8,17.8s17.8-8,17.8-17.8S393.2,128.8,383.4,128.8z M383.4,157.2
		c-5.9,0-10.7-4.8-10.7-10.7s4.8-10.7,10.7-10.7s10.7,4.8,10.7,10.7S389.3,157.2,383.4,157.2z"/>
	<path d="M548.4,105.5c-22.6,0-41,18.4-41,41c0,22.6,18.4,41,41,41c22.6,0,41-18.4,41-41C589.5,123.9,571,105.5,548.4,105.5z
		 M548.4,180.5c-18.7,0-34-15.2-34-34s15.2-34,34-34s34,15.2,34,34S567.1,180.5,548.4,180.5z"/>
	<circle cx="548.4" cy="146.5" r="30.6"/>
	<path d="M334.3,333.1c-3.1-2.1-7-3.6-11.5-4.3c-3.2-0.6-7.9-0.9-13.9-0.9h-35v91.9h14v-36.6h22c13,0,22.1-2.8,27.1-8.3
		c5-5.4,7.6-12.2,7.6-20c0-4.6-1-8.9-2.8-12.7C340,338.3,337.4,335.3,334.3,333.1z M325.8,366.5c-3,2.7-8.3,4-15.7,4H288v-30h21.9
		c5.2,0,8.9,0.3,10.8,0.8c2.8,0.8,5.2,2.4,6.9,4.9c1.8,2.5,2.6,5.5,2.6,9C330.3,360.1,328.8,363.8,325.8,366.5z"/>
	<path d="M396.7,419.8v-92.3h-8.8l-0.3,0.6c-1.8,3.7-5.1,7.6-9.6,11.7c-4.5,4-9.9,7.5-15.9,10.4l-0.6,0.3v12.9l1.4-0.5
		c3.5-1.3,7.4-3.2,11.8-5.8c3.5-2,6.4-4.1,8.8-6.1v68.9H396.7z"/>
	<path d="M515.2,419.8v-91.9H502v30.4c-1.7-1.8-3.7-3.3-5.9-4.5c-3.2-1.7-6.9-2.6-11-2.6c-5.5,0-10.6,1.5-15.1,4.4
		c-4.5,2.9-7.9,7.1-10.1,12.6c-2.2,5.4-3.3,11.5-3.3,18c0,6.8,1.2,12.8,3.7,18.1c2.5,5.3,6,9.4,10.5,12.4c4.5,3,9.5,4.5,14.9,4.5
		c7.2,0,12.9-2.5,17.1-7.5v6.1H515.2z M503,387.2c0,7.8-1.6,13.6-4.8,17.3c-3.2,3.7-7,5.5-11.5,5.5c-4.5,0-8.3-1.9-11.6-5.8
		c-3.3-3.9-5-9.9-5-17.9c0-8.3,1.6-14.4,4.7-18.2c3.1-3.8,6.9-5.6,11.5-5.6c4.8,0,8.6,1.9,11.9,5.8C501.4,372.3,503,378.6,503,387.2
		z"/>
	<path d="M574.2,417.1c5-2.7,8.8-6.6,11.4-11.6c2.6-4.9,3.9-11.7,3.9-20.2c0-10.5-3-18.9-8.8-25c-5.9-6-13.5-9.1-22.7-9.1
		c-8.3,0-15.4,2.5-21.1,7.5c-6.9,6-10.4,15.2-10.4,27.5c0,11.2,2.9,19.9,8.7,25.9c5.8,6,13.5,9.1,22.9,9.1
		C563.8,421.2,569.2,419.8,574.2,417.1z M570.8,404.2c-3.5,3.9-7.7,5.9-12.9,5.9c-5.3,0-9.5-1.9-13-5.8c-3.4-3.9-5.2-9.9-5.2-18
		c0-8,1.7-14,5.2-17.9c3.5-3.9,7.7-5.8,13-5.8c5.1,0,9.4,2,12.8,5.8c3.5,3.9,5.2,9.8,5.2,17.5C576,394.1,574.3,400.2,570.8,404.2z"
		/>
	<path d="M600.2,352.6v67.2h13.2v-36.6c0-8,1.6-13.4,4.7-16.1c3.2-2.8,7-4.2,11.4-4.2c2.7,0,5.1,0.6,7.1,1.8c2,1.2,3.4,2.8,4.1,4.8
		c0.8,2.1,1.2,5.3,1.2,9.7v40.6h13.2v-41c0-5.1-0.2-8.8-0.6-10.9c-0.7-3.3-1.9-6.1-3.6-8.5c-1.7-2.4-4.4-4.4-7.8-5.9
		c-3.4-1.5-7.2-2.2-11.2-2.2c-8.2,0-14.8,2.9-19.6,8.5v-7.1H600.2z"/>
	<path d="M712.8,358.9c-4.9-5.1-10.9-7.6-17.9-7.6c-6,0-11.2,1.5-15.6,4.5c-4.4,3-7.8,7.2-10.1,12.6c-2.3,5.4-3.5,11.3-3.5,17.6
		c0,9.2,2.5,17.2,7.6,23.8c5.1,6.7,12.3,10.1,21.6,10.1c6.6,0,12.3-2.3,16.9-6.9c0,5.5-0.3,9.3-0.8,11.1c-0.9,3.4-2.7,6.1-5.2,8
		c-2.6,1.9-6.4,2.8-11.2,2.8c-4.5,0-8-1-10.6-2.8c-1.8-1.3-2.9-3.5-3.3-6.5l-0.1-0.8l-12.6-1.8l0,1.2c-0.2,7.3,2.3,12.9,7.4,16.6
		c4.9,3.6,11.4,5.4,19.4,5.4c6.7,0,12.4-1.3,17-3.8c4.6-2.6,8.1-6.1,10.2-10.5c2.2-4.4,3.2-11.6,3.2-22v-57.2h-12.3V358.9z
		 M695.9,408.5c-4.8,0-8.7-1.8-11.9-5.5c-3.2-3.7-4.8-9.7-4.8-17.9c0-7.5,1.6-13.3,4.9-17c3.3-3.8,7.1-5.6,11.7-5.6
		c4.7,0,8.6,1.9,12,5.7c3.3,3.8,5,9.6,5,17.3c0,8-1.6,13.9-4.9,17.6C704.6,406.7,700.6,408.5,695.9,408.5z"/>
	<rect x="739.4" y="327.9" width="13.2" height="91.9"/>
	<path d="M795.3,351.2c-9.2,0-16.9,3.2-22.7,9.4c-5.8,6.2-8.7,15-8.7,26.1c0,10.8,2.9,19.3,8.6,25.3c5.7,6,13.6,9.1,23.3,9.1
		c7.7,0,14.2-1.9,19.2-5.7c5-3.8,8.5-9.2,10.3-16l0.3-1.2l-13.5-1.8l-0.3,0.8c-1.6,4.5-3.8,7.7-6.4,9.7c-2.6,2-5.9,3-9.7,3
		c-5.1,0-9.4-1.8-12.8-5.4c-3.2-3.4-5.1-8.3-5.7-14.6h48.3l0-1c0-1.3,0.1-2.3,0.1-3c0-10.9-2.9-19.6-8.5-25.7
		C811.6,354.3,804.2,351.2,795.3,351.2z M778,378.9c0.5-4.9,2.3-8.8,5.3-11.8c3.3-3.2,7.2-4.8,12-4.8c5.2,0,9.5,2,12.8,6
		c2,2.4,3.3,5.9,3.8,10.6H778z"/>
	<path d="M698.5,627.7L560.8,490c-3.1-3.1-8.2-3.1-11.3,0L398.3,641.2c-3.1,3.1-3.1,8.2,0,11.3c3.1,3.1,8.2,3.1,11.3,0l145.6-145.6
		l129.7,129.7v115.8H464.8V635.6c0-4.4-3.6-8-8-8c-4.4,0-8,3.6-8,8v124.8c0,4.4,3.6,8,8,8h236.1c4.4,0,8-3.6,8-8l0-127
		C700.8,631.3,700.1,629.3,698.5,627.7z"/>
	<rect x="449.1" y="523.2" width="15.9" height="32.3"/>
	<circle cx="457.1" cy="497.6" r="8.7"/>
	<path d="M503.3,601.4c-2.4-2.4-5.7-3.9-9.4-3.9c-3.7,0-7,1.5-9.4,3.9c-2.4,2.4-3.9,5.7-3.9,9.4c0,3.7,1.5,7,3.9,9.4
		c2.4,2.4,5.7,3.9,9.4,3.9c3.7,0,7-1.5,9.4-3.9c0.5-0.5,0.9-1,1.3-1.5l63.8,34.3l-65.7,65.7c-2-1.2-4.3-1.9-6.8-1.9
		c-3.7,0-7,1.5-9.4,3.9c-2.4,2.4-3.9,5.7-3.9,9.4c0,3.7,1.5,7,3.9,9.4c2.4,2.4,5.7,3.9,9.4,3.9c3.7,0,7-1.5,9.4-3.9
		c2.1-2.1,3.5-4.9,3.8-8.1L649.6,705c0.6,1.2,1.5,2.4,2.4,3.3c2.4,2.4,5.7,3.9,9.4,3.9c3.7,0,7-1.5,9.4-3.9c2.4-2.4,3.9-5.7,3.9-9.4
		c0-3.7-1.5-7-3.9-9.4c-2.4-2.4-5.7-3.9-9.4-3.9c-1.9,0-3.7,0.4-5.3,1.1l-43.9-56.4c2-2.3,3.2-5.4,3.2-8.7c0-3.7-1.5-7-3.9-9.4
		c-2.4-2.4-5.7-3.9-9.4-3.9c-3.7,0-7,1.5-9.4,3.9c-2.4,2.4-3.9,5.7-3.9,9.4c0,3.1,1.1,6,2.9,8.3l-19.3,19.3L506.8,614
		c0.2-1,0.4-2.1,0.4-3.1C507.2,607.2,505.7,603.8,503.3,601.4z M499.5,616.5c-1.5,1.5-3.5,2.4-5.7,2.4c-2.2,0-4.2-0.9-5.7-2.4
		c-1.5-1.5-2.3-3.5-2.3-5.7c0-2.2,0.9-4.2,2.3-5.7c1.5-1.5,3.5-2.3,5.7-2.3c2.2,0,4.2,0.9,5.7,2.3s2.3,3.5,2.3,5.7
		C501.9,613.1,501,615.1,499.5,616.5z M501.5,736c-1.5,1.5-3.5,2.3-5.7,2.3c-2.2,0-4.2-0.9-5.7-2.3s-2.3-3.5-2.3-5.7
		c0-2.2,0.9-4.2,2.3-5.7c1.5-1.5,3.5-2.3,5.7-2.3c2.2,0,4.2,0.9,5.7,2.3c1.5,1.5,2.4,3.5,2.4,5.7C503.9,732.5,503,734.5,501.5,736z
		 M655.8,693.2c1.5-1.5,3.5-2.3,5.7-2.3c2.2,0,4.2,0.9,5.7,2.3c1.5,1.5,2.4,3.5,2.4,5.7c0,2.2-0.9,4.2-2.4,5.7
		c-1.5,1.5-3.5,2.3-5.7,2.3c-2.2,0-4.2-0.9-5.7-2.3c-1.5-1.5-2.3-3.5-2.3-5.7C653.4,696.7,654.3,694.7,655.8,693.2z M596.4,615.9
		c1.5-1.5,3.5-2.3,5.7-2.3c2.2,0,4.2,0.9,5.7,2.3c1.5,1.5,2.3,3.5,2.3,5.7c0,2.2-0.9,4.2-2.3,5.7c-1.5,1.5-3.5,2.3-5.7,2.3
		c-2.2,0-4.2-0.9-5.7-2.3c-1.5-1.5-2.3-3.5-2.3-5.7C594.1,619.3,595,617.3,596.4,615.9z M595.8,633.3c1.9,1,4,1.6,6.3,1.6
		c2.1,0,4.1-0.5,5.9-1.4l43.7,56.2c-0.4,0.5-0.8,1-1.2,1.5l-73.3-39.4L595.8,633.3z M573.3,655.7l75.1,40.3
		c-0.2,0.9-0.3,1.8-0.3,2.8c0,0.3,0,0.7,0,1l-139.5,26.5c-0.4-1.4-1.1-2.8-2-4L573.3,655.7z"/>
	<path d="M1031.2,46.9H57.7c-9,0-16.3,7.3-16.3,16.3V187c0,9,7.3,16.3,16.3,16.3h973.5c9,0,16.3-7.3,16.3-16.3V63.2
		C1047.5,54.2,1040.1,46.9,1031.2,46.9z M1043.2,187c0,6.6-5.4,12-12,12H57.7c-6.6,0-12-5.4-12-12V63.2c0-6.6,5.4-12,12-12h973.5
		c6.6,0,12,5.4,12,12V187z"/>
	<path d="M612.6,822.4c-0.1-0.3-0.3-0.5-0.5-0.7c-0.2-0.1-0.4-0.2-0.6-0.2h-17.9v-14h15c0.2,0,0.4-0.1,0.6-0.2
		c0.2-0.1,0.4-0.3,0.5-0.6c0.1-0.3,0.2-0.7,0.3-1.2c0.1-0.5,0.1-1.1,0.1-1.9c0-0.7,0-1.3-0.1-1.8c-0.1-0.5-0.2-0.9-0.3-1.2
		c-0.1-0.3-0.3-0.5-0.5-0.7c-0.2-0.1-0.4-0.2-0.6-0.2h-15v-12.1h17.8c0.2,0,0.4-0.1,0.6-0.2c0.2-0.1,0.3-0.4,0.5-0.7
		c0.1-0.3,0.2-0.7,0.3-1.2c0.1-0.5,0.1-1.1,0.1-1.8c0-0.8,0-1.4-0.1-1.9c-0.1-0.5-0.2-0.9-0.3-1.2c-0.1-0.3-0.3-0.5-0.5-0.7
		c-0.2-0.1-0.4-0.2-0.6-0.2h-24.8c-0.8,0-1.5,0.2-2.1,0.7c-0.6,0.5-0.9,1.3-0.9,2.4v43.4c0,1.1,0.3,1.9,0.9,2.4
		c0.6,0.5,1.3,0.7,2.1,0.7h25c0.2,0,0.4-0.1,0.6-0.2c0.2-0.1,0.4-0.4,0.5-0.7c0.1-0.3,0.2-0.7,0.3-1.2c0.1-0.5,0.1-1.1,0.1-1.9
		c0-0.7,0-1.4-0.1-1.9C612.9,823.1,612.8,822.7,612.6,822.4z"/>
	<path d="M698,780.6c-0.1-0.3-0.3-0.6-0.5-0.7c-0.2-0.1-0.4-0.2-0.6-0.2h-35c-0.2,0-0.5,0.1-0.7,0.2c-0.2,0.1-0.3,0.4-0.5,0.7
		c-0.1,0.3-0.2,0.7-0.3,1.3c-0.1,0.5-0.1,1.2-0.1,2c0,0.7,0,1.4,0.1,1.9c0.1,0.5,0.2,0.9,0.3,1.3c0.1,0.3,0.3,0.6,0.5,0.7
		c0.2,0.2,0.4,0.2,0.7,0.2h12.4v40.1c0,0.2,0.1,0.5,0.2,0.7c0.2,0.2,0.4,0.4,0.8,0.5c0.4,0.1,0.9,0.2,1.6,0.3
		c0.7,0.1,1.5,0.1,2.4,0.1c1,0,1.8,0,2.4-0.1c0.7-0.1,1.2-0.2,1.6-0.3c0.4-0.1,0.7-0.3,0.8-0.5c0.2-0.2,0.2-0.4,0.2-0.7V788h12.4
		c0.2,0,0.4-0.1,0.6-0.2c0.2-0.1,0.4-0.4,0.5-0.7c0.1-0.3,0.2-0.7,0.3-1.3c0.1-0.5,0.1-1.2,0.1-1.9c0-0.8,0-1.4-0.1-2
		C698.3,781.4,698.2,780.9,698,780.6z"/>
	<path d="M478.9,806.9c-0.9-1.1-1.9-1.9-3.1-2.6c-1.2-0.7-2.5-1.1-3.8-1.4c1.1-0.5,2-1.1,2.9-1.8c0.8-0.7,1.5-1.5,2.1-2.4
		c0.5-0.9,1-1.9,1.3-3c0.3-1.1,0.4-2.2,0.4-3.4c0-2-0.3-3.7-1-5.3c-0.6-1.6-1.6-2.9-2.9-4c-1.3-1.1-2.9-1.9-4.7-2.5
		c-1.9-0.6-4.3-0.8-7.3-0.8h-11.3c-0.6,0-1.2,0.2-1.7,0.6c-0.5,0.4-0.8,1.1-0.8,2.1v44.4c0,1,0.3,1.7,0.8,2.1
		c0.5,0.4,1.1,0.6,1.7,0.6h13c1.9,0,3.5-0.1,5-0.4c1.4-0.3,2.8-0.7,4.1-1.2c1.3-0.5,2.4-1.2,3.4-2c1-0.8,1.9-1.7,2.6-2.8
		c0.7-1.1,1.3-2.2,1.7-3.6c0.4-1.3,0.6-2.8,0.6-4.3c0-1.7-0.3-3.2-0.8-4.7C480.5,809.1,479.8,807.9,478.9,806.9z M455.6,785.1h6.8
		c1.9,0,3.4,0.2,4.6,0.5c1.2,0.4,2.1,0.9,2.8,1.6c0.7,0.7,1.2,1.5,1.6,2.5c0.3,1,0.5,2.1,0.5,3.3c0,1.1-0.2,2.1-0.5,3.1
		c-0.3,1-0.8,1.9-1.5,2.7c-0.7,0.8-1.6,1.4-2.6,1.8c-1.1,0.5-2.4,0.7-4.2,0.7h-7.5V785.1z M474.1,819.3c-0.5,1-1.2,1.9-2,2.6
		c-0.9,0.7-1.8,1.2-3,1.6c-1.1,0.4-2.5,0.5-4,0.5h-9.6v-17.6h7.9c2.1,0,3.8,0.2,5.2,0.6c1.4,0.4,2.5,1,3.4,1.8
		c0.9,0.8,1.6,1.7,2.1,2.8c0.5,1.1,0.7,2.4,0.7,3.9C474.9,817,474.6,818.2,474.1,819.3z"/>
	<path d="M657.5,825.7l-11.8-21.8l11.1-20.3c0.4-0.9,0.7-1.7,0.9-2.2c0.1-0.5,0.1-1-0.2-1.2c-0.3-0.3-0.8-0.5-1.5-0.5
		c-0.7-0.1-1.8-0.1-3-0.1c-1.2,0-2.1,0-2.7,0.1c-0.7,0.1-1.2,0.1-1.5,0.2c-0.4,0.1-0.6,0.3-0.8,0.5c-0.2,0.2-0.3,0.5-0.5,0.8
		l-8.5,16.5l-8.8-16.5c-0.2-0.3-0.3-0.6-0.5-0.8c-0.2-0.2-0.4-0.4-0.9-0.5c-0.4-0.1-1-0.2-1.7-0.2c-0.7-0.1-1.7-0.1-2.9-0.1
		c-1.5,0-2.6,0-3.4,0.1c-0.8,0.1-1.3,0.2-1.6,0.5c-0.3,0.3-0.4,0.7-0.2,1.2c0.2,0.6,0.5,1.3,0.9,2.2l11.1,20.4L619,825.7
		c-0.5,0.9-0.8,1.6-1,2.2c-0.2,0.5-0.1,1,0.1,1.2c0.3,0.3,0.8,0.5,1.5,0.5c0.7,0.1,1.8,0.1,3.1,0.1c1.2,0,2.1,0,2.8-0.1
		c0.7-0.1,1.3-0.1,1.7-0.2c0.4-0.1,0.7-0.3,0.9-0.5c0.2-0.2,0.3-0.5,0.5-0.8l9.3-18l9.4,18c0.1,0.3,0.3,0.6,0.5,0.8
		c0.2,0.2,0.5,0.4,0.9,0.5c0.4,0.1,0.9,0.2,1.6,0.2c0.7,0.1,1.6,0.1,2.8,0.1c1.4,0,2.5,0,3.4-0.1c0.8-0.1,1.4-0.2,1.7-0.5
		c0.3-0.3,0.4-0.7,0.2-1.2C658.2,827.3,657.9,826.6,657.5,825.7z"/>
	<path d="M519.2,824.6c-0.1-0.2-0.3-0.4-0.4-0.5c-0.2-0.1-0.4-0.2-0.6-0.2h-19.7v-17.8h16.7c0.2,0,0.4,0,0.6-0.1
		c0.2-0.1,0.3-0.2,0.4-0.4c0.1-0.2,0.2-0.5,0.2-0.8c0.1-0.3,0.1-0.7,0.1-1.2c0-0.5,0-0.9-0.1-1.3c-0.1-0.4-0.1-0.6-0.2-0.8
		c-0.1-0.2-0.3-0.4-0.4-0.5c-0.2-0.1-0.4-0.2-0.6-0.2h-16.7v-15.6h19.5c0.2,0,0.4,0,0.6-0.2c0.2-0.1,0.3-0.3,0.4-0.5
		c0.1-0.2,0.2-0.5,0.2-0.9c0.1-0.4,0.1-0.7,0.1-1.2c0-0.5,0-0.9-0.1-1.3c-0.1-0.3-0.2-0.6-0.2-0.9c-0.1-0.2-0.2-0.4-0.4-0.5
		c-0.2-0.1-0.4-0.2-0.6-0.2h-23.6c-0.6,0-1.2,0.2-1.7,0.6c-0.5,0.4-0.8,1.1-0.8,2.1v44.4c0,1,0.3,1.7,0.8,2.1
		c0.5,0.4,1.1,0.6,1.7,0.6h23.9c0.2,0,0.4-0.1,0.6-0.2c0.2-0.1,0.3-0.3,0.4-0.5c0.1-0.2,0.2-0.5,0.3-0.9c0.1-0.3,0.1-0.7,0.1-1.2
		c0-0.5,0-0.9-0.1-1.3C519.4,825.1,519.3,824.8,519.2,824.6z"/>
	<path d="M571.9,780c-0.3-0.2-0.8-0.3-1.4-0.3c-0.6-0.1-1.3-0.1-2.2-0.1c-0.9,0-1.7,0-2.3,0.1c-0.6,0.1-1.1,0.2-1.4,0.3
		c-0.4,0.2-0.6,0.3-0.8,0.5c-0.2,0.2-0.2,0.4-0.2,0.7v23.4c0,1.8,0,3.6,0.1,5.6c0,1.9,0.1,3.8,0.2,5.6h0c-0.5-1-0.9-2-1.4-3.1
		c-0.5-1-1-2.1-1.5-3.1c-0.5-1.1-1-2.1-1.6-3.2c-0.6-1.1-1.1-2.2-1.7-3.3l-9.7-18.2c-0.5-1-1-1.9-1.4-2.5c-0.5-0.7-1-1.2-1.5-1.6
		c-0.5-0.4-1.1-0.7-1.8-0.8c-0.7-0.2-1.5-0.2-2.5-0.2h-5.4c-1,0-1.9,0.3-2.6,0.9c-0.7,0.6-1.1,1.5-1.1,2.7v44.7
		c0,0.2,0.1,0.5,0.2,0.7c0.1,0.2,0.4,0.4,0.7,0.5c0.3,0.1,0.8,0.2,1.4,0.3c0.6,0.1,1.3,0.1,2.2,0.1c0.9,0,1.7,0,2.3-0.1
		c0.6-0.1,1.1-0.2,1.4-0.3c0.3-0.1,0.6-0.3,0.7-0.5c0.1-0.2,0.2-0.4,0.2-0.7v-26c0-1.9,0-3.8-0.1-5.7c-0.1-1.8-0.1-3.7-0.2-5.5h0.1
		c0.6,1.5,1.2,3.1,2,4.7c0.7,1.6,1.5,3.1,2.2,4.5l12.3,23.3c0.6,1.3,1.2,2.3,1.7,3.1c0.5,0.8,1,1.5,1.6,1.9c0.6,0.5,1.2,0.8,1.8,1
		c0.7,0.2,1.4,0.3,2.3,0.3h4.3c0.5,0,1-0.1,1.4-0.2c0.5-0.1,0.9-0.4,1.2-0.7c0.4-0.3,0.6-0.7,0.8-1.2c0.2-0.5,0.3-1,0.3-1.6v-44.7
		c0-0.3-0.1-0.5-0.2-0.7C572.4,780.3,572.2,780.1,571.9,780z"/>
</g>
</svg>
