<?xml version="1.0" standalone="no"?>
<!DOCTYPE svg PUBLIC "-//W3C//DTD SVG 20010904//EN"
 "http://www.w3.org/TR/2001/REC-SVG-20010904/DTD/svg10.dtd">
<svg version="1.0" xmlns="http://www.w3.org/2000/svg"
 width="300.000000pt" height="300.000000pt" viewBox="0 0 300.000000 300.000000"
 preserveAspectRatio="xMidYMid meet">
<metadata>
Created by potrace 1.10, written by Peter Selinger 2001-2011
</metadata>
<g transform="translate(0.000000,300.000000) scale(0.100000,-0.100000)"
fill="#f9cd76" stroke="none">
<path d="M1290 2796 c-231 -42 -405 -117 -587 -256 -93 -70 -148 -126 -156
-159 -8 -31 15 -86 41 -100 44 -23 79 -13 144 42 229 194 419 276 682 296 652
51 1203 -455 1208 -1109 1 -256 -70 -477 -219 -678 -297 -399 -809 -555 -1281
-391 -293 103 -543 340 -662 629 -118 287 -113 595 16 895 19 45 34 91 34 104
0 12 -13 36 -29 52 -32 31 -75 38 -113 18 -31 -16 -103 -180 -140 -314 -31
-116 -32 -127 -32 -320 -1 -186 1 -208 26 -308 129 -505 511 -875 1018 -984
119 -25 401 -25 520 0 263 56 478 173 665 361 190 191 306 404 362 666 13 64
18 129 18 260 0 131 -5 196 -18 260 -56 262 -173 477 -361 666 -186 185 -400
303 -656 359 -102 23 -380 29 -480 11z m459 -42 c41 -9 112 -27 156 -42 44
-14 82 -26 85 -27 3 -1 48 -23 100 -49 344 -176 595 -509 671 -891 9 -46 14
-135 13 -260 -1 -179 -3 -197 -32 -307 -58 -224 -171 -418 -336 -583 -247
-246 -541 -368 -886 -369 -175 -1 -236 6 -360 39 -344 94 -638 330 -799 644
-101 196 -141 366 -141 597 0 199 31 347 107 516 39 85 67 107 116 89 36 -14
45 -53 22 -100 -33 -69 -84 -218 -99 -294 -21 -101 -21 -332 0 -433 127 -615
697 -1022 1304 -929 207 31 421 127 555 248 22 20 43 37 47 37 21 0 173 194
226 288 107 189 152 358 152 572 0 184 -41 363 -117 515 -45 88 -143 223 -215
295 -229 229 -502 344 -818 344 -289 0 -548 -99 -761 -289 -68 -61 -98 -73
-135 -56 -19 9 -24 18 -24 50 0 37 5 45 69 100 201 172 447 282 700 311 101
12 306 3 400 -16z"/>
<path d="M1870 2086 c-502 -209 -643 -294 -708 -426 -24 -49 -27 -66 -27 -160
0 -94 3 -111 27 -160 35 -71 107 -143 178 -178 45 -22 72 -28 145 -30 234 -9
327 95 550 618 132 310 138 335 91 379 -42 40 -69 35 -256 -43z m231 24 c32
-18 23 -71 -36 -217 -141 -347 -261 -578 -335 -647 -126 -118 -338 -116 -465
5 -75 71 -99 125 -103 231 -9 209 63 281 466 464 206 94 403 173 430 174 13 0
32 -5 43 -10z"/>
<path d="M1689 1837 c-336 -151 -399 -204 -399 -334 0 -155 126 -253 275 -212
82 23 150 126 284 433 34 76 61 146 61 155 0 16 -18 41 -30 41 -3 0 -89 -38
-191 -83z m201 49 c0 -11 -155 -348 -187 -406 -72 -134 -110 -163 -205 -163
-123 0 -210 112 -179 231 23 84 77 121 366 254 184 84 205 93 205 84z"/>
<path d="M161 1894 c0 -11 3 -14 6 -6 3 7 2 16 -1 19 -3 4 -6 -2 -5 -13z"/>
</g>
</svg>
