<?xml version="1.0" encoding="utf-8"?>
<!-- Generator: Adobe Illustrator 21.0.0, SVG Export Plug-In . SVG Version: 6.00 Build 0)  -->
<svg version="1.1" id="Layer_1" xmlns="http://www.w3.org/2000/svg" xmlns:xlink="http://www.w3.org/1999/xlink" x="0px" y="0px"
	 viewBox="0 0 1092 1164.5" style="enable-background:new 0 0 1092 1164.5;" xml:space="preserve">
<style type="text/css">
	.fillpulse {
		animation: fillpulse 1s infinite;
	}
	
	@keyframes fillpulse {
		0%, 100% {
			fill: #FFFFFF;
		}
		50% {
			fill: #0078CC;
		}
	}

</style>
<g>
	<path class="fillpulse" d="M514.4,145.6c0-16.9,13.7-30.6,30.6-30.6c16.9,0,30.6,13.7,30.6,30.6c0,16.9-13.7,30.6-30.6,30.6
		C528.1,176.2,514.4,162.5,514.4,145.6"/>
</g>
<g>
	<path d="M380,163.4c-9.8,0-17.8-8-17.8-17.8s8-17.8,17.8-17.8s17.8,8,17.8,17.8S389.8,163.4,380,163.4z M380,134.9
		c-5.9,0-10.7,4.8-10.7,10.7s4.8,10.7,10.7,10.7s10.7-4.8,10.7-10.7S385.9,134.9,380,134.9z"/>
</g>
<g>
	<path d="M545,186.6c-22.6,0-41-18.4-41-41c0-22.6,18.4-41,41-41c22.6,0,41,18.4,41,41C586,168.2,567.6,186.6,545,186.6z M545,111.6
		c-18.7,0-34,15.2-34,34s15.2,34,34,34s34-15.2,34-34S563.7,111.6,545,111.6z"/>
</g>

<g>
	<path d="M202.8,880.4h7c2.7,0,4.7-0.3,6-0.9c1.3-0.6,2.3-1.5,3.1-2.7c0.8-1.2,1.2-2.5,1.2-3.8c0-1-0.2-1.9-0.6-2.5
		c-0.4-0.7-1-1.1-1.7-1.5c-0.7-0.3-2.2-0.5-4.3-0.5h-8.2L202.8,880.4z M195.1,896.9l6.7-31.8H215c2.3,0,4,0.3,5.2,0.8
		c1.2,0.5,2.1,1.4,2.9,2.7c0.7,1.3,1.1,2.7,1.1,4.3c0,1.3-0.3,2.6-0.8,4c-0.5,1.4-1.2,2.5-2,3.4c-0.8,0.9-1.6,1.5-2.5,2
		c-0.8,0.4-1.7,0.8-2.7,1c-2,0.5-4.1,0.7-6.2,0.7h-8l-2.7,12.9H195.1z"/>
</g>
<g>
	<polygon points="224,896.9 230.7,865.1 234.6,865.1 227.9,896.9 	"/>
</g>
<g>
	<path d="M249.9,892.8c-2.8,3.1-5.6,4.7-8.5,4.7c-1.8,0-3.2-0.5-4.3-1.5c-1.1-1-1.6-2.3-1.6-3.7c0-1,0.3-2.6,0.8-5l3-13.3h3.9
		l-3.4,14.9c-0.3,1.2-0.4,2.2-0.4,2.9c0,0.8,0.3,1.4,0.8,1.8c0.5,0.4,1.3,0.7,2.4,0.7c1.1,0,2.2-0.3,3.3-0.8c1.1-0.5,2-1.3,2.8-2.2
		c0.8-0.9,1.4-2,1.9-3.2c0.3-0.8,0.7-2.2,1.1-4.2l2.2-10h3.9l-5.1,23H249L249.9,892.8z"/>
</g>
<g>
	<path d="M263.5,886.8c0,1.6,0.2,2.8,0.5,3.6c0.4,1.1,1.1,2,1.9,2.5c0.8,0.6,1.7,0.9,2.7,0.9c1.3,0,2.6-0.5,3.8-1.4
		c1.3-0.9,2.3-2.3,3.1-4.2c0.8-1.9,1.2-3.7,1.2-5.4c0-1.9-0.5-3.4-1.6-4.5c-1.1-1.1-2.4-1.7-3.9-1.7c-1,0-1.9,0.3-2.8,0.8
		c-0.9,0.5-1.7,1.3-2.5,2.3c-0.8,1-1.4,2.3-1.8,3.8C263.7,884.9,263.5,886,263.5,886.8 M258.6,899l4,0.4c0,0.9,0.1,1.6,0.3,2
		c0.2,0.5,0.6,0.8,1.2,1c0.7,0.3,1.6,0.5,2.7,0.5c2.4,0,4.1-0.6,5.1-1.8c0.7-0.8,1.3-2.6,1.9-5.4l0.4-1.9c-2,2.1-4.2,3.1-6.5,3.1
		c-2.3,0-4.3-0.9-5.8-2.6c-1.6-1.7-2.4-4.1-2.4-7.3c0-2.6,0.6-5,1.8-7.1c1.2-2.2,2.7-3.8,4.4-4.9c1.7-1.1,3.5-1.7,5.3-1.7
		c3,0,5.3,1.4,7,4.2l0.8-3.7h3.6l-4.7,22.2c-0.5,2.4-1.2,4.4-2,5.7c-0.8,1.4-2,2.4-3.4,3.2c-1.5,0.8-3.2,1.1-5.1,1.1
		c-1.8,0-3.4-0.2-4.8-0.7c-1.3-0.5-2.3-1.2-3-2.1c-0.7-0.9-1-2-1-3.2C258.5,899.8,258.6,899.4,258.6,899z"/>
</g>
<g>
	<path d="M305,893.8l-0.7,3.2c-0.9,0.2-1.8,0.4-2.7,0.4c-1.6,0-2.8-0.4-3.7-1.2c-0.7-0.6-1-1.4-1-2.4c0-0.5,0.2-1.7,0.6-3.5
		l2.8-13.4h-3.1l0.6-3h3.1l1.2-5.6l4.5-2.7l-1.8,8.3h3.9l-0.7,3h-3.8l-2.7,12.7c-0.3,1.6-0.5,2.6-0.5,2.9c0,0.5,0.1,0.8,0.4,1.1
		c0.3,0.2,0.7,0.4,1.3,0.4C303.6,894,304.4,893.9,305,893.8"/>
</g>
<g>
	<path d="M308.2,896.9l6.7-31.8h3.9l-2.6,12.2c1.4-1.4,2.8-2.4,4-3c1.2-0.6,2.5-0.9,3.8-0.9c1.9,0,3.3,0.5,4.4,1.5
		c1,1,1.6,2.3,1.6,4c0,0.8-0.2,2.3-0.7,4.5l-3,13.6h-3.9l3.1-13.9c0.4-2,0.7-3.3,0.7-3.8c0-0.7-0.3-1.4-0.8-1.8
		c-0.5-0.5-1.3-0.7-2.2-0.7c-1.4,0-2.7,0.4-4,1.1c-1.3,0.7-2.2,1.8-3,3c-0.7,1.3-1.4,3.4-2,6.2l-2.1,9.9H308.2z"/>
</g>
<g>
	<path d="M332.8,896.9l4.8-23h3.9l-4.8,23H332.8z M338.6,869.6l0.9-4.4h3.9l-0.9,4.4H338.6z"/>
</g>
<g>
	<path d="M343.2,889l4-0.2c0,1.1,0.2,2.1,0.5,2.9c0.3,0.8,1,1.4,1.9,1.9c0.9,0.5,2,0.8,3.2,0.8c1.7,0,3-0.3,3.9-1
		c0.9-0.7,1.3-1.5,1.3-2.4c0-0.7-0.3-1.3-0.8-1.9c-0.5-0.6-1.8-1.4-3.9-2.2c-2.1-0.9-3.4-1.5-4-1.9c-1-0.6-1.7-1.3-2.2-2.1
		c-0.5-0.8-0.7-1.7-0.7-2.8c0-1.8,0.7-3.4,2.2-4.7c1.4-1.3,3.5-1.9,6.1-1.9c2.9,0,5.1,0.7,6.6,2c1.5,1.3,2.3,3.1,2.3,5.3l-3.8,0.3
		c-0.1-1.4-0.5-2.5-1.5-3.3c-0.9-0.8-2.2-1.2-3.9-1.2c-1.4,0-2.4,0.3-3.2,0.9c-0.7,0.6-1.1,1.3-1.1,2c0,0.7,0.3,1.4,1,1.9
		c0.4,0.4,1.5,1,3.3,1.7c3,1.3,4.9,2.3,5.6,3.1c1.2,1.2,1.9,2.6,1.9,4.4c0,1.1-0.3,2.3-1.1,3.4c-0.7,1.1-1.8,2-3.2,2.6
		c-1.4,0.7-3.1,1-5.1,1c-2.6,0-4.9-0.7-6.8-2C344,894.1,343.1,892,343.2,889"/>
</g>
<g>
	<path d="M393.2,888.5l4,0.4c-1,2.9-2.4,5-4.2,6.4c-1.8,1.4-3.9,2.1-6.2,2.1c-2.5,0-4.5-0.8-6.1-2.4c-1.6-1.6-2.3-3.9-2.3-6.8
		c0-2.5,0.5-5,1.5-7.4c1-2.4,2.4-4.3,4.3-5.5c1.9-1.3,4-1.9,6.4-1.9c2.5,0,4.4,0.7,5.9,2.1c1.4,1.4,2.2,3.2,2.2,5.5l-3.9,0.3
		c0-1.5-0.4-2.6-1.3-3.4c-0.8-0.8-1.9-1.2-3.3-1.2c-1.6,0-2.9,0.5-4.1,1.5c-1.2,1-2.1,2.5-2.7,4.5c-0.7,2-1,4-1,5.9
		c0,2,0.4,3.4,1.3,4.4c0.9,1,1.9,1.5,3.2,1.5c1.3,0,2.5-0.5,3.7-1.5C391.6,892,392.5,890.5,393.2,888.5"/>
</g>
<g>
	<path d="M416.5,885.3c-0.6,0.2-1.1,0.4-1.8,0.5c-0.6,0.1-1.7,0.2-3.2,0.4c-2.3,0.2-3.9,0.5-4.8,0.8c-0.9,0.3-1.6,0.8-2.1,1.5
		c-0.5,0.7-0.7,1.4-0.7,2.2c0,1.1,0.4,2,1.1,2.7c0.8,0.7,1.8,1.1,3.2,1.1c1.3,0,2.6-0.3,3.8-1c1.2-0.7,2.1-1.6,2.8-2.9
		C415.6,889.3,416.1,887.5,416.5,885.3 M415,894.1c-1.4,1.2-2.7,2-3.9,2.6c-1.3,0.5-2.6,0.8-4,0.8c-2.1,0-3.8-0.6-5.1-1.9
		c-1.3-1.2-2-2.8-2-4.8c0-1.3,0.3-2.4,0.9-3.4c0.6-1,1.4-1.8,2.3-2.4c1-0.6,2.2-1,3.6-1.3c0.9-0.2,2.6-0.3,5-0.4
		c2.5-0.1,4.2-0.4,5.3-0.8c0.3-1.1,0.5-2,0.5-2.7c0-0.9-0.3-1.6-1-2.1c-0.9-0.7-2.2-1.1-4-1.1c-1.7,0-3,0.4-4.1,1.1
		c-1.1,0.7-1.8,1.8-2.3,3.1l-4-0.4c0.8-2.3,2.1-4,3.8-5.2c1.8-1.2,4-1.8,6.6-1.8c2.8,0,5.1,0.7,6.8,2c1.3,1,1.9,2.3,1.9,3.9
		c0,1.2-0.2,2.6-0.5,4.3l-1.3,5.7c-0.4,1.8-0.6,3.3-0.6,4.4c0,0.7,0.2,1.8,0.5,3.1h-4C415.3,896.2,415.1,895.2,415,894.1z"/>
</g>
<g>
	<path d="M430,887.5l0,0.7c0,2,0.5,3.4,1.4,4.5c0.9,1,2,1.5,3.4,1.5c1.3,0,2.6-0.5,3.7-1.4c1.1-1,2-2.5,2.7-4.5
		c0.7-2,1.1-3.9,1.1-5.6c0-1.9-0.5-3.4-1.4-4.5c-0.9-1.1-2-1.6-3.4-1.6c-1.4,0-2.6,0.5-3.8,1.6c-1.1,1.1-2.1,2.8-2.9,5
		C430.3,884.9,430,886.4,430,887.5 M424.2,896.9l6.7-31.8h3.9l-2.4,11.4c1.2-1.1,2.3-1.9,3.3-2.4c1-0.5,2-0.7,3.1-0.7
		c2.1,0,3.8,0.8,5.2,2.4c1.4,1.6,2.1,3.9,2.1,7c0,2-0.3,3.9-0.8,5.6c-0.6,1.7-1.3,3.1-2.1,4.2c-0.8,1.1-1.7,2.1-2.6,2.8
		c-0.9,0.7-1.8,1.2-2.7,1.5c-0.9,0.3-1.8,0.5-2.7,0.5c-1.5,0-2.8-0.4-3.9-1.2c-1.1-0.8-2-2-2.6-3.6l-0.9,4.3H424.2z"/>
</g>
<g>
	<polygon points="448.6,896.9 455.3,865.1 459.2,865.1 452.5,896.9 	"/>
</g>
<g>
	<path d="M464.2,883.3h13c0-0.4,0-0.7,0-0.9c0-2-0.5-3.5-1.5-4.5c-1-1-2.3-1.6-3.8-1.6c-1.7,0-3.2,0.6-4.6,1.7
		C466,879.3,464.9,881,464.2,883.3 M475.7,889.1l3.8,0.4c-0.6,1.9-1.8,3.7-3.8,5.4c-2,1.7-4.3,2.6-7.1,2.6c-1.7,0-3.3-0.4-4.7-1.2
		c-1.4-0.8-2.5-1.9-3.3-3.4c-0.7-1.5-1.1-3.2-1.1-5.1c0-2.5,0.6-4.9,1.7-7.3c1.2-2.4,2.7-4.1,4.5-5.3c1.9-1.1,3.9-1.7,6-1.7
		c2.8,0,5,0.9,6.6,2.6c1.6,1.7,2.5,4,2.5,7c0,1.1-0.1,2.3-0.3,3.5h-17c-0.1,0.5-0.1,0.9-0.1,1.2c0,2.2,0.5,3.8,1.5,4.9
		c1,1.1,2.2,1.7,3.6,1.7c1.3,0,2.7-0.4,4-1.3C474,892,475,890.8,475.7,889.1z"/>
</g>
<g>
	<path d="M495.7,896.9l4.8-23h3.9l-4.8,23H495.7z M501.4,869.6l0.9-4.4h3.9l-0.9,4.4H501.4z"/>
</g>
<g>
	<path d="M505.6,896.9l4.8-23h3.6l-0.8,4c1.6-1.6,3-2.7,4.4-3.4c1.4-0.7,2.7-1.1,4.2-1.1c1.9,0,3.4,0.5,4.4,1.5
		c1.1,1,1.6,2.4,1.6,4.1c0,0.9-0.2,2.2-0.6,4l-3.1,13.9h-3.9l3.2-14.6c0.3-1.4,0.5-2.5,0.5-3.1c0-0.8-0.3-1.4-0.8-1.9
		c-0.5-0.5-1.3-0.7-2.3-0.7c-2,0-3.9,0.7-5.5,2.2c-1.6,1.4-2.8,3.9-3.5,7.4l-2.2,10.7H505.6z"/>
</g>
<g>
	<path d="M539.5,893.8l-0.7,3.2c-0.9,0.2-1.8,0.4-2.7,0.4c-1.6,0-2.8-0.4-3.7-1.2c-0.7-0.6-1-1.4-1-2.4c0-0.5,0.2-1.7,0.6-3.5
		l2.8-13.4h-3.1l0.6-3h3.1l1.2-5.6l4.5-2.7l-1.8,8.3h3.9l-0.7,3h-3.8l-2.7,12.7c-0.3,1.6-0.5,2.6-0.5,2.9c0,0.5,0.1,0.8,0.4,1.1
		c0.3,0.2,0.7,0.4,1.3,0.4C538,894,538.8,893.9,539.5,893.8"/>
</g>
<g>
	<path d="M547.3,887.8c0,2.2,0.5,3.8,1.6,4.9c1,1.1,2.4,1.7,4,1.7c0.8,0,1.7-0.2,2.5-0.5c0.8-0.3,1.6-0.9,2.3-1.5
		c0.7-0.7,1.3-1.5,1.8-2.4c0.5-0.9,0.9-1.8,1.2-2.9c0.5-1.4,0.7-2.8,0.7-4.1c0-2.1-0.5-3.7-1.6-4.8c-1.1-1.1-2.4-1.7-4-1.7
		c-1.2,0-2.4,0.3-3.4,0.9c-1,0.6-1.9,1.4-2.8,2.6c-0.8,1.1-1.4,2.4-1.8,3.9C547.5,885.3,547.3,886.6,547.3,887.8 M543.4,888.2
		c0-4.5,1.3-8.2,4-11.1c2.2-2.4,5-3.6,8.6-3.6c2.8,0,5,0.9,6.7,2.6c1.7,1.7,2.5,4.1,2.5,7c0,2.6-0.5,5.1-1.6,7.4
		c-1.1,2.3-2.6,4-4.6,5.2c-2,1.2-4,1.8-6.2,1.8c-1.8,0-3.4-0.4-4.9-1.1c-1.5-0.8-2.6-1.8-3.4-3.2C543.8,891.6,543.4,890,543.4,888.2
		z"/>
</g>
<g>
	<path d="M578.2,905.8l0.2-3.7c0.8,0.2,1.6,0.3,2.4,0.3c0.8,0,1.4-0.2,1.9-0.5c0.6-0.5,1.3-1.4,2.1-2.7l1.3-2.2l-3.8-23.1h3.9
		l1.7,11.6c0.3,2.3,0.6,4.6,0.9,6.9l10.3-18.4h4.1L588.4,900c-1.4,2.5-2.7,4.2-3.8,5.1c-1.1,0.8-2.4,1.2-3.8,1.2
		C580,906.3,579.1,906.1,578.2,905.8"/>
</g>
<g>
	<path d="M606.5,887.8c0,2.2,0.5,3.8,1.6,4.9c1,1.1,2.4,1.7,4,1.7c0.8,0,1.7-0.2,2.5-0.5c0.8-0.3,1.6-0.9,2.3-1.5
		c0.7-0.7,1.3-1.5,1.8-2.4c0.5-0.9,0.9-1.8,1.2-2.9c0.5-1.4,0.7-2.8,0.7-4.1c0-2.1-0.5-3.7-1.6-4.8c-1.1-1.1-2.4-1.7-4-1.7
		c-1.2,0-2.4,0.3-3.4,0.9c-1,0.6-1.9,1.4-2.8,2.6c-0.8,1.1-1.4,2.4-1.8,3.9C606.7,885.3,606.5,886.6,606.5,887.8 M602.6,888.2
		c0-4.5,1.3-8.2,4-11.1c2.2-2.4,5-3.6,8.6-3.6c2.8,0,5,0.9,6.7,2.6c1.7,1.7,2.5,4.1,2.5,7c0,2.6-0.5,5.1-1.6,7.4
		c-1.1,2.3-2.6,4-4.6,5.2c-2,1.2-4,1.8-6.2,1.8c-1.8,0-3.4-0.4-4.9-1.1c-1.5-0.8-2.6-1.8-3.4-3.2C603,891.6,602.6,890,602.6,888.2z"
		/>
</g>
<g>
	<path d="M642.3,892.8c-2.8,3.1-5.6,4.7-8.5,4.7c-1.8,0-3.2-0.5-4.3-1.5c-1.1-1-1.6-2.3-1.6-3.7c0-1,0.3-2.6,0.8-5l3-13.3h3.9
		l-3.4,14.9c-0.3,1.2-0.4,2.2-0.4,2.9c0,0.8,0.3,1.4,0.8,1.8c0.5,0.4,1.3,0.7,2.4,0.7c1.1,0,2.2-0.3,3.3-0.8c1.1-0.5,2-1.3,2.8-2.2
		c0.8-0.9,1.4-2,1.9-3.2c0.3-0.8,0.7-2.2,1.1-4.2l2.2-10h3.9l-5.1,23h-3.6L642.3,892.8z"/>
</g>
<g>
	<path d="M651.3,896.9l4.8-23h3.5l-1,4.7c1.2-1.8,2.4-3.1,3.5-3.9c1.1-0.9,2.3-1.3,3.5-1.3c0.8,0,1.7,0.3,2.9,0.8l-1.6,3.6
		c-0.7-0.5-1.4-0.8-2.2-0.8c-1.4,0-2.8,0.8-4.2,2.3c-1.5,1.5-2.6,4.3-3.4,8.3l-1.9,9.2H651.3z"/>
</g>
<g>
	<path d="M680,886.7l4.2-0.4l0,1.1c0,1.2,0.3,2.4,0.8,3.4c0.6,1,1.5,1.8,2.8,2.4c1.3,0.6,2.8,0.8,4.6,0.8c2.5,0,4.5-0.6,5.8-1.7
		c1.3-1.1,2-2.4,2-3.8c0-1-0.4-1.9-1.1-2.7c-0.7-0.8-2.7-1.9-5.9-3.3c-2.5-1.1-4.2-1.9-5.1-2.5c-1.4-0.9-2.5-2-3.2-3.1
		c-0.7-1.1-1-2.4-1-3.8c0-1.6,0.5-3.1,1.3-4.4c0.9-1.3,2.2-2.3,3.9-3c1.7-0.7,3.7-1,5.8-1c2.6,0,4.8,0.4,6.5,1.3
		c1.8,0.9,3.1,2,3.9,3.5c0.8,1.4,1.2,2.8,1.2,4.1c0,0.1,0,0.3,0,0.7l-4.1,0.3c0-0.9-0.1-1.6-0.2-2.1c-0.3-0.9-0.7-1.6-1.3-2.2
		c-0.6-0.6-1.4-1.1-2.5-1.5c-1.1-0.4-2.2-0.6-3.6-0.6c-2.3,0-4.1,0.5-5.4,1.6c-1,0.8-1.5,1.9-1.5,3.2c0,0.8,0.2,1.5,0.6,2.1
		c0.4,0.6,1.1,1.2,2.2,1.8c0.7,0.4,2.5,1.3,5.3,2.5c2.3,1,3.8,1.8,4.7,2.4c1.2,0.8,2,1.7,2.7,2.8c0.6,1.1,0.9,2.3,0.9,3.7
		c0,1.7-0.5,3.3-1.6,4.8c-1.1,1.5-2.5,2.6-4.3,3.4c-1.8,0.8-4,1.2-6.3,1.2c-3.6,0-6.5-0.8-8.8-2.3C681.2,893.6,680,890.7,680,886.7"
		/>
</g>
<g>
	<path d="M708,896.9l4.8-23h3.9l-0.8,3.8c1.5-1.6,2.8-2.8,3.9-3.4c1.2-0.6,2.4-0.9,3.7-0.9c1.4,0,2.6,0.4,3.6,1.1
		c1,0.8,1.6,1.8,1.9,3.2c1.2-1.4,2.4-2.5,3.7-3.2c1.3-0.7,2.7-1.1,4.1-1.1c1.9,0,3.4,0.5,4.3,1.4c1,0.9,1.4,2.2,1.4,3.8
		c0,0.7-0.2,1.9-0.5,3.5l-3.2,14.8h-3.9l3.2-15.2c0.3-1.2,0.4-2.1,0.4-2.7c0-0.8-0.2-1.3-0.7-1.8c-0.5-0.4-1.2-0.7-2-0.7
		c-1.2,0-2.4,0.4-3.6,1.1s-2.2,1.6-2.8,2.8c-0.7,1.1-1.3,2.9-1.8,5.3l-2.3,11.2h-3.9l3.3-15.5c0.2-1.1,0.3-1.8,0.3-2.3
		c0-0.7-0.2-1.4-0.7-1.8c-0.5-0.5-1.1-0.7-1.8-0.7c-1.1,0-2.3,0.4-3.5,1.1c-1.2,0.7-2.2,1.7-3,3c-0.8,1.3-1.4,3.1-1.9,5.4l-2.3,10.9
		H708z"/>
</g>
<g>
	<path d="M762,885.3c-0.6,0.2-1.1,0.4-1.8,0.5c-0.6,0.1-1.7,0.2-3.2,0.4c-2.3,0.2-3.9,0.5-4.8,0.8c-0.9,0.3-1.6,0.8-2.1,1.5
		c-0.5,0.7-0.7,1.4-0.7,2.2c0,1.1,0.4,2,1.1,2.7c0.8,0.7,1.8,1.1,3.2,1.1c1.3,0,2.6-0.3,3.8-1c1.2-0.7,2.1-1.6,2.8-2.9
		C761.1,889.3,761.6,887.5,762,885.3 M760.5,894.1c-1.4,1.2-2.7,2-3.9,2.6c-1.3,0.5-2.6,0.8-4,0.8c-2.1,0-3.8-0.6-5.1-1.9
		c-1.3-1.2-2-2.8-2-4.8c0-1.3,0.3-2.4,0.9-3.4c0.6-1,1.4-1.8,2.3-2.4c1-0.6,2.2-1,3.6-1.3c0.9-0.2,2.6-0.3,5-0.4
		c2.5-0.1,4.2-0.4,5.3-0.8c0.3-1.1,0.5-2,0.5-2.7c0-0.9-0.3-1.6-1-2.1c-0.9-0.7-2.2-1.1-4-1.1c-1.6,0-3,0.4-4.1,1.1
		c-1.1,0.7-1.8,1.8-2.3,3.1l-4-0.4c0.8-2.3,2.1-4,3.8-5.2c1.8-1.2,4-1.8,6.6-1.8c2.8,0,5.1,0.7,6.8,2c1.3,1,1.9,2.3,1.9,3.9
		c0,1.2-0.2,2.6-0.5,4.3l-1.3,5.7c-0.4,1.8-0.6,3.3-0.6,4.4c0,0.7,0.2,1.8,0.5,3.1h-4C760.8,896.2,760.6,895.2,760.5,894.1z"/>
</g>
<g>
	<path d="M769.7,896.9l4.8-23h3.5l-1,4.7c1.2-1.8,2.4-3.1,3.5-3.9c1.1-0.9,2.3-1.3,3.5-1.3c0.8,0,1.7,0.3,2.9,0.8l-1.6,3.6
		c-0.7-0.5-1.4-0.8-2.2-0.8c-1.4,0-2.8,0.8-4.2,2.3c-1.5,1.5-2.6,4.3-3.4,8.3l-1.9,9.2H769.7z"/>
</g>
<g>
	<path d="M793.6,893.8L793,897c-0.9,0.2-1.8,0.4-2.7,0.4c-1.6,0-2.8-0.4-3.7-1.2c-0.7-0.6-1-1.4-1-2.4c0-0.5,0.2-1.7,0.6-3.5
		l2.8-13.4h-3.1l0.6-3h3.1l1.2-5.6l4.5-2.7l-1.8,8.3h3.9l-0.7,3h-3.8l-2.7,12.7c-0.3,1.6-0.5,2.6-0.5,2.9c0,0.5,0.1,0.8,0.4,1.1
		c0.3,0.2,0.7,0.4,1.3,0.4C792.2,894,793,893.9,793.6,893.8"/>
</g>
<g>
	<path d="M809.9,896.9l6.6-31.8h5.3l2.9,20.6c0.4,2.7,0.6,5.3,0.7,7.8c0.9-2.1,2.4-5,4.4-8.7l11.1-19.7h5.3l-6.7,31.8h-4.2l3.4-15.5
		c0.8-3.6,1.9-7.6,3.3-12c-1,2-2.1,4.3-3.4,6.7L827,896.9h-4.1l-2.9-20.4c-0.3-1.9-0.5-4-0.6-6.5c-0.4,2.8-0.7,5.1-1.1,6.7
		l-4.2,20.2H809.9z"/>
</g>
<g>
	<path d="M851.6,883.3h13c0-0.4,0-0.7,0-0.9c0-2-0.5-3.5-1.5-4.5c-1-1-2.3-1.6-3.8-1.6c-1.7,0-3.2,0.6-4.6,1.7
		C853.3,879.3,852.3,881,851.6,883.3 M863.1,889.1l3.8,0.4c-0.6,1.9-1.8,3.7-3.8,5.4c-2,1.7-4.3,2.6-7.1,2.6c-1.7,0-3.3-0.4-4.7-1.2
		c-1.4-0.8-2.5-1.9-3.3-3.4c-0.7-1.5-1.1-3.2-1.1-5.1c0-2.5,0.6-4.9,1.7-7.3c1.2-2.4,2.7-4.1,4.5-5.3c1.9-1.1,3.9-1.7,6-1.7
		c2.8,0,5,0.9,6.6,2.6c1.6,1.7,2.5,4,2.5,7c0,1.1-0.1,2.3-0.3,3.5h-17c-0.1,0.5-0.1,0.9-0.1,1.2c0,2.2,0.5,3.8,1.5,4.9
		c1,1.1,2.2,1.7,3.6,1.7c1.3,0,2.7-0.4,4-1.3C861.3,892,862.4,890.8,863.1,889.1z"/>
</g>
<g>
	<path d="M880,893.8l-0.7,3.2c-0.9,0.2-1.8,0.4-2.7,0.4c-1.6,0-2.8-0.4-3.7-1.2c-0.7-0.6-1-1.4-1-2.4c0-0.5,0.2-1.7,0.6-3.5
		l2.8-13.4h-3.1l0.6-3h3.1l1.2-5.6l4.5-2.7l-1.8,8.3h3.9l-0.7,3h-3.8l-2.7,12.7c-0.3,1.6-0.5,2.6-0.5,2.9c0,0.5,0.1,0.8,0.4,1.1
		c0.3,0.2,0.7,0.4,1.3,0.4C878.5,894,879.3,893.9,880,893.8"/>
</g>
<g>
	<path d="M888.7,883.3h13c0-0.4,0-0.7,0-0.9c0-2-0.5-3.5-1.5-4.5c-1-1-2.3-1.6-3.8-1.6c-1.7,0-3.2,0.6-4.6,1.7
		C890.4,879.3,889.3,881,888.7,883.3 M900.1,889.1l3.8,0.4c-0.6,1.9-1.8,3.7-3.8,5.4c-2,1.7-4.3,2.6-7.1,2.6c-1.7,0-3.3-0.4-4.7-1.2
		c-1.4-0.8-2.5-1.9-3.3-3.4c-0.7-1.5-1.1-3.2-1.1-5.1c0-2.5,0.6-4.9,1.7-7.3c1.2-2.4,2.7-4.1,4.5-5.3c1.9-1.1,3.9-1.7,6-1.7
		c2.8,0,5,0.9,6.6,2.6c1.6,1.7,2.5,4,2.5,7c0,1.1-0.1,2.3-0.3,3.5h-17c-0.1,0.5-0.1,0.9-0.1,1.2c0,2.2,0.5,3.8,1.5,4.9
		c1,1.1,2.2,1.7,3.6,1.7c1.3,0,2.7-0.4,4-1.3C898.4,892,899.4,890.8,900.1,889.1z"/>
</g>
<g>
	<path d="M907.9,896.9l4.8-23h3.5l-1,4.7c1.2-1.8,2.4-3.1,3.5-3.9c1.1-0.9,2.3-1.3,3.5-1.3c0.8,0,1.7,0.3,2.9,0.8l-1.6,3.6
		c-0.7-0.5-1.4-0.8-2.2-0.8c-1.4,0-2.8,0.8-4.2,2.3c-1.5,1.5-2.6,4.3-3.4,8.3l-1.9,9.2H907.9z"/>
</g>
<g>
	<path d="M283.5,370.7h23.2c7.7,0,13.1-1.4,16.4-4.3c3.2-2.9,4.8-6.9,4.8-12.1c0-3.7-0.9-7-2.8-9.6c-1.9-2.7-4.4-4.5-7.5-5.3
		c-2-0.5-5.7-0.8-11.1-0.8h-23V370.7z M271.6,417.8V328h33.9c6,0,10.5,0.3,13.7,0.9c4.4,0.7,8.1,2.1,11.1,4.2c3,2.1,5.4,5,7.2,8.7
		c1.8,3.7,2.7,7.8,2.7,12.2c0,7.6-2.4,14.1-7.3,19.3c-4.8,5.3-13.6,7.9-26.3,7.9h-23v36.6H271.6z"/>
</g>
<g>
	<path d="M392.2,417.8h-11v-70.2c-2.7,2.5-6.1,5.1-10.4,7.6c-4.3,2.5-8.2,4.4-11.6,5.7v-10.7c6.2-2.9,11.6-6.4,16.2-10.5
		c4.6-4.1,7.9-8.1,9.8-12h7.1V417.8z"/>
</g>
<g>
	<path d="M465.6,385.3c0,8.3,1.8,14.5,5.3,18.6c3.5,4.1,7.7,6.2,12.5,6.2c4.8,0,8.9-2,12.3-5.9c3.4-3.9,5.1-9.9,5.1-18
		c0-8.9-1.7-15.4-5.2-19.5c-3.4-4.2-7.7-6.2-12.7-6.2c-4.9,0-9,2-12.3,6C467.2,370.5,465.6,376.8,465.6,385.3 M500.4,417.8v-8.3
		c-4.1,6.4-10.2,9.6-18.2,9.6c-5.2,0-9.9-1.4-14.3-4.3c-4.3-2.8-7.7-6.8-10.1-11.9c-2.4-5.1-3.6-11-3.6-17.6
		c0-6.5,1.1-12.3,3.2-17.6c2.2-5.3,5.4-9.3,9.7-12.1c4.3-2.8,9.2-4.2,14.5-4.2c3.9,0,7.4,0.8,10.5,2.5c3.1,1.7,5.5,3.8,7.5,6.5V328
		h11v89.8H500.4z"/>
</g>
<g>
	<path d="M535.3,385.3c0,8.3,1.8,14.5,5.5,18.7c3.7,4.1,8.2,6.2,13.8,6.2c5.5,0,10-2.1,13.7-6.2c3.6-4.2,5.5-10.5,5.5-19
		c0-8-1.8-14.1-5.5-18.2c-3.7-4.1-8.2-6.2-13.6-6.2c-5.5,0-10.1,2-13.8,6.2C537.1,370.8,535.3,377,535.3,385.3 M524,385.3
		c0-12,3.3-20.9,10.1-26.7c5.6-4.8,12.4-7.2,20.5-7.2c8.9,0,16.2,2.9,21.9,8.8c5.7,5.8,8.5,13.9,8.5,24.2c0,8.4-1.3,14.9-3.8,19.7
		c-2.5,4.8-6.2,8.5-11,11.2c-4.8,2.7-10,4-15.7,4c-9.1,0-16.5-2.9-22.1-8.7C526.8,404.6,524,396.2,524,385.3z"/>
</g>
<g>
	<path d="M597.9,417.8v-65.1h9.9v9.2c4.8-7.1,11.7-10.6,20.7-10.6c3.9,0,7.5,0.7,10.8,2.1c3.3,1.4,5.7,3.3,7.4,5.5
		c1.6,2.3,2.8,5,3.4,8.1c0.4,2,0.6,5.6,0.6,10.7v39.9h-11v-39.5c0-4.5-0.4-7.9-1.3-10.1c-0.9-2.2-2.4-4-4.6-5.3
		c-2.2-1.3-4.7-2-7.7-2c-4.7,0-8.7,1.5-12.1,4.5c-3.4,3-5.1,8.6-5.1,16.9v35.5H597.9z"/>
</g>
<g>
	<path d="M674.6,384.2c0,8.5,1.7,14.7,5.1,18.6c3.4,3.9,7.6,5.9,12.7,5.9c5.1,0,9.3-1.9,12.8-5.8c3.4-3.9,5.1-10,5.1-18.3
		c0-7.9-1.8-13.9-5.3-18c-3.5-4-7.8-6-12.8-6c-4.9,0-9.1,2-12.5,6C676.3,370.4,674.6,376.3,674.6,384.2 M665.6,423.2l10.7,1.5
		c0.4,3.3,1.7,5.7,3.7,7.2c2.7,2,6.5,3.1,11.2,3.1c5.1,0,9-1,11.8-3.1c2.8-2,4.7-4.9,5.6-8.5c0.6-2.2,0.8-6.9,0.8-14.1
		c-4.8,5.7-10.8,8.5-18,8.5c-8.9,0-15.9-3.2-20.8-9.7c-4.9-6.4-7.4-14.2-7.4-23.2c0-6.2,1.1-11.9,3.4-17.2c2.2-5.2,5.5-9.3,9.8-12.1
		c4.3-2.9,9.3-4.3,15-4.3c7.7,0,14,3.1,19,9.4v-8h10.2v56.2c0,10.1-1,17.3-3.1,21.5c-2,4.2-5.3,7.6-9.8,10c-4.5,2.4-10,3.7-16.5,3.7
		c-7.8,0-14-1.7-18.8-5.2C667.7,435.4,665.4,430.2,665.6,423.2z"/>
</g>
<g>
	<rect x="737.1" y="328" width="11" height="89.8"/>
</g>
<g>
	<path d="M773.4,379.1h36.2c-0.5-5.5-1.9-9.6-4.2-12.3c-3.5-4.2-8-6.4-13.6-6.4c-5.1,0-9.3,1.7-12.7,5.1
		C775.7,368.8,773.8,373.4,773.4,379.1 M809.5,396.7l11.4,1.5c-1.8,6.6-5.1,11.8-9.9,15.4c-4.8,3.7-11,5.5-18.6,5.5
		c-9.5,0-17-2.9-22.6-8.8c-5.6-5.8-8.3-14-8.3-24.6c0-10.9,2.8-19.4,8.4-25.4c5.6-6,12.9-9,21.9-9c8.7,0,15.8,2.9,21.2,8.9
		c5.5,5.9,8.3,14.2,8.3,24.9c0,0.6,0,1.6-0.1,2.9h-48.5c0.4,7.1,2.4,12.6,6.1,16.4c3.6,3.8,8.1,5.7,13.6,5.7c4,0,7.5-1.1,10.3-3.2
		C805.6,404.8,807.9,401.4,809.5,396.7z"/>
</g>
<g>
	<path d="M284.6,418.9h-14V327h35c6,0,10.6,0.3,13.9,0.9c4.5,0.7,8.4,2.2,11.5,4.3c3.1,2.2,5.7,5.2,7.6,9.1
		c1.9,3.8,2.8,8.1,2.8,12.7c0,7.9-2.5,14.6-7.6,20c-5,5.5-14.2,8.3-27.1,8.3h-22V418.9z M272.7,416.7h9.8v-36.6h24.1
		c12.4,0,21-2.5,25.6-7.6c4.7-5,7-11.3,7-18.6c0-4.3-0.9-8.2-2.6-11.8c-1.7-3.5-4-6.3-6.9-8.2c-2.9-2-6.4-3.3-10.7-4
		c-3.1-0.6-7.7-0.8-13.5-0.8h-32.8V416.7z M306.7,371.7h-24.3v-34.2h24c5.4,0,9.2,0.3,11.3,0.8c3.3,0.9,6.1,2.8,8.1,5.7
		c2,2.8,3,6.3,3,10.2c0,5.5-1.7,9.8-5.2,12.9C320.3,370.2,314.8,371.7,306.7,371.7z M284.6,369.6h22.1c7.4,0,12.6-1.4,15.7-4
		c3-2.7,4.5-6.4,4.5-11.3c0-3.5-0.9-6.5-2.6-9c-1.8-2.5-4.1-4.1-6.9-4.9c-1.9-0.5-5.6-0.8-10.8-0.8h-21.9V369.6z"/>
</g>
<g>
	<path d="M393.3,418.9h-13.2v-68.9c-2.4,2-5.4,4.1-8.8,6.1c-4.3,2.6-8.3,4.5-11.8,5.8l-1.4,0.5v-12.9l0.6-0.3
		c6-2.8,11.4-6.3,15.9-10.4c4.5-4,7.7-8,9.6-11.7l0.3-0.6h8.8V418.9z M382.3,416.7h8.9v-88h-5.4c-2,3.8-5.3,7.7-9.8,11.7
		c-4.5,4-9.8,7.5-15.8,10.4v8.4c3-1.2,6.4-2.9,10-5.1c4.2-2.5,7.7-5,10.2-7.5l1.8-1.7V416.7z"/>
</g>
<g>
	<path d="M482.2,420.2c-5.4,0-10.4-1.5-14.9-4.5c-4.5-2.9-8-7.1-10.5-12.4c-2.4-5.2-3.7-11.3-3.7-18.1c0-6.6,1.1-12.6,3.3-18
		c2.3-5.5,5.7-9.7,10.1-12.6c4.4-2.9,9.5-4.4,15.1-4.4c4.1,0,7.8,0.9,11,2.6c2.2,1.2,4.2,2.7,5.9,4.5V327h13.2v91.9h-12.4v-6.1
		C495.1,417.7,489.4,420.2,482.2,420.2z M481.7,352.4c-5.1,0-9.8,1.4-13.9,4c-4.1,2.7-7.2,6.6-9.3,11.6c-2.1,5.1-3.2,10.9-3.2,17.2
		c0,6.4,1.2,12.2,3.5,17.2c2.3,4.9,5.6,8.8,9.7,11.5c4.1,2.7,8.7,4.1,13.7,4.1c7.7,0,13.3-3,17.3-9.1l2-3.1v10.8h8.2v-87.6h-8.9
		v34.5l-1.9-2.7c-1.8-2.5-4.2-4.6-7.1-6.2C488.8,353.2,485.5,352.4,481.7,352.4z M483.3,411.2c-5.1,0-9.6-2.2-13.3-6.5
		c-3.7-4.3-5.5-10.8-5.5-19.3c0-8.8,1.7-15.4,5.2-19.5c3.5-4.2,7.9-6.4,13.1-6.4c5.4,0,9.9,2.2,13.5,6.6c3.6,4.3,5.4,11.1,5.4,20.2
		c0,8.3-1.8,14.6-5.3,18.7C492.8,409.1,488.4,411.2,483.3,411.2z M482.8,361.6c-4.6,0-8.4,1.8-11.5,5.6c-3.1,3.8-4.7,9.9-4.7,18.2
		c0,8,1.7,14.1,5,17.9c3.3,3.9,7.1,5.8,11.6,5.8c4.5,0,8.3-1.8,11.5-5.5c3.2-3.7,4.8-9.5,4.8-17.3c0-8.6-1.7-14.9-4.9-18.9
		C491.5,363.5,487.6,361.6,482.8,361.6z"/>
</g>
<g>
	<path d="M554.5,420.2c-9.4,0-17.1-3-22.9-9.1c-5.8-6-8.7-14.7-8.7-25.9c0-12.3,3.5-21.5,10.4-27.5c5.8-5,12.9-7.5,21.1-7.5
		c9.2,0,16.8,3.1,22.7,9.1c5.8,6,8.8,14.4,8.8,25c0,8.5-1.3,15.3-3.9,20.2c-2.6,4.9-6.4,8.9-11.4,11.6
		C565.8,418.9,560.4,420.2,554.5,420.2z M554.5,352.4c-7.8,0-14.4,2.3-19.8,7c-6.4,5.5-9.7,14.3-9.7,25.9c0,10.6,2.7,18.8,8.1,24.4
		c5.4,5.6,12.6,8.4,21.3,8.4c5.5,0,10.6-1.3,15.2-3.8c4.6-2.5,8.1-6.1,10.5-10.7c2.4-4.6,3.6-11.1,3.6-19.2c0-10-2.8-17.9-8.2-23.5
		C570.2,355.3,563.1,352.4,554.5,352.4z M554.5,411.2c-5.8,0-10.7-2.2-14.6-6.6c-3.8-4.3-5.7-10.8-5.7-19.4c0-8.5,1.9-15,5.7-19.3
		c3.8-4.3,8.7-6.5,14.6-6.5c5.7,0,10.6,2.2,14.4,6.6c3.8,4.3,5.8,10.7,5.8,18.9c0,8.7-1.9,15.4-5.7,19.7
		C565.2,409,560.3,411.2,554.5,411.2z M554.5,361.6c-5.3,0-9.5,1.9-13,5.8c-3.4,3.9-5.2,9.9-5.2,17.9c0,8,1.7,14.1,5.2,18
		c3.5,3.9,7.7,5.8,13,5.8c5.2,0,9.4-1.9,12.9-5.9c3.4-3.9,5.2-10.1,5.2-18.3c0-7.7-1.8-13.6-5.2-17.5
		C563.9,363.5,559.6,361.6,554.5,361.6z"/>
</g>
<g>
	<path d="M651.7,418.9h-13.2v-40.6c0-4.4-0.4-7.6-1.2-9.7c-0.8-2-2.2-3.6-4.1-4.8c-2-1.2-4.4-1.8-7.1-1.8c-4.5,0-8.2,1.4-11.4,4.2
		c-3.1,2.7-4.7,8.2-4.7,16.1v36.6h-13.2v-67.2h12v7.1c4.8-5.7,11.4-8.5,19.6-8.5c4,0,7.8,0.7,11.2,2.2c3.4,1.5,6.1,3.5,7.8,5.9
		c1.7,2.4,2.9,5.3,3.6,8.5c0.4,2.2,0.6,5.8,0.6,10.9V418.9z M640.7,416.7h8.9v-38.9c0-5-0.2-8.5-0.6-10.5c-0.6-3-1.7-5.6-3.2-7.7
		c-1.5-2.1-3.8-3.9-6.9-5.2c-3.1-1.3-6.6-2-10.4-2c-8.7,0-15.2,3.3-19.8,10.1l-1.9,2.9v-11.7h-7.8v62.9h8.9v-34.4
		c0-8.6,1.8-14.6,5.5-17.7c3.6-3.1,7.9-4.7,12.8-4.7c3.1,0,5.9,0.7,8.2,2.1c2.4,1.5,4.1,3.4,5,5.9c0.9,2.3,1.3,5.8,1.3,10.5V416.7z"
		/>
</g>
<g>
	<path d="M691.2,445.2c-7.9,0-14.5-1.8-19.4-5.4c-5.1-3.7-7.5-9.2-7.4-16.6l0-1.2l12.6,1.8l0.1,0.8c0.4,3,1.5,5.2,3.3,6.5
		c2.5,1.9,6.1,2.8,10.6,2.8c4.8,0,8.6-1,11.2-2.8c2.6-1.9,4.3-4.5,5.2-8c0.5-1.9,0.7-5.6,0.8-11.1c-4.7,4.6-10.4,6.9-16.9,6.9
		c-9.3,0-16.5-3.4-21.6-10.1c-5-6.6-7.6-14.6-7.6-23.8c0-6.3,1.2-12.2,3.5-17.6c2.3-5.4,5.7-9.6,10.1-12.6c4.4-3,9.7-4.5,15.6-4.5
		c7,0,13,2.6,17.9,7.6v-6.2h12.3v57.2c0,10.4-1,17.6-3.2,22c-2.1,4.4-5.6,7.9-10.2,10.5C703.6,443.9,697.9,445.2,691.2,445.2z
		 M666.6,424.4c0.1,6.1,2.2,10.6,6.5,13.6c4.5,3.3,10.7,5,18.1,5c6.3,0,11.7-1.2,16-3.5c4.3-2.3,7.4-5.5,9.3-9.5c2-4,3-11.1,3-21.1
		v-55.1h-8v10l-1.9-2.4c-4.7-6-10.8-9-18.1-9c-5.5,0-10.4,1.4-14.5,4.1c-4.1,2.7-7.2,6.7-9.4,11.7c-2.2,5.1-3.3,10.7-3.3,16.8
		c0,8.7,2.4,16.3,7.1,22.5c4.7,6.1,11.4,9.3,19.9,9.3c6.9,0,12.5-2.7,17.2-8.1l1.9-2.2l0,2.9c0,7.3-0.2,12-0.8,14.4
		c-1,3.9-3.1,7-6,9.1c-3,2.2-7.1,3.3-12.5,3.3c-4.9,0-8.9-1.1-11.9-3.3c-2.1-1.6-3.5-4-4-7.1L666.6,424.4z M692.4,409.7
		c-5.4,0-9.9-2.1-13.5-6.2c-3.5-4.1-5.3-10.6-5.3-19.3c0-8.1,1.8-14.2,5.4-18.4c3.6-4.2,8.1-6.3,13.3-6.3c5.3,0,9.8,2.2,13.6,6.4
		c3.7,4.2,5.6,10.5,5.6,18.7c0,8.5-1.8,14.9-5.4,19C702.3,407.6,697.8,409.7,692.4,409.7z M692.2,361.6c-4.6,0-8.4,1.8-11.7,5.6
		c-3.2,3.8-4.9,9.5-4.9,17c0,8.2,1.6,14.2,4.8,17.9c3.2,3.7,7.1,5.5,11.9,5.5c4.8,0,8.7-1.8,12-5.5c3.2-3.7,4.9-9.6,4.9-17.6
		c0-7.6-1.7-13.4-5-17.3C700.9,363.4,697,361.6,692.2,361.6z"/>
</g>
<g>
	<path d="M749.2,418.9H736V327h13.2V418.9z M738.1,416.7h8.9v-87.6h-8.9V416.7z"/>
</g>
<g>
	<path d="M792.4,420.2c-9.7,0-17.6-3.1-23.3-9.1c-5.7-6-8.6-14.5-8.6-25.3c0-11.2,2.9-19.9,8.7-26.1c5.8-6.2,13.4-9.4,22.7-9.4
		c8.9,0,16.4,3.1,22,9.2c5.7,6.1,8.5,14.7,8.5,25.7c0,0.7,0,1.6-0.1,3l0,1H774c0.5,6.3,2.5,11.2,5.7,14.6c3.4,3.6,7.7,5.4,12.8,5.4
		c3.8,0,7-1,9.7-3c2.7-2,4.8-5.3,6.4-9.7l0.3-0.8l13.5,1.8l-0.3,1.2c-1.8,6.8-5.3,12.2-10.3,16C806.6,418.3,800.2,420.2,792.4,420.2
		z M791.8,352.4c-8.6,0-15.7,2.9-21.1,8.7c-5.4,5.8-8.1,14.1-8.1,24.7c0,10.2,2.7,18.3,8,23.9c5.3,5.6,12.7,8.4,21.8,8.4
		c7.3,0,13.3-1.8,17.9-5.3c4.3-3.3,7.4-7.9,9.2-13.7l-9.3-1.2c-1.7,4.5-4,7.8-6.9,9.9c-3,2.3-6.7,3.4-11,3.4c-5.7,0-10.5-2-14.3-6
		c-3.8-3.9-5.9-9.7-6.4-17.1l-0.1-1.1h48.5c0-0.8,0-1.4,0-1.9c0-10.4-2.7-18.5-8-24.2C807,355.3,800.2,352.4,791.8,352.4z
		 M810.8,380.1h-38.5l0.1-1.1c0.4-5.9,2.4-10.7,6-14.3c3.6-3.6,8.2-5.4,13.5-5.4c5.9,0,10.8,2.3,14.4,6.8c2.4,2.9,3.9,7.2,4.4,12.9
		L810.8,380.1z M774.6,378h33.9c-0.5-4.6-1.8-8.2-3.8-10.6c-3.3-4-7.6-6-12.8-6c-4.8,0-8.7,1.6-12,4.8
		C776.9,369.2,775.1,373.1,774.6,378z"/>
</g>
<g>
	<path d="M406.1,651.5c-3.1,3.1-8.2,3.1-11.3,0c-3.1-3.1-3.1-8.2,0-11.3l151.2-151.2c3.1-3.1,8.2-3.1,11.3,0l137.7,137.7
		c1.6,1.6,2.3,3.6,2.3,5.6l0,127c0,4.4-3.6,8-8,8H453.4c-4.4,0-8-3.6-8-8V634.6c0-4.4,3.6-8,8-8c4.4,0,8,3.6,8,8v116.8h220.2V635.7
		L551.7,505.9L406.1,651.5z"/>
</g>
<g>
	<rect x="445.7" y="522.2" width="15.9" height="32.3"/>
</g>
<g>
	<path  d="M453.6,487.9c4.8,0,8.7,3.9,8.7,8.7c0,4.8-3.9,8.7-8.7,8.7s-8.7-3.9-8.7-8.7
		C444.9,491.8,448.8,487.9,453.6,487.9"/>
</g>
<g>
	<path d="M496.1,604.2c-1.5-1.5-3.5-2.3-5.7-2.3c-2.2,0-4.2,0.9-5.7,2.3c-1.5,1.5-2.3,3.5-2.3,5.7c0,2.2,0.9,4.2,2.3,5.7
		c1.5,1.5,3.5,2.4,5.7,2.4c2.2,0,4.2-0.9,5.7-2.4c1.5-1.5,2.3-3.5,2.3-5.7C498.4,607.7,497.5,605.7,496.1,604.2 M604.3,614.9
		c-1.5-1.5-3.5-2.3-5.7-2.3c-2.2,0-4.2,0.9-5.7,2.3c-1.5,1.5-2.3,3.5-2.3,5.7c0,2.2,0.9,4.2,2.3,5.7c1.5,1.5,3.5,2.3,5.7,2.3
		c2.2,0,4.2-0.9,5.7-2.3c1.5-1.5,2.3-3.5,2.3-5.7C606.7,618.4,605.8,616.4,604.3,614.9z M663.7,692.3c-1.5-1.5-3.5-2.3-5.7-2.3
		c-2.2,0-4.2,0.9-5.7,2.3c-1.5,1.5-2.3,3.5-2.3,5.7c0,2.2,0.9,4.2,2.3,5.7c1.5,1.5,3.5,2.3,5.7,2.3c2.2,0,4.2-0.9,5.7-2.3
		c1.5-1.5,2.4-3.5,2.4-5.7C666,695.7,665.1,693.7,663.7,692.3z M498.1,723.7c-1.5-1.5-3.5-2.3-5.7-2.3c-2.2,0-4.2,0.9-5.7,2.3
		c-1.5,1.5-2.3,3.5-2.3,5.7c0,2.2,0.9,4.2,2.3,5.7s3.5,2.3,5.7,2.3c2.2,0,4.2-0.9,5.7-2.3c1.5-1.5,2.4-3.5,2.4-5.7
		C500.4,727.1,499.5,725.1,498.1,723.7z M604.6,632.5c-1.8,0.9-3.8,1.4-5.9,1.4c-2.3,0-4.5-0.6-6.3-1.6l-18.5,18.5l73.3,39.4
		c0.4-0.5,0.8-1,1.2-1.5L604.6,632.5z M644.7,698.9c0-0.3,0-0.7,0-1c0-1,0.1-1.9,0.3-2.8l-75.1-40.3l-66.7,66.7c0.9,1.2,1.5,2.5,2,4
		L644.7,698.9z M490.4,596.6c3.7,0,7,1.5,9.4,3.9c2.4,2.4,3.9,5.7,3.9,9.4c0,1.1-0.1,2.1-0.4,3.1l65.5,35.2l19.3-19.3
		c-1.8-2.3-2.9-5.2-2.9-8.3c0-3.7,1.5-7,3.9-9.4c2.4-2.4,5.7-3.9,9.4-3.9c3.7,0,7,1.5,9.4,3.9c2.4,2.4,3.9,5.7,3.9,9.4
		c0,3.3-1.2,6.4-3.2,8.7l43.9,56.4c1.6-0.7,3.4-1.1,5.3-1.1c3.7,0,7,1.5,9.4,3.9c2.4,2.4,3.9,5.7,3.9,9.4c0,3.7-1.5,7-3.9,9.4
		c-2.4,2.4-5.7,3.9-9.4,3.9c-3.7,0-7-1.5-9.4-3.9c-1-1-1.8-2.1-2.4-3.3l-140.4,26.7c-0.3,3.1-1.7,6-3.8,8.1
		c-2.4,2.4-5.7,3.9-9.4,3.9c-3.7,0-7-1.5-9.4-3.9c-2.4-2.4-3.9-5.7-3.9-9.4c0-3.7,1.5-7,3.9-9.4c2.4-2.4,5.7-3.9,9.4-3.9
		c2.5,0,4.8,0.7,6.8,1.9l65.7-65.7l-63.8-34.3c-0.4,0.5-0.8,1-1.3,1.5c-2.4,2.4-5.7,3.9-9.4,3.9c-3.7,0-7-1.5-9.4-3.9
		c-2.4-2.4-3.9-5.7-3.9-9.4c0-3.7,1.5-7,3.9-9.4C483.4,598.1,486.7,596.6,490.4,596.6z"/>
</g>
<g>
	<path d="M693.6,242.4l0,0.7c0,2,0.5,3.4,1.4,4.5c0.9,1,2,1.5,3.4,1.5c1.3,0,2.6-0.5,3.7-1.4c1.1-1,2-2.5,2.7-4.5
		c0.7-2,1.1-3.9,1.1-5.6c0-1.9-0.5-3.4-1.4-4.5c-0.9-1.1-2-1.6-3.4-1.6c-1.4,0-2.6,0.5-3.8,1.6c-1.1,1.1-2.1,2.8-2.9,5
		C693.9,239.8,693.6,241.2,693.6,242.4 M687.8,251.8l6.7-31.8h3.9l-2.4,11.4c1.2-1.1,2.3-1.9,3.3-2.4c1-0.5,2-0.7,3.1-0.7
		c2.1,0,3.8,0.8,5.2,2.4c1.4,1.6,2.1,3.9,2.1,7c0,2-0.3,3.9-0.8,5.6c-0.6,1.7-1.3,3.1-2.1,4.2c-0.8,1.1-1.7,2.1-2.6,2.8
		c-0.9,0.7-1.8,1.2-2.7,1.5c-0.9,0.3-1.8,0.5-2.7,0.5c-1.5,0-2.8-0.4-3.9-1.2c-1.1-0.8-2-2-2.6-3.6l-0.9,4.3H687.8z"/>
</g>
<g>
	<path d="M728.2,247.6c-2.8,3.1-5.6,4.7-8.5,4.7c-1.8,0-3.2-0.5-4.3-1.5c-1.1-1-1.6-2.3-1.6-3.7c0-1,0.3-2.6,0.8-5l3-13.3h3.9
		l-3.4,14.9c-0.3,1.2-0.4,2.2-0.4,2.9c0,0.8,0.3,1.4,0.8,1.8c0.5,0.4,1.3,0.7,2.4,0.7c1.1,0,2.2-0.3,3.3-0.8c1.1-0.5,2-1.3,2.8-2.2
		c0.8-0.9,1.4-2,1.9-3.2c0.3-0.8,0.7-2.2,1.1-4.2l2.2-10h3.9l-5.1,23h-3.6L728.2,247.6z"/>
</g>
<g>
	<path d="M746.3,248.6l-0.7,3.2c-0.9,0.2-1.8,0.4-2.7,0.4c-1.6,0-2.8-0.4-3.7-1.2c-0.7-0.6-1-1.4-1-2.4c0-0.5,0.2-1.7,0.6-3.5
		l2.8-13.4h-3.1l0.6-3h3.1l1.2-5.6l4.5-2.7l-1.8,8.3h3.9l-0.7,3h-3.8l-2.7,12.7c-0.3,1.6-0.5,2.6-0.5,2.9c0,0.5,0.1,0.8,0.4,1.1
		c0.3,0.2,0.7,0.4,1.3,0.4C744.9,248.9,745.6,248.8,746.3,248.6"/>
</g>
<g>
	<path d="M758.6,248.6l-0.7,3.2c-0.9,0.2-1.8,0.4-2.7,0.4c-1.6,0-2.8-0.4-3.7-1.2c-0.7-0.6-1-1.4-1-2.4c0-0.5,0.2-1.7,0.6-3.5
		l2.8-13.4h-3.1l0.6-3h3.1l1.2-5.6l4.5-2.7l-1.8,8.3h3.9l-0.7,3h-3.8l-2.7,12.7c-0.3,1.6-0.5,2.6-0.5,2.9c0,0.5,0.1,0.8,0.4,1.1
		c0.3,0.2,0.7,0.4,1.3,0.4C757.2,248.9,758,248.8,758.6,248.6"/>
</g>
<g>
	<path d="M766.4,242.6c0,2.2,0.5,3.8,1.6,4.9c1,1.1,2.4,1.7,4,1.7c0.8,0,1.7-0.2,2.5-0.5c0.8-0.3,1.6-0.9,2.3-1.5
		c0.7-0.7,1.3-1.5,1.8-2.4c0.5-0.9,0.9-1.8,1.2-2.9c0.5-1.4,0.7-2.8,0.7-4.1c0-2.1-0.5-3.7-1.6-4.8c-1.1-1.1-2.4-1.7-4-1.7
		c-1.2,0-2.4,0.3-3.4,0.9c-1,0.6-1.9,1.4-2.8,2.6c-0.8,1.1-1.4,2.4-1.8,3.9C766.6,240.1,766.4,241.5,766.4,242.6 M762.5,243
		c0-4.5,1.3-8.2,4-11.1c2.2-2.4,5-3.6,8.6-3.6c2.8,0,5,0.9,6.7,2.6c1.7,1.7,2.5,4.1,2.5,7c0,2.6-0.5,5.1-1.6,7.4
		c-1.1,2.3-2.6,4-4.6,5.2c-2,1.2-4,1.8-6.2,1.8c-1.8,0-3.4-0.4-4.9-1.1c-1.5-0.8-2.6-1.8-3.4-3.2C762.9,246.5,762.5,244.9,762.5,243
		z"/>
</g>
<g>
	<path d="M786.5,251.8l4.8-23h3.6l-0.8,4c1.6-1.6,3-2.7,4.4-3.4c1.4-0.7,2.7-1.1,4.2-1.1c1.9,0,3.4,0.5,4.4,1.5
		c1.1,1,1.6,2.4,1.6,4.1c0,0.9-0.2,2.2-0.6,4l-3.1,13.9h-3.9l3.2-14.6c0.3-1.4,0.5-2.5,0.5-3.1c0-0.8-0.3-1.4-0.8-1.9
		c-0.5-0.5-1.3-0.7-2.3-0.7c-2,0-3.9,0.7-5.5,2.2c-1.6,1.4-2.8,3.9-3.5,7.4l-2.2,10.7H786.5z"/>
</g>
<g>
	<polygon points="650.5,224.2 675.5,249.1 668.9,255.7 644,230.7 637.5,237.2 627.7,207.9 657,217.7 	"/>
</g>
<g>
	<path d="M138.7,243.9l4-0.2c0,1.1,0.2,2.1,0.5,2.9c0.3,0.8,1,1.4,1.9,1.9c0.9,0.5,2,0.8,3.2,0.8c1.7,0,3-0.3,3.9-1
		c0.9-0.7,1.3-1.5,1.3-2.4c0-0.7-0.3-1.3-0.8-1.9c-0.5-0.6-1.8-1.4-3.9-2.2c-2.1-0.9-3.4-1.5-4-1.9c-1-0.6-1.7-1.3-2.2-2.1
		c-0.5-0.8-0.7-1.7-0.7-2.8c0-1.8,0.7-3.4,2.2-4.7c1.4-1.3,3.5-1.9,6.1-1.9c2.9,0,5.1,0.7,6.6,2c1.5,1.3,2.3,3.1,2.3,5.3l-3.8,0.3
		c-0.1-1.4-0.5-2.5-1.5-3.3c-0.9-0.8-2.2-1.2-3.9-1.2c-1.4,0-2.4,0.3-3.2,0.9c-0.7,0.6-1.1,1.3-1.1,2c0,0.7,0.3,1.4,1,1.9
		c0.4,0.4,1.5,1,3.3,1.7c3,1.3,4.9,2.3,5.6,3.1c1.2,1.2,1.9,2.6,1.9,4.4c0,1.1-0.3,2.3-1.1,3.4c-0.7,1.1-1.8,2-3.2,2.6
		c-1.4,0.7-3.1,1-5.1,1c-2.6,0-4.9-0.7-6.8-2C139.5,249,138.6,246.8,138.7,243.9"/>
</g>
<g>
	<path d="M169.7,248.6l-0.7,3.2c-0.9,0.2-1.8,0.4-2.7,0.4c-1.6,0-2.8-0.4-3.7-1.2c-0.7-0.6-1-1.4-1-2.4c0-0.5,0.2-1.7,0.6-3.5
		l2.8-13.4h-3.1l0.6-3h3.1l1.2-5.6l4.5-2.7l-1.8,8.3h3.9l-0.7,3h-3.8l-2.7,12.7c-0.3,1.6-0.5,2.6-0.5,2.9c0,0.5,0.1,0.8,0.4,1.1
		c0.3,0.2,0.7,0.4,1.3,0.4C168.2,248.9,169,248.8,169.7,248.6"/>
</g>
<g>
	<path d="M189.8,240.1c-0.6,0.2-1.1,0.4-1.8,0.5c-0.6,0.1-1.7,0.2-3.2,0.4c-2.3,0.2-3.9,0.5-4.8,0.8c-0.9,0.3-1.6,0.8-2.1,1.5
		c-0.5,0.7-0.7,1.4-0.7,2.2c0,1.1,0.4,2,1.1,2.7c0.8,0.7,1.8,1.1,3.2,1.1c1.3,0,2.6-0.3,3.8-1c1.2-0.7,2.1-1.6,2.8-2.9
		C188.9,244.1,189.4,242.4,189.8,240.1 M188.4,248.9c-1.4,1.2-2.7,2-3.9,2.6c-1.3,0.5-2.6,0.8-4,0.8c-2.1,0-3.8-0.6-5.1-1.9
		c-1.3-1.2-2-2.8-2-4.8c0-1.3,0.3-2.4,0.9-3.4c0.6-1,1.4-1.8,2.3-2.4c1-0.6,2.2-1,3.6-1.3c0.9-0.2,2.6-0.3,5-0.4
		c2.5-0.1,4.2-0.4,5.3-0.8c0.3-1.1,0.5-2,0.5-2.7c0-0.9-0.3-1.6-1-2.1c-0.9-0.7-2.2-1.1-4-1.1c-1.6,0-3,0.4-4.1,1.1
		c-1.1,0.7-1.8,1.8-2.3,3.1l-4-0.4c0.8-2.3,2.1-4,3.8-5.2c1.8-1.2,4-1.8,6.6-1.8c2.8,0,5.1,0.7,6.8,2c1.3,1,1.9,2.3,1.9,3.9
		c0,1.2-0.2,2.6-0.5,4.3l-1.3,5.7c-0.4,1.8-0.6,3.3-0.6,4.4c0,0.7,0.2,1.8,0.5,3.1h-4C188.6,251,188.5,250.1,188.4,248.9z"/>
</g>
<g>
	<path d="M206.7,248.6l-0.7,3.2c-0.9,0.2-1.8,0.4-2.7,0.4c-1.6,0-2.8-0.4-3.7-1.2c-0.7-0.6-1-1.4-1-2.4c0-0.5,0.2-1.7,0.6-3.5
		l2.8-13.4h-3.1l0.6-3h3.1l1.2-5.6l4.5-2.7l-1.8,8.3h3.9l-0.7,3h-3.8l-2.7,12.7c-0.3,1.6-0.5,2.6-0.5,2.9c0,0.5,0.1,0.8,0.4,1.1
		c0.3,0.2,0.7,0.4,1.3,0.4C205.2,248.9,206,248.8,206.7,248.6"/>
</g>
<g>
	<path d="M225.6,247.6c-2.8,3.1-5.6,4.7-8.5,4.7c-1.8,0-3.2-0.5-4.3-1.5c-1.1-1-1.6-2.3-1.6-3.7c0-1,0.3-2.6,0.8-5l3-13.3h3.9
		l-3.4,14.9c-0.3,1.2-0.4,2.2-0.4,2.9c0,0.8,0.3,1.4,0.8,1.8c0.5,0.4,1.3,0.7,2.4,0.7c1.1,0,2.2-0.3,3.3-0.8c1.1-0.5,2-1.3,2.8-2.2
		c0.8-0.9,1.4-2,1.9-3.2c0.3-0.8,0.7-2.2,1.1-4.2l2.2-10h3.9l-5.1,23h-3.6L225.6,247.6z"/>
</g>
<g>
	<path d="M234.9,243.9l4-0.2c0,1.1,0.2,2.1,0.5,2.9c0.3,0.8,1,1.4,1.9,1.9c0.9,0.5,2,0.8,3.2,0.8c1.7,0,3-0.3,3.9-1
		c0.9-0.7,1.3-1.5,1.3-2.4c0-0.7-0.3-1.3-0.8-1.9c-0.5-0.6-1.8-1.4-3.9-2.2c-2.1-0.9-3.4-1.5-4-1.9c-1-0.6-1.7-1.3-2.2-2.1
		c-0.5-0.8-0.7-1.7-0.7-2.8c0-1.8,0.7-3.4,2.2-4.7c1.4-1.3,3.5-1.9,6.1-1.9c2.9,0,5.1,0.7,6.6,2c1.5,1.3,2.3,3.1,2.3,5.3l-3.8,0.3
		c-0.1-1.4-0.5-2.5-1.5-3.3c-0.9-0.8-2.2-1.2-3.9-1.2c-1.4,0-2.4,0.3-3.2,0.9c-0.7,0.6-1.1,1.3-1.1,2c0,0.7,0.3,1.4,1,1.9
		c0.4,0.4,1.5,1,3.3,1.7c3,1.3,4.9,2.3,5.6,3.1c1.2,1.2,1.9,2.6,1.9,4.4c0,1.1-0.3,2.3-1.1,3.4c-0.7,1.1-1.8,2-3.2,2.6
		c-1.4,0.7-3.1,1-5.1,1c-2.6,0-4.9-0.7-6.8-2C235.7,249,234.9,246.8,234.9,243.9"/>
</g>
<g>
	<polygon points="268.8,251.8 275.5,220 279.4,220 272.7,251.8 	"/>
</g>
<g>
	<path d="M284.5,238.2h13c0-0.4,0-0.7,0-0.9c0-2-0.5-3.5-1.5-4.5c-1-1-2.3-1.6-3.8-1.6c-1.7,0-3.2,0.6-4.6,1.7
		C286.2,234.1,285.1,235.9,284.5,238.2 M295.9,244l3.8,0.4c-0.6,1.9-1.8,3.7-3.8,5.4c-2,1.7-4.3,2.6-7.1,2.6c-1.7,0-3.3-0.4-4.7-1.2
		c-1.4-0.8-2.5-1.9-3.3-3.4c-0.7-1.5-1.1-3.2-1.1-5.1c0-2.5,0.6-4.9,1.7-7.3c1.2-2.4,2.7-4.1,4.5-5.3c1.9-1.1,3.9-1.7,6-1.7
		c2.8,0,5,0.9,6.6,2.6c1.6,1.7,2.5,4,2.5,7c0,1.1-0.1,2.3-0.3,3.5h-17c-0.1,0.5-0.1,0.9-0.1,1.2c0,2.2,0.5,3.8,1.5,4.9
		c1,1.1,2.2,1.7,3.6,1.7c1.3,0,2.7-0.4,4-1.3C294.2,246.9,295.2,245.6,295.9,244z"/>
</g>
<g>
	<path d="M308.4,242.1c0,1.6,0.2,2.9,0.5,3.8c0.3,0.9,0.9,1.7,1.6,2.3c0.8,0.6,1.7,0.9,2.8,0.9c1.8,0,3.4-0.9,4.8-2.8
		c1.9-2.4,2.9-5.5,2.9-9.1c0-1.8-0.5-3.2-1.4-4.3c-1-1-2.2-1.5-3.6-1.5c-0.9,0-1.8,0.2-2.6,0.6c-0.8,0.4-1.5,1.1-2.3,2.1
		c-0.8,1-1.4,2.3-1.9,3.8C308.7,239.6,308.4,241,308.4,242.1 M319.2,248.4c-2.2,2.6-4.6,3.8-7,3.8c-2.2,0-4-0.8-5.4-2.4
		c-1.5-1.6-2.2-3.9-2.2-7c0-2.8,0.6-5.4,1.7-7.7c1.1-2.3,2.6-4,4.3-5.2c1.7-1.2,3.5-1.7,5.2-1.7c2.9,0,5,1.4,6.5,4.1l2.6-12.4h3.9
		l-6.6,31.8h-3.6L319.2,248.4z"/>
</g>
<g>
	<polygon points="360.6,224.2 335.7,249.1 342.3,255.7 367.2,230.7 373.7,237.2 383.4,207.9 354.2,217.7 	"/>
</g>
<g>
	<path d="M1027.7,46H54.3c-9,0-16.3,7.3-16.3,16.3V186c0,9,7.3,16.3,16.3,16.3h973.5c9,0,16.3-7.3,16.3-16.3V62.3
		C1044,53.3,1036.7,46,1027.7,46z M1039.8,186c0,6.6-5.4,12-12,12H54.3c-6.6,0-12-5.4-12-12V62.3c0-6.6,5.4-12,12-12h973.5
		c6.6,0,12,5.4,12,12V186z"/>
	<path d="M1040,12.1H50C27,12.1,8.4,30.7,8.4,53.6v973.5c0,22.9,18.7,41.6,41.6,41.6h609.2v14.1c0,6,2.4,11.4,6.4,15.4
		c3.9,3.9,9.4,6.4,15.4,6.4h66.2v49.8h219.3v-49.8h53.7c6,0,11.4-2.4,15.4-6.4c3.9-3.9,6.4-9.4,6.4-15.4v-14.2
		c22-1,39.7-19.3,39.7-41.5V53.6C1081.6,30.7,1062.9,12.1,1040,12.1z M959.3,1147.4H754.2v-42.1h205.1V1147.4z M1034.8,1082.9
		c0,4-1.7,7.7-4.3,10.4c-2.7,2.7-6.3,4.3-10.4,4.3H681c-4,0-7.7-1.7-10.4-4.3c-2.7-2.7-4.3-6.3-4.3-10.4v-14.1h368.5V1082.9z
		 M1067.4,1027.1c0,15.1-12.3,27.4-27.4,27.4H50c-15.1,0-27.4-12.3-27.4-27.4V53.6c0-15.1,12.3-27.4,27.4-27.4h990
		c15.1,0,27.4,12.3,27.4,27.4V1027.1z"/>
	<polygon points="873.1,917.1 856.5,917.1 856.5,979.8 840.2,979.8 864.8,1029 889.4,979.8 873.1,979.8 	"/>
</g>
<g>
	<path d="M695,782.9c0,0.7,0,1.4-0.1,1.9c-0.1,0.5-0.2,0.9-0.3,1.3c-0.1,0.3-0.3,0.6-0.5,0.7c-0.2,0.2-0.4,0.2-0.6,0.2H681v40.1
		c0,0.2-0.1,0.5-0.2,0.7c-0.2,0.2-0.4,0.4-0.8,0.5c-0.4,0.1-0.9,0.2-1.6,0.3c-0.7,0.1-1.5,0.1-2.4,0.1c-1,0-1.8,0-2.4-0.1
		c-0.7-0.1-1.2-0.2-1.6-0.3c-0.4-0.1-0.7-0.3-0.8-0.5c-0.2-0.2-0.2-0.4-0.2-0.7V787h-12.4c-0.2,0-0.5-0.1-0.7-0.2
		c-0.2-0.1-0.3-0.4-0.5-0.7c-0.1-0.3-0.2-0.7-0.3-1.3c-0.1-0.5-0.1-1.2-0.1-1.9c0-0.8,0-1.4,0.1-2c0.1-0.5,0.2-1,0.3-1.3
		c0.1-0.3,0.3-0.6,0.5-0.7c0.2-0.1,0.4-0.2,0.7-0.2h35c0.2,0,0.4,0.1,0.6,0.2c0.2,0.1,0.4,0.4,0.5,0.7c0.1,0.3,0.2,0.7,0.3,1.3
		C695,781.5,695,782.2,695,782.9 M654,824.7c0.5,0.9,0.8,1.6,0.9,2.2c0.1,0.5,0.1,1-0.2,1.2c-0.3,0.3-0.9,0.5-1.7,0.5
		c-0.8,0.1-1.9,0.1-3.4,0.1c-1.2,0-2.2,0-2.8-0.1c-0.7-0.1-1.2-0.1-1.6-0.2c-0.4-0.1-0.7-0.3-0.9-0.5c-0.2-0.2-0.3-0.5-0.5-0.8
		l-9.4-18l-9.3,18c-0.2,0.3-0.3,0.6-0.5,0.8c-0.2,0.2-0.5,0.4-0.9,0.5c-0.4,0.1-1,0.2-1.7,0.2c-0.7,0.1-1.6,0.1-2.8,0.1
		c-1.3,0-2.4,0-3.1-0.1c-0.7-0.1-1.2-0.2-1.5-0.5c-0.2-0.3-0.3-0.7-0.1-1.2c0.1-0.5,0.5-1.2,1-2.2l11.9-21.7l-11.1-20.4
		c-0.5-0.9-0.8-1.7-0.9-2.2c-0.2-0.6-0.1-1,0.2-1.2c0.3-0.3,0.8-0.4,1.6-0.5c0.8-0.1,1.9-0.1,3.4-0.1c1.2,0,2.2,0,2.9,0.1
		c0.7,0.1,1.3,0.1,1.7,0.2c0.4,0.1,0.7,0.3,0.9,0.5c0.2,0.2,0.3,0.5,0.5,0.8l8.8,16.5l8.5-16.5c0.2-0.3,0.3-0.6,0.5-0.8
		c0.2-0.2,0.4-0.4,0.8-0.5c0.4-0.1,0.9-0.2,1.5-0.2c0.7-0.1,1.6-0.1,2.7-0.1c1.3,0,2.3,0,3,0.1c0.7,0.1,1.2,0.2,1.5,0.5
		c0.3,0.3,0.4,0.7,0.2,1.2c-0.1,0.5-0.4,1.3-0.9,2.2l-11.1,20.3L654,824.7z M609.6,824.6c0,0.7,0,1.4-0.1,1.9
		c-0.1,0.5-0.2,0.9-0.3,1.2c-0.1,0.3-0.3,0.5-0.5,0.7c-0.2,0.1-0.4,0.2-0.6,0.2h-25c-0.8,0-1.5-0.2-2.1-0.7
		c-0.6-0.5-0.9-1.3-0.9-2.4V782c0-1.1,0.3-1.9,0.9-2.4c0.6-0.5,1.3-0.7,2.1-0.7H608c0.2,0,0.4,0.1,0.6,0.2c0.2,0.1,0.3,0.4,0.5,0.7
		c0.1,0.3,0.2,0.7,0.3,1.2c0.1,0.5,0.1,1.1,0.1,1.9c0,0.7,0,1.3-0.1,1.8c-0.1,0.5-0.2,0.9-0.3,1.2c-0.1,0.3-0.3,0.5-0.5,0.7
		c-0.2,0.1-0.4,0.2-0.6,0.2h-17.8v12.1h15c0.2,0,0.4,0.1,0.6,0.2c0.2,0.1,0.4,0.4,0.5,0.7c0.1,0.3,0.2,0.7,0.3,1.2
		c0.1,0.5,0.1,1.1,0.1,1.8c0,0.7,0,1.4-0.1,1.9c-0.1,0.5-0.2,0.9-0.3,1.2c-0.1,0.3-0.3,0.5-0.5,0.6c-0.2,0.1-0.4,0.2-0.6,0.2h-15v14
		h17.9c0.2,0,0.4,0.1,0.6,0.2c0.2,0.1,0.4,0.4,0.5,0.7c0.1,0.3,0.2,0.7,0.3,1.2C609.6,823.2,609.6,823.8,609.6,824.6z M569.3,825
		c0,0.6-0.1,1.1-0.3,1.6c-0.2,0.5-0.5,0.8-0.8,1.2c-0.3,0.3-0.7,0.5-1.2,0.7c-0.5,0.1-1,0.2-1.4,0.2h-4.3c-0.9,0-1.7-0.1-2.3-0.3
		c-0.6-0.2-1.2-0.5-1.8-1c-0.6-0.5-1.1-1.1-1.6-1.9c-0.5-0.8-1.1-1.9-1.7-3.1L541.4,799c-0.7-1.4-1.4-2.9-2.2-4.5
		c-0.7-1.6-1.4-3.2-2-4.7h-0.1c0.1,1.8,0.2,3.7,0.2,5.5c0.1,1.8,0.1,3.7,0.1,5.7v26c0,0.2-0.1,0.5-0.2,0.7c-0.1,0.2-0.4,0.4-0.7,0.5
		c-0.3,0.1-0.8,0.2-1.4,0.3s-1.4,0.1-2.3,0.1c-0.9,0-1.7,0-2.2-0.1c-0.6-0.1-1-0.2-1.4-0.3c-0.3-0.1-0.6-0.3-0.7-0.5
		c-0.1-0.2-0.2-0.4-0.2-0.7v-44.7c0-1.2,0.4-2.1,1.1-2.7c0.7-0.6,1.6-0.9,2.6-0.9h5.4c1,0,1.8,0.1,2.5,0.2c0.7,0.2,1.3,0.4,1.8,0.8
		c0.5,0.4,1,0.9,1.5,1.6c0.5,0.7,0.9,1.5,1.4,2.5l9.7,18.2c0.6,1.1,1.1,2.2,1.7,3.3c0.6,1.1,1.1,2.1,1.6,3.2c0.5,1.1,1,2.1,1.5,3.1
		c0.5,1,1,2.1,1.4,3.1h0c-0.1-1.8-0.1-3.7-0.2-5.6c0-2-0.1-3.8-0.1-5.6v-23.4c0-0.2,0.1-0.5,0.2-0.7c0.1-0.2,0.4-0.4,0.8-0.5
		c0.4-0.2,0.8-0.3,1.4-0.3c0.6-0.1,1.4-0.1,2.3-0.1c0.9,0,1.6,0,2.2,0.1c0.6,0.1,1,0.2,1.4,0.3c0.3,0.2,0.6,0.3,0.7,0.5
		c0.1,0.2,0.2,0.4,0.2,0.7V825z M516.1,825.8c0,0.5,0,0.9-0.1,1.2c-0.1,0.3-0.1,0.6-0.3,0.9c-0.1,0.2-0.3,0.4-0.4,0.5
		c-0.2,0.1-0.4,0.2-0.6,0.2h-23.9c-0.6,0-1.2-0.2-1.7-0.6c-0.5-0.4-0.8-1.1-0.8-2.1v-44.4c0-1,0.3-1.7,0.8-2.1
		c0.5-0.4,1.1-0.6,1.7-0.6h23.6c0.2,0,0.4,0.1,0.6,0.2c0.2,0.1,0.3,0.3,0.4,0.5c0.1,0.2,0.2,0.5,0.2,0.9c0.1,0.3,0.1,0.8,0.1,1.3
		c0,0.5,0,0.9-0.1,1.2c-0.1,0.3-0.1,0.6-0.2,0.9c-0.1,0.2-0.2,0.4-0.4,0.5c-0.2,0.1-0.4,0.2-0.6,0.2H495v15.6h16.7
		c0.2,0,0.4,0,0.6,0.2c0.2,0.1,0.3,0.3,0.4,0.5c0.1,0.2,0.2,0.5,0.2,0.8c0.1,0.4,0.1,0.8,0.1,1.3c0,0.5,0,0.9-0.1,1.2
		c-0.1,0.3-0.1,0.6-0.2,0.8c-0.1,0.2-0.3,0.4-0.4,0.4c-0.2,0.1-0.4,0.1-0.6,0.1H495V823h19.7c0.2,0,0.4,0.1,0.6,0.2
		c0.2,0.1,0.3,0.3,0.4,0.5c0.1,0.2,0.2,0.5,0.3,0.9C516,824.8,516.1,825.3,516.1,825.8z M471.4,814.7c0-1.5-0.2-2.8-0.7-3.9
		c-0.5-1.1-1.2-2.1-2.1-2.8c-0.9-0.8-2-1.4-3.4-1.8c-1.4-0.4-3.1-0.6-5.2-0.6h-7.9v17.6h9.6c1.5,0,2.8-0.2,4-0.5
		c1.1-0.4,2.1-0.9,3-1.6c0.9-0.7,1.5-1.6,2-2.6C471.2,817.3,471.4,816.1,471.4,814.7z M468.4,792c0-1.2-0.2-2.3-0.5-3.3
		c-0.3-1-0.9-1.8-1.6-2.5c-0.7-0.7-1.7-1.2-2.8-1.6c-1.2-0.4-2.7-0.5-4.6-0.5h-6.8v16.1h7.5c1.7,0,3.1-0.2,4.2-0.7
		c1.1-0.5,1.9-1.1,2.6-1.8c0.7-0.8,1.2-1.7,1.5-2.7C468.3,794.1,468.4,793.1,468.4,792z M478.4,814.3c0,1.6-0.2,3-0.6,4.3
		c-0.4,1.3-1,2.5-1.7,3.6c-0.7,1.1-1.6,2-2.6,2.8c-1,0.8-2.2,1.5-3.4,2c-1.3,0.5-2.6,0.9-4.1,1.2c-1.5,0.3-3.1,0.4-5,0.4h-13
		c-0.6,0-1.2-0.2-1.7-0.6c-0.5-0.4-0.8-1.1-0.8-2.1v-44.4c0-1,0.3-1.7,0.8-2.1c0.5-0.4,1.1-0.6,1.7-0.6h11.3c3,0,5.4,0.3,7.3,0.8
		c1.9,0.6,3.5,1.4,4.7,2.5c1.3,1.1,2.2,2.4,2.9,4c0.6,1.6,1,3.3,1,5.3c0,1.2-0.1,2.3-0.4,3.4c-0.3,1.1-0.7,2.1-1.3,3
		c-0.6,0.9-1.2,1.7-2.1,2.4c-0.8,0.7-1.8,1.3-2.9,1.8c1.4,0.3,2.6,0.7,3.8,1.4c1.2,0.7,2.2,1.5,3.1,2.6c0.9,1,1.6,2.3,2.1,3.7
		C478.1,811,478.4,812.6,478.4,814.3z"/>
</g>
</svg>
