<?xml version="1.0" standalone="no"?>
<!DOCTYPE svg PUBLIC "-//W3C//DTD SVG 20010904//EN"
 "http://www.w3.org/TR/2001/REC-SVG-20010904/DTD/svg10.dtd">
<svg version="1.0" xmlns="http://www.w3.org/2000/svg"
 width="300.000000pt" height="300.000000pt" viewBox="0 0 300.000000 300.000000"
 preserveAspectRatio="xMidYMid meet">
<metadata>
Created by potrace 1.10, written by Peter Selinger 2001-2011
</metadata>
<g transform="translate(0.000000,300.000000) scale(0.100000,-0.100000)"
fill="#f9cd76" stroke="none">
<path d="M1280 2932 c-55 -248 -175 -534 -354 -844 -304 -530 -319 -557 -377
-708 -111 -285 -112 -587 -3 -817 90 -190 261 -348 487 -453 45 -20 93 -41
107 -45 22 -7 21 -4 -10 21 -86 71 -172 188 -218 296 -24 57 -27 75 -26 183 0
143 15 207 81 350 97 213 145 326 163 391 11 37 22 69 25 73 10 9 92 -87 135
-159 43 -73 76 -163 88 -242 l8 -53 38 69 c53 92 120 260 151 376 47 176 67
408 45 535 -4 28 -6 52 -4 54 8 9 229 -224 287 -302 126 -168 210 -338 258
-522 20 -78 24 -114 24 -265 0 -151 -4 -187 -23 -260 -52 -194 -137 -346 -267
-476 l-90 -91 65 18 c158 42 272 106 384 215 115 112 184 225 237 387 70 215
53 553 -43 842 -128 385 -444 807 -995 1332 l-160 152 -13 -57z m247 -204
c335 -331 556 -589 698 -819 56 -90 138 -249 161 -309 7 -19 22 -60 34 -90 58
-154 85 -324 85 -540 0 -153 -3 -185 -23 -255 -63 -219 -183 -392 -346 -503
-87 -59 -216 -122 -216 -105 0 3 24 36 53 72 104 130 157 231 201 386 35 121
41 177 40 330 -4 353 -166 684 -489 998 -33 32 -71 66 -84 75 -42 29 -50 2
-44 -156 6 -158 -7 -283 -43 -421 -27 -102 -89 -266 -128 -341 l-24 -45 -7 30
c-29 116 -108 257 -186 330 -48 45 -51 46 -70 29 -10 -9 -19 -24 -19 -31 0
-30 -54 -172 -111 -292 -98 -206 -130 -295 -146 -405 -16 -112 -12 -174 16
-265 19 -63 84 -179 122 -220 80 -86 -148 49 -259 153 -109 103 -185 237 -228
402 -23 90 -25 111 -20 229 7 166 18 230 62 357 46 133 120 282 240 488 160
272 165 282 216 375 72 133 126 248 170 360 21 55 44 111 50 125 6 14 13 31
14 39 1 8 9 35 17 60 8 25 21 70 28 99 7 31 18 52 26 52 8 0 102 -87 210 -192z"/>
</g>
</svg>
