<?xml version="1.0" encoding="utf-8"?>
<!-- Generator: Adobe Illustrator 21.0.0, SVG Export Plug-In . SVG Version: 6.00 Build 0)  -->
<svg version="1.1" id="Layer_1" xmlns="http://www.w3.org/2000/svg" xmlns:xlink="http://www.w3.org/1999/xlink" x="0px" y="0px"
	 viewBox="0 0 1096.5 1096.5" style="enable-background:new 0 0 1096.5 1096.5;" xml:space="preserve">
<style type="text/css">
	.st0{fill-rule:evenodd;clip-rule:evenodd;}
</style>
<g>
	<path d="M1039.9,1085.8H54.6c-24.2,0-43.9-19.7-43.9-43.9V56.6c0-24.2,19.7-43.9,43.9-43.9h985.3c24.2,0,43.9,19.7,43.9,43.9v985.3
		C1083.8,1066.1,1064.1,1085.8,1039.9,1085.8z M54.6,26.8c-16.4,0-29.8,13.4-29.8,29.8v985.3c0,16.4,13.4,29.8,29.8,29.8h985.3
		c16.4,0,29.8-13.4,29.8-29.8V56.6c0-16.4-13.4-29.8-29.8-29.8H54.6z"/>
</g>
<g>
	<path d="M1015.6,1056.2H78.9c-21.3,0-38.6-17.3-38.6-38.6V80.9c0-21.3,17.3-38.6,38.6-38.6h936.7c21.3,0,38.6,17.3,38.6,38.6v936.7
		C1054.2,1038.9,1036.9,1056.2,1015.6,1056.2z M78.9,49.4c-17.4,0-31.5,14.1-31.5,31.5v936.7c0,17.4,14.1,31.5,31.5,31.5h936.7
		c17.4,0,31.5-14.1,31.5-31.5V80.9c0-17.4-14.1-31.5-31.5-31.5H78.9z"/>
</g>
<g>
	<path d="M376.9,370.7c-54.8,0-99.4-44.6-99.4-99.4s44.6-99.4,99.4-99.4s99.4,44.6,99.4,99.4S431.7,370.7,376.9,370.7z M376.9,176.2
		c-52.5,0-95.1,42.7-95.1,95.1c0,52.5,42.7,95.1,95.1,95.1c52.5,0,95.1-42.7,95.1-95.1C472.1,218.9,429.4,176.2,376.9,176.2z"/>
</g>
<g>
	<path d="M714.6,370.7c-54.8,0-99.4-44.6-99.4-99.4s44.6-99.4,99.4-99.4s99.4,44.6,99.4,99.4S769.4,370.7,714.6,370.7z M714.6,176.2
		c-52.5,0-95.1,42.7-95.1,95.1c0,52.5,42.7,95.1,95.1,95.1s95.1-42.7,95.1-95.1C809.7,218.9,767,176.2,714.6,176.2z"/>
</g>
<g>
	<path d="M547.3,968.7c-71.6,0-139-27.9-189.7-78.6c-50.7-50.7-78.6-118-78.6-189.7c0-71.6,27.9-139,78.6-189.7
		c50.7-50.7,118-78.6,189.7-78.6c71.6,0,139,27.9,189.7,78.6c50.7,50.7,78.6,118,78.6,189.7c0,71.6-27.9,139-78.6,189.7
		C686.3,940.8,618.9,968.7,547.3,968.7z M547.3,436.5c-70.5,0-136.8,27.5-186.7,77.3c-49.9,49.9-77.3,116.1-77.3,186.7
		c0,70.5,27.5,136.8,77.3,186.7c49.9,49.9,116.1,77.3,186.7,77.3c70.5,0,136.8-27.5,186.7-77.3c49.9-49.9,77.3-116.1,77.3-186.7
		c0-70.5-27.5-136.8-77.3-186.7C684.1,464,617.8,436.5,547.3,436.5z"/>
</g>
<g>
	<circle class="st0" cx="547.3" cy="98.7" r="9.6"/>
</g>
<g>
	<path d="M547.3,108.6c-5.5,0-9.9-4.4-9.9-9.9s4.4-9.9,9.9-9.9s9.9,4.4,9.9,9.9S552.7,108.6,547.3,108.6z M547.3,89.3
		c-5.1,0-9.3,4.2-9.3,9.3s4.2,9.3,9.3,9.3s9.3-4.2,9.3-9.3S552.4,89.3,547.3,89.3z"/>
</g>
<g>
	<path d="M376.9,351.3c-44.1,0-80-35.9-80-80s35.9-80,80-80s80,35.9,80,80S421,351.3,376.9,351.3z M376.9,198.4
		c-40.2,0-72.9,32.7-72.9,72.9s32.7,72.9,72.9,72.9s72.9-32.7,72.9-72.9S417.1,198.4,376.9,198.4z"/>
</g>
<g>
	<path d="M714.6,351.3c-44.1,0-80-35.9-80-80s35.9-80,80-80c44.1,0,80,35.9,80,80S758.7,351.3,714.6,351.3z M714.6,198.4
		c-40.2,0-72.9,32.7-72.9,72.9s32.7,72.9,72.9,72.9s72.9-32.7,72.9-72.9S754.8,198.4,714.6,198.4z"/>
</g>
<g>
	<path d="M547.3,931.3c-56.5,0-110.9-20.6-153.1-58.1l-2.8-2.5l75.3-75.3h161.3l75.3,75.3l-2.8,2.5
		C658.1,910.6,603.8,931.3,547.3,931.3z M401.7,870.3c40.5,34.8,92.1,53.9,145.6,53.9c53.5,0,105.1-19.1,145.6-53.9L625,802.4H469.5
		L401.7,870.3z M717.4,856.4l-75.3-75.3V619.8l75.3-75.3l2.5,2.8C757.4,589.6,778,644,778,700.5c0,56.5-20.6,110.9-58.1,153.1
		L717.4,856.4z M649.2,778.2l67.9,67.9C751.9,805.5,771,754,771,700.5c0-53.5-19.1-105.1-53.9-145.6l-67.9,67.9V778.2z M377.1,856.4
		l-2.5-2.8c-37.5-42.2-58.1-96.6-58.1-153.1c0-56.5,20.6-110.9,58.1-153.1l2.5-2.8l75.3,75.3v161.3L377.1,856.4z M377.4,554.9
		c-34.8,40.5-53.9,92.1-53.9,145.6c0,53.5,19.1,105.1,53.9,145.6l67.9-67.9V622.7L377.4,554.9z M627.9,605.6H466.6l-75.3-75.3
		l2.8-2.5c42.2-37.5,96.6-58.1,153.1-58.1c56.5,0,110.9,20.6,153.1,58.1l2.8,2.5L627.9,605.6z M469.5,598.5H625l67.9-67.9
		c-40.5-34.8-92.1-53.9-145.6-53.9c-53.5,0-105.1,19.1-145.6,53.9L469.5,598.5z"/>
</g>
<g>
	<path d="M624.9,778.1H469.6V622.8h155.3V778.1z M476.7,771.1h141.2V629.9H476.7V771.1z"/>
</g>
<g>
	<path d="M676.2,273.5h9.1l-2.8-7.4c-0.8-2.3-1.5-4.1-1.9-5.6c-0.4,1.7-0.9,3.5-1.5,5.1L676.2,273.5z M668.5,284.5l10.2-26.7h3.9
		l10.9,26.7h-4l-3.1-8.1h-11.2l-2.9,8.1H668.5z"/>
</g>
<g>
	<path d="M698.7,284.5l-5.9-19.4h3.4l3.1,11.2l1.1,4.2c0-0.2,0.4-1.5,1-4l3.1-11.3h3.4l2.9,11.2l1,3.7l1.1-3.7l3.3-11.2h3.2
		l-6.1,19.4H710l-3.1-11.6l-0.8-3.3l-3.9,14.9H698.7z"/>
</g>
<g>
	<path d="M734.6,274.8c-1.2,0.5-3,0.9-5.4,1.2c-1.4,0.2-2.3,0.4-2.9,0.7c-0.6,0.2-1,0.6-1.3,1.1c-0.3,0.5-0.5,1-0.5,1.6
		c0,0.9,0.3,1.6,1,2.2c0.7,0.6,1.6,0.9,2.9,0.9c1.3,0,2.4-0.3,3.4-0.8c1-0.5,1.7-1.3,2.2-2.3c0.4-0.7,0.5-1.8,0.5-3.3L734.6,274.8z
		 M734.8,282c-1.2,1-2.4,1.8-3.5,2.2c-1.1,0.4-2.3,0.6-3.6,0.6c-2.1,0-3.8-0.5-4.9-1.6c-1.1-1-1.7-2.4-1.7-4c0-0.9,0.2-1.8,0.6-2.6
		c0.4-0.8,1-1.4,1.7-1.9c0.7-0.5,1.5-0.8,2.4-1.1c0.6-0.2,1.6-0.3,2.9-0.5c2.6-0.3,4.6-0.7,5.9-1.1c0-0.4,0-0.7,0-0.9
		c0-1.3-0.3-2.3-0.9-2.8c-0.8-0.7-2.1-1.1-3.7-1.1c-1.5,0-2.7,0.3-3.4,0.8c-0.7,0.5-1.3,1.5-1.6,2.9l-3.2-0.4
		c0.3-1.4,0.8-2.5,1.4-3.3c0.7-0.8,1.6-1.5,2.9-2c1.3-0.5,2.7-0.7,4.4-0.7c1.7,0,3,0.2,4,0.6c1,0.4,1.8,0.9,2.3,1.5
		c0.5,0.6,0.8,1.3,1,2.2c0.1,0.6,0.2,1.6,0.2,3v4.4c0,3,0.1,5,0.2,5.8c0.1,0.8,0.4,1.6,0.8,2.3h-3.4
		C735.2,283.8,734.9,283,734.8,282z"/>
</g>
<g>
	<path d="M742.8,291.9l-0.4-3c0.7,0.2,1.3,0.3,1.9,0.3c0.7,0,1.3-0.1,1.8-0.4c0.4-0.2,0.8-0.6,1.1-1c0.2-0.3,0.5-1.1,1-2.5
		c0.1-0.2,0.2-0.4,0.3-0.8l-7.4-19.4h3.5l4,11.2c0.5,1.4,1,2.9,1.4,4.5c0.4-1.5,0.8-2.9,1.3-4.4l4.1-11.3h3.3l-7.3,19.7
		c-0.8,2.1-1.4,3.6-1.8,4.4c-0.6,1.1-1.3,1.9-2,2.4c-0.8,0.5-1.7,0.8-2.7,0.8C744.3,292.3,743.6,292.2,742.8,291.9"/>
</g>
<g>
	<path d="M694.1,284.8h-4.8l-3.1-8.1h-10.8l-2.9,8.1H668l10.5-27.4h4.4L694.1,284.8z M689.8,284.1h3.3l-10.6-26H679l-10,26h3
		l2.9-8.1h11.7L689.8,284.1z M685.8,273.9h-10.1l3.1-8.3c0.6-1.7,1.1-3.4,1.5-5.1l0.3-1.4l0.4,1.3c0.5,1.5,1.1,3.4,1.9,5.6
		L685.8,273.9z M676.7,273.1h8.1l-2.6-6.9c-0.6-1.6-1.1-3.1-1.5-4.3c-0.3,1.3-0.7,2.6-1.2,3.9L676.7,273.1z"/>
</g>
<g>
	<path d="M713.6,284.8h-3.9l-3.1-11.8l-0.5-1.9l-3.6,13.8h-4l-6.1-20.1h4.2l3.9,14.3c0.2-0.6,0.4-1.5,0.7-2.6l3.1-11.6h3.9l3.6,14
		l4.2-14h3.9L713.6,284.8z M710.3,284.1h2.9l5.9-18.7h-2.4l-4.7,15.9l-4.1-15.9h-2.8l-3,11.1c-0.6,2.2-1,3.8-1,4l-0.3,1.5l-1.5-5.6
		l-3-10.9h-2.7l5.6,18.7h2.9l4.2-16l1.1,4.7L710.3,284.1z"/>
</g>
<g>
	<path d="M727.7,285.2c-2.2,0-3.9-0.6-5.1-1.6c-1.2-1.1-1.8-2.5-1.8-4.2c0-1,0.2-1.9,0.7-2.8c0.5-0.8,1.1-1.5,1.8-2
		c0.7-0.5,1.6-0.9,2.5-1.1c0.7-0.2,1.6-0.3,3-0.5c2.4-0.3,4.3-0.6,5.6-1c0-0.3,0-0.5,0-0.6c0-1.2-0.3-2.1-0.8-2.6
		c-0.8-0.7-1.9-1-3.5-1c-1.5,0-2.5,0.3-3.2,0.7c-0.7,0.5-1.2,1.4-1.5,2.7l-0.1,0.3l-3.9-0.5l0.1-0.4c0.3-1.4,0.8-2.6,1.5-3.5
		c0.7-0.9,1.7-1.6,3.1-2.1c1.3-0.5,2.8-0.7,4.5-0.7c1.7,0,3.1,0.2,4.2,0.6c1.1,0.4,1.9,0.9,2.4,1.6c0.5,0.6,0.9,1.4,1.1,2.4
		c0.1,0.6,0.2,1.6,0.2,3.1v4.4c0,3,0.1,4.9,0.2,5.7c0.1,0.8,0.4,1.5,0.8,2.2l0.3,0.5h-4.2l-0.1-0.2c-0.3-0.6-0.5-1.2-0.6-1.9
		c-1.1,0.8-2.1,1.5-3.1,1.8C730.3,285,729,285.2,727.7,285.2z M729.9,267.1c1.7,0,3.1,0.4,4,1.2c0.7,0.6,1.1,1.7,1.1,3.1
		c0,0.1,0,0.4,0,0.9l0,0.2l-0.2,0.1c-1.3,0.4-3.3,0.8-5.9,1.1c-1.3,0.2-2.3,0.3-2.9,0.5c-0.8,0.2-1.6,0.6-2.3,1
		c-0.7,0.4-1.2,1-1.6,1.8c-0.4,0.7-0.6,1.5-0.6,2.4c0,1.5,0.5,2.7,1.6,3.7c1.1,1,2.6,1.5,4.7,1.5c1.2,0,2.4-0.2,3.5-0.6
		c1.1-0.4,2.2-1.1,3.4-2.1l0.5-0.4l0.1,0.7c0.1,0.8,0.3,1.5,0.5,2.1h2.6c-0.3-0.6-0.5-1.3-0.6-1.9c-0.1-0.8-0.2-2.7-0.2-5.8V272
		c0-1.4-0.1-2.4-0.2-2.9c-0.2-0.8-0.5-1.5-1-2.1c-0.4-0.5-1.2-1-2.1-1.4c-1-0.4-2.3-0.6-3.9-0.6c-1.6,0-3.1,0.2-4.3,0.7
		c-1.2,0.4-2.1,1.1-2.8,1.8c-0.6,0.7-1,1.7-1.3,2.8l2.5,0.4c0.4-1.3,0.9-2.2,1.7-2.8C727.1,267.4,728.3,267.1,729.9,267.1z
		 M728.5,282.7c-1.4,0-2.4-0.3-3.1-1c-0.7-0.6-1.1-1.5-1.1-2.4c0-0.6,0.2-1.2,0.5-1.7c0.3-0.5,0.8-0.9,1.5-1.2
		c0.6-0.3,1.6-0.5,3-0.7c2.3-0.3,4.1-0.7,5.3-1.2l0.5-0.2l0,1.7c0,1.5-0.2,2.6-0.6,3.4c-0.5,1-1.3,1.8-2.3,2.4
		C731,282.4,729.8,282.7,728.5,282.7z M734.2,275.3c-1.2,0.4-2.9,0.8-5,1.1c-1.3,0.2-2.3,0.4-2.8,0.6c-0.5,0.2-0.9,0.5-1.1,0.9
		c-0.3,0.4-0.4,0.9-0.4,1.4c0,0.8,0.3,1.4,0.9,1.9c0.6,0.5,1.5,0.8,2.7,0.8c1.2,0,2.3-0.3,3.2-0.8c0.9-0.5,1.6-1.2,2-2.1
		c0.3-0.7,0.5-1.7,0.5-3.1L734.2,275.3z"/>
</g>
<g>
	<path d="M744.9,292.7c-0.7,0-1.4-0.1-2.2-0.4l-0.2-0.1l-0.5-3.8l0.5,0.1c1.7,0.4,2.7,0.3,3.4,0c0.4-0.2,0.7-0.5,1-0.9
		c0.1-0.2,0.4-0.8,1-2.4c0.1-0.2,0.1-0.4,0.2-0.7l-7.5-19.8h4.3l4.1,11.4c0.4,1,0.7,2.1,1.1,3.3c0.3-1.1,0.6-2.1,1-3.1l4.2-11.5h4
		l-7.5,20.2c-0.8,2.1-1.4,3.6-1.9,4.4c-0.6,1.1-1.3,2-2.1,2.5C747,292.4,746,292.7,744.9,292.7z M743.1,291.6
		c1.8,0.6,3.2,0.3,4.3-0.4c0.7-0.5,1.3-1.2,1.9-2.2c0.4-0.8,1.1-2.3,1.8-4.3l7.1-19.2h-2.5l-4,11.1c-0.5,1.4-1,2.8-1.3,4.3l-0.3,1.3
		l-0.3-1.3c-0.4-1.6-0.9-3.1-1.4-4.4l-4-11h-2.7l7.2,19.1l0,0.1c-0.1,0.3-0.2,0.6-0.3,0.8c-0.5,1.3-0.8,2.2-1,2.5
		c-0.3,0.5-0.7,0.9-1.2,1.1c-0.8,0.4-1.8,0.6-3.4,0.2L743.1,291.6z"/>
</g>
<g>
	<polygon points="329.5,284.5 329.5,257.8 333,257.8 333,268.8 346.8,268.8 346.8,257.8 350.4,257.8 350.4,284.5 346.8,284.5 
		346.8,271.9 333,271.9 333,284.5 	"/>
</g>
<g>
	<path d="M358,274.8c0,2.5,0.5,4.3,1.6,5.6c1.1,1.2,2.5,1.8,4.1,1.8c1.6,0,3-0.6,4.1-1.9c1.1-1.2,1.6-3.1,1.6-5.7
		c0-2.4-0.5-4.2-1.6-5.4c-1.1-1.2-2.4-1.8-4.1-1.8c-1.6,0-3,0.6-4.1,1.8C358.5,270.5,358,272.3,358,274.8 M354.6,274.8
		c0-3.6,1-6.2,3-7.9c1.7-1.4,3.7-2.1,6.1-2.1c2.7,0,4.8,0.9,6.5,2.6c1.7,1.7,2.5,4.1,2.5,7.2c0,2.5-0.4,4.4-1.1,5.9
		c-0.7,1.4-1.8,2.5-3.3,3.3c-1.4,0.8-3,1.2-4.7,1.2c-2.7,0-4.9-0.9-6.6-2.6S354.6,278,354.6,274.8z"/>
</g>
<g>
	<path d="M376.6,284.5v-19.4h2.9v2.7c0.6-0.9,1.4-1.7,2.4-2.3c1-0.6,2.2-0.9,3.4-0.9c1.4,0,2.6,0.3,3.5,0.9c0.9,0.6,1.6,1.4,1.9,2.5
		c1.5-2.3,3.5-3.4,6-3.4c1.9,0,3.4,0.5,4.4,1.6c1,1.1,1.6,2.7,1.6,4.9v13.3h-3.3v-12.2c0-1.3-0.1-2.3-0.3-2.8
		c-0.2-0.6-0.6-1-1.2-1.4c-0.6-0.4-1.2-0.5-2-0.5c-1.4,0-2.5,0.5-3.4,1.4c-0.9,0.9-1.3,2.4-1.3,4.3v11.2h-3.3v-12.6
		c0-1.5-0.3-2.5-0.8-3.3c-0.5-0.7-1.4-1.1-2.6-1.1c-0.9,0-1.8,0.2-2.6,0.7c-0.8,0.5-1.3,1.2-1.7,2.1c-0.3,0.9-0.5,2.3-0.5,4v10
		H376.6z"/>
</g>
<g>
	<path d="M410.1,272.9h10.8c-0.1-1.6-0.6-2.8-1.2-3.7c-1-1.3-2.4-1.9-4.1-1.9c-1.5,0-2.8,0.5-3.8,1.5
		C410.8,269.9,410.3,271.2,410.1,272.9 M420.9,278.2l3.4,0.4c-0.5,2-1.5,3.5-3,4.6c-1.4,1.1-3.3,1.6-5.5,1.6c-2.8,0-5.1-0.9-6.7-2.6
		c-1.7-1.7-2.5-4.2-2.5-7.3c0-3.2,0.8-5.8,2.5-7.6c1.7-1.8,3.8-2.7,6.5-2.7c2.6,0,4.7,0.9,6.3,2.6c1.6,1.8,2.5,4.2,2.5,7.4
		c0,0.2,0,0.5,0,0.9H410c0.1,2.1,0.7,3.7,1.8,4.9c1.1,1.1,2.4,1.7,4,1.7c1.2,0,2.2-0.3,3.1-1C419.7,280.6,420.4,279.6,420.9,278.2z"
		/>
</g>
<g>
	<path d="M350.7,284.8h-4.3v-12.6h-13.1v12.6h-4.3v-27.4h4.3v11h13.1v-11h4.3V284.8z M347.2,284.1h2.8v-26h-2.8v11h-14.5v-11h-2.8
		v26h2.8v-12.6h14.5V284.1z"/>
</g>
<g>
	<path d="M363.7,285.2c-2.8,0-5.1-0.9-6.8-2.7c-1.7-1.8-2.6-4.4-2.6-7.7c0-3.7,1-6.4,3.1-8.2c1.7-1.5,3.8-2.2,6.3-2.2
		c2.7,0,5,0.9,6.8,2.7c1.7,1.8,2.6,4.3,2.6,7.5c0,2.5-0.4,4.6-1.2,6c-0.8,1.5-1.9,2.6-3.4,3.5C367.1,284.8,365.4,285.2,363.7,285.2z
		 M363.7,265c-2.3,0-4.3,0.7-5.9,2.1c-1.9,1.6-2.9,4.2-2.9,7.7c0,3.2,0.8,5.6,2.4,7.2c1.6,1.7,3.7,2.5,6.3,2.5
		c1.6,0,3.1-0.4,4.5-1.1c1.4-0.8,2.4-1.8,3.1-3.2c0.7-1.4,1.1-3.3,1.1-5.7c0-3-0.8-5.3-2.4-7C368.3,265.9,366.2,265,363.7,265z
		 M363.7,282.5c-1.7,0-3.2-0.7-4.4-2c-1.1-1.3-1.7-3.2-1.7-5.8c0-2.5,0.6-4.5,1.7-5.8c1.2-1.3,2.6-2,4.4-2c1.7,0,3.2,0.7,4.3,2
		c1.1,1.3,1.7,3.2,1.7,5.7c0,2.6-0.6,4.6-1.7,5.9C366.9,281.9,365.4,282.5,363.7,282.5z M363.7,267.8c-1.6,0-2.8,0.6-3.8,1.7
		c-1,1.2-1.5,2.9-1.5,5.3c0,2.4,0.5,4.2,1.5,5.3c1,1.2,2.3,1.7,3.8,1.7c1.5,0,2.8-0.6,3.8-1.7c1-1.2,1.5-3,1.5-5.4
		c0-2.3-0.5-4-1.5-5.2C366.5,268.3,365.2,267.8,363.7,267.8z"/>
</g>
<g>
	<path d="M403.2,284.8h-4v-12.5c0-1.6-0.2-2.3-0.3-2.7c-0.2-0.5-0.5-0.9-1-1.2c-0.5-0.3-1.1-0.5-1.8-0.5c-1.3,0-2.3,0.4-3.2,1.3
		c-0.8,0.8-1.2,2.2-1.2,4.1v11.6h-4v-12.9c0-1.4-0.2-2.4-0.7-3.1c-0.5-0.6-1.2-1-2.3-1c-0.8,0-1.6,0.2-2.4,0.7
		c-0.7,0.4-1.2,1.1-1.6,2c-0.3,0.9-0.5,2.2-0.5,3.9v10.4h-4v-20.1h3.7v2c0.5-0.6,1.2-1.1,1.9-1.5c1.1-0.6,2.3-0.9,3.6-0.9
		c1.5,0,2.7,0.3,3.7,0.9c0.8,0.5,1.4,1.2,1.8,2.1c1.6-2,3.5-3,5.9-3c2,0,3.6,0.6,4.7,1.7c1.1,1.1,1.7,2.9,1.7,5.2V284.8z
		 M399.9,284.1h2.6v-12.9c0-2.1-0.5-3.7-1.5-4.7c-1-1-2.4-1.5-4.2-1.5c-2.4,0-4.2,1.1-5.7,3.2l-0.4,0.6l-0.2-0.7
		c-0.3-1-0.9-1.8-1.8-2.3c-0.9-0.6-2-0.8-3.3-0.8c-1.2,0-2.3,0.3-3.3,0.8c-1,0.5-1.7,1.3-2.3,2.2l-0.7,1v-3.6h-2.2v18.7h2.6v-9.7
		c0-1.8,0.2-3.2,0.5-4.2c0.4-1,1-1.8,1.8-2.3c0.8-0.5,1.8-0.8,2.7-0.8c1.3,0,2.3,0.4,2.9,1.2c0.6,0.8,0.9,2,0.9,3.5v12.2h2.6v-10.9
		c0-2.1,0.5-3.6,1.5-4.6c1-1,2.2-1.5,3.7-1.5c0.8,0,1.5,0.2,2.2,0.6c0.6,0.4,1.1,0.9,1.3,1.6c0.2,0.6,0.3,1.6,0.3,3V284.1z"/>
</g>
<g>
	<path d="M415.8,285.2c-2.9,0-5.3-0.9-7-2.7c-1.7-1.8-2.6-4.3-2.6-7.6c0-3.3,0.9-6,2.6-7.8c1.7-1.9,4-2.8,6.8-2.8
		c2.7,0,4.9,0.9,6.6,2.8c1.7,1.8,2.6,4.4,2.6,7.7c0,0.2,0,0.5,0,0.9l0,0.3h-14.4c0.2,1.9,0.7,3.3,1.7,4.3c1,1.1,2.3,1.6,3.8,1.6
		c1.1,0,2.1-0.3,2.9-0.9c0.8-0.6,1.4-1.6,1.9-2.9l0.1-0.3l4.1,0.5l-0.1,0.4c-0.5,2-1.6,3.7-3.1,4.8
		C420,284.7,418.1,285.2,415.8,285.2z M415.6,265c-2.6,0-4.7,0.9-6.3,2.6c-1.6,1.7-2.4,4.2-2.4,7.3c0,3,0.8,5.4,2.4,7.1
		c1.6,1.7,3.8,2.5,6.5,2.5c2.2,0,3.9-0.5,5.3-1.6c1.3-1,2.2-2.3,2.7-4l-2.7-0.4c-0.5,1.3-1.2,2.3-2,2.9c-0.9,0.7-2,1-3.3,1
		c-1.7,0-3.2-0.6-4.3-1.8c-1.1-1.2-1.8-2.9-1.9-5.1l0-0.4H424c0-0.2,0-0.4,0-0.5c0-3.1-0.8-5.5-2.4-7.2
		C420.1,265.9,418.1,265,415.6,265z M421.3,273.3h-11.5l0-0.4c0.1-1.8,0.7-3.2,1.8-4.3c1.1-1.1,2.5-1.6,4-1.6c1.8,0,3.2,0.7,4.3,2
		c0.7,0.9,1.2,2.2,1.3,3.9L421.3,273.3z M410.5,272.6h10c-0.2-1.4-0.5-2.4-1.1-3.1c-1-1.2-2.2-1.8-3.8-1.8c-1.4,0-2.6,0.5-3.5,1.4
		C411.2,270,410.7,271.2,410.5,272.6z"/>
</g>
<g>
	<polygon points="498.6,714.3 498.6,683.2 521.1,683.2 521.1,686.8 502.8,686.8 502.8,696.4 519.9,696.4 519.9,700 502.8,700 
		502.8,710.6 521.8,710.6 521.8,714.3 	"/>
</g>
<g>
	<path d="M527.1,714.3v-22.6h3.4v3.2c1.7-2.5,4-3.7,7.2-3.7c1.4,0,2.6,0.2,3.7,0.7c1.1,0.5,2,1.1,2.6,1.9c0.6,0.8,1,1.7,1.2,2.8
		c0.1,0.7,0.2,2,0.2,3.7v13.9h-3.8v-13.7c0-1.6-0.1-2.7-0.4-3.5c-0.3-0.8-0.8-1.4-1.6-1.8c-0.8-0.5-1.6-0.7-2.7-0.7
		c-1.6,0-3,0.5-4.2,1.6c-1.2,1-1.8,3-1.8,5.9v12.3H527.1z"/>
</g>
<g>
	<path d="M559.6,710.9l0.5,3.4c-1.1,0.2-2,0.3-2.9,0.3c-1.4,0-2.5-0.2-3.2-0.7c-0.8-0.4-1.3-1-1.6-1.7c-0.3-0.7-0.5-2.2-0.5-4.5v-13
		h-2.8v-3h2.8v-5.6l3.8-2.3v7.9h3.8v3h-3.8v13.2c0,1.1,0.1,1.8,0.2,2.1c0.1,0.3,0.3,0.6,0.7,0.7c0.3,0.2,0.7,0.3,1.3,0.3
		C558.3,711,558.9,711,559.6,710.9"/>
</g>
<g>
	<path d="M566.2,700.9h12.6c-0.2-1.9-0.7-3.3-1.4-4.3c-1.2-1.5-2.8-2.2-4.7-2.2c-1.8,0-3.2,0.6-4.4,1.8
		C567,697.3,566.3,698.9,566.2,700.9 M578.7,707l4,0.5c-0.6,2.3-1.8,4.1-3.5,5.4c-1.7,1.3-3.8,1.9-6.4,1.9c-3.3,0-5.9-1-7.8-3
		c-1.9-2-2.9-4.9-2.9-8.5c0-3.8,1-6.7,2.9-8.8c2-2.1,4.5-3.1,7.6-3.1c3,0,5.5,1,7.4,3.1c1.9,2.1,2.9,4.9,2.9,8.7c0,0.2,0,0.6,0,1
		H566c0.1,2.5,0.8,4.4,2.1,5.7c1.3,1.3,2.8,2,4.7,2c1.4,0,2.6-0.4,3.6-1.1C577.4,709.8,578.2,708.6,578.7,707z"/>
</g>
<g>
	<path d="M587.5,714.3v-22.6h3.4v3.5c0.9-1.6,1.7-2.7,2.4-3.2c0.7-0.5,1.6-0.8,2.5-0.8c1.3,0,2.6,0.4,3.9,1.2l-1.4,3.5
		c-0.9-0.5-1.9-0.8-2.8-0.8c-0.8,0-1.6,0.3-2.2,0.8c-0.7,0.5-1.1,1.2-1.4,2.1c-0.4,1.4-0.6,2.8-0.6,4.5v11.8H587.5z"/>
</g>
<g>
	<path d="M522.2,714.7h-23.9v-31.9h23.2v4.4h-18.4v8.9h17.2v4.4h-17.2v9.9h19.1V714.7z M499,713.9h22.5V711h-19.1v-11.3h17.2v-2.9
		h-17.2v-10.3h18.4v-2.9H499V713.9z"/>
</g>
<g>
	<path d="M545.7,714.7h-4.5v-14.1c0-1.5-0.1-2.6-0.4-3.4c-0.3-0.7-0.7-1.3-1.4-1.7c-0.7-0.4-1.5-0.6-2.5-0.6c-1.5,0-2.8,0.5-4,1.5
		c-1.1,1-1.6,2.8-1.6,5.6v12.7h-4.5v-23.3h4.1v2.5c1.7-2,4-3,6.8-3c1.4,0,2.7,0.3,3.9,0.8c1.2,0.5,2.1,1.2,2.7,2
		c0.6,0.8,1,1.8,1.2,3c0.1,0.7,0.2,2,0.2,3.8V714.7z M541.9,713.9h3.1v-13.5c0-1.7-0.1-3-0.2-3.7c-0.2-1-0.6-1.9-1.1-2.7
		c-0.5-0.7-1.3-1.3-2.4-1.8c-1.1-0.5-2.3-0.7-3.6-0.7c-3,0-5.3,1.2-6.9,3.5l-0.6,1v-4h-2.7v21.9h3.1v-12c0-3,0.6-5.1,1.9-6.1
		c1.2-1.1,2.7-1.6,4.4-1.6c1.1,0,2,0.2,2.8,0.7c0.8,0.5,1.4,1.2,1.7,2c0.3,0.8,0.5,2,0.5,3.6V713.9z"/>
</g>
<g>
	<path d="M557.2,715c-1.5,0-2.6-0.2-3.4-0.7c-0.8-0.5-1.4-1.1-1.8-1.9c-0.3-0.8-0.5-2.3-0.5-4.7V695h-2.8v-3.7h2.8v-5.4l4.5-2.7v8.2
		h3.8v3.7h-3.8v12.9c0,1.3,0.1,1.8,0.2,2c0.1,0.2,0.3,0.4,0.5,0.6c0.4,0.3,1.2,0.3,2.7,0.1l0.3-0.1l0.6,4.1l-0.3,0.1
		C559.1,714.8,558.1,715,557.2,715z M549.4,694.3h2.8v13.4c0,2.2,0.1,3.7,0.4,4.4c0.3,0.6,0.8,1.2,1.5,1.6c1.1,0.6,2.9,0.8,5.5,0.3
		l-0.4-2.7c-0.5,0.1-1,0.1-1.4,0.1c-0.6,0-1.1-0.1-1.5-0.3c-0.4-0.2-0.6-0.5-0.8-0.9c-0.1-0.2-0.2-0.7-0.2-2.2v-13.6h3.8v-2.2h-3.8
		v-7.6l-3.1,1.9v5.7h-2.8V694.3z"/>
</g>
<g>
	<path d="M572.8,715.1c-3.4,0-6.1-1.1-8.1-3.2c-2-2.1-3-5-3-8.8c0-3.9,1-6.9,3-9.1c2-2.2,4.6-3.3,7.8-3.3c3.1,0,5.7,1.1,7.6,3.2
		c2,2.1,3,5.1,3,8.9c0,0.2,0,0.6,0,1l0,0.3h-16.8c0.2,2.2,0.8,3.9,2,5.1c1.2,1.2,2.7,1.9,4.4,1.9c1.3,0,2.5-0.3,3.4-1
		c0.9-0.7,1.7-1.8,2.2-3.4l0.1-0.3l4.6,0.6l-0.1,0.4c-0.6,2.4-1.8,4.2-3.6,5.5C577.7,714.5,575.5,715.1,572.8,715.1z M572.6,691.6
		c-3,0-5.5,1-7.3,3c-1.9,2-2.8,4.9-2.8,8.6c0,3.6,0.9,6.3,2.8,8.3c1.8,1.9,4.4,2.9,7.6,2.9c2.5,0,4.6-0.6,6.2-1.8
		c1.5-1.1,2.6-2.7,3.2-4.8l-3.3-0.4c-0.6,1.5-1.4,2.7-2.4,3.4c-1,0.8-2.3,1.2-3.8,1.2c-2,0-3.6-0.7-5-2.1c-1.3-1.4-2-3.3-2.2-5.9
		l0-0.4h16.8c0-0.3,0-0.5,0-0.7c0-3.6-0.9-6.4-2.8-8.4C577.9,692.6,575.5,691.6,572.6,691.6z M579.2,701.2h-13.3l0-0.4
		c0.1-2.1,0.8-3.7,2.1-4.9c1.3-1.2,2.8-1.9,4.7-1.9c2,0,3.7,0.8,5,2.3c0.8,1,1.4,2.5,1.5,4.5L579.2,701.2z M566.6,700.5h11.8
		c-0.2-1.6-0.6-2.9-1.3-3.7c-1.1-1.4-2.6-2.1-4.5-2.1c-1.7,0-3,0.5-4.2,1.7C567.4,697.4,566.8,698.8,566.6,700.5z"/>
</g>
<g>
	<path d="M591.7,714.7h-4.5v-23.3h4.1v2.5c0.7-1,1.3-1.7,1.9-2.2c0.8-0.5,1.7-0.8,2.7-0.8c1.3,0,2.7,0.4,4.1,1.3l0.3,0.2l-1.6,4.2
		l-0.4-0.2c-1.6-0.9-3.3-1-4.6-0.1c-0.6,0.5-1,1.1-1.3,1.9c-0.4,1.3-0.6,2.8-0.6,4.4V714.7z M587.8,713.9h3.1v-11.4
		c0-1.7,0.2-3.2,0.7-4.6c0.3-1,0.8-1.7,1.5-2.3c1.4-1.1,3.3-1.1,5-0.2l1.1-2.9c-2-1.2-4.1-1.4-5.8-0.3c-0.7,0.5-1.5,1.5-2.3,3
		l-0.7,1.2v-4.5h-2.7V713.9z"/>
</g>
<g>
	<path d="M402.6,720.6v6.2h-34.7c0-1.6,0.2-3,0.8-4.5c0.9-2.4,2.3-4.7,4.3-7c2-2.3,4.8-4.9,8.4-7.9c5.7-4.7,9.5-8.4,11.5-11.1
		c2-2.7,3-5.3,3-7.8c0-2.6-0.9-4.7-2.7-6.5c-1.8-1.7-4.2-2.6-7.2-2.6c-3.1,0-5.6,0.9-7.5,2.8c-1.9,1.8-2.8,4.4-2.8,7.7l-6.6-0.7
		c0.5-4.9,2.2-8.7,5.1-11.3c3-2.6,6.9-3.9,11.9-3.9c5,0,9,1.4,12,4.2c2.9,2.8,4.4,6.3,4.4,10.4c0,2.1-0.4,4.2-1.3,6.2
		c-0.9,2-2.3,4.2-4.3,6.4c-2,2.2-5.3,5.3-9.9,9.2c-3.9,3.2-6.4,5.4-7.5,6.6c-1.1,1.2-2,2.3-2.7,3.5H402.6z"/>
</g>
<g>
	<path d="M403,727.1h-35.4l0-0.3c0-1.6,0.2-3.1,0.8-4.6c0.9-2.4,2.4-4.8,4.3-7.1c2-2.3,4.8-5,8.5-8c5.7-4.7,9.5-8.4,11.5-11
		c2-2.7,3-5.2,3-7.6c0-2.5-0.9-4.5-2.6-6.2c-1.8-1.7-4.1-2.5-6.9-2.5c-3,0-5.4,0.9-7.2,2.7c-1.8,1.8-2.7,4.3-2.7,7.4l0,0.4l-7.3-0.7
		l0-0.3c0.5-5,2.2-8.9,5.2-11.5c3-2.6,7.1-4,12.2-4c5.1,0,9.2,1.4,12.2,4.3c3,2.8,4.5,6.4,4.5,10.6c0,2.1-0.4,4.3-1.3,6.3
		c-0.9,2-2.3,4.2-4.3,6.5c-2.1,2.3-5.4,5.4-10,9.3c-3.9,3.3-6.4,5.5-7.4,6.6c-0.9,1-1.7,1.9-2.3,2.9H403V727.1z M368.3,726.4h34V721
		h-26l0.3-0.5c0.7-1.2,1.7-2.4,2.8-3.5c1.1-1.1,3.5-3.3,7.5-6.6c4.5-3.8,7.9-6.9,9.9-9.2c2-2.2,3.4-4.3,4.2-6.3c0.8-2,1.3-4,1.3-6.1
		c0-4-1.4-7.4-4.3-10.1c-2.8-2.7-6.8-4.1-11.7-4.1c-4.9,0-8.8,1.3-11.7,3.8c-2.8,2.5-4.5,6.1-5,10.7l5.9,0.6
		c0.1-3.2,1.1-5.7,2.9-7.6c1.9-1.9,4.5-2.9,7.7-2.9c3,0,5.5,0.9,7.4,2.7c1.9,1.8,2.9,4.1,2.9,6.7c0,2.5-1,5.2-3.1,8
		c-2,2.8-5.8,6.4-11.6,11.2c-3.6,3-6.4,5.6-8.4,7.9c-1.9,2.2-3.3,4.5-4.2,6.9C368.5,723.7,368.3,725.1,368.3,726.4z"/>
</g>
<g>
	<path d="M559,566.1h-6.4v-41c-1.6,1.5-3.6,3-6.1,4.4c-2.5,1.5-4.8,2.6-6.8,3.3v-6.2c3.6-1.7,6.8-3.7,9.4-6.2c2.7-2.4,4.6-4.7,5.7-7
		h4.2V566.1z"/>
</g>
<g>
	<path d="M559.4,566.4h-7.2v-40.6c-1.5,1.3-3.3,2.6-5.6,3.9c-2.5,1.5-4.8,2.6-6.8,3.3l-0.5,0.2v-7l0.2-0.1c3.6-1.7,6.7-3.7,9.4-6.1
		c2.7-2.4,4.6-4.7,5.7-6.9l0.1-0.2h4.7V566.4z M552.9,565.7h5.7v-52h-3.6c-1.1,2.2-3.1,4.6-5.7,6.9c-2.7,2.4-5.8,4.4-9.3,6.1v5.5
		c1.9-0.7,4-1.8,6.3-3.1c2.5-1.5,4.5-2.9,6-4.4l0.6-0.6V565.7z"/>
</g>
<g>
	<path d="M554.8,866.1v-23.7l-16.5,23.7H554.8z M554.8,884.6V872H532v-6l24-34.1h5.3v34.1h7.1v6h-7.1v12.6H554.8z"/>
</g>
<g>
	<path d="M561.7,884.9h-7.2v-12.6h-22.9v-6.4l0.1-0.1l24.2-34.3h5.8v34.1h7.1v6.7h-7.1V884.9z M555.2,884.2h5.8v-12.6h7.1v-5.2H561
		v-34.1h-4.8l-23.9,33.9v5.5h22.9V884.2z M555.2,866.4h-17.5l17.5-25.2V866.4z M539,865.7h15.5v-22.2L539,865.7z"/>
</g>
<g>
	<path d="M692.8,712.5l6.3-0.9c0.7,3.6,2,6.2,3.7,7.8c1.7,1.6,3.9,2.4,6.4,2.4c3,0,5.5-1,7.6-3.1c2-2.1,3.1-4.6,3.1-7.7
		c0-2.9-0.9-5.3-2.9-7.2c-1.9-1.9-4.3-2.8-7.3-2.8c-1.2,0-2.7,0.2-4.5,0.7l0.7-5.5c0.4,0,0.8,0.1,1,0.1c2.7,0,5.1-0.7,7.3-2.1
		c2.2-1.4,3.2-3.6,3.2-6.5c0-2.3-0.8-4.2-2.4-5.8c-1.6-1.5-3.6-2.3-6.1-2.3c-2.5,0-4.5,0.8-6.2,2.3c-1.6,1.6-2.7,3.9-3.2,7l-6.3-1.2
		c0.8-4.3,2.5-7.6,5.3-9.9c2.7-2.3,6.2-3.5,10.2-3.5c2.8,0,5.4,0.6,7.8,1.8c2.4,1.2,4.2,2.8,5.4,4.9c1.3,2.1,1.9,4.3,1.9,6.6
		c0,2.2-0.6,4.2-1.8,6.1c-1.2,1.8-3,3.3-5.3,4.4c3,0.7,5.4,2.2,7.1,4.4c1.7,2.2,2.5,5,2.5,8.3c0,4.5-1.6,8.3-4.9,11.5
		c-3.3,3.1-7.4,4.7-12.5,4.7c-4.5,0-8.3-1.4-11.3-4.1C695,720.3,693.3,716.8,692.8,712.5"/>
</g>
<g>
	<path d="M709.2,727.4c-4.6,0-8.5-1.4-11.5-4.2c-3.1-2.7-4.8-6.4-5.2-10.7l0-0.3l7-1l0.1,0.3c0.7,3.5,1.9,6.1,3.6,7.6
		c1.7,1.5,3.7,2.3,6.2,2.3c2.9,0,5.4-1,7.3-3c2-2,3-4.5,3-7.4c0-2.8-0.9-5.1-2.8-7c-1.8-1.8-4.2-2.7-7-2.7c-1.2,0-2.6,0.2-4.4,0.7
		l-0.5,0.1l0.8-6.4l0.3,0c0.4,0,0.7,0.1,1,0.1c2.7,0,5-0.7,7.1-2.1c2.1-1.3,3.1-3.4,3.1-6.2c0-2.2-0.8-4.1-2.3-5.5
		c-1.5-1.4-3.5-2.2-5.8-2.2c-2.4,0-4.3,0.7-5.9,2.2c-1.6,1.5-2.6,3.8-3.1,6.8l-0.1,0.4l-7-1.3l0.1-0.3c0.8-4.3,2.6-7.7,5.4-10.1
		c2.8-2.4,6.3-3.6,10.5-3.6c2.9,0,5.5,0.6,7.9,1.9c2.4,1.2,4.3,2.9,5.6,5.1c1.3,2.1,1.9,4.4,1.9,6.8c0,2.3-0.6,4.4-1.8,6.3
		c-1.1,1.6-2.6,3-4.6,4.1c2.7,0.8,4.8,2.2,6.4,4.3c1.7,2.3,2.6,5.1,2.6,8.5c0,4.6-1.7,8.5-5,11.7
		C718.6,725.8,714.3,727.4,709.2,727.4z M693.2,712.8c0.5,4,2.1,7.4,5,9.9c2.9,2.6,6.6,4,11,4c4.9,0,9-1.5,12.2-4.6
		c3.2-3.1,4.8-6.8,4.8-11.2c0-3.2-0.8-6-2.4-8.1c-1.6-2.1-4-3.6-6.9-4.3l-1-0.2l0.9-0.4c2.3-1,4-2.5,5.2-4.2
		c1.1-1.8,1.7-3.7,1.7-5.9c0-2.3-0.6-4.4-1.8-6.5c-1.2-2-3-3.6-5.3-4.8c-2.3-1.2-4.9-1.8-7.6-1.8c-4,0-7.4,1.2-10,3.4
		c-2.6,2.2-4.3,5.3-5.1,9.3l5.6,1c0.5-3,1.6-5.3,3.2-6.9c1.7-1.6,3.9-2.4,6.4-2.4c2.6,0,4.7,0.8,6.3,2.4c1.6,1.6,2.5,3.6,2.5,6
		c0,3-1.1,5.3-3.4,6.8c-2.2,1.4-4.8,2.2-7.5,2.2c-0.2,0-0.4,0-0.7,0l-0.6,4.7c1.6-0.4,3-0.6,4.1-0.6c3,0,5.5,1,7.5,2.9
		c2,2,3,4.5,3,7.5c0,3.1-1.1,5.8-3.2,7.9c-2.1,2.1-4.7,3.2-7.8,3.2c-2.6,0-4.8-0.8-6.6-2.5c-1.7-1.6-3-4.1-3.7-7.6L693.2,712.8z"/>
</g>
</svg>
