<?xml version="1.0" encoding="utf-8"?>
<!-- Generator: Adobe Illustrator 21.0.0, SVG Export Plug-In . SVG Version: 6.00 Build 0)  -->
<svg version="1.1" id="Layer_1" xmlns="http://www.w3.org/2000/svg" xmlns:xlink="http://www.w3.org/1999/xlink" x="0px" y="0px"
	 viewBox="0 0 602.1 1172" style="enable-background:new 0 0 602.1 1172;" xml:space="preserve">
<style type="text/css">
	.st0{fill:#1A1A18;}
	.st1{fill-rule:evenodd;clip-rule:evenodd;}
</style>
<g>
	<path class="st0" d="M228.5,425.5c-1.4,1.4-3.7,1.4-5.1,0c-1.4-1.4-1.4-3.7,0-5.1l67.9-67.9c1.4-1.4,3.7-1.4,5.1,0l61.8,61.8
		c0.7,0.7,1,1.6,1,2.5l0,57c0,2-1.6,3.6-3.6,3.6h-106c-2,0-3.6-1.6-3.6-3.6v-56c0-2,1.6-3.6,3.6-3.6c2,0,3.6,1.6,3.6,3.6v52.5h98.9
		v-52l-58.3-58.3L228.5,425.5z"/>
</g>
<g>
	<rect x="246.3" y="367.4" class="st0" width="7.2" height="14.5"/>
</g>
<g>
	<path class="st1" d="M249.8,352c2.2,0,3.9,1.8,3.9,3.9c0,2.2-1.8,3.9-3.9,3.9c-2.2,0-3.9-1.8-3.9-3.9
		C245.9,353.8,247.7,352,249.8,352"/>
</g>
<g>
	<path class="st0" d="M268.9,404.3c-0.7-0.7-1.6-1.1-2.5-1.1c-1,0-1.9,0.4-2.5,1.1c-0.7,0.7-1.1,1.6-1.1,2.5c0,1,0.4,1.9,1.1,2.5
		c0.7,0.7,1.6,1.1,2.5,1.1c1,0,1.9-0.4,2.5-1.1c0.7-0.7,1.1-1.6,1.1-2.5C270,405.8,269.6,404.9,268.9,404.3 M317.5,409
		c-0.7-0.7-1.6-1.1-2.5-1.1c-1,0-1.9,0.4-2.5,1.1c-0.7,0.7-1.1,1.6-1.1,2.5c0,1,0.4,1.9,1.1,2.5c0.7,0.7,1.6,1.1,2.5,1.1
		c1,0,1.9-0.4,2.5-1.1c0.7-0.7,1.1-1.6,1.1-2.5C318.6,410.6,318.2,409.7,317.5,409z M344.2,443.8c-0.7-0.7-1.6-1.1-2.5-1.1
		c-1,0-1.9,0.4-2.5,1.1c-0.7,0.7-1.1,1.6-1.1,2.5c0,1,0.4,1.9,1.1,2.5c0.7,0.7,1.6,1.1,2.5,1.1c1,0,1.9-0.4,2.5-1.1
		c0.7-0.7,1.1-1.6,1.1-2.5C345.2,445.3,344.8,444.4,344.2,443.8z M269.8,457.9c-0.7-0.7-1.6-1.1-2.5-1.1c-1,0-1.9,0.4-2.5,1.1
		c-0.7,0.7-1.1,1.6-1.1,2.5c0,1,0.4,1.9,1.1,2.5c0.7,0.7,1.6,1.1,2.5,1.1c1,0,1.9-0.4,2.5-1.1c0.7-0.7,1.1-1.6,1.1-2.5
		C270.9,459.4,270.5,458.5,269.8,457.9z M317.6,417c-0.8,0.4-1.7,0.6-2.7,0.6c-1,0-2-0.3-2.8-0.7l-8.3,8.3l32.9,17.7
		c0.2-0.2,0.3-0.5,0.5-0.7L317.6,417z M335.6,446.8c0-0.1,0-0.3,0-0.4c0-0.4,0-0.9,0.1-1.3L302,427l-29.9,29.9
		c0.4,0.5,0.7,1.1,0.9,1.8L335.6,446.8z M266.4,400.8c1.7,0,3.2,0.7,4.2,1.8c1.1,1.1,1.8,2.6,1.8,4.2c0,0.5-0.1,1-0.2,1.4l29.4,15.8
		l8.7-8.7c-0.8-1-1.3-2.3-1.3-3.7c0-1.7,0.7-3.2,1.8-4.2c1.1-1.1,2.6-1.8,4.2-1.8c1.7,0,3.2,0.7,4.2,1.8c1.1,1.1,1.8,2.6,1.8,4.2
		c0,1.5-0.5,2.9-1.4,3.9l19.7,25.3c0.7-0.3,1.5-0.5,2.4-0.5c1.7,0,3.2,0.7,4.2,1.8c1.1,1.1,1.8,2.6,1.8,4.2c0,1.7-0.7,3.2-1.8,4.2
		c-1.1,1.1-2.6,1.8-4.2,1.8c-1.7,0-3.2-0.7-4.2-1.8c-0.4-0.4-0.8-0.9-1.1-1.5l-63.1,12c-0.1,1.4-0.8,2.7-1.7,3.6
		c-1.1,1.1-2.6,1.8-4.2,1.8c-1.7,0-3.2-0.7-4.2-1.8c-1.1-1.1-1.8-2.6-1.8-4.2c0-1.7,0.7-3.2,1.8-4.2c1.1-1.1,2.6-1.8,4.2-1.8
		c1.1,0,2.2,0.3,3.1,0.8l29.5-29.5l-28.7-15.4c-0.2,0.2-0.4,0.5-0.6,0.7c-1.1,1.1-2.6,1.8-4.2,1.8c-1.7,0-3.2-0.7-4.2-1.8
		c-1.1-1.1-1.8-2.6-1.8-4.2c0-1.7,0.7-3.2,1.8-4.2C263.2,401.5,264.7,400.8,266.4,400.8z"/>
</g>
<g>
	<path class="st0" d="M454.2,145.8h-55.5c-4.3,0-7.8-3.5-7.8-7.8v-15.3c0-4.3,3.5-7.8,7.8-7.8h55.5c4.3,0,7.8,3.5,7.8,7.8V138
		C462,142.3,458.5,145.8,454.2,145.8z M398.7,119.1c-2,0-3.5,1.6-3.5,3.5V138c0,2,1.6,3.5,3.5,3.5h55.5c2,0,3.5-1.6,3.5-3.5v-15.3
		c0-2-1.6-3.5-3.5-3.5H398.7z"/>
</g>
<g>
	<path class="st0" d="M454.2,185.3h-55.5c-4.3,0-7.8-3.5-7.8-7.8v-15.3c0-4.3,3.5-7.8,7.8-7.8h55.5c4.3,0,7.8,3.5,7.8,7.8v15.3
		C462,181.8,458.5,185.3,454.2,185.3z M398.7,158.6c-2,0-3.5,1.6-3.5,3.5v15.3c0,2,1.6,3.5,3.5,3.5h55.5c2,0,3.5-1.6,3.5-3.5v-15.3
		c0-2-1.6-3.5-3.5-3.5H398.7z"/>
</g>
<g>
	<path class="st0" d="M454.2,224.8h-55.5c-4.3,0-7.8-3.5-7.8-7.8v-15.3c0-4.3,3.5-7.8,7.8-7.8h55.5c4.3,0,7.8,3.5,7.8,7.8V217
		C462,221.3,458.5,224.8,454.2,224.8z M398.7,198.2c-2,0-3.5,1.6-3.5,3.5V217c0,2,1.6,3.5,3.5,3.5h55.5c2,0,3.5-1.6,3.5-3.5v-15.3
		c0-2-1.6-3.5-3.5-3.5H398.7z"/>
</g>
<g>
	<path class="st0" d="M469.2,654.9c-44.9-44.9-104.7-69.7-168.2-69.7c-63.5,0-123.3,24.7-168.2,69.7c-12.3,12.3-23.3,26-32.6,40.6
		v-0.2l-5.1,8.7c-0.2,0.4-0.4,0.7-0.6,1.1l-2.2,3.9c-0.1,0.3-0.3,0.5-0.4,0.8c-0.1,0.3-0.3,0.5-0.4,0.8l-3.1,6
		c-0.3,0.5-0.5,1-0.8,1.6l-0.6,1.2l-3.5,7.6c-0.2,0.4-0.4,0.8-0.5,1.2l-1.4,3.2l-1.8,4.4c-0.1,0.4-0.3,0.7-0.4,1.1l-0.3,0.9
		c-0.2,0.6-0.4,1.1-0.6,1.7l-0.4,1.1c-0.2,0.6-0.5,1.2-0.7,1.8l-1.3,3.6c-0.2,0.6-0.4,1.2-0.6,1.8l-1.3,4.1
		c-0.1,0.4-0.2,0.7-0.3,1.1l-0.4,1.4c-0.2,0.6-0.4,1.3-0.6,1.9l-1.1,3.8c-0.2,0.7-0.4,1.3-0.5,2l-0.2,0.8
		c-3.4,12.9-5.7,26.2-6.9,39.5l0,0.4c-0.6,6.8-0.9,13.7-0.9,20.6c0,7.7,0.4,15.5,1.1,23l0,0l0.3,3c0.1,0.6,0.1,1.1,0.2,1.6l0.6,4.6
		c0.1,0.7,0.2,1.4,0.3,2l1,6.5c4.1,24,11.9,47.1,23.2,68.7l1.6,3c0.3,0.6,0.6,1.1,0.9,1.7l2.1,3.8c0.2,0.4,0.5,0.8,0.7,1.3l5.1,8.5
		v-0.2c9.3,14.7,20.3,28.3,32.6,40.6c44.9,44.9,104.7,69.7,168.2,69.7c63.5,0,123.3-24.7,168.2-69.7
		c44.9-44.9,69.7-104.7,69.7-168.2S514.2,699.8,469.2,654.9z M533,850.7c-1.9,15.8-5.3,31.4-10.3,46.3
		c-4.4,13.2-10.1,26.2-16.8,38.5v-84.8H533z M96.1,850.7v84.7c-14.5-26.4-23.6-54.9-27.1-84.7H96.1z M68.6,798.7
		c3.2-31.1,12.5-60.7,27.5-88v88H68.6z M505.9,798.7v-88c7,12.8,12.8,26.2,17.3,40c5.1,15.5,8.5,31.7,10.2,48H505.9z M301.1,1056.8
		c-62.4,0-121.1-24.3-165.2-68.4c-13.7-13.7-25.6-29-35.5-45.6v-96.2H68.5c-0.8-7.7-1.2-15.6-1.2-23.5c0-6.7,0.3-13.5,0.9-20.2h32
		v-99.5c9.9-16.6,21.9-31.9,35.5-45.6c44.1-44.1,102.8-68.4,165.2-68.4c62.4,0,121.1,24.3,165.3,68.4c13.6,13.6,25.5,28.9,35.4,45.5
		v99.6l32.1,0c0.6,6.7,0.9,13.5,0.9,20.2c0,7.8-0.4,15.7-1.2,23.5h-31.8v96.3c-9.9,16.5-21.8,31.8-35.4,45.5
		C422.2,1032.4,363.5,1056.8,301.1,1056.8z"/>
	<circle class="st0" cx="181.1" cy="823.1" r="33.8"/>
	<path class="st0" d="M421,789.2c-18.7,0-33.8,15.1-33.8,33.8c0,18.7,15.1,33.8,33.8,33.8c18.7,0,33.8-15.1,33.8-33.8
		C454.8,804.4,439.7,789.2,421,789.2z"/>
	<path class="st0" d="M481.3,642.8c-48.1-48.1-112.1-74.7-180.2-74.7c-68.1,0-132.1,26.5-180.2,74.7C72.7,691,46.2,755,46.2,823.1
		c0,68.1,26.5,132.1,74.7,180.2c48.1,48.1,112.1,74.7,180.2,74.7c68.1,0,132.1-26.5,180.2-74.7s74.7-112.1,74.7-180.2
		C555.9,755,529.4,691,481.3,642.8z M478.3,1000.3c-47.3,47.3-110.3,73.4-177.2,73.4c-66.9,0-129.9-26.1-177.2-73.4
		C76.5,952.9,50.4,890,50.4,823.1c0-66.9,26.1-129.9,73.4-177.2c47.3-47.3,110.3-73.4,177.2-73.4c66.9,0,129.9,26.1,177.2,73.4
		c47.3,47.3,73.4,110.3,73.4,177.2C551.7,890,525.6,952.9,478.3,1000.3z"/>
</g>
<path class="st0" d="M558.5,530.1V43.8c0-26.3-45.1-31.8-83-31.8h-349c-37.9,0-83,5.5-83,31.8v486.4c-19.6,0.6-35.5,16.8-35.5,36.5
	v512.7c0,20.2,16.4,36.6,36.6,36.6h7.9v12.3c0,14.5,14.4,31.7,82.9,31.7h349c68.5,0,82.9-17.2,82.9-31.7v-13.7
	c15.4-4.3,26.6-18.5,26.6-35.2V566.7C594,546.9,578.2,530.7,558.5,530.1z M478.4,23.4c41.9,0.3,68.8,8.3,68.8,20.4v486.3h-68.8V23.4
	z M129.4,23.3h343.3v506.8H129.4V23.3z M54.9,43.8c0-12.1,26.9-20.1,68.8-20.4v506.8H54.9V43.8z M63.7,1128.3V1116h60v32.6
	c-14.1-0.5-26.9-2.1-36.8-4.4C71.5,1140.5,63.7,1135.2,63.7,1128.3z M129.4,1148.7V1116h343.3v32.8H135.5
	C133.4,1148.8,131.4,1148.8,129.4,1148.7z M533,1144.2c-12.6,3-29.9,4.6-48.6,4.6h-6.1V1116h77.8v12.3
	C556.2,1135.2,548.4,1140.5,533,1144.2z M582.7,1079.4c0,13.9-11.3,25.2-25.2,25.2H44.7c-13.9,0-25.2-11.3-25.2-25.2V566.7
	c0-13.9,11.3-25.2,25.2-25.2h512.7c13.9,0,25.2,11.3,25.2,25.2V1079.4z"/>
<circle class="st0" cx="426.5" cy="209.4" r="5.9"/>
</svg>
