sensor_molite.svg<?xml version="1.0" encoding="utf-8"?>
<!-- Generator: Adobe Illustrator 21.0.0, SVG Export Plug-In . SVG Version: 6.00 Build 0)  -->
<svg version="1.1" id="Layer_1" xmlns="http://www.w3.org/2000/svg" xmlns:xlink="http://www.w3.org/1999/xlink" x="0px" y="0px"
	 viewBox="0 0 1085.2 1085.2" style="enable-background:new 0 0 1085.2 1085.2;" xml:space="preserve">
<g>
	<path d="M1034.2,7H48.9C24.7,7,5,26.7,5,50.9v985.3c0,24.2,19.7,43.9,43.9,43.9h985.3c24.2,0,43.9-19.7,43.9-43.9V50.9
		C1078.2,26.7,1058.5,7,1034.2,7z M1064,1036.2c0,16.4-13.4,29.8-29.8,29.8H48.9c-16.4,0-29.8-13.4-29.8-29.8V50.9
		c0-16.4,13.4-29.8,29.8-29.8h985.3c16.4,0,29.8,13.4,29.8,29.8V1036.2z"/>
	<path d="M1009.9,36.7H73.2C52,36.7,34.7,54,34.7,75.2v936.7c0,14.6,8.1,27.3,20.1,33.8l4,3.6c0.4-0.4,0.7-0.8,1.1-1.2
		c4.2,1.6,8.7,2.4,13.4,2.4h936.7c4.7,0,9.2-0.9,13.4-2.4c0.4,0.4,0.7,0.8,1.1,1.2l4-3.6c12-6.6,20.1-19.3,20.1-33.8V75.2
		C1048.5,54,1031.2,36.7,1009.9,36.7z M1009.9,43.7c3.7,0,7.3,0.7,10.7,1.9C902,146.4,727.8,204.1,541.6,204.1
		c-186.3,0-360.5-57.7-479-158.4c3.3-1.2,6.9-1.9,10.7-1.9H1009.9z M1009.9,1043.4H73.2c-2.8,0-5.6-0.4-8.2-1.1
		C183.5,914,356.6,840.6,541.6,840.6s358,73.4,476.5,201.8C1015.5,1043.1,1012.8,1043.4,1009.9,1043.4z M1041.4,1011.9
		c0,11.9-6.6,22.2-16.3,27.6c-119.9-131-295.7-206-483.5-206s-363.7,75-483.5,206c-9.7-5.4-16.3-15.7-16.3-27.6V75.2
		c0-10.9,5.5-20.5,14-26.2c119.9,103,296.8,162.1,485.9,162.1c189.1,0,366-59,485.9-162.1c8.4,5.7,14,15.3,14,26.2V1011.9z"/>
	<path d="M541.6,984.3c-5.5,0-9.9,4.4-9.9,9.9c0,5.5,4.4,9.9,9.9,9.9s9.9-4.4,9.9-9.9C551.5,988.7,547,984.3,541.6,984.3z"/>
	<path d="M541.5,299.2c-0.2,0-0.4,0-0.6,0c-105.5,0-218.1-5.3-354.2-16.8l-4.6-0.4v433.3l3.8,0.4C322.1,729.6,435,736,541.5,736
		c0.2,0,0.3,0,0.5,0c106.4,0,219.3-6.5,355.2-20.4l3.8-0.4V282l-4.6,0.4C759.8,293.9,647.1,299.2,541.5,299.2z M892.5,499.1
		c-21.8,2-43.6,3.9-65.4,5.5V296.4c21.2-1.5,43-3.2,65.4-5.1V499.1z M681.1,512.8c-22.2,0.8-44.4,1.4-66.6,1.9V306.9
		c21.7-0.5,43.9-1.2,66.6-2.1V512.8z M685.4,304.6c21.7-0.9,43.8-2,66.6-3.3v208.3c-22.2,1.2-44.4,2.3-66.6,3.1V304.6z M610.3,514.8
		c-22.2,0.4-44.4,0.6-66.6,0.6V307.7c21.8,0,44-0.3,66.6-0.7V514.8z M539.4,515.4c-22.2,0-44.4-0.2-66.6-0.6V307
		c22.6,0.5,44.8,0.7,66.6,0.7V515.4z M468.5,514.7c-22.2-0.4-44.4-1-66.6-1.9V304.8c22.7,0.9,44.9,1.6,66.6,2.1V514.7z M397.7,512.7
		c-22.2-0.8-44.4-1.9-66.6-3.1V301.3c22.8,1.3,45,2.4,66.6,3.3V512.7z M326.8,509.3c-22.2-1.3-44.4-2.7-66.6-4.4V296.7
		c22.8,1.6,45,3.1,66.6,4.4V509.3z M326.8,513.6v205.8c-21.6-1.5-43.8-3.3-66.6-5.3v-205C282.4,510.9,304.6,512.3,326.8,513.6z
		 M331,513.8c22.2,1.2,44.4,2.3,66.6,3.1v206.8c-21.7-1.1-43.8-2.4-66.6-4V513.8z M401.9,517.1c22.2,0.8,44.4,1.4,66.6,1.9v207.5
		c-21.8-0.6-43.9-1.4-66.6-2.6V517.1z M472.8,519.1c22.2,0.4,44.4,0.6,66.6,0.6v207.8c-21.9,0-44-0.3-66.6-0.9V519.1z M543.6,519.7
		c22.2,0,44.4-0.2,66.6-0.6v207.6c-22.6,0.6-44.7,0.9-66.6,0.9V519.7z M614.5,519c22.2-0.4,44.4-1.1,66.6-1.9V724
		c-22.7,1.1-44.9,2-66.6,2.5V519z M685.4,516.9c22.2-0.8,44.4-1.9,66.6-3.1v206c-22.8,1.6-44.9,2.9-66.6,4V516.9z M756.2,513.6
		c22.2-1.3,44.4-2.7,66.6-4.4v205c-22.8,2-45,3.8-66.6,5.3V513.6z M756.2,509.3V301c21.6-1.3,43.8-2.7,66.6-4.3v208.3
		C800.7,506.6,778.5,508,756.2,509.3z M255.9,296.4v208.3c-21.8-1.7-43.6-3.5-65.3-5.6V291.3C213,293.1,234.7,294.8,255.9,296.4z
		 M190.6,503.3c21.7,2,43.5,3.9,65.3,5.5v204.9c-21.2-1.9-42.9-3.9-65.3-6.2V503.3z M827.1,713.8V508.9c21.8-1.7,43.6-3.5,65.4-5.5
		v204.3C870.1,709.9,848.3,712,827.1,713.8z"/>
</g>
</svg>
