<?xml version="1.0" standalone="no"?>
<!DOCTYPE svg PUBLIC "-//W3C//DTD SVG 20010904//EN"
 "http://www.w3.org/TR/2001/REC-SVG-20010904/DTD/svg10.dtd">
<svg version="1.0" xmlns="http://www.w3.org/2000/svg"
 width="500.000000pt" height="350.000000pt" viewBox="0 0 500.000000 350.000000"
 preserveAspectRatio="xMidYMid meet">
<metadata>
Created by potrace 1.13, written by Peter Selinger 2001-2015
</metadata>
<g transform="translate(0.000000,350.000000) scale(0.100000,-0.100000)"
fill="#000000" stroke="none">
<path d="M1441 3233 c-53 -45 -42 -135 21 -166 32 -16 43 -17 73 -7 46 15 65
44 65 98 0 60 -33 92 -93 92 -28 0 -53 -7 -66 -17z"/>
<path d="M1867 2604 c-1108 -1098 -1007 -994 -1007 -1041 0 -59 33 -95 87 -97
41 -1 42 1 439 391 220 215 530 523 689 683 160 160 334 332 387 381 l97 90
458 -453 c252 -249 560 -554 686 -677 l227 -225 0 -623 0 -623 -1165 0 -1165
0 0 661 0 661 -29 29 c-38 37 -88 39 -128 5 l-28 -24 -3 -719 c-2 -510 1 -726
9 -745 25 -61 -46 -58 1351 -58 998 0 1278 3 1298 13 14 7 33 28 42 47 17 32
18 88 18 715 0 421 -4 694 -10 716 -8 29 -134 158 -648 665 -921 910 -872 864
-921 864 -41 0 -43 -2 -684 -636z"/>
<path d="M1460 2978 c-45 -24 -50 -48 -50 -270 l0 -206 26 -31 c21 -26 33 -31
69 -31 36 0 48 5 70 31 l26 32 -3 218 c-3 205 -4 220 -24 239 -26 26 -81 35
-114 18z"/>
<path d="M1841 2057 c-40 -20 -66 -64 -66 -112 0 -56 29 -95 83 -115 39 -13
45 -13 94 8 l52 22 66 -34 c36 -18 124 -64 195 -102 72 -38 199 -105 283 -149
83 -44 152 -85 152 -90 0 -6 -161 -171 -357 -367 -282 -282 -361 -355 -373
-348 -24 15 -103 12 -128 -6 -52 -36 -67 -115 -32 -172 44 -73 174 -70 209 5
7 15 17 35 21 43 5 10 67 26 201 52 107 20 255 48 329 63 74 14 207 39 295 54
224 40 481 88 607 112 l107 22 35 -31 c63 -55 135 -54 186 4 22 26 30 44 30
74 0 84 -44 125 -133 125 l-58 0 -88 115 c-48 63 -154 202 -235 309 l-149 194
17 27 c52 89 -31 204 -133 185 -53 -10 -101 -65 -101 -116 0 -22 5 -50 11 -61
10 -19 -1 -33 -104 -135 l-114 -115 -144 75 c-79 42 -241 127 -359 190 l-215
115 -5 48 c-7 64 -24 93 -65 110 -42 17 -82 18 -114 1z m127 -52 c73 -85 -48
-202 -132 -127 -29 27 -38 61 -25 99 21 65 110 81 157 28z m1175 -126 c37 -40
36 -82 -2 -120 -42 -42 -99 -41 -135 2 -32 37 -33 77 -5 113 42 54 95 56 142
5z m-43 -181 l45 1 102 -137 c57 -75 162 -215 234 -310 73 -95 129 -175 126
-179 -4 -3 -49 15 -99 42 -151 78 -713 377 -717 382 -3 2 42 51 100 109 97 97
106 104 134 98 17 -4 50 -6 75 -6z m-157 -332 c543 -283 632 -333 635 -358 3
-24 -1 -25 -135 -51 -76 -15 -181 -34 -233 -43 -52 -8 -111 -19 -130 -24 -33
-9 -271 -53 -645 -120 -88 -16 -206 -38 -262 -49 -123 -25 -139 -26 -147 -4
-5 13 81 105 356 380 200 200 367 363 371 363 5 0 90 -43 190 -94z m807 -291
c77 -40 61 -149 -24 -171 -52 -13 -117 39 -116 93 1 43 49 92 93 93 10 0 31
-7 47 -15z m-1789 -335 c10 -6 26 -24 35 -41 47 -92 -72 -174 -147 -100 -20
20 -29 39 -29 61 0 65 82 111 141 80z"/>
</g>
</svg>
