<?xml version="1.0" standalone="no"?>
<!DOCTYPE svg PUBLIC "-//W3C//DTD SVG 20010904//EN"
 "http://www.w3.org/TR/2001/REC-SVG-20010904/DTD/svg10.dtd">
<svg version="1.0" xmlns="http://www.w3.org/2000/svg"
 width="370.000000pt" height="370.000000pt" viewBox="0 0 370.000000 370.000000"
 preserveAspectRatio="xMidYMid meet">
<metadata>
Created by potrace 1.13, written by Peter Selinger 2001-2015
</metadata>
<g transform="translate(0.000000,370.000000) scale(0.100000,-0.100000)"
fill="#000000" stroke="none">
<path d="M1495 3633 c-100 -13 -271 -90 -356 -160 -111 -93 -200 -215 -254
-348 -58 -146 -68 -199 -69 -355 0 -135 3 -153 33 -255 l32 -109 -5 -261 c-3
-143 -8 -460 -12 -705 -3 -245 -7 -456 -9 -470 -7 -58 18 -230 46 -315 83
-258 278 -458 509 -521 60 -16 231 -50 324 -65 74 -12 181 1 301 36 292 85
517 315 596 611 26 98 35 327 38 1004 1 498 5 586 27 611 19 21 59 122 73 184
l12 50 38 -3 c31 -3 42 0 55 19 22 32 20 52 -9 79 -28 26 -27 26 -40 -14 -21
-63 -30 -35 -32 97 -3 188 -38 307 -134 449 -54 79 -126 147 -199 188 -34 19
-91 57 -128 83 -121 87 -240 133 -377 147 -283 29 -376 34 -460 23z m173 -248
c235 -55 393 -256 409 -520 17 -277 -136 -540 -364 -625 -288 -108 -587 49
-679 355 -24 81 -25 279 -2 350 61 188 162 322 293 387 128 64 229 80 343 53z
m40 -2056 c69 -34 119 -88 154 -165 47 -101 21 -274 -53 -358 -15 -18 -59 -48
-96 -67 -58 -28 -78 -33 -138 -33 -120 1 -203 54 -254 164 -22 47 -26 69 -26
150 0 81 4 103 26 150 36 78 80 124 151 160 84 42 152 41 236 -1z"/>
</g>
</svg>
