<?xml version="1.0" encoding="utf-8"?>
<!-- Generator: Adobe Illustrator 21.0.0, SVG Export Plug-In . SVG Version: 6.00 Build 0)  -->
<svg version="1.1" id="Layer_1" xmlns="http://www.w3.org/2000/svg" xmlns:xlink="http://www.w3.org/1999/xlink" x="0px" y="0px"
	 viewBox="0 0 270.9 845.4" style="enable-background:new 0 0 270.9 845.4;" xml:space="preserve">
<g>
	<path d="M228.5,3.5H42.4C21.1,3.5,3.9,20.8,3.9,42v763.7L40,841.9h190.8l36.2-36.2V42C267,20.8,249.7,3.5,228.5,3.5z M225.6,371.2
		c-0.7-1.3-1.6-2.6-2.8-3.7l-69.7-69.7c-8.1-8.1-21.2-8.1-29.3,0l-69.7,69.7c-1.2,1.2-2.1,2.4-2.8,3.7V58.2l4.4-4.4h165.5l4.4,4.4
		V371.2z M55.6,386.3l0-0.6c0.1-6.6,0.3-10.1,3.5-13.3l69.7-69.7c2.7-2.7,6.2-4,9.7-4c3.5,0,7,1.3,9.7,4l69.7,69.7
		c3.1,3.1,3.3,7.6,3.4,12.7l0,1.1v345.9l0,0.1c0.2,6.9-0.2,10.4-3.5,13.7l-69.7,69.7c-2.6,2.6-6,4-9.7,4c-3.7,0-7.1-1.4-9.7-4
		L59.1,746c-3.3-3.3-3.7-6.7-3.5-13.7l0-0.1L55.6,386.3z M51.3,829.7v-82.2c0.7,1.2,1.6,2.4,2.8,3.5l69.7,69.7
		c3.9,3.9,9.1,6.1,14.7,6.1c5.5,0,10.8-2.2,14.7-6.1l69.7-69.7c1.1-1.2,2.1-2.3,2.8-3.5v82.2l-0.9,0.9H52.1L51.3,829.7z M255.7,801
		l-25.8,25.8V56.5l-6.9-6.9h-169L47,56.5v774.1h-2.3L15.2,801V42c0-15,12.2-27.2,27.2-27.2h186.1c15,0,27.2,12.2,27.2,27.2V801z"/>
	<path d="M138.9,91.6c-18.8,0-34,15.3-34,34v90.3c0,18.8,15.3,34,34,34s34-15.3,34-34v-90.3C173,106.8,157.7,91.6,138.9,91.6z
		 M168.7,215.9c0,16.4-13.4,29.8-29.8,29.8c-16.4,0-29.8-13.4-29.8-29.8v-90.3c0-16.4,13.4-29.8,29.8-29.8h0
		c16.4,0,29.8,13.4,29.8,29.8V215.9z"/>
	<path d="M138.9,98.2c-15.1,0-27.4,12.3-27.4,27.4s12.3,27.4,27.4,27.4c15.1,0,27.4-12.3,27.4-27.4S154,98.2,138.9,98.2z
		 M138.9,148.7c-12.8,0-23.1-10.4-23.1-23.1s10.4-23.1,23.1-23.1c12.8,0,23.1,10.4,23.1,23.1S151.7,148.7,138.9,148.7z"/>
	<path d="M138.9,187.7c-15.1,0-27.4,12.3-27.4,27.4s12.3,27.4,27.4,27.4c15.1,0,27.4-12.3,27.4-27.4S154,187.7,138.9,187.7z
		 M138.9,238.2c-12.8,0-23.1-10.4-23.1-23.1s10.4-23.1,23.1-23.1c12.8,0,23.1,10.4,23.1,23.1S151.7,238.2,138.9,238.2z"/>
	<circle cx="139.4" cy="695.9" r="38.1"/>
	<path d="M139.4,463.9c21,0,38.1-17,38.1-38.1c0-21-17-38.1-38.1-38.1s-38.1,17.1-38.1,38.1C101.4,446.9,118.4,463.9,139.4,463.9z"
		/>
</g>
</svg>
