<?xml version="1.0" encoding="utf-8"?>
<!-- Generator: Adobe Illustrator 21.0.0, SVG Export Plug-In . SVG Version: 6.00 Build 0)  -->
<svg version="1.1" id="Layer_1" xmlns="http://www.w3.org/2000/svg" xmlns:xlink="http://www.w3.org/1999/xlink" x="0px" y="0px"
	 viewBox="0 0 650.2 1196.7" style="enable-background:new 0 0 650.2 1196.7;" xml:space="preserve">
<style type="text/css">
	.st0{fill:#1A1A18;}
</style>
<g>
	<path class="st0" d="M541.4,107.6C483.6,49.8,406.8,18,325.1,18c-81.7,0-158.5,31.8-216.3,89.6C51,165.4,19.2,242.2,19.2,323.9
		c0,51.6,13.1,102.5,37.9,147.5v439.3c0,71.6,27.9,138.9,78.5,189.5s117.9,78.5,189.5,78.5c71.6,0,138.9-27.9,189.5-78.5
		c50.6-50.6,78.5-117.9,78.5-189.5V471.4c24.8-44.9,37.9-95.9,37.9-147.5C631,242.2,599.2,165.4,541.4,107.6z M33.9,323.9
		c0-77.8,30.3-150.9,85.3-205.9s128.1-85.3,205.9-85.3S476,63,531,118c55,55,85.3,128.1,85.3,205.9S586,474.8,531,529.8
		c-55,55-128.1,85.3-205.9,85.3s-150.9-30.3-205.9-85.3S33.9,401.7,33.9,323.9z M504.6,1090.2c-48,48-111.7,74.4-179.5,74.4
		s-131.6-26.4-179.5-74.4c-48-48-74.4-111.7-74.4-179.5v-430c12,19.4,26.4,37.6,42.9,54.1c56.3,56.3,131.3,87.4,210.9,87.4
		c79.7,0,154.6-31,210.9-87.4c16.6-16.6,30.9-34.7,42.9-54.1v430C579,978.5,552.6,1042.2,504.6,1090.2z"/>
	<path class="st0" d="M325.1,780c-75.3,0-136.6,61.3-136.6,136.6c0,75.3,61.3,136.6,136.6,136.6c75.3,0,136.6-61.3,136.6-136.6
		C461.7,841.2,400.4,780,325.1,780z M325.1,1046c-71.4,0-129.5-58.1-129.5-129.5s58.1-129.5,129.5-129.5s129.5,58.1,129.5,129.5
		S396.5,1046,325.1,1046z"/>
	<path class="st0" d="M325.1,813.9c-56.6,0-102.7,46.1-102.7,102.7c0,56.6,46.1,102.7,102.7,102.7c56.6,0,102.7-46.1,102.7-102.7
		C427.8,859.9,381.7,813.9,325.1,813.9z M325.1,1012.1c-52.7,0-95.6-42.9-95.6-95.6s42.9-95.6,95.6-95.6s95.6,42.9,95.6,95.6
		S377.8,1012.1,325.1,1012.1z"/>
	<path class="st0" d="M325.1,554.4c61.6,0,119.4-24,163-67.5s67.5-101.4,67.5-163s-24-119.4-67.5-163
		c-43.5-43.5-101.4-67.5-163-67.5c-61.6,0-119.4,24-163,67.5c-43.5,43.5-67.5,101.4-67.5,163s24,119.4,67.5,163
		S263.5,554.4,325.1,554.4z M167.1,166c42.2-42.2,98.3-65.4,158-65.4s115.8,23.2,158,65.4s65.4,98.3,65.4,158s-23.2,115.8-65.4,158
		s-98.3,65.4-158,65.4s-115.8-23.2-158-65.4s-65.4-98.3-65.4-158S124.9,208.2,167.1,166z"/>
	<path class="st0" d="M325.1,465c77.8,0,141.1-63.3,141.1-141.1s-63.3-141.1-141.1-141.1c-77.8,0-141.1,63.3-141.1,141.1
		S247.3,465,325.1,465z M325.1,189.9c73.9,0,134,60.1,134,134s-60.1,134-134,134s-134-60.1-134-134S251.2,189.9,325.1,189.9z"/>
	<path class="st0" d="M315.4,323.9c0,5.4,4.4,9.7,9.7,9.7s9.7-4.4,9.7-9.7s-4.4-9.7-9.7-9.7S315.4,318.5,315.4,323.9z"/>
	<path class="st0" d="M367.8,323.9c0-5.4-4.4-9.7-9.7-9.7s-9.7,4.4-9.7,9.7s4.4,9.7,9.7,9.7S367.8,329.3,367.8,323.9z"/>
	<path class="st0" d="M346.4,286.9c-4.6-2.7-10.6-1.1-13.3,3.6c-2.7,4.6-1.1,10.6,3.6,13.3c1.5,0.9,3.2,1.3,4.8,1.3
		c0.8,0,1.7-0.1,2.5-0.3c2.5-0.7,4.6-2.3,5.9-4.5C352.7,295.6,351.1,289.6,346.4,286.9z"/>
	<path class="st0" d="M303.7,286.9c-4.6,2.7-6.2,8.6-3.6,13.3c1.8,3.1,5.1,4.9,8.4,4.9c1.6,0,3.3-0.4,4.8-1.3
		c4.6-2.7,6.2-8.6,3.6-13.3C314.3,285.8,308.4,284.2,303.7,286.9z"/>
	<path class="st0" d="M282.4,323.9c0,5.4,4.4,9.7,9.7,9.7c5.4,0,9.7-4.4,9.7-9.7s-4.4-9.7-9.7-9.7
		C286.7,314.2,282.4,318.5,282.4,323.9z"/>
	<path class="st0" d="M313.5,344c-4.6-2.7-10.6-1.1-13.3,3.6c-1.3,2.3-1.6,4.9-1,7.4c0.7,2.5,2.3,4.6,4.5,5.9
		c1.5,0.9,3.2,1.3,4.8,1.3c0.8,0,1.7-0.1,2.5-0.3c2.5-0.7,4.6-2.3,5.9-4.5C319.7,352.7,318.1,346.7,313.5,344z"/>
	<path class="st0" d="M344.1,343.1c-2.5-0.7-5.1-0.3-7.4,1c-4.6,2.7-6.2,8.6-3.6,13.3c1.8,3.1,5.1,4.9,8.4,4.9
		c1.6,0,3.3-0.4,4.8-1.3c2.3-1.3,3.9-3.4,4.5-5.9c0.7-2.5,0.3-5.1-1-7.4C348.7,345.4,346.6,343.7,344.1,343.1z"/>
	<path class="st0" d="M391,333.6c5.4,0,9.7-4.4,9.7-9.7s-4.4-9.7-9.7-9.7s-9.7,4.4-9.7,9.7S385.7,333.6,391,333.6z"/>
	<path class="st0" d="M377.3,282.5c-4.6,2.7-6.2,8.6-3.6,13.3c1.8,3.1,5.1,4.9,8.4,4.9c1.6,0,3.3-0.4,4.8-1.3
		c4.6-2.7,6.2-8.6,3.6-13.3c-1.3-2.3-3.4-3.9-5.9-4.5C382.2,280.9,379.6,281.2,377.3,282.5z"/>
	<path class="st0" d="M349.6,261.9c-1.3,2.3-1.6,4.9-1,7.4c0.7,2.5,2.3,4.6,4.5,5.9c1.5,0.9,3.2,1.3,4.8,1.3c3.4,0,6.6-1.7,8.4-4.9
		c2.7-4.6,1.1-10.6-3.6-13.3c-2.2-1.3-4.9-1.6-7.4-1C353,258.1,350.9,259.7,349.6,261.9z"/>
	<path class="st0" d="M325.1,267.7c5.4,0,9.7-4.4,9.7-9.7s-4.4-9.7-9.7-9.7s-9.7,4.4-9.7,9.7S319.7,267.7,325.1,267.7z"/>
	<path class="st0" d="M282.7,264.3c-0.7,2.5-0.3,5.1,1,7.4c1.3,2.3,3.4,3.9,5.9,4.5c0.8,0.2,1.7,0.3,2.5,0.3c1.7,0,3.4-0.4,4.8-1.3
		c2.3-1.3,3.9-3.4,4.5-5.9c0.7-2.5,0.3-5.1-1-7.4s-3.4-3.9-5.9-4.5c-2.5-0.7-5.1-0.3-7.4,1C285,259.7,283.4,261.8,282.7,264.3z"/>
	<path class="st0" d="M263.1,299.4c1.5,0.9,3.2,1.3,4.8,1.3c3.4,0,6.6-1.7,8.4-4.9c2.7-4.6,1.1-10.6-3.6-13.3
		c-2.3-1.3-4.9-1.6-7.4-1c-2.5,0.7-4.6,2.3-5.9,4.5C256.9,290.7,258.5,296.7,263.1,299.4z"/>
	<path class="st0" d="M268.9,323.9c0-5.4-4.4-9.7-9.7-9.7c-5.4,0-9.7,4.4-9.7,9.7s4.4,9.7,9.7,9.7
		C264.5,333.6,268.9,329.3,268.9,323.9z"/>
	<path class="st0" d="M272.8,365.3c4.6-2.7,6.2-8.6,3.6-13.3c-2.7-4.6-8.6-6.2-13.3-3.6c-4.6,2.7-6.2,8.6-3.6,13.3
		c1.8,3.1,5.1,4.9,8.4,4.9C269.6,366.6,271.3,366.2,272.8,365.3z"/>
	<path class="st0" d="M300.5,385.9c1.3-2.3,1.6-4.9,1-7.4c-0.7-2.5-2.3-4.6-4.5-5.9c-2.2-1.3-4.9-1.6-7.4-1
		c-2.5,0.7-4.6,2.3-5.9,4.5c-1.3,2.3-1.6,4.9-1,7.4c0.7,2.5,2.3,4.6,4.5,5.9c1.5,0.9,3.2,1.3,4.8,1.3c0.8,0,1.7-0.1,2.5-0.3
		C297.1,389.8,299.2,388.2,300.5,385.9z"/>
	<path class="st0" d="M325.1,380.1c-5.4,0-9.7,4.4-9.7,9.7s4.4,9.7,9.7,9.7s9.7-4.4,9.7-9.7S330.5,380.1,325.1,380.1z"/>
	<path class="st0" d="M367.5,383.6c0.7-2.5,0.3-5.1-1-7.4c-2.7-4.6-8.6-6.2-13.3-3.6c-4.6,2.7-6.2,8.6-3.6,13.3
		c1.3,2.3,3.4,3.9,5.9,4.5c0.8,0.2,1.7,0.3,2.5,0.3c1.7,0,3.4-0.4,4.8-1.3C365.2,388.2,366.8,386.1,367.5,383.6z"/>
	<path class="st0" d="M387.1,348.5c-4.6-2.7-10.6-1.1-13.3,3.6c-2.7,4.6-1.1,10.6,3.6,13.3c1.5,0.9,3.2,1.3,4.8,1.3
		c3.4,0,6.6-1.7,8.4-4.9C393.3,357.1,391.7,351.1,387.1,348.5z"/>
	<path class="st0" d="M414.3,323.9c0,5.4,4.4,9.7,9.7,9.7s9.7-4.4,9.7-9.7s-4.4-9.7-9.7-9.7S414.3,318.5,414.3,323.9z"/>
	<path class="st0" d="M408.9,293.4c1.4,3.9,5.2,6.4,9.2,6.4c1.1,0,2.2-0.2,3.3-0.6c2.4-0.9,4.4-2.7,5.5-5c1.1-2.4,1.2-5,0.3-7.4
		c-1.8-5-7.4-7.6-12.5-5.8c-2.4,0.9-4.4,2.7-5.5,5C408.1,288.3,408,291,408.9,293.4z"/>
	<path class="st0" d="M400.9,270c2.2,0,4.4-0.7,6.2-2.3c2-1.7,3.2-4,3.4-6.6c0.2-2.6-0.6-5.1-2.2-7.1c-1.7-2-4-3.2-6.6-3.4
		c-2.6-0.2-5.1,0.6-7.1,2.2c-2,1.7-3.2,4-3.4,6.6c-0.2,2.6,0.6,5.1,2.2,7.1C395.3,268.9,398.1,270,400.9,270z"/>
	<path class="st0" d="M369.7,246.7c1.5,0.9,3.2,1.3,4.8,1.3c0.8,0,1.7-0.1,2.5-0.3c2.5-0.7,4.6-2.3,5.9-4.5c1.3-2.3,1.6-4.9,1-7.4
		c-0.7-2.5-2.3-4.6-4.5-5.9c-2.3-1.3-4.9-1.6-7.4-1c-2.5,0.7-4.6,2.3-5.9,4.5c-1.3,2.3-1.6,4.9-1,7.4
		C365.8,243.3,367.4,245.4,369.7,246.7z"/>
	<path class="st0" d="M340.6,236.1c0.6,0.1,1.1,0.2,1.7,0.2c2,0,3.9-0.6,5.6-1.8c2.1-1.5,3.5-3.7,4-6.3s-0.1-5.1-1.6-7.3
		c-1.5-2.1-3.7-3.6-6.3-4c-2.6-0.5-5.1,0.1-7.3,1.6c-2.1,1.5-3.6,3.7-4,6.3C331.8,230.1,335.3,235.1,340.6,236.1z"/>
	<path class="st0" d="M302.3,234.4c1.7,1.2,3.6,1.8,5.6,1.8c0.6,0,1.1,0,1.7-0.2c2.6-0.5,4.8-1.9,6.3-4c1.5-2.1,2.1-4.7,1.6-7.3
		c-0.5-2.6-1.9-4.8-4-6.3c-2.1-1.5-4.7-2.1-7.3-1.6c-2.6,0.5-4.8,1.9-6.3,4c-1.5,2.1-2.1,4.7-1.6,7.3S300.2,233,302.3,234.4z"/>
	<path class="st0" d="M273.1,247.6c0.8,0.2,1.7,0.3,2.5,0.3c1.7,0,3.4-0.4,4.8-1.3c2.3-1.3,3.9-3.4,4.5-5.9c0.7-2.5,0.3-5.1-1-7.4
		c-2.7-4.6-8.6-6.2-13.3-3.6c-2.3,1.3-3.9,3.4-4.5,5.9c-0.7,2.5-0.3,5.1,1,7.4S270.6,247,273.1,247.6z"/>
	<path class="st0" d="M243,267.8c1.8,1.5,4,2.3,6.2,2.3c2.8,0,5.5-1.2,7.5-3.5c1.7-2,2.5-4.5,2.2-7.1c-0.2-2.6-1.4-4.9-3.4-6.6
		c-2-1.7-4.5-2.5-7.1-2.2c-2.6,0.2-4.9,1.4-6.6,3.4C238.4,258.2,238.9,264.3,243,267.8z"/>
	<path class="st0" d="M228.8,299.2L228.8,299.2c1.1,0.4,2.2,0.6,3.3,0.6c4,0,7.7-2.5,9.2-6.4c0.9-2.4,0.8-5.1-0.3-7.4
		c-1.1-2.4-3-4.1-5.5-5c-5-1.8-10.6,0.8-12.5,5.8C221.1,291.8,223.7,297.4,228.8,299.2z"/>
	<path class="st0" d="M235.9,323.9c0-5.4-4.4-9.7-9.7-9.7s-9.7,4.4-9.7,9.7s4.4,9.7,9.7,9.7S235.9,329.3,235.9,323.9z"/>
	<path class="st0" d="M235.4,366.9c2.4-0.9,4.4-2.7,5.5-5c1.1-2.4,1.2-5,0.3-7.4c-1.8-5-7.4-7.7-12.5-5.8c-5,1.8-7.7,7.4-5.8,12.5
		c0.9,2.4,2.7,4.4,5,5.5c1.3,0.6,2.7,0.9,4.1,0.9C233.2,367.5,234.4,367.3,235.4,366.9z"/>
	<path class="st0" d="M243,380.1c-4.1,3.4-4.6,9.6-1.2,13.7c1.9,2.3,4.7,3.5,7.5,3.5c2.2,0,4.4-0.7,6.2-2.3
		c4.1-3.4,4.6-9.6,1.2-13.7C253.3,377.1,247.1,376.6,243,380.1z"/>
	<path class="st0" d="M280.5,401.2c-2.3-1.3-4.9-1.6-7.4-1c-2.5,0.7-4.6,2.3-5.9,4.5s-1.6,4.9-1,7.4c0.7,2.5,2.3,4.6,4.5,5.9
		c1.5,0.9,3.2,1.3,4.8,1.3c3.4,0,6.6-1.7,8.4-4.9c1.3-2.3,1.6-4.9,1-7.4C284.3,404.6,282.7,402.5,280.5,401.2z"/>
	<path class="st0" d="M309.6,411.8c-2.6-0.5-5.1,0.1-7.3,1.6c-2.1,1.5-3.6,3.7-4,6.3s0.1,5.1,1.6,7.3c1.5,2.1,3.7,3.6,6.3,4
		c0.6,0.1,1.1,0.2,1.7,0.2c2,0,3.9-0.6,5.6-1.8c2.1-1.5,3.5-3.7,4-6.3c0.5-2.6-0.1-5.1-1.6-7.3C314.4,413.6,312.2,412.2,309.6,411.8
		z"/>
	<path class="st0" d="M347.8,413.4c-2.1-1.5-4.7-2.1-7.3-1.6c-5.3,0.9-8.8,6-7.9,11.3c0.5,2.6,1.9,4.8,4,6.3
		c1.7,1.2,3.6,1.8,5.6,1.8c0.6,0,1.1,0,1.7-0.2c2.6-0.5,4.8-1.9,6.3-4c1.5-2.1,2.1-4.7,1.6-7.3S350,414.9,347.8,413.4z"/>
	<path class="st0" d="M377.1,400.2c-2.5-0.7-5.1-0.3-7.4,1c-2.3,1.3-3.9,3.4-4.5,5.9c-0.7,2.5-0.3,5.1,1,7.4
		c1.3,2.3,3.4,3.9,5.9,4.5c0.8,0.2,1.7,0.3,2.5,0.3c1.7,0,3.3-0.4,4.8-1.3c2.3-1.3,3.9-3.4,4.5-5.9c0.7-2.5,0.3-5.1-1-7.4
		C381.7,402.5,379.6,400.9,377.1,400.2z"/>
	<path class="st0" d="M407.1,380.1c-4.1-3.4-10.3-2.9-13.7,1.2c-3.4,4.1-2.9,10.3,1.2,13.7c1.8,1.5,4,2.3,6.2,2.3c0.3,0,0.6,0,0.9,0
		c2.6-0.2,4.9-1.4,6.6-3.4c1.7-2,2.5-4.5,2.2-7.1C410.3,384.1,409.1,381.7,407.1,380.1z"/>
	<path class="st0" d="M421.4,348.6L421.4,348.6c-5-1.8-10.6,0.8-12.5,5.8c-0.9,2.4-0.8,5.1,0.3,7.4c1.1,2.4,3,4.1,5.5,5
		c1.1,0.4,2.2,0.6,3.3,0.6c1.4,0,2.8-0.3,4.1-0.9c2.4-1.1,4.1-3,5-5.5s0.8-5.1-0.3-7.4C425.8,351.3,423.8,349.5,421.4,348.6z"/>
</g>
</svg>
