<?xml version="1.0"?>
<svg width="900" height="900" xmlns="http://www.w3.org/2000/svg" xmlns:svg="http://www.w3.org/2000/svg" preserveAspectRatio="xMidYMid meet">
 <metadata>Created by potrace 1.10, written by Peter Selinger 2001-2011</metadata>
 <g>
  <title>Layer 1</title>
  <g transform="translate(0,900) scale(0.10000000149011612,-0.10000000149011612) " fill="#000000" id="svg_1">
   <path d="m3715,8830c-128,-14 -250,-40 -313,-66c-18,-8 -40,-14 -50,-14c-45,0 -310,-125 -436,-205c-186,-119 -432,-359 -540,-527c-20,-31 -40,-60 -46,-63c-6,-3 -19,-23 -29,-43c-51,-101 -103,-198 -112,-206c-5,-6 -9,-16 -9,-23c0,-7 -11,-36 -24,-65c-33,-74 -51,-123 -75,-198c-42,-133 -51,-170 -51,-207c0,-22 -7,-48 -15,-59c-8,-11 -15,-42 -15,-74c0,-30 -7,-82 -15,-115c-20,-83 -20,-374 0,-478c8,-43 15,-102 15,-130c0,-30 7,-60 15,-71c8,-11 15,-41 15,-67c0,-26 4,-50 9,-54c6,-3 13,-27 17,-53c6,-43 18,-79 61,-182c12,-31 13,-116 8,-585c-3,-303 -10,-640 -14,-750c-5,-110 -10,-427 -12,-705c-1,-278 -3,-536 -4,-575c-10,-518 -16,-814 -20,-925c-7,-196 15,-465 50,-600c9,-36 20,-81 24,-101c4,-19 11,-42 16,-49c5,-7 12,-30 16,-49c4,-20 17,-61 29,-91c11,-30 28,-74 36,-98c21,-59 102,-213 159,-302c175,-271 428,-511 670,-635c175,-90 159,-83 290,-127c33,-11 68,-24 77,-29c10,-5 29,-9 42,-9c14,0 37,-5 52,-11c31,-11 198,-37 319,-48c78,-7 230,11 322,38c23,7 46,5 79,-5c65,-19 178,-14 182,8c3,15 -4,17 -62,11c-47,-4 -66,-3 -66,6c0,15 45,32 65,25c8,-4 15,-1 15,5c0,8 -52,11 -177,9c-288,-4 -518,20 -728,76c-123,33 -306,111 -383,164c-20,13 -45,28 -56,33c-12,5 -37,22 -57,37c-20,15 -60,46 -90,68c-80,61 -211,190 -268,264c-27,36 -60,78 -73,95c-84,108 -217,374 -265,530c-92,297 -97,339 -98,825c-1,223 2,524 6,670c4,146 10,517 14,825c3,308 8,646 10,750c16,588 18,842 10,1082c-4,139 -8,171 -29,226c-24,64 -71,232 -88,317c-29,147 -41,592 -18,720c6,30 14,82 20,115c5,33 16,83 24,110c8,28 24,83 35,123c64,221 150,386 321,612c77,101 299,339 364,389c53,40 176,118 206,130c19,8 42,20 50,26c8,7 38,22 65,34c28,12 58,27 69,32c24,14 160,58 211,69c208,47 315,61 425,55c163,-8 305,-24 351,-40c23,-8 56,-15 74,-15c19,0 54,-9 80,-20c26,-11 55,-20 65,-20c11,0 40,-11 66,-25c58,-31 84,-32 84,-5c0,23 10,26 28,8c9,-9 8,-16 -4,-29c-20,-22 1,-38 23,-17c30,31 -29,128 -79,128c-27,0 -121,53 -111,63c10,11 56,8 125,-7c35,-8 105,-17 157,-20c98,-7 213,-34 291,-68c129,-58 276,-134 356,-186c10,-6 26,-15 34,-18c37,-14 45,-23 48,-53c2,-17 8,-31 13,-31c29,0 115,-55 213,-136c79,-66 121,-94 146,-98c26,-4 45,-17 71,-48c20,-24 39,-53 43,-66c4,-12 20,-35 37,-51c16,-16 29,-36 29,-44c0,-8 7,-20 15,-27c8,-7 15,-23 15,-36c0,-13 4,-24 9,-24c9,0 57,-94 74,-142c4,-10 11,-18 17,-18c5,0 10,-15 10,-34c0,-18 7,-39 15,-46c8,-7 15,-21 15,-32c0,-27 19,-60 31,-53c5,4 9,15 9,26c0,24 -45,124 -59,134c-6,3 -11,17 -11,31c0,14 -7,27 -15,30c-8,4 -15,16 -15,29c0,12 -7,28 -15,35c-8,7 -15,18 -15,24c0,6 -11,31 -25,56c-13,25 -29,56 -35,70c-6,13 -14,27 -18,30c-13,9 -52,89 -52,104c0,24 13,20 66,-23c85,-68 165,-169 224,-282c51,-97 71,-118 99,-105c19,8 26,5 47,-20c39,-47 75,-131 68,-158c-3,-13 -1,-27 5,-31c15,-9 81,-151 81,-173c0,-10 6,-27 14,-38c14,-19 37,-107 65,-239c19,-93 46,-451 42,-575c-3,-104 -18,-157 -90,-299c-15,-29 -28,-21 -35,21c-13,77 -23,21 -29,-152c-6,-158 -14,-222 -39,-283c-8,-22 -17,-28 -37,-27c-45,3 -49,1 -72,-46c-22,-43 -24,-44 -32,-22c-5,13 -11,166 -12,341c-1,175 -5,320 -9,324c-3,3 -6,-158 -6,-358c-1,-627 -10,-1267 -20,-1449c-6,-96 -13,-663 -17,-1260c-3,-597 -10,-1093 -14,-1102c-5,-9 -9,-38 -10,-65c0,-26 -4,-70 -10,-98c-5,-27 -13,-83 -19,-124c-5,-40 -13,-78 -18,-85c-6,-6 -13,-30 -17,-54c-4,-24 -13,-56 -21,-70c-8,-15 -14,-36 -14,-47c0,-11 -7,-29 -15,-39c-8,-11 -15,-28 -15,-38c0,-10 -4,-26 -10,-36c-18,-32 -110,-231 -110,-237c0,-4 -28,-51 -62,-106c-35,-55 -72,-116 -84,-135c-27,-45 -73,-92 -96,-100c-11,-3 -23,-16 -28,-29c-9,-24 -107,-95 -132,-95c-8,0 -23,-6 -34,-14c-19,-15 -19,-15 0,-29c27,-20 17,-38 -51,-92c-165,-130 -335,-217 -251,-128l21,23l-21,0c-11,0 -25,-6 -29,-13c-13,-21 -156,-86 -235,-108c-29,-8 -48,-20 -51,-31c-5,-17 -31,-24 -82,-20c-23,1 -87,-14 -130,-32c-50,-21 -99,-38 -125,-43c-14,-2 -38,-11 -55,-18c-79,-35 -198,-52 -375,-55c-69,-1 -126,-3 -128,-5c-2,-2 11,-12 30,-22c29,-16 59,-18 248,-18c213,0 292,9 365,40c17,8 42,11 56,8c15,-3 40,2 57,11c17,9 47,16 66,16c19,0 37,4 40,9c3,5 29,15 57,21c29,7 64,19 78,26c14,8 32,14 39,14c7,0 52,18 100,40c126,59 154,73 182,91c214,139 311,215 444,344c83,82 119,124 190,222c97,135 125,178 164,253c21,41 50,96 64,121c31,57 143,393 158,474c6,33 15,102 20,154c5,52 11,104 14,115c8,34 15,496 21,1396c7,955 14,1829 18,2000l2,115l31,14c23,10 38,27 53,65c12,28 27,58 32,66c5,8 12,22 15,30c20,49 36,87 43,100c17,31 81,287 81,322c0,8 6,20 13,26c7,8 12,45 13,100c0,61 6,98 18,124c12,24 15,45 10,60c-4,13 -8,70 -9,128c-2,153 -14,297 -30,360c-7,30 -19,82 -25,115c-13,64 -73,254 -95,295c-7,14 -36,72 -65,130c-129,260 -365,521 -592,655c-64,38 -101,55 -109,50c-13,-9 -11,-25 4,-25c18,0 59,-47 48,-55c-15,-9 -69,34 -75,60c-9,37 -403,325 -444,325c-7,0 -12,4 -12,10c0,5 -12,13 -26,16c-14,4 -45,17 -68,29c-22,12 -70,32 -106,44c-36,13 -69,26 -75,31c-5,4 -28,11 -50,15c-22,4 -50,13 -62,21c-12,8 -43,14 -68,14c-25,0 -56,6 -68,14c-17,11 -68,14 -232,14c-201,-1 -264,5 -500,43c-87,14 -327,19 -420,9zm2629,-5653c-2,-66 -6,-123 -9,-125c-3,-3 -5,57 -5,134c0,85 4,134 9,125c5,-8 7,-68 5,-134zm6,-232c0,-8 -4,-17 -10,-20c-6,-4 -10,5 -10,20c0,15 4,24 10,20c6,-3 10,-12 10,-20zm-10,-155l-7,-75l-1,95c0,56 3,87 7,75c4,-11 5,-54 1,-95z" id="svg_2"/>
   <path d="m4710,8680c-44,-6 -45,-6 -15,-14c17,-5 35,-12 40,-16c6,-5 28,-11 50,-15c22,-4 50,-13 62,-21c12,-8 30,-14 40,-14c10,0 45,-12 78,-25c70,-29 135,-42 135,-27c0,5 -12,15 -27,21c-16,6 -42,20 -60,30c-17,11 -49,23 -70,26c-42,7 -69,17 -125,46c-20,10 -43,18 -50,17c-7,0 -33,-4 -58,-8z" id="svg_3"/>
   <path d="m3570,8640c-14,-5 -46,-11 -72,-15c-27,-3 -48,-10 -48,-14c0,-14 125,1 165,20c39,18 40,18 10,18c-16,0 -41,-4 -55,-9z" id="svg_4"/>
   <path d="m3235,8529c-59,-32 -66,-39 -42,-39c15,0 30,7 33,15c4,8 15,15 27,15c20,0 107,37 107,46c0,16 -66,-4 -125,-37z" id="svg_5"/>
   <path d="m3774,8516c-33,-24 -36,-54 -9,-82c36,-36 70,-31 94,14c28,52 -35,103 -85,68z" id="svg_6"/>
   <path d="m5128,8518c9,-9 15,-9 24,0c9,9 7,12 -12,12c-19,0 -21,-3 -12,-12z" id="svg_7"/>
   <path d="m4503,8507c5,-15 37,-22 37,-9c0,5 -9,12 -21,15c-13,3 -19,1 -16,-6z" id="svg_8"/>
   <path d="m2980,8395c-7,-9 -10,-19 -6,-22c8,-9 38,9 44,25c5,17 -23,15 -38,-3z" id="svg_9"/>
   <path d="m4854,8378c15,-18 39,-50 54,-70c15,-21 32,-37 38,-38c16,0 54,-44 54,-63c0,-9 19,-35 42,-59c50,-52 63,-73 72,-123c8,-40 42,-80 89,-104c15,-8 27,-22 27,-32c0,-10 6,-22 13,-26c8,-4 16,-16 20,-25c3,-10 11,-18 17,-18c15,0 12,16 -5,30c-8,7 -15,20 -15,29c0,22 -31,82 -64,126c-14,18 -26,40 -26,49c0,8 -6,19 -13,23c-7,4 -35,37 -62,73c-54,71 -241,260 -257,260c-6,0 1,-15 16,-32z" id="svg_10"/>
   <path d="m3630,8330c-231,-29 -529,-167 -700,-323c-123,-113 -141,-131 -188,-195c-26,-35 -62,-81 -79,-102c-18,-20 -33,-41 -33,-46c0,-4 -18,-39 -41,-77c-39,-65 -89,-196 -109,-282c-5,-22 -17,-58 -26,-80l-17,-40l-13,50c-8,28 -14,102 -14,168c0,80 -3,116 -11,112c-6,-4 -9,-51 -7,-128c1,-67 -2,-128 -6,-136c-13,-21 -39,-295 -51,-549c-2,-35 -5,-66 -9,-69c-3,-3 2,-22 10,-42c10,-25 14,-53 10,-91c-6,-55 5,-188 21,-265c12,-60 37,-53 43,12c3,29 11,58 17,64c11,11 20,-13 78,-226c16,-60 40,-120 60,-150c17,-27 39,-61 48,-75c136,-210 317,-365 567,-486c223,-108 519,-145 756,-95c111,23 193,46 239,66c159,69 259,127 375,217c34,27 230,216 230,223c0,2 24,40 54,83c30,42 61,93 70,112c9,19 30,60 47,90c17,30 36,73 44,95c7,22 23,66 35,99c28,78 56,233 75,423c18,186 -7,526 -49,654c-7,24 -22,71 -32,104c-10,33 -37,100 -61,148c-24,48 -43,91 -43,96c0,5 -7,14 -15,21c-9,7 -39,50 -69,94c-38,59 -86,111 -173,191c-150,136 -159,142 -269,202c-93,51 -188,88 -264,105c-25,5 -58,14 -75,20c-38,13 -338,19 -425,8zm320,-90c118,-19 157,-27 210,-45c75,-24 289,-129 320,-157c14,-13 47,-41 74,-63c177,-144 332,-374 410,-609c52,-157 68,-258 73,-461c5,-187 -1,-263 -32,-410c-103,-502 -446,-912 -893,-1071c-53,-18 -107,-34 -120,-34c-12,0 -39,-7 -60,-16c-55,-23 -415,-23 -460,0c-17,9 -41,16 -52,16c-26,0 -121,29 -135,41c-5,5 -16,9 -25,9c-8,0 -32,9 -53,20c-20,11 -52,28 -70,38c-83,44 -183,120 -265,200c-89,87 -192,214 -192,237c0,7 -6,18 -14,24c-48,40 -186,409 -186,499c-1,26 -7,65 -15,87c-21,56 -21,354 0,410c8,22 14,57 15,79c0,63 85,311 147,431c95,185 218,350 333,449c136,116 132,113 318,212c24,13 74,33 110,45c37,11 78,26 92,32c14,6 50,14 80,18c30,5 78,12 105,17c65,12 215,13 285,2z" id="svg_11"/>
   <path d="m3625,7670c-59,-12 -135,-43 -210,-85c-75,-41 -205,-164 -205,-191c1,-17 3,-16 23,6c48,55 253,180 294,180c8,0 27,6 41,14c44,23 211,35 283,20c34,-7 66,-17 72,-23c6,-6 21,-11 33,-11c13,0 26,-4 29,-10c3,-5 31,-22 61,-36c30,-14 54,-29 54,-32c1,-4 25,-25 54,-47c53,-39 158,-169 190,-235c41,-83 76,-200 76,-254c0,-43 5,-61 21,-77c31,-31 44,-19 43,42c-2,189 -93,380 -257,547c-50,50 -95,92 -99,92c-4,0 -27,14 -51,30c-25,17 -48,30 -51,30c-4,0 -28,10 -54,22c-40,19 -66,23 -177,24c-71,1 -148,-2 -170,-6z" id="svg_12"/>
   <path d="m3604,7470c-29,-12 -39,-56 -19,-86c19,-29 29,-30 55,-4c22,22 27,69 8,88c-14,14 -15,14 -44,2z" id="svg_13"/>
   <path d="m3778,7469c-12,-6 -18,-22 -18,-45c0,-27 5,-37 26,-46c24,-11 29,-9 50,15c13,16 24,36 24,46c0,36 -44,53 -82,30z" id="svg_14"/>
   <path d="m3962,7397c-37,-39 -24,-87 24,-87c24,0 54,38 54,69c0,19 -26,41 -48,41c-5,0 -18,-10 -30,-23z" id="svg_15"/>
   <path d="m3396,7368c-21,-30 -20,-51 3,-72c39,-35 88,8 76,65c-5,24 -12,29 -35,29c-18,0 -35,-8 -44,-22z" id="svg_16"/>
   <path d="m3667,7250c-14,-23 -15,-34 -7,-50c21,-38 90,-15 90,30c0,23 -26,50 -49,50c-9,0 -25,-13 -34,-30z" id="svg_17"/>
   <path d="m4106,7264c-23,-23 -21,-71 4,-79c27,-9 53,1 68,26c11,17 11,25 -3,45c-18,28 -47,31 -69,8z" id="svg_18"/>
   <path d="m3252,7227c-37,-39 -23,-77 28,-77c14,0 31,5 38,12c7,7 12,24 12,38c0,51 -42,66 -78,27z" id="svg_19"/>
   <path d="m3860,7210c-23,-23 -24,-33 -10,-61c21,-39 90,-11 90,37c0,44 -46,58 -80,24z" id="svg_20"/>
   <path d="m3488,7196c-45,-34 -3,-101 48,-77c18,8 24,18 24,45c0,45 -35,61 -72,32z" id="svg_21"/>
   <path d="m4202,7080c-24,-23 -27,-41 -12,-71c14,-26 55,-24 74,3c43,61 -9,117 -62,68z" id="svg_22"/>
   <path d="m3990,7065c-26,-31 -5,-95 32,-95c15,0 48,44 48,65c0,42 -54,62 -80,30z" id="svg_23"/>
   <path d="m3158,7045c-24,-32 -23,-71 3,-89c28,-19 44,-12 60,26c10,25 10,34 -4,57c-21,34 -38,36 -59,6z" id="svg_24"/>
   <path d="m3339,7024c-23,-62 51,-100 79,-41c20,42 8,67 -34,67c-28,0 -36,-5 -45,-26z" id="svg_25"/>
   <path d="m3584,7025c-27,-27 -29,-37 -14,-66c12,-21 50,-25 68,-7c7,7 12,29 12,49c0,48 -31,59 -66,24z" id="svg_26"/>
   <path d="m3756,7028c-30,-42 -14,-78 34,-78c14,0 31,5 38,12c7,7 12,24 12,38c0,51 -55,69 -84,28z" id="svg_27"/>
   <path d="m4242,6877c-24,-11 -38,-47 -28,-72c7,-19 69,-20 86,-1c30,37 -14,94 -58,73z" id="svg_28"/>
   <path d="m4053,6865c-24,-17 -30,-58 -13,-85c8,-13 13,-13 37,0c23,13 28,22 28,55c0,45 -17,55 -52,30z" id="svg_29"/>
   <path d="m3851,6849c-12,-13 -21,-28 -21,-34c0,-16 33,-45 52,-45c25,0 50,36 46,67c-4,38 -47,44 -77,12z" id="svg_30"/>
   <path d="m3482,6840c-41,-38 -20,-85 35,-78c38,4 55,49 28,78c-23,25 -36,25 -63,0z" id="svg_31"/>
   <path d="m3667,6842c-25,-27 -21,-60 8,-74c30,-14 55,3 55,37c0,55 -31,73 -63,37z" id="svg_32"/>
   <path d="m3132,6837c-44,-20 -40,-88 7,-95c32,-5 51,15 51,54c0,40 -24,57 -58,41z" id="svg_33"/>
   <path d="m3302,6834c-38,-26 -26,-84 18,-84c45,0 74,55 45,84c-20,20 -35,20 -63,0z" id="svg_34"/>
   <path d="m4430,6751c-5,-11 -10,-40 -10,-65c0,-26 -4,-54 -9,-64c-6,-9 -22,-54 -37,-100c-31,-98 -107,-217 -189,-298c-58,-56 -173,-136 -215,-149c-14,-4 -34,-14 -45,-21c-11,-8 -29,-14 -41,-14c-25,0 -49,-24 -39,-40c14,-23 145,6 145,32c0,4 9,8 20,8c42,0 191,113 268,203c92,108 168,256 186,362c4,22 12,62 18,89c11,44 11,49 -7,62c-25,19 -32,18 -45,-5z" id="svg_35"/>
   <path d="m3763,6680c-32,-13 -33,-74 -2,-90c31,-17 66,-5 73,26c7,28 0,64 -14,64c-5,0 -14,2 -22,4c-7,3 -23,1 -35,-4z" id="svg_36"/>
   <path d="m3568,6655c-15,-33 3,-75 32,-75c29,0 54,53 38,80c-18,28 -56,26 -70,-5z" id="svg_37"/>
   <path d="m4192,6658c-27,-27 -4,-98 32,-98c20,0 46,34 46,61c0,31 -17,49 -45,49c-12,0 -26,-5 -33,-12z" id="svg_38"/>
   <path d="m3982,6648c-28,-28 -3,-88 38,-88c25,0 56,66 40,86c-15,17 -61,19 -78,2z" id="svg_39"/>
   <path d="m3352,6634c-17,-12 -22,-24 -20,-46c4,-40 28,-56 62,-40c20,9 26,19 26,45c0,54 -27,70 -68,41z" id="svg_40"/>
   <path d="m3152,6617c-32,-34 -28,-77 8,-89c39,-13 69,38 50,86c-12,32 -30,33 -58,3z" id="svg_41"/>
   <path d="m3847,6492c-23,-25 -21,-58 4,-75c44,-31 94,17 71,68c-14,30 -51,33 -75,7z" id="svg_42"/>
   <path d="m3477,6482c-31,-34 -18,-82 22,-82c33,0 47,9 55,37c16,52 -41,85 -77,45z" id="svg_43"/>
   <path d="m4096,6464c-20,-19 -21,-68 -1,-84c15,-13 55,-5 67,14c12,17 9,61 -4,74c-17,17 -44,15 -62,-4z" id="svg_44"/>
   <path d="m3240,6430c-33,-33 -19,-90 24,-90c49,0 78,78 37,100c-28,14 -38,13 -61,-10z" id="svg_45"/>
   <path d="m3659,6424c-22,-23 -23,-27 -8,-52c28,-50 79,-36 79,22c0,58 -32,71 -71,30z" id="svg_46"/>
   <path d="m3946,6314c-19,-18 -21,-55 -4,-72c7,-7 25,-12 40,-12c31,0 45,31 34,75c-7,29 -45,34 -70,9z" id="svg_47"/>
   <path d="m3390,6297c-43,-23 -21,-91 28,-85c36,4 55,36 39,68c-15,30 -33,34 -67,17z" id="svg_48"/>
   <path d="m3572,6230c-29,-27 -28,-56 3,-76c24,-16 27,-16 45,1c22,20 26,65 8,83c-17,17 -31,15 -56,-8z" id="svg_49"/>
   <path d="m3755,6230c-38,-42 12,-98 64,-70c24,12 29,58 9,78c-18,18 -53,14 -73,-8z" id="svg_50"/>
   <path d="m3618,5968c9,-9 15,-9 24,0c9,9 7,12 -12,12c-19,0 -21,-3 -12,-12z" id="svg_51"/>
   <path d="m4902,8233c5,-25 28,-28 28,-4c0,12 -6,21 -16,21c-9,0 -14,-7 -12,-17z" id="svg_52"/>
   <path d="m4968,8169c17,-17 34,-39 37,-50c6,-19 35,-27 35,-9c0,13 -79,90 -93,90c-6,0 3,-14 21,-31z" id="svg_53"/>
   <path d="m2690,8145c-10,-12 -10,-15 4,-15c9,0 16,7 16,15c0,8 -2,15 -4,15c-2,0 -9,-7 -16,-15z" id="svg_54"/>
   <path d="m2642,8113c-6,-2 -10,-9 -7,-13c7,-11 35,-2 35,11c0,10 -8,10 -28,2z" id="svg_55"/>
   <path d="m2587,8035c-10,-14 -14,-25 -9,-25c10,0 42,33 42,43c0,14 -16,5 -33,-18z" id="svg_56"/>
   <path d="m5360,7675c0,-8 5,-15 10,-15c6,0 10,7 10,15c0,8 -4,15 -10,15c-5,0 -10,-7 -10,-15z" id="svg_57"/>
   <path d="m6240,7439c0,-30 4,-59 10,-65c11,-11 27,-78 39,-166c10,-63 18,-81 33,-72c13,8 2,103 -18,149c-8,19 -14,47 -14,62c-1,28 -31,128 -44,140c-3,3 -6,-18 -6,-48z" id="svg_58"/>
   <path d="m6329,7035c-5,-93 0,-165 12,-165c11,0 11,187 -1,215c-5,14 -9,-2 -11,-50z" id="svg_59"/>
   <path d="m5222,6983c-6,-3 -10,-9 -6,-14c7,-12 44,-12 44,0c0,11 -21,19 -38,14z" id="svg_60"/>
   <path d="m5163,6625c2,-140 7,-258 10,-262c3,-3 13,-3 22,0c12,5 15,27 16,114c1,59 3,146 4,193c2,47 0,112 -3,145c-6,53 -10,60 -30,63l-24,4l5,-257z" id="svg_61"/>
   <path d="m6842,6502c-13,-9 -7,-42 7,-42c15,0 29,-48 23,-76c-8,-32 -60,-114 -73,-114c-5,0 -9,-6 -9,-14c0,-21 46,-46 85,-46c30,0 46,9 86,48c42,39 51,55 54,89c7,65 -57,143 -130,157c-16,3 -36,2 -43,-2z" id="svg_62"/>
   <path d="m6330,6335c0,-8 5,-15 10,-15c6,0 10,7 10,15c0,8 -4,15 -10,15c-5,0 -10,-7 -10,-15z" id="svg_63"/>
   <path d="m2373,6153c-5,-16 -8,-57 -7,-93c2,-86 2,-86 15,-73c12,12 21,193 9,193c-4,0 -12,-12 -17,-27z" id="svg_64"/>
   <path d="m5072,5628c-7,-7 -12,-17 -12,-23c0,-5 -9,-16 -20,-23c-11,-7 -20,-21 -20,-32c0,-11 -7,-20 -15,-20c-8,0 -15,-6 -15,-14c0,-14 -36,-47 -110,-101c-23,-16 -63,-48 -88,-71c-26,-22 -65,-51 -86,-64c-22,-13 -56,-38 -75,-55c-44,-39 -163,-111 -270,-165c-74,-37 -83,-44 -68,-55c22,-16 21,-25 -2,-25c-11,0 -23,-5 -27,-11c-3,-6 -25,-19 -48,-29l-41,-19l31,0c17,-1 37,6 44,14c7,8 23,15 36,15c14,0 32,4 42,10c26,15 110,50 118,50c13,0 176,111 281,191c170,131 354,331 345,377c-2,6 4,12 11,12c16,0 30,27 21,41c-7,12 -18,11 -32,-3z" id="svg_65"/>
   <path d="m2520,5536c0,-3 11,-17 25,-32c14,-15 25,-31 25,-37c0,-12 208,-217 219,-217c5,0 28,-16 52,-35c41,-33 75,-46 67,-26c-1,5 -40,36 -84,69c-45,34 -131,111 -193,172c-61,61 -111,108 -111,106z" id="svg_66"/>
   <path d="m5099,5452c-25,-26 -56,-57 -70,-69c-13,-12 -46,-44 -73,-72c-27,-28 -52,-51 -57,-51c-5,0 -9,-7 -9,-16c0,-12 12,-9 58,17c54,30 142,110 142,128c0,4 16,24 35,44c32,33 46,67 28,67c-5,0 -29,-22 -54,-48z" id="svg_67"/>
   <path d="m2950,5147c14,-15 33,-27 42,-27c9,0 20,-5 23,-10c8,-14 53,-36 90,-44c30,-7 29,-7 -8,18c-30,21 -105,60 -162,85c-5,2 1,-8 15,-22z" id="svg_68"/>
   <path d="m4880,5093c-18,-16 -41,-35 -50,-45c-10,-9 -29,-19 -42,-23c-12,-4 -37,-18 -55,-31c-17,-13 -34,-24 -36,-24c-3,0 -33,-16 -67,-35c-34,-19 -70,-35 -80,-35c-10,0 -23,-7 -30,-15c-7,-8 -20,-15 -29,-15c-24,0 -101,-38 -101,-50c0,-6 -11,-10 -24,-10c-35,0 -56,-10 -56,-27c0,-11 7,-14 27,-8c15,3 43,8 63,11c72,8 236,87 374,179c33,22 70,46 83,53c12,7 23,17 23,23c0,5 6,9 13,9c14,0 67,50 67,63c0,17 -51,4 -80,-20z" id="svg_69"/>
   <path d="m3145,5052c19,-18 208,-82 242,-82c19,0 42,-4 51,-9c28,-14 132,-24 132,-12c0,7 -22,11 -53,11c-31,0 -61,6 -73,15c-10,8 -37,15 -59,15c-22,0 -53,7 -69,15c-15,8 -37,15 -48,15c-10,0 -31,6 -46,14c-36,18 -90,31 -77,18z" id="svg_70"/>
   <path d="m4500,4980c0,-13 11,-13 30,0c12,8 11,10 -7,10c-13,0 -23,-4 -23,-10z" id="svg_71"/>
   <path d="m4136,4910c-13,-4 -16,-9 -8,-14c7,-4 19,-3 28,2c21,12 5,22 -20,12z" id="svg_72"/>
   <path d="m3802,3430c-12,-5 -27,-21 -32,-34c-8,-22 -12,-24 -41,-16c-62,18 -215,-38 -324,-117c-83,-61 -183,-170 -215,-233c-12,-25 -32,-58 -44,-75c-29,-39 -66,-112 -66,-129c0,-7 -9,-25 -20,-39c-11,-14 -20,-34 -20,-45c0,-10 -8,-43 -18,-73c-11,-31 -17,-70 -14,-92c3,-23 -1,-46 -11,-61c-14,-20 -14,-28 -2,-62c8,-21 14,-67 15,-102c0,-54 7,-77 51,-170c103,-214 168,-304 293,-404c39,-32 98,-71 131,-88c33,-17 67,-34 75,-39c41,-23 236,-63 300,-62c67,2 269,52 306,76c13,8 29,15 37,15c7,0 38,18 67,40c29,22 60,40 67,40c7,0 19,11 25,25c6,14 19,25 29,25c11,0 26,14 35,33c9,17 23,36 30,40c8,4 14,15 14,24c0,9 9,26 19,37c57,60 161,331 161,416c0,45 35,80 80,80c39,0 53,21 45,70c-7,43 -27,60 -69,60c-30,0 -46,25 -46,72c0,19 -7,58 -15,88c-9,30 -19,69 -24,85c-4,17 -19,48 -33,70c-13,22 -30,54 -35,72c-27,78 -210,303 -247,303c-6,0 -19,9 -28,20c-10,11 -30,22 -45,26c-15,4 -35,12 -43,19c-35,29 -81,46 -95,35c-8,-6 -16,-7 -19,-2c-10,16 -76,22 -97,9c-15,-9 -21,-9 -27,0c-4,6 -25,25 -46,42c-40,32 -64,37 -104,21zm248,-157c25,-9 67,-30 93,-45c26,-15 51,-28 54,-28c17,0 151,-122 186,-170c23,-30 51,-66 63,-80c13,-14 35,-47 49,-75c15,-27 33,-54 41,-58c8,-4 14,-17 14,-28c0,-11 9,-45 19,-77c33,-98 30,-355 -5,-424c-8,-15 -14,-36 -14,-47c0,-11 -6,-32 -14,-48c-8,-15 -23,-46 -33,-68c-31,-68 -78,-138 -123,-182c-23,-24 -44,-43 -47,-43c-2,0 -36,-22 -76,-48c-156,-105 -293,-152 -443,-152c-88,0 -207,20 -244,41c-8,4 -37,19 -65,33c-197,98 -351,340 -375,589c-10,109 4,307 26,348c7,15 14,39 14,52c0,14 7,30 15,37c8,7 15,19 15,27c0,21 57,119 109,188c48,64 143,150 202,183c118,66 154,80 229,92c81,13 256,3 310,-17zm300,-93c22,-22 25,-30 10,-30c-10,0 -50,36 -50,45c0,12 21,4 40,-15zm110,-135c0,-8 -4,-15 -10,-15c-5,0 -10,7 -10,15c0,8 5,15 10,15c6,0 10,-7 10,-15z" id="svg_73"/>
   <path d="m4500,2766c0,-14 5,-26 10,-26c6,0 10,9 10,19c0,11 -4,23 -10,26c-6,4 -10,-5 -10,-19z" id="svg_74"/>
   <path d="m3332,3342c-65,-42 -173,-162 -200,-224c-18,-42 3,-33 35,14c15,23 67,82 114,130c75,76 95,108 51,80z" id="svg_75"/>
   <path d="m3100,3235c-7,-9 -10,-18 -7,-21c10,-11 37,5 37,21c0,19 -14,19 -30,0z" id="svg_76"/>
   <path d="m4494,3128c-4,-6 1,-17 11,-25c34,-24 46,-13 21,20c-15,20 -22,21 -32,5z" id="svg_77"/>
   <path d="m3080,1961c0,-15 92,-141 102,-141c16,0 7,16 -37,67c-25,28 -45,56 -45,62c0,5 -4,13 -10,16c-5,3 -10,1 -10,-4z" id="svg_78"/>
   <path d="m3040,1782c0,-5 7,-16 16,-23c14,-12 16,-11 13,5c-4,20 -29,35 -29,18z" id="svg_79"/>
   <path d="m4501,1566c-7,-9 -18,-16 -24,-16c-6,0 -25,-13 -42,-29c-30,-28 -238,-141 -261,-141c-6,0 -22,-8 -35,-18c-13,-11 -37,-22 -54,-27c-29,-7 -30,-7 -7,-18c17,-8 26,-6 40,6c10,9 27,13 43,10c61,-11 372,194 357,237c-3,9 -8,8 -17,-4z" id="svg_80"/>
   <path d="m3525,1380c3,-5 13,-10 21,-10c8,0 12,5 9,10c-3,6 -13,10 -21,10c-8,0 -12,-4 -9,-10z" id="svg_81"/>
   <path d="m3127,1364c-4,-4 -7,-16 -7,-26c0,-10 -7,-18 -15,-18c-19,0 -20,-19 -1,-26c18,-7 58,32 54,53c-3,18 -21,27 -31,17z" id="svg_82"/>
   <path d="m4425,1350c-4,-6 -15,-8 -24,-5c-11,3 -25,-3 -36,-15c-10,-11 -13,-20 -7,-20c15,0 16,-27 1,-36c-6,-3 -16,-1 -22,5c-16,16 -24,14 -30,-9c-4,-16 -11,-19 -37,-13c-30,6 -32,5 -25,-18c11,-37 19,-41 51,-25c16,8 47,23 69,33c22,10 44,24 48,31c4,6 18,12 31,12c13,0 31,9 40,19c16,18 16,20 -15,35c-38,19 -36,19 -44,6z" id="svg_83"/>
   <path d="m3725,1320c3,-5 15,-10 26,-10c10,0 19,5 19,10c0,6 -12,10 -26,10c-14,0 -23,-4 -19,-10z" id="svg_84"/>
   <path d="m3912,1311c-11,-7 -10,-10 3,-15c19,-7 35,0 35,15c0,11 -20,12 -38,0z" id="svg_85"/>
   <path d="m5373,1100c-6,-14 -28,-43 -49,-65c-22,-23 -55,-61 -74,-85c-19,-25 -48,-59 -65,-76c-16,-17 -42,-44 -56,-60c-63,-70 -345,-294 -370,-294c-6,0 -17,-7 -25,-15c-9,-8 -24,-15 -35,-15c-11,0 -22,-7 -25,-15c-4,-8 -14,-15 -24,-15c-11,0 -22,-5 -25,-11c-4,-5 -18,-14 -31,-19c-13,-5 -24,-14 -24,-20c0,-15 38,-12 73,6c18,9 41,21 51,26c196,100 332,199 499,365c8,9 87,117 124,171c13,18 30,47 39,65c9,17 21,35 26,38c6,4 8,15 6,25c-4,17 -6,16 -15,-6z" id="svg_86"/>
   <path d="m5162,1028c-7,-7 -12,-19 -12,-28c0,-8 -21,-31 -46,-50c-25,-19 -80,-68 -121,-107c-42,-40 -80,-73 -85,-73c-4,0 -27,-17 -51,-38c-23,-21 -60,-49 -82,-63c-22,-14 -67,-43 -100,-64c-132,-84 -165,-107 -165,-116c0,-12 26,-11 48,1c9,5 28,15 42,20c14,6 39,19 55,30c17,11 37,23 45,27c105,50 406,303 441,370c8,15 26,42 41,58c16,17 28,33 28,38c0,11 -25,8 -38,-5z" id="svg_87"/>
   <path d="m4505,390c-4,-6 7,-10 24,-10c17,0 31,5 31,10c0,6 -11,10 -24,10c-14,0 -28,-4 -31,-10z" id="svg_88"/>
   <path d="m4405,360c-4,-6 6,-10 24,-10c16,0 33,5 36,10c4,6 -6,10 -24,10c-16,0 -33,-4 -36,-10z" id="svg_89"/>
  </g>
  <path stroke="#000000" fill="#007fff" stroke-width="5" d="m60.140045,655.576079c0.209471,-21.29033 -0.134034,-42.609107 1.722568,-63.861996c45.619963,6.991278 90.701882,18.430712 135.553129,28.718102c2.407804,-10.439505 1.274515,-19.099203 3.366546,-28.751259c28.814304,20.310589 57.368789,40.910389 84.753004,62.491139c-26.272485,24.48001 -56.40799,45.739201 -85.992973,67.508848c-0.958025,-10.137813 -1.916219,-20.275534 -2.874262,-30.413348c-43.603917,9.807858 -89.716503,19.948225 -133.602326,28.914493c-2.984454,-20.689271 -2.896727,-43.220504 -2.925667,-64.605994l-0.000019,0.000015z" id="svg_92"/>
  <circle id="svg_90" r="79.981247" cy="650" cx="386" stroke-linecap="null" stroke-linejoin="null" stroke-dasharray="null" stroke-width="5" stroke="#000000" fill="#003f7f"/>
 </g>
</svg>