<?xml version="1.0" encoding="utf-8"?>
<!-- Generator: Adobe Illustrator 21.0.0, SVG Export Plug-In . SVG Version: 6.00 Build 0)  -->
<svg version="1.1" id="Layer_1" xmlns="http://www.w3.org/2000/svg" xmlns:xlink="http://www.w3.org/1999/xlink" x="0px" y="0px"
	 viewBox="0 0 1579.1 1460.5" style="enable-background:new 0 0 1579.1 1460.5;" xml:space="preserve">
<g>
	<path d="M462,130.3c-9.3-27.7-18.7-55.4-27.9-83.1c-4.6-13.6-10.8-25.9-24.8-31.7c-14.3-6-34.4-3-49.5-3c-55.6,0-111.2,0-166.8,0
		c-19.4,0-40.4-2.2-44.3,22.6c-1,6.2-1.5,12.6-2.2,18.8c-4.8,41.7-9.7,83.5-14.5,125.2c-13.4,115.4-26.8,230.8-40.1,346.2
		c-16.5,142.3-33,284.6-49.5,426.9c-6.6,57.2-13.3,114.4-19.9,171.5c-1.8,15.5-3.8,30.7-5.6,45.9c-2.2,18.8-3.4,38.4,2.4,56.7
		c4,12.7,10.7,24.4,16.9,36.2c24,46.2,48,92.3,72,138.5c8.9,17,15.8,35.8,35.7,42.7c17.4,6,39,3.1,57,3.1c29.7,0,59.5,0,89.2,0
		c19.8,0,45.5,3.3,63.9-5.2c19.2-9,27.7-28.4,30.9-48.3c3.9-23.9,5.1-48.4,7.5-72.4c6.2-62.1,12.4-124.2,18.6-186.2
		c12.3-123.2,24.6-246.5,36.9-369.7c11.7-117.3,23.4-234.6,35.1-351.9c4.2-42.1,8.4-84.2,12.6-126.3c0.7-7.5,1.7-14.9,2.2-22.4
		c1.8-25.1-6.5-46.9-14.3-70.1C476.3,172.7,469.1,151.5,462,130.3z M358.6,1312.1c7.7-74.4,15.5-148.9,23.2-223.3
		c5.9-57.1,11.9-114.3,17.8-171.4c6.9-66.9,13.9-133.7,20.8-200.6c10.8-103.8,21.6-207.7,32.3-311.5c4.3-41.4,8.6-82.9,12.9-124.3
		c1.4-13.7,2.8-27.4,4.3-41.1c0.7-6.6,0-15.6,2.3-21.9c0.3-0.9,0.2-2.1,0.3-3c6.8,20.2,9.1,39.2,7,60c-2,19.8-4,39.6-5.9,59.4
		c-6.9,68.8-13.7,137.6-20.6,206.5c-10.7,107.7-21.5,215.3-32.2,323c-16.4,164.3-32.8,328.6-49.2,492.9
		C367.7,1341.7,363.3,1326.8,358.6,1312.1z M309.7,1370.8c-17.2-41.1-34.3-83-44.9-126.4c-3.4-13.8-7.4-29.8-5.3-44.1
		c1-6.5,1-7.2,6.4-9.5c4.4-1.9,9.3-2.1,13.7-4.5c8.1-4.4,13.9-11.6,17-20.2c17.3,42.1,33.9,84.6,48.5,127.7
		c5.8,17.1,9,32.5,0.5,49.6C338.5,1357.7,324.7,1366.3,309.7,1370.8z M353.2,1295.6c-15.4-46.1-36.2-90.4-51.8-136.4
		c-2.7-8-1-14.8-0.1-23.3c4.4-41.3,8.8-82.7,13.2-124c10.3-96.8,20.6-193.5,30.8-290.3c5.1-47.7,10.1-95.4,15.2-143.2
		c10.1-94.9,20.2-189.8,30.2-284.8c5.5-51.5,10.9-103.1,16.4-154.6c1.9-18.3,3.9-36.5,5.8-54.8c1.1-10,0.8-21.4,3.3-31.2
		c0.3-1.3,0.3-2.7,0.4-4c11.5,34.4,23.1,68.7,34.6,103.1c4.9,14.5,14.2,32,15.6,47.3c1.3,15-3.4,32.8-4.9,47.6
		c-9,87.1-18.1,174.2-27.1,261.4c-11.9,115-23.9,230-35.8,345c-9.1,87.8-18.2,175.6-27.3,263.3c-5.6,54.3-11.3,108.5-16.9,162.8
		C354.3,1284.8,353.7,1290.2,353.2,1295.6z M252.4,1213.8c3.9,54,29.5,108.7,50,157.8c-51.7,0-103.4,0-155.1,0c-9.7,0-21.4,1.9-31,0
		c-5.5-1.1-3.4,0.3-6.8-5.1c-15.7-24.4-27.4-52.7-40.8-78.4c-15.6-30.1-37.5-61.5-36.5-96.3c13.2,7.5,33.8,3.2,48.3,2.8
		c19.7-0.5,39.4-1,59.1-1.4c38.2-0.8,76.5-0.8,114.7-1.6C251.8,1198.6,251.8,1206.5,252.4,1213.8z M260,1184.4
		c-41.2,0.2-82.3,0.6-123.5,1.5c-20.8,0.4-41.6,1-62.4,1.7c-10.5,0.3-39.1,3.6-41-10.4c-1.4-9.8,3.2-25.2,4.3-35.1
		c2.8-24,5.6-48.1,8.4-72.1c18-154.9,36-309.8,53.9-464.7c6.9-59.4,13.8-118.8,20.7-178.1c11.4-98.2,22.8-196.3,34.1-294.5
		c3.3-28.7,6.7-57.5,10-86.2c0.7-5.7,0.3-14.3,5.7-16.7c8.2-3.7,25.1-0.3,33.6-0.3c47.9,0,95.8,0,143.6,0c12.3,0,61.5-6.8,62.8,11.6
		c0.6,8.3-1.9,18.1-2.8,26.4c-1.7,15.7-3.3,31.4-5,47.1c-4.8,45.4-9.6,90.8-14.5,136.3c-10,94.6-20.1,189.1-30.1,283.7
		c-5.7,53.7-11.4,107.5-17.1,161.2c-15.8,148.9-31.6,297.7-47.5,446.6C291,1163.4,285.6,1182.2,260,1184.4z M327.3,1429.7
		c-42,0-84.1,0-126.1,0c-14.6,0-30.3,1.7-44.8-0.4c-23.1-3.5-31.2-32.4-40.7-50.6c37.1,0,74.3,0,111.4,0c21.4,0,42.7,0,64.1,0
		c3.1,0,10.7-1.4,13.6,0c3.5,1.7,6.3,13.7,8.1,17.8C314.5,1400.2,325.4,1429.7,327.3,1429.7z M368,1390.5
		c-2.2,14-9.3,35.6-26.5,37.4c-7.4,0.8-6.4,1.2-9.7-6.1c-2.2-4.8-4.3-9.7-6.4-14.5c-4.4-9.9-8.7-19.9-12.9-29.9
		c22.4-6.9,39.9-22.6,44.6-46.2C362.8,1350.4,371.2,1370.3,368,1390.5z"/>
	<path d="M1560.3,211c-6.3-25.6-15.6-50.8-23.3-76c-8.1-26.4-13.7-56.6-26.4-81.3c-24.4-47.5-82.5-40-127.5-40
		c-139.1,0-278.2,0-417.4,0c-58.9,0-117.9,0-176.8,0c-12.2,0-24.4-0.3-36.5,0c-12.5,0.3-24.9,2.5-35.8,9.1
		c-24.8,15-27.2,40.9-29.9,66.9c-20.3,198.4-40.6,396.9-60.9,595.3c-14,137.1-28.1,274.1-42.1,411.2c-1.1,11.1-2.3,22.3-3.4,33.4
		c-6.4,65,10.1,122.4,39.5,180c13.7,27,27.9,53.7,41.9,80.5c4.6,8.8,8.7,18.3,14.2,26.6c13.3,19.8,36.5,27.7,59.2,30.2
		c34.7,3.9,71.1,1.1,106,1.1c69.9,0,139.8,0,209.7,0c118.9,0,237.8,0,356.7,0c30,0,53.1-13.4,63.9-42.8c8.4-22.8,8.2-48.5,10-72.5
		c3-38.6,6-77.1,9-115.7c8.2-105.1,16.4-210.1,24.6-315.2c12.6-161.9,25.3-323.7,37.9-485.6C1558.2,349,1570.5,278.4,1560.3,211z
		 M1412.8,1430.1c-11-16.5-19.7-34.6-28-52.5c39-9.9,62.3-40.5,69.3-79.2c2.9,11.5,5.6,23.1,8.1,34.7c2.6,12.3,0.3,25.7-0.9,38.2
		c-1.4,14.8-4.6,30.9-13.6,43.2C1443.8,1419.9,1419.1,1439.6,1412.8,1430.1z M1385.4,1395.3c6,12.2,12.3,24.4,19.6,35.8
		c-86.7,0-173.4,0-260.1,0c-119,0-237.9,0-356.9,0c-10.2,0-20.5,0.1-30.7,0c-20.3-0.2-44.2-1.4-60.2-15.6
		c-10.6-9.4-16-24.6-22.4-36.8c81.7,0,163.5,0,245.2,0c127.5,0,255,0,382.5,0c19.5,0,39,0,58.5,0c3.9,0,10.3-1.3,13.9,0
		C1381.1,1380.8,1382.3,1389,1385.4,1395.3z M637.3,1306.7c-22.1-42.5-41-88.3-42-136.9c19.1,18.5,54.1,11.5,77.7,11.1
		c33.6-0.6,67.1-1.2,100.7-1.6c67.8-0.8,135.6-1.2,203.4-1.2c71.4,0,142.8,0.5,214.2,1.4c36.9,0.5,73.8,1,110.7,1.7
		c4.4,0.1,15.1-1.4,16.9,1.7c1.5,2.5,0.6,9.7,0.9,12.7c1.2,11.2,3.3,22.4,5.7,33.4c10.8,49,28.5,96.8,48.8,142.6
		c-93.6,0-187.1,0-280.7,0c-128.9,0-257.8,0-386.8,0c-8,0-16,0-23.9,0c-2.6,0-8.9,1.2-11.3,0c-5.4-2.8-10.8-19.7-13.6-25.2
		C651.1,1333.1,644.2,1319.9,637.3,1306.7z M1500,72.8c12.4,40.2,27.5,80.5,37.4,121.4c2.5,10.2,0,21.2-0.9,31.6
		c-6.1,73.8-12.2,147.6-18.3,221.4c-9.3,112-18.5,224-27.8,336.1c-8.7,104.7-17.3,209.3-26,314c-3,36-6,72.1-8.9,108.1
		c-0.9,11.2-1.9,22.4-2.8,33.6c-0.4,5.2,0.4,13.1-1.5,18.1c-0.2,0.6-0.1,1.6-0.2,2.3c-7.3-25.8-15.3-51.4-23.8-76.8
		c-4.1-12.4-8.4-24.7-12.7-37.1c-2.6-7.4-7.8-16.6-8.4-24.3c-1.2-15.3,2.7-32.5,3.9-47.8c6.2-75.6,12.5-151.2,18.7-226.8
		c9.6-116.2,19.2-232.4,28.8-348.6c12.1-146.5,24.2-292.9,36.2-439.4C1496.5,63.1,1498.5,67.9,1500,72.8z M1381.9,1371
		c-16.7-37.3-31.2-75.8-42.3-115.1c-6.8-24.1-12.9-49.1-13.7-74.3c34.7,0.3,62.5-15.8,76.8-48.3c15.9,44.3,30.7,89.1,43.3,134.5
		C1458.6,1312.6,1425.5,1360.4,1381.9,1371z M1399,1122.1c-6,36.6-42.5,52.8-75.3,52.4c-62.8-0.6-125.6-2.1-188.4-2.7
		c-126.2-1.2-252.4-1.1-378.6,0.6c-29.8,0.4-59.5,0.9-89.3,1.5c-15.8,0.3-32.7,2.7-48.4-0.2c-8.2-1.5-20.6-6.2-23.6-15
		c-3.4-9.9,2.1-30.8,3.3-42.8c1.9-18.2,3.7-36.4,5.6-54.6c12.6-122.7,25.1-245.3,37.7-368c15.5-151.6,31-303.1,46.5-454.7
		c3.3-32.6,6.7-65.2,10-97.8c1.6-15.3,3.1-30.7,4.7-46c1.5-14.4,1-30.2,8.4-43.2c9.9-17.4,28.1-20.9,46.4-20.9
		c34.9,0,69.7,0,104.6,0c126.1,0,252.2,0,378.3,0c49.9,0,99.8,0,149.8,0c23.8,0,90.9-6.8,96.6,21.7c1.3,6.8-1.5,17.7-2,24.6
		c-0.6,7.3-1.2,14.6-1.8,21.8c-1.4,17.3-2.9,34.6-4.3,51.9c-2.7,32.8-5.4,65.7-8.1,98.5c-3,36.9-6.1,73.7-9.1,110.6
		c-2.4,29.1-4.8,58.2-7.2,87.2c-10.1,122.3-20.2,244.6-30.3,366.9c-8,97.5-16.1,194.9-24.1,292.4
		C1399.9,1111.6,1399.4,1116.8,1399,1122.1z M1465.7,1315.8c-3-13-8.8-26.6-8.9-39.9c0-6.8,1.1-13.8,1.7-20.5
		c2.4-29.2,4.8-58.3,7.2-87.5c7.8-94.9,15.7-189.8,23.5-284.7c8.1-97.5,16.1-194.9,24.2-292.4c3.6-43,7.1-86.1,10.7-129.1
		c6.5-78.3,13-156.7,19.4-235c0.2-2.6,0.4-5.2,0.6-7.7c6.5,51.7-1,104-5,155.7c-4.3,54.6-8.5,109.1-12.8,163.7
		c-4.4,56.6-8.8,113.3-13.3,169.9c-6.1,78.6-12.3,157.2-18.4,235.8C1485,1067.9,1475.4,1191.9,1465.7,1315.8z"/>
	<path d="M338.3,567.4c-27.2,0-54.5,0-81.7,0c-7.9,0-15.7,0-23.6,0c-3.4,0-11.5-1.6-14.7,0c-6,3-5.9,18.7-7.4,26.3
		c27.3,0,54.5,0,81.8,0c7.9,0,15.8,0,23.6,0c3.4,0,11.6,1.6,14.7,0C337.2,590.6,337,574.9,338.3,567.4z M327.7,586.6
		c-36,0-72.1,0-108.1,0c1.8-9.8-0.2-12.1,9.3-12.1c12.4,0,24.9,0,37.3,0c21.2,0,42.5,0,63.7,0C329.1,578.5,328.4,582.5,327.7,586.6z
		"/>
	<path d="M683.9,593.6c27.3,0,54.6,0,81.9,0c7.9,0,15.8,0,23.7,0c3.4,0,11.6,1.6,14.7,0c5.9-3,5.1-18.7,6.2-26.3
		c-27.3,0-54.5,0-81.8,0c-7.9,0-15.8,0-23.6,0c-3.4,0-11.6-1.6-14.7,0C684.4,570.4,685,586.1,683.9,593.6z M694,574.5
		c36.1,0,72.2,0,108.2,0c-1.5,10.3,0.6,12.1-9.3,12.1c-12.3,0-24.7,0-37,0c-21.3,0-42.5,0-63.8,0C692.7,582.5,693.4,578.5,694,574.5
		z"/>
</g>
</svg>
