<?xml version="1.0" standalone="no"?>
<!DOCTYPE svg PUBLIC "-//W3C//DTD SVG 20010904//EN"
 "http://www.w3.org/TR/2001/REC-SVG-20010904/DTD/svg10.dtd">
<svg version="1.0" xmlns="http://www.w3.org/2000/svg"
 width="900.000000pt" height="900.000000pt" viewBox="0 0 900.000000 900.000000"
 preserveAspectRatio="xMidYMid meet">
<metadata>
Created by potrace 1.10, written by Peter Selinger 2001-2011
</metadata>
<g transform="translate(0.000000,900.000000) scale(0.100000,-0.100000)"
fill="#000000" stroke="none">
<path d="M3715 8830 c-128 -14 -250 -40 -313 -66 -18 -8 -40 -14 -50 -14 -45
0 -310 -125 -436 -205 -186 -119 -432 -359 -540 -527 -20 -31 -40 -60 -46 -63
-6 -3 -19 -23 -29 -43 -51 -101 -103 -198 -112 -206 -5 -6 -9 -16 -9 -23 0 -7
-11 -36 -24 -65 -33 -74 -51 -123 -75 -198 -42 -133 -51 -170 -51 -207 0 -22
-7 -48 -15 -59 -8 -11 -15 -42 -15 -74 0 -30 -7 -82 -15 -115 -20 -83 -20
-374 0 -478 8 -43 15 -102 15 -130 0 -30 7 -60 15 -71 8 -11 15 -41 15 -67 0
-26 4 -50 9 -54 6 -3 13 -27 17 -53 6 -43 18 -79 61 -182 12 -31 13 -116 8
-585 -3 -303 -10 -640 -14 -750 -5 -110 -10 -427 -12 -705 -1 -278 -3 -536 -4
-575 -10 -518 -16 -814 -20 -925 -7 -196 15 -465 50 -600 9 -36 20 -81 24
-101 4 -19 11 -42 16 -49 5 -7 12 -30 16 -49 4 -20 17 -61 29 -91 11 -30 28
-74 36 -98 21 -59 102 -213 159 -302 175 -271 428 -511 670 -635 175 -90 159
-83 290 -127 33 -11 68 -24 77 -29 10 -5 29 -9 42 -9 14 0 37 -5 52 -11 31
-11 198 -37 319 -48 78 -7 230 11 322 38 23 7 46 5 79 -5 65 -19 178 -14 182
8 3 15 -4 17 -62 11 -47 -4 -66 -3 -66 6 0 15 45 32 65 25 8 -4 15 -1 15 5 0
8 -52 11 -177 9 -288 -4 -518 20 -728 76 -123 33 -306 111 -383 164 -20 13
-45 28 -56 33 -12 5 -37 22 -57 37 -20 15 -60 46 -90 68 -80 61 -211 190 -268
264 -27 36 -60 78 -73 95 -84 108 -217 374 -265 530 -92 297 -97 339 -98 825
-1 223 2 524 6 670 4 146 10 517 14 825 3 308 8 646 10 750 16 588 18 842 10
1082 -4 139 -8 171 -29 226 -24 64 -71 232 -88 317 -29 147 -41 592 -18 720 6
30 14 82 20 115 5 33 16 83 24 110 8 28 24 83 35 123 64 221 150 386 321 612
77 101 299 339 364 389 53 40 176 118 206 130 19 8 42 20 50 26 8 7 38 22 65
34 28 12 58 27 69 32 24 14 160 58 211 69 208 47 315 61 425 55 163 -8 305
-24 351 -40 23 -8 56 -15 74 -15 19 0 54 -9 80 -20 26 -11 55 -20 65 -20 11 0
40 -11 66 -25 58 -31 84 -32 84 -5 0 23 10 26 28 8 9 -9 8 -16 -4 -29 -20 -22
1 -38 23 -17 30 31 -29 128 -79 128 -27 0 -121 53 -111 63 10 11 56 8 125 -7
35 -8 105 -17 157 -20 98 -7 213 -34 291 -68 129 -58 276 -134 356 -186 10 -6
26 -15 34 -18 37 -14 45 -23 48 -53 2 -17 8 -31 13 -31 29 0 115 -55 213 -136
79 -66 121 -94 146 -98 26 -4 45 -17 71 -48 20 -24 39 -53 43 -66 4 -12 20
-35 37 -51 16 -16 29 -36 29 -44 0 -8 7 -20 15 -27 8 -7 15 -23 15 -36 0 -13
4 -24 9 -24 9 0 57 -94 74 -142 4 -10 11 -18 17 -18 5 0 10 -15 10 -34 0 -18
7 -39 15 -46 8 -7 15 -21 15 -32 0 -27 19 -60 31 -53 5 4 9 15 9 26 0 24 -45
124 -59 134 -6 3 -11 17 -11 31 0 14 -7 27 -15 30 -8 4 -15 16 -15 29 0 12 -7
28 -15 35 -8 7 -15 18 -15 24 0 6 -11 31 -25 56 -13 25 -29 56 -35 70 -6 13
-14 27 -18 30 -13 9 -52 89 -52 104 0 24 13 20 66 -23 85 -68 165 -169 224
-282 51 -97 71 -118 99 -105 19 8 26 5 47 -20 39 -47 75 -131 68 -158 -3 -13
-1 -27 5 -31 15 -9 81 -151 81 -173 0 -10 6 -27 14 -38 14 -19 37 -107 65
-239 19 -93 46 -451 42 -575 -3 -104 -18 -157 -90 -299 -15 -29 -28 -21 -35
21 -13 77 -23 21 -29 -152 -6 -158 -14 -222 -39 -283 -8 -22 -17 -28 -37 -27
-45 3 -49 1 -72 -46 -22 -43 -24 -44 -32 -22 -5 13 -11 166 -12 341 -1 175 -5
320 -9 324 -3 3 -6 -158 -6 -358 -1 -627 -10 -1267 -20 -1449 -6 -96 -13 -663
-17 -1260 -3 -597 -10 -1093 -14 -1102 -5 -9 -9 -38 -10 -65 0 -26 -4 -70 -10
-98 -5 -27 -13 -83 -19 -124 -5 -40 -13 -78 -18 -85 -6 -6 -13 -30 -17 -54 -4
-24 -13 -56 -21 -70 -8 -15 -14 -36 -14 -47 0 -11 -7 -29 -15 -39 -8 -11 -15
-28 -15 -38 0 -10 -4 -26 -10 -36 -18 -32 -110 -231 -110 -237 0 -4 -28 -51
-62 -106 -35 -55 -72 -116 -84 -135 -27 -45 -73 -92 -96 -100 -11 -3 -23 -16
-28 -29 -9 -24 -107 -95 -132 -95 -8 0 -23 -6 -34 -14 -19 -15 -19 -15 0 -29
27 -20 17 -38 -51 -92 -165 -130 -335 -217 -251 -128 l21 23 -21 0 c-11 0 -25
-6 -29 -13 -13 -21 -156 -86 -235 -108 -29 -8 -48 -20 -51 -31 -5 -17 -31 -24
-82 -20 -23 1 -87 -14 -130 -32 -50 -21 -99 -38 -125 -43 -14 -2 -38 -11 -55
-18 -79 -35 -198 -52 -375 -55 -69 -1 -126 -3 -128 -5 -2 -2 11 -12 30 -22 29
-16 59 -18 248 -18 213 0 292 9 365 40 17 8 42 11 56 8 15 -3 40 2 57 11 17 9
47 16 66 16 19 0 37 4 40 9 3 5 29 15 57 21 29 7 64 19 78 26 14 8 32 14 39
14 7 0 52 18 100 40 126 59 154 73 182 91 214 139 311 215 444 344 83 82 119
124 190 222 97 135 125 178 164 253 21 41 50 96 64 121 31 57 143 393 158 474
6 33 15 102 20 154 5 52 11 104 14 115 8 34 15 496 21 1396 7 955 14 1829 18
2000 l2 115 31 14 c23 10 38 27 53 65 12 28 27 58 32 66 5 8 12 22 15 30 20
49 36 87 43 100 17 31 81 287 81 322 0 8 6 20 13 26 7 8 12 45 13 100 0 61 6
98 18 124 12 24 15 45 10 60 -4 13 -8 70 -9 128 -2 153 -14 297 -30 360 -7 30
-19 82 -25 115 -13 64 -73 254 -95 295 -7 14 -36 72 -65 130 -129 260 -365
521 -592 655 -64 38 -101 55 -109 50 -13 -9 -11 -25 4 -25 18 0 59 -47 48 -55
-15 -9 -69 34 -75 60 -9 37 -403 325 -444 325 -7 0 -12 4 -12 10 0 5 -12 13
-26 16 -14 4 -45 17 -68 29 -22 12 -70 32 -106 44 -36 13 -69 26 -75 31 -5 4
-28 11 -50 15 -22 4 -50 13 -62 21 -12 8 -43 14 -68 14 -25 0 -56 6 -68 14
-17 11 -68 14 -232 14 -201 -1 -264 5 -500 43 -87 14 -327 19 -420 9z m2629
-5653 c-2 -66 -6 -123 -9 -125 -3 -3 -5 57 -5 134 0 85 4 134 9 125 5 -8 7
-68 5 -134z m6 -232 c0 -8 -4 -17 -10 -20 -6 -4 -10 5 -10 20 0 15 4 24 10 20
6 -3 10 -12 10 -20z m-10 -155 l-7 -75 -1 95 c0 56 3 87 7 75 4 -11 5 -54 1
-95z"/>
<path d="M4710 8680 c-44 -6 -45 -6 -15 -14 17 -5 35 -12 40 -16 6 -5 28 -11
50 -15 22 -4 50 -13 62 -21 12 -8 30 -14 40 -14 10 0 45 -12 78 -25 70 -29
135 -42 135 -27 0 5 -12 15 -27 21 -16 6 -42 20 -60 30 -17 11 -49 23 -70 26
-42 7 -69 17 -125 46 -20 10 -43 18 -50 17 -7 0 -33 -4 -58 -8z"/>
<path d="M3570 8640 c-14 -5 -46 -11 -72 -15 -27 -3 -48 -10 -48 -14 0 -14
125 1 165 20 39 18 40 18 10 18 -16 0 -41 -4 -55 -9z"/>
<path d="M3235 8529 c-59 -32 -66 -39 -42 -39 15 0 30 7 33 15 4 8 15 15 27
15 20 0 107 37 107 46 0 16 -66 -4 -125 -37z"/>
<path d="M3774 8516 c-33 -24 -36 -54 -9 -82 36 -36 70 -31 94 14 28 52 -35
103 -85 68z"/>
<path d="M5128 8518 c9 -9 15 -9 24 0 9 9 7 12 -12 12 -19 0 -21 -3 -12 -12z"/>
<path d="M4503 8507 c5 -15 37 -22 37 -9 0 5 -9 12 -21 15 -13 3 -19 1 -16 -6z"/>
<path d="M2980 8395 c-7 -9 -10 -19 -6 -22 8 -9 38 9 44 25 5 17 -23 15 -38
-3z"/>
<path d="M4854 8378 c15 -18 39 -50 54 -70 15 -21 32 -37 38 -38 16 0 54 -44
54 -63 0 -9 19 -35 42 -59 50 -52 63 -73 72 -123 8 -40 42 -80 89 -104 15 -8
27 -22 27 -32 0 -10 6 -22 13 -26 8 -4 16 -16 20 -25 3 -10 11 -18 17 -18 15
0 12 16 -5 30 -8 7 -15 20 -15 29 0 22 -31 82 -64 126 -14 18 -26 40 -26 49 0
8 -6 19 -13 23 -7 4 -35 37 -62 73 -54 71 -241 260 -257 260 -6 0 1 -15 16
-32z"/>
<path d="M3630 8330 c-231 -29 -529 -167 -700 -323 -123 -113 -141 -131 -188
-195 -26 -35 -62 -81 -79 -102 -18 -20 -33 -41 -33 -46 0 -4 -18 -39 -41 -77
-39 -65 -89 -196 -109 -282 -5 -22 -17 -58 -26 -80 l-17 -40 -13 50 c-8 28
-14 102 -14 168 0 80 -3 116 -11 112 -6 -4 -9 -51 -7 -128 1 -67 -2 -128 -6
-136 -13 -21 -39 -295 -51 -549 -2 -35 -5 -66 -9 -69 -3 -3 2 -22 10 -42 10
-25 14 -53 10 -91 -6 -55 5 -188 21 -265 12 -60 37 -53 43 12 3 29 11 58 17
64 11 11 20 -13 78 -226 16 -60 40 -120 60 -150 17 -27 39 -61 48 -75 136
-210 317 -365 567 -486 223 -108 519 -145 756 -95 111 23 193 46 239 66 159
69 259 127 375 217 34 27 230 216 230 223 0 2 24 40 54 83 30 42 61 93 70 112
9 19 30 60 47 90 17 30 36 73 44 95 7 22 23 66 35 99 28 78 56 233 75 423 18
186 -7 526 -49 654 -7 24 -22 71 -32 104 -10 33 -37 100 -61 148 -24 48 -43
91 -43 96 0 5 -7 14 -15 21 -9 7 -39 50 -69 94 -38 59 -86 111 -173 191 -150
136 -159 142 -269 202 -93 51 -188 88 -264 105 -25 5 -58 14 -75 20 -38 13
-338 19 -425 8z m320 -90 c118 -19 157 -27 210 -45 75 -24 289 -129 320 -157
14 -13 47 -41 74 -63 177 -144 332 -374 410 -609 52 -157 68 -258 73 -461 5
-187 -1 -263 -32 -410 -103 -502 -446 -912 -893 -1071 -53 -18 -107 -34 -120
-34 -12 0 -39 -7 -60 -16 -55 -23 -415 -23 -460 0 -17 9 -41 16 -52 16 -26 0
-121 29 -135 41 -5 5 -16 9 -25 9 -8 0 -32 9 -53 20 -20 11 -52 28 -70 38 -83
44 -183 120 -265 200 -89 87 -192 214 -192 237 0 7 -6 18 -14 24 -48 40 -186
409 -186 499 -1 26 -7 65 -15 87 -21 56 -21 354 0 410 8 22 14 57 15 79 0 63
85 311 147 431 95 185 218 350 333 449 136 116 132 113 318 212 24 13 74 33
110 45 37 11 78 26 92 32 14 6 50 14 80 18 30 5 78 12 105 17 65 12 215 13
285 2z"/>
<path d="M3625 7670 c-59 -12 -135 -43 -210 -85 -75 -41 -205 -164 -205 -191
1 -17 3 -16 23 6 48 55 253 180 294 180 8 0 27 6 41 14 44 23 211 35 283 20
34 -7 66 -17 72 -23 6 -6 21 -11 33 -11 13 0 26 -4 29 -10 3 -5 31 -22 61 -36
30 -14 54 -29 54 -32 1 -4 25 -25 54 -47 53 -39 158 -169 190 -235 41 -83 76
-200 76 -254 0 -43 5 -61 21 -77 31 -31 44 -19 43 42 -2 189 -93 380 -257 547
-50 50 -95 92 -99 92 -4 0 -27 14 -51 30 -25 17 -48 30 -51 30 -4 0 -28 10
-54 22 -40 19 -66 23 -177 24 -71 1 -148 -2 -170 -6z"/>
<path d="M3604 7470 c-29 -12 -39 -56 -19 -86 19 -29 29 -30 55 -4 22 22 27
69 8 88 -14 14 -15 14 -44 2z"/>
<path d="M3778 7469 c-12 -6 -18 -22 -18 -45 0 -27 5 -37 26 -46 24 -11 29 -9
50 15 13 16 24 36 24 46 0 36 -44 53 -82 30z"/>
<path d="M3962 7397 c-37 -39 -24 -87 24 -87 24 0 54 38 54 69 0 19 -26 41
-48 41 -5 0 -18 -10 -30 -23z"/>
<path d="M3396 7368 c-21 -30 -20 -51 3 -72 39 -35 88 8 76 65 -5 24 -12 29
-35 29 -18 0 -35 -8 -44 -22z"/>
<path d="M3667 7250 c-14 -23 -15 -34 -7 -50 21 -38 90 -15 90 30 0 23 -26 50
-49 50 -9 0 -25 -13 -34 -30z"/>
<path d="M4106 7264 c-23 -23 -21 -71 4 -79 27 -9 53 1 68 26 11 17 11 25 -3
45 -18 28 -47 31 -69 8z"/>
<path d="M3252 7227 c-37 -39 -23 -77 28 -77 14 0 31 5 38 12 7 7 12 24 12 38
0 51 -42 66 -78 27z"/>
<path d="M3860 7210 c-23 -23 -24 -33 -10 -61 21 -39 90 -11 90 37 0 44 -46
58 -80 24z"/>
<path d="M3488 7196 c-45 -34 -3 -101 48 -77 18 8 24 18 24 45 0 45 -35 61
-72 32z"/>
<path d="M4202 7080 c-24 -23 -27 -41 -12 -71 14 -26 55 -24 74 3 43 61 -9
117 -62 68z"/>
<path d="M3990 7065 c-26 -31 -5 -95 32 -95 15 0 48 44 48 65 0 42 -54 62 -80
30z"/>
<path d="M3158 7045 c-24 -32 -23 -71 3 -89 28 -19 44 -12 60 26 10 25 10 34
-4 57 -21 34 -38 36 -59 6z"/>
<path d="M3339 7024 c-23 -62 51 -100 79 -41 20 42 8 67 -34 67 -28 0 -36 -5
-45 -26z"/>
<path d="M3584 7025 c-27 -27 -29 -37 -14 -66 12 -21 50 -25 68 -7 7 7 12 29
12 49 0 48 -31 59 -66 24z"/>
<path d="M3756 7028 c-30 -42 -14 -78 34 -78 14 0 31 5 38 12 7 7 12 24 12 38
0 51 -55 69 -84 28z"/>
<path d="M4242 6877 c-24 -11 -38 -47 -28 -72 7 -19 69 -20 86 -1 30 37 -14
94 -58 73z"/>
<path d="M4053 6865 c-24 -17 -30 -58 -13 -85 8 -13 13 -13 37 0 23 13 28 22
28 55 0 45 -17 55 -52 30z"/>
<path d="M3851 6849 c-12 -13 -21 -28 -21 -34 0 -16 33 -45 52 -45 25 0 50 36
46 67 -4 38 -47 44 -77 12z"/>
<path d="M3482 6840 c-41 -38 -20 -85 35 -78 38 4 55 49 28 78 -23 25 -36 25
-63 0z"/>
<path d="M3667 6842 c-25 -27 -21 -60 8 -74 30 -14 55 3 55 37 0 55 -31 73
-63 37z"/>
<path d="M3132 6837 c-44 -20 -40 -88 7 -95 32 -5 51 15 51 54 0 40 -24 57
-58 41z"/>
<path d="M3302 6834 c-38 -26 -26 -84 18 -84 45 0 74 55 45 84 -20 20 -35 20
-63 0z"/>
<path d="M4430 6751 c-5 -11 -10 -40 -10 -65 0 -26 -4 -54 -9 -64 -6 -9 -22
-54 -37 -100 -31 -98 -107 -217 -189 -298 -58 -56 -173 -136 -215 -149 -14 -4
-34 -14 -45 -21 -11 -8 -29 -14 -41 -14 -25 0 -49 -24 -39 -40 14 -23 145 6
145 32 0 4 9 8 20 8 42 0 191 113 268 203 92 108 168 256 186 362 4 22 12 62
18 89 11 44 11 49 -7 62 -25 19 -32 18 -45 -5z"/>
<path d="M3763 6680 c-32 -13 -33 -74 -2 -90 31 -17 66 -5 73 26 7 28 0 64
-14 64 -5 0 -14 2 -22 4 -7 3 -23 1 -35 -4z"/>
<path d="M3568 6655 c-15 -33 3 -75 32 -75 29 0 54 53 38 80 -18 28 -56 26
-70 -5z"/>
<path d="M4192 6658 c-27 -27 -4 -98 32 -98 20 0 46 34 46 61 0 31 -17 49 -45
49 -12 0 -26 -5 -33 -12z"/>
<path d="M3982 6648 c-28 -28 -3 -88 38 -88 25 0 56 66 40 86 -15 17 -61 19
-78 2z"/>
<path d="M3352 6634 c-17 -12 -22 -24 -20 -46 4 -40 28 -56 62 -40 20 9 26 19
26 45 0 54 -27 70 -68 41z"/>
<path d="M3152 6617 c-32 -34 -28 -77 8 -89 39 -13 69 38 50 86 -12 32 -30 33
-58 3z"/>
<path d="M3847 6492 c-23 -25 -21 -58 4 -75 44 -31 94 17 71 68 -14 30 -51 33
-75 7z"/>
<path d="M3477 6482 c-31 -34 -18 -82 22 -82 33 0 47 9 55 37 16 52 -41 85
-77 45z"/>
<path d="M4096 6464 c-20 -19 -21 -68 -1 -84 15 -13 55 -5 67 14 12 17 9 61
-4 74 -17 17 -44 15 -62 -4z"/>
<path d="M3240 6430 c-33 -33 -19 -90 24 -90 49 0 78 78 37 100 -28 14 -38 13
-61 -10z"/>
<path d="M3659 6424 c-22 -23 -23 -27 -8 -52 28 -50 79 -36 79 22 0 58 -32 71
-71 30z"/>
<path d="M3946 6314 c-19 -18 -21 -55 -4 -72 7 -7 25 -12 40 -12 31 0 45 31
34 75 -7 29 -45 34 -70 9z"/>
<path d="M3390 6297 c-43 -23 -21 -91 28 -85 36 4 55 36 39 68 -15 30 -33 34
-67 17z"/>
<path d="M3572 6230 c-29 -27 -28 -56 3 -76 24 -16 27 -16 45 1 22 20 26 65 8
83 -17 17 -31 15 -56 -8z"/>
<path d="M3755 6230 c-38 -42 12 -98 64 -70 24 12 29 58 9 78 -18 18 -53 14
-73 -8z"/>
<path d="M3618 5968 c9 -9 15 -9 24 0 9 9 7 12 -12 12 -19 0 -21 -3 -12 -12z"/>
<path d="M4902 8233 c5 -25 28 -28 28 -4 0 12 -6 21 -16 21 -9 0 -14 -7 -12
-17z"/>
<path d="M4968 8169 c17 -17 34 -39 37 -50 6 -19 35 -27 35 -9 0 13 -79 90
-93 90 -6 0 3 -14 21 -31z"/>
<path d="M2690 8145 c-10 -12 -10 -15 4 -15 9 0 16 7 16 15 0 8 -2 15 -4 15
-2 0 -9 -7 -16 -15z"/>
<path d="M2642 8113 c-6 -2 -10 -9 -7 -13 7 -11 35 -2 35 11 0 10 -8 10 -28 2z"/>
<path d="M2587 8035 c-10 -14 -14 -25 -9 -25 10 0 42 33 42 43 0 14 -16 5 -33
-18z"/>
<path d="M5360 7675 c0 -8 5 -15 10 -15 6 0 10 7 10 15 0 8 -4 15 -10 15 -5 0
-10 -7 -10 -15z"/>
<path d="M6240 7439 c0 -30 4 -59 10 -65 11 -11 27 -78 39 -166 10 -63 18 -81
33 -72 13 8 2 103 -18 149 -8 19 -14 47 -14 62 -1 28 -31 128 -44 140 -3 3 -6
-18 -6 -48z"/>
<path d="M6329 7035 c-5 -93 0 -165 12 -165 11 0 11 187 -1 215 -5 14 -9 -2
-11 -50z"/>
<path d="M5222 6983 c-6 -3 -10 -9 -6 -14 7 -12 44 -12 44 0 0 11 -21 19 -38
14z"/>
<path d="M5163 6625 c2 -140 7 -258 10 -262 3 -3 13 -3 22 0 12 5 15 27 16
114 1 59 3 146 4 193 2 47 0 112 -3 145 -6 53 -10 60 -30 63 l-24 4 5 -257z"/>
<path d="M6842 6502 c-13 -9 -7 -42 7 -42 15 0 29 -48 23 -76 -8 -32 -60 -114
-73 -114 -5 0 -9 -6 -9 -14 0 -21 46 -46 85 -46 30 0 46 9 86 48 42 39 51 55
54 89 7 65 -57 143 -130 157 -16 3 -36 2 -43 -2z"/>
<path d="M6330 6335 c0 -8 5 -15 10 -15 6 0 10 7 10 15 0 8 -4 15 -10 15 -5 0
-10 -7 -10 -15z"/>
<path d="M2373 6153 c-5 -16 -8 -57 -7 -93 2 -86 2 -86 15 -73 12 12 21 193 9
193 -4 0 -12 -12 -17 -27z"/>
<path d="M5072 5628 c-7 -7 -12 -17 -12 -23 0 -5 -9 -16 -20 -23 -11 -7 -20
-21 -20 -32 0 -11 -7 -20 -15 -20 -8 0 -15 -6 -15 -14 0 -14 -36 -47 -110
-101 -23 -16 -63 -48 -88 -71 -26 -22 -65 -51 -86 -64 -22 -13 -56 -38 -75
-55 -44 -39 -163 -111 -270 -165 -74 -37 -83 -44 -68 -55 22 -16 21 -25 -2
-25 -11 0 -23 -5 -27 -11 -3 -6 -25 -19 -48 -29 l-41 -19 31 0 c17 -1 37 6 44
14 7 8 23 15 36 15 14 0 32 4 42 10 26 15 110 50 118 50 13 0 176 111 281 191
170 131 354 331 345 377 -2 6 4 12 11 12 16 0 30 27 21 41 -7 12 -18 11 -32
-3z"/>
<path d="M2520 5536 c0 -3 11 -17 25 -32 14 -15 25 -31 25 -37 0 -12 208 -217
219 -217 5 0 28 -16 52 -35 41 -33 75 -46 67 -26 -1 5 -40 36 -84 69 -45 34
-131 111 -193 172 -61 61 -111 108 -111 106z"/>
<path d="M5099 5452 c-25 -26 -56 -57 -70 -69 -13 -12 -46 -44 -73 -72 -27
-28 -52 -51 -57 -51 -5 0 -9 -7 -9 -16 0 -12 12 -9 58 17 54 30 142 110 142
128 0 4 16 24 35 44 32 33 46 67 28 67 -5 0 -29 -22 -54 -48z"/>
<path d="M2950 5147 c14 -15 33 -27 42 -27 9 0 20 -5 23 -10 8 -14 53 -36 90
-44 30 -7 29 -7 -8 18 -30 21 -105 60 -162 85 -5 2 1 -8 15 -22z"/>
<path d="M4880 5093 c-18 -16 -41 -35 -50 -45 -10 -9 -29 -19 -42 -23 -12 -4
-37 -18 -55 -31 -17 -13 -34 -24 -36 -24 -3 0 -33 -16 -67 -35 -34 -19 -70
-35 -80 -35 -10 0 -23 -7 -30 -15 -7 -8 -20 -15 -29 -15 -24 0 -101 -38 -101
-50 0 -6 -11 -10 -24 -10 -35 0 -56 -10 -56 -27 0 -11 7 -14 27 -8 15 3 43 8
63 11 72 8 236 87 374 179 33 22 70 46 83 53 12 7 23 17 23 23 0 5 6 9 13 9
14 0 67 50 67 63 0 17 -51 4 -80 -20z"/>
<path d="M3145 5052 c19 -18 208 -82 242 -82 19 0 42 -4 51 -9 28 -14 132 -24
132 -12 0 7 -22 11 -53 11 -31 0 -61 6 -73 15 -10 8 -37 15 -59 15 -22 0 -53
7 -69 15 -15 8 -37 15 -48 15 -10 0 -31 6 -46 14 -36 18 -90 31 -77 18z"/>
<path d="M4500 4980 c0 -13 11 -13 30 0 12 8 11 10 -7 10 -13 0 -23 -4 -23
-10z"/>
<path d="M4136 4910 c-13 -4 -16 -9 -8 -14 7 -4 19 -3 28 2 21 12 5 22 -20 12z"/>
<path d="M3802 3430 c-12 -5 -27 -21 -32 -34 -8 -22 -12 -24 -41 -16 -62 18
-215 -38 -324 -117 -83 -61 -183 -170 -215 -233 -12 -25 -32 -58 -44 -75 -29
-39 -66 -112 -66 -129 0 -7 -9 -25 -20 -39 -11 -14 -20 -34 -20 -45 0 -10 -8
-43 -18 -73 -11 -31 -17 -70 -14 -92 3 -23 -1 -46 -11 -61 -14 -20 -14 -28 -2
-62 8 -21 14 -67 15 -102 0 -54 7 -77 51 -170 103 -214 168 -304 293 -404 39
-32 98 -71 131 -88 33 -17 67 -34 75 -39 41 -23 236 -63 300 -62 67 2 269 52
306 76 13 8 29 15 37 15 7 0 38 18 67 40 29 22 60 40 67 40 7 0 19 11 25 25 6
14 19 25 29 25 11 0 26 14 35 33 9 17 23 36 30 40 8 4 14 15 14 24 0 9 9 26
19 37 57 60 161 331 161 416 0 45 35 80 80 80 39 0 53 21 45 70 -7 43 -27 60
-69 60 -30 0 -46 25 -46 72 0 19 -7 58 -15 88 -9 30 -19 69 -24 85 -4 17 -19
48 -33 70 -13 22 -30 54 -35 72 -27 78 -210 303 -247 303 -6 0 -19 9 -28 20
-10 11 -30 22 -45 26 -15 4 -35 12 -43 19 -35 29 -81 46 -95 35 -8 -6 -16 -7
-19 -2 -10 16 -76 22 -97 9 -15 -9 -21 -9 -27 0 -4 6 -25 25 -46 42 -40 32
-64 37 -104 21z m248 -157 c25 -9 67 -30 93 -45 26 -15 51 -28 54 -28 17 0
151 -122 186 -170 23 -30 51 -66 63 -80 13 -14 35 -47 49 -75 15 -27 33 -54
41 -58 8 -4 14 -17 14 -28 0 -11 9 -45 19 -77 33 -98 30 -355 -5 -424 -8 -15
-14 -36 -14 -47 0 -11 -6 -32 -14 -48 -8 -15 -23 -46 -33 -68 -31 -68 -78
-138 -123 -182 -23 -24 -44 -43 -47 -43 -2 0 -36 -22 -76 -48 -156 -105 -293
-152 -443 -152 -88 0 -207 20 -244 41 -8 4 -37 19 -65 33 -197 98 -351 340
-375 589 -10 109 4 307 26 348 7 15 14 39 14 52 0 14 7 30 15 37 8 7 15 19 15
27 0 21 57 119 109 188 48 64 143 150 202 183 118 66 154 80 229 92 81 13 256
3 310 -17z m300 -93 c22 -22 25 -30 10 -30 -10 0 -50 36 -50 45 0 12 21 4 40
-15z m110 -135 c0 -8 -4 -15 -10 -15 -5 0 -10 7 -10 15 0 8 5 15 10 15 6 0 10
-7 10 -15z"/>
<path d="M4500 2766 c0 -14 5 -26 10 -26 6 0 10 9 10 19 0 11 -4 23 -10 26 -6
4 -10 -5 -10 -19z"/>
<path d="M3332 3342 c-65 -42 -173 -162 -200 -224 -18 -42 3 -33 35 14 15 23
67 82 114 130 75 76 95 108 51 80z"/>
<path d="M3100 3235 c-7 -9 -10 -18 -7 -21 10 -11 37 5 37 21 0 19 -14 19 -30
0z"/>
<path d="M4494 3128 c-4 -6 1 -17 11 -25 34 -24 46 -13 21 20 -15 20 -22 21
-32 5z"/>
<path d="M3080 1961 c0 -15 92 -141 102 -141 16 0 7 16 -37 67 -25 28 -45 56
-45 62 0 5 -4 13 -10 16 -5 3 -10 1 -10 -4z"/>
<path d="M3040 1782 c0 -5 7 -16 16 -23 14 -12 16 -11 13 5 -4 20 -29 35 -29
18z"/>
<path d="M4501 1566 c-7 -9 -18 -16 -24 -16 -6 0 -25 -13 -42 -29 -30 -28
-238 -141 -261 -141 -6 0 -22 -8 -35 -18 -13 -11 -37 -22 -54 -27 -29 -7 -30
-7 -7 -18 17 -8 26 -6 40 6 10 9 27 13 43 10 61 -11 372 194 357 237 -3 9 -8
8 -17 -4z"/>
<path d="M3525 1380 c3 -5 13 -10 21 -10 8 0 12 5 9 10 -3 6 -13 10 -21 10 -8
0 -12 -4 -9 -10z"/>
<path d="M3127 1364 c-4 -4 -7 -16 -7 -26 0 -10 -7 -18 -15 -18 -19 0 -20 -19
-1 -26 18 -7 58 32 54 53 -3 18 -21 27 -31 17z"/>
<path d="M4425 1350 c-4 -6 -15 -8 -24 -5 -11 3 -25 -3 -36 -15 -10 -11 -13
-20 -7 -20 15 0 16 -27 1 -36 -6 -3 -16 -1 -22 5 -16 16 -24 14 -30 -9 -4 -16
-11 -19 -37 -13 -30 6 -32 5 -25 -18 11 -37 19 -41 51 -25 16 8 47 23 69 33
22 10 44 24 48 31 4 6 18 12 31 12 13 0 31 9 40 19 16 18 16 20 -15 35 -38 19
-36 19 -44 6z"/>
<path d="M3725 1320 c3 -5 15 -10 26 -10 10 0 19 5 19 10 0 6 -12 10 -26 10
-14 0 -23 -4 -19 -10z"/>
<path d="M3912 1311 c-11 -7 -10 -10 3 -15 19 -7 35 0 35 15 0 11 -20 12 -38
0z"/>
<path d="M5373 1100 c-6 -14 -28 -43 -49 -65 -22 -23 -55 -61 -74 -85 -19 -25
-48 -59 -65 -76 -16 -17 -42 -44 -56 -60 -63 -70 -345 -294 -370 -294 -6 0
-17 -7 -25 -15 -9 -8 -24 -15 -35 -15 -11 0 -22 -7 -25 -15 -4 -8 -14 -15 -24
-15 -11 0 -22 -5 -25 -11 -4 -5 -18 -14 -31 -19 -13 -5 -24 -14 -24 -20 0 -15
38 -12 73 6 18 9 41 21 51 26 196 100 332 199 499 365 8 9 87 117 124 171 13
18 30 47 39 65 9 17 21 35 26 38 6 4 8 15 6 25 -4 17 -6 16 -15 -6z"/>
<path d="M5162 1028 c-7 -7 -12 -19 -12 -28 0 -8 -21 -31 -46 -50 -25 -19 -80
-68 -121 -107 -42 -40 -80 -73 -85 -73 -4 0 -27 -17 -51 -38 -23 -21 -60 -49
-82 -63 -22 -14 -67 -43 -100 -64 -132 -84 -165 -107 -165 -116 0 -12 26 -11
48 1 9 5 28 15 42 20 14 6 39 19 55 30 17 11 37 23 45 27 105 50 406 303 441
370 8 15 26 42 41 58 16 17 28 33 28 38 0 11 -25 8 -38 -5z"/>
<path d="M4505 390 c-4 -6 7 -10 24 -10 17 0 31 5 31 10 0 6 -11 10 -24 10
-14 0 -28 -4 -31 -10z"/>
<path d="M4405 360 c-4 -6 6 -10 24 -10 16 0 33 5 36 10 4 6 -6 10 -24 10 -16
0 -33 -4 -36 -10z"/>
</g>
</svg>
